<?xml version="1.0" encoding="UTF-8"?>
<svg xmlns="http://www.w3.org/2000/svg" version="1.1" xmlns:xlink="http://www.w3.org/1999/xlink" viewBox="0 0 1298 1080">
  <defs>
    <style>
      .cls-1 {
        fill: #002894;
        opacity: .3;
      }

      .cls-1, .cls-2, .cls-3, .cls-4, .cls-5, .cls-6, .cls-7 {
        mix-blend-mode: multiply;
      }

      .cls-8, .cls-9 {
        mix-blend-mode: lighten;
      }

      .cls-10 {
        opacity: .5;
      }

      .cls-10, .cls-11, .cls-12 {
        mix-blend-mode: overlay;
      }

      .cls-13 {
        fill: #b631de;
      }

      .cls-14 {
        fill: url(#Degradado_sin_nombre_58);
      }

      .cls-15 {
        fill: url(#Degradado_sin_nombre_7-9);
      }

      .cls-16 {
        fill: url(#Degradado_sin_nombre_7-3);
      }

      .cls-17 {
        fill: url(#Degradado_sin_nombre_3-3);
      }

      .cls-18 {
        fill: url(#Naranja_amarillo);
      }

      .cls-19 {
        fill: url(#Degradado_sin_nombre_2-4);
      }

      .cls-2 {
        fill: url(#Degradado_sin_nombre_63-4);
      }

      .cls-20 {
        fill: url(#Degradado_sin_nombre_55-3);
      }

      .cls-21 {
        fill: #8d02af;
      }

      .cls-22 {
        fill: #c83bea;
      }

      .cls-9 {
        fill: #008bb2;
      }

      .cls-23 {
        fill: url(#Degradado_sin_nombre_3-5);
      }

      .cls-24 {
        fill: #e9a4ff;
      }

      .cls-3 {
        fill: url(#Degradado_sin_nombre_63-2);
      }

      .cls-25 {
        fill: #007e93;
      }

      .cls-4 {
        fill: url(#Degradado_sin_nombre_63);
      }

      .cls-11 {
        fill: #fff;
        opacity: .6;
      }

      .cls-26 {
        fill: url(#Degradado_sin_nombre_7-8);
      }

      .cls-27 {
        fill: url(#Degradado_sin_nombre_3-2);
      }

      .cls-28 {
        fill: url(#Degradado_sin_nombre_2);
      }

      .cls-29 {
        isolation: isolate;
      }

      .cls-30 {
        fill: url(#Degradado_sin_nombre_32);
      }

      .cls-5 {
        fill: #3b00a0;
        opacity: .2;
      }

      .cls-31 {
        fill: url(#Degradado_sin_nombre_7-4);
      }

      .cls-32 {
        fill: url(#Degradado_sin_nombre_7);
      }

      .cls-33 {
        fill: #6035d8;
      }

      .cls-34 {
        fill: url(#Degradado_sin_nombre_7-7);
      }

      .cls-6 {
        fill: url(#Degradado_sin_nombre_63-3);
      }

      .cls-35 {
        fill: url(#Degradado_sin_nombre_55-2);
      }

      .cls-36 {
        fill: url(#Degradado_sin_nombre_3-6);
      }

      .cls-37 {
        fill: url(#Degradado_sin_nombre_7-10);
      }

      .cls-38 {
        fill: #7554ea;
      }

      .cls-39 {
        fill: url(#Degradado_sin_nombre_3);
      }

      .cls-40 {
        fill: #ac21ce;
      }

      .cls-41 {
        fill: url(#Degradado_sin_nombre_7-12);
      }

      .cls-12 {
        fill: url(#Degradado_sin_nombre_55);
      }

      .cls-42 {
        fill: #4505b3;
      }

      .cls-43 {
        fill: url(#Degradado_sin_nombre_2-3);
      }

      .cls-44 {
        fill: #f9fbfc;
      }

      .cls-45 {
        fill: url(#Degradado_sin_nombre_7-11);
      }

      .cls-46 {
        fill: url(#Degradado_sin_nombre_7-6);
      }

      .cls-7 {
        fill: #ffa255;
        opacity: .8;
      }

      .cls-47 {
        fill: url(#Degradado_sin_nombre_7-5);
      }

      .cls-48 {
        fill: #2d2463;
      }

      .cls-49 {
        fill: url(#Degradado_sin_nombre_55-4);
      }

      .cls-50 {
        fill: url(#Degradado_sin_nombre_3-4);
      }

      .cls-51 {
        fill: url(#Degradado_sin_nombre_7-2);
      }

      .cls-52 {
        fill: #db6ff7;
      }

      .cls-53 {
        fill: url(#Degradado_sin_nombre_2-2);
      }

      .cls-54 {
        display: none;
        fill: url(#Degradado_sin_nombre_1093);
      }
    </style>
    <linearGradient id="Degradado_sin_nombre_3" data-name="Degradado sin nombre 3" x1="1131.2" y1="786" x2="938.9" y2="849" gradientUnits="userSpaceOnUse">
      <stop offset="0" stop-color="#e8e9ff"/>
      <stop offset="1" stop-color="#c0c0f6"/>
    </linearGradient>
    <linearGradient id="Degradado_sin_nombre_7" data-name="Degradado sin nombre 7" x1="1149.8" y1="813.7" x2="936.2" y2="872.2" gradientUnits="userSpaceOnUse">
      <stop offset="0" stop-color="#b6b9fe"/>
      <stop offset="1" stop-color="#5861d6"/>
    </linearGradient>
    <linearGradient id="Degradado_sin_nombre_7-2" data-name="Degradado sin nombre 7" x1="979" y1="932.6" x2="755.3" y2="992.7" xlink:href="#Degradado_sin_nombre_7"/>
    <linearGradient id="Degradado_sin_nombre_3-2" data-name="Degradado sin nombre 3" x1="963.3" y1="935.9" x2="753.7" y2="956.3" xlink:href="#Degradado_sin_nombre_3"/>
    <linearGradient id="Degradado_sin_nombre_7-3" data-name="Degradado sin nombre 7" x1="594.8" y1="693.5" x2="364.7" y2="671.8" xlink:href="#Degradado_sin_nombre_7"/>
    <linearGradient id="Degradado_sin_nombre_3-3" data-name="Degradado sin nombre 3" x1="602.3" y1="654.8" x2="238.7" y2="720.5" xlink:href="#Degradado_sin_nombre_3"/>
    <linearGradient id="Degradado_sin_nombre_2" data-name="Degradado sin nombre 2" x1="464.5" y1="690" x2="532.6" y2="690" gradientUnits="userSpaceOnUse">
      <stop offset="0" stop-color="#3a55ca"/>
      <stop offset="1" stop-color="#2d2463"/>
    </linearGradient>
    <linearGradient id="Degradado_sin_nombre_3-4" data-name="Degradado sin nombre 3" x1="1057.5" y1="676" x2="509.3" y2="804.2" xlink:href="#Degradado_sin_nombre_3"/>
    <linearGradient id="Degradado_sin_nombre_58" data-name="Degradado sin nombre 58" x1="804.2" y1="935" x2="804.2" y2="603.7" gradientUnits="userSpaceOnUse">
      <stop offset="0" stop-color="#fff"/>
      <stop offset="1" stop-color="#fff" stop-opacity="0"/>
    </linearGradient>
    <linearGradient id="Degradado_sin_nombre_7-4" data-name="Degradado sin nombre 7" x1="1307.7" y1="691.2" x2="561.4" y2="856.6" xlink:href="#Degradado_sin_nombre_7"/>
    <linearGradient id="Degradado_sin_nombre_7-5" data-name="Degradado sin nombre 7" x1="899.1" y1="1027.9" x2="217.5" y2="508.4" xlink:href="#Degradado_sin_nombre_7"/>
    <linearGradient id="Degradado_sin_nombre_7-6" data-name="Degradado sin nombre 7" x1="1107.4" y1="754.6" x2="425.9" y2="235.1" xlink:href="#Degradado_sin_nombre_7"/>
    <linearGradient id="Degradado_sin_nombre_2-2" data-name="Degradado sin nombre 2" x1="933.9" y1="636.5" x2="979" y2="636.5" xlink:href="#Degradado_sin_nombre_2"/>
    <linearGradient id="Degradado_sin_nombre_2-3" data-name="Degradado sin nombre 2" x1="673.1" y1="842" x2="569.5" y2="806.2" xlink:href="#Degradado_sin_nombre_2"/>
    <linearGradient id="Degradado_sin_nombre_55" data-name="Degradado sin nombre 55" x1="1269" y1="551.2" x2="490.7" y2="771.7" gradientUnits="userSpaceOnUse">
      <stop offset="0" stop-color="#fff"/>
      <stop offset="1" stop-color="#fff" stop-opacity="0"/>
    </linearGradient>
    <linearGradient id="Degradado_sin_nombre_55-2" data-name="Degradado sin nombre 55" x1="990.4" y1="647.3" x2="872" y2="603.5" xlink:href="#Degradado_sin_nombre_55"/>
    <linearGradient id="Degradado_sin_nombre_55-3" data-name="Degradado sin nombre 55" x1="889.9" y1="918.4" x2="771.5" y2="874.6" xlink:href="#Degradado_sin_nombre_55"/>
    <linearGradient id="Degradado_sin_nombre_55-4" data-name="Degradado sin nombre 55" x1="995" y1="634.8" x2="876.6" y2="591" xlink:href="#Degradado_sin_nombre_55"/>
    <linearGradient id="Degradado_sin_nombre_1093" data-name="Degradado sin nombre 1093" x1="-619.3" y1="487.8" x2="-17.8" y2="713" gradientTransform="translate(731.9) rotate(-180) scale(1 -1)" gradientUnits="userSpaceOnUse">
      <stop offset="0" stop-color="#fff"/>
      <stop offset="1" stop-color="#fff" stop-opacity="0"/>
    </linearGradient>
    <linearGradient id="Degradado_sin_nombre_63" data-name="Degradado sin nombre 63" x1="729.7" y1="798.8" x2="636.8" y2="738.8" gradientUnits="userSpaceOnUse">
      <stop offset="0" stop-color="#5861d6"/>
      <stop offset="1" stop-color="#fff" stop-opacity="0"/>
    </linearGradient>
    <linearGradient id="Degradado_sin_nombre_63-2" data-name="Degradado sin nombre 63" x1="908.3" y1="520.7" x2="874.3" y2="539.5" xlink:href="#Degradado_sin_nombre_63"/>
    <linearGradient id="Degradado_sin_nombre_63-3" data-name="Degradado sin nombre 63" x1="723.9" y1="727.6" x2="755.8" y2="705.9" xlink:href="#Degradado_sin_nombre_63"/>
    <linearGradient id="Degradado_sin_nombre_63-4" data-name="Degradado sin nombre 63" x1="806.8" y1="654.1" x2="838.7" y2="632.3" xlink:href="#Degradado_sin_nombre_63"/>
    <linearGradient id="Degradado_sin_nombre_3-5" data-name="Degradado sin nombre 3" x1="974.1" y1="321" x2="718.1" y2="756" xlink:href="#Degradado_sin_nombre_3"/>
    <linearGradient id="Degradado_sin_nombre_7-7" data-name="Degradado sin nombre 7" x1="961" y1="312.2" x2="678.4" y2="737.5" xlink:href="#Degradado_sin_nombre_7"/>
    <linearGradient id="Degradado_sin_nombre_7-8" data-name="Degradado sin nombre 7" x1="979.3" y1="324.4" x2="696.7" y2="749.6" xlink:href="#Degradado_sin_nombre_7"/>
    <linearGradient id="Degradado_sin_nombre_7-9" data-name="Degradado sin nombre 7" x1="970.3" y1="318.4" x2="687.7" y2="743.6" xlink:href="#Degradado_sin_nombre_7"/>
    <linearGradient id="Degradado_sin_nombre_7-10" data-name="Degradado sin nombre 7" x1="992.7" y1="333.3" x2="710.2" y2="758.5" xlink:href="#Degradado_sin_nombre_7"/>
    <linearGradient id="Degradado_sin_nombre_7-11" data-name="Degradado sin nombre 7" x1="999.5" y1="337.8" x2="717" y2="763.1" xlink:href="#Degradado_sin_nombre_7"/>
    <linearGradient id="Degradado_sin_nombre_7-12" data-name="Degradado sin nombre 7" x1="734" y1="973.7" x2="361.4" y2="932.1" xlink:href="#Degradado_sin_nombre_7"/>
    <linearGradient id="Degradado_sin_nombre_3-6" data-name="Degradado sin nombre 3" x1="681.4" y1="964.2" x2="313.8" y2="842.8" xlink:href="#Degradado_sin_nombre_3"/>
    <linearGradient id="Degradado_sin_nombre_2-4" data-name="Degradado sin nombre 2" x1="559.5" y1="920.8" x2="439.7" y2="867.1" xlink:href="#Degradado_sin_nombre_2"/>
    <linearGradient id="Naranja_amarillo" data-name="Naranja, amarillo" x1="107.5" y1="672" x2="713" y2="672" gradientTransform="translate(-5.6 57.2) rotate(-2.3)" gradientUnits="userSpaceOnUse">
      <stop offset="0" stop-color="#ffef26"/>
      <stop offset="0" stop-color="#fee921"/>
      <stop offset=".1" stop-color="#fdd70e"/>
      <stop offset=".2" stop-color="#fdcb03"/>
      <stop offset=".3" stop-color="#fdc800"/>
      <stop offset=".7" stop-color="#f18f34"/>
      <stop offset=".9" stop-color="#e95f32"/>
      <stop offset="1" stop-color="#e3312d"/>
    </linearGradient>
    <linearGradient id="Degradado_sin_nombre_32" data-name="Degradado sin nombre 32" x1="1167.5" y1="-1044.2" x2="1461.1" y2="-1044.2" gradientTransform="translate(2037.4 1719.6) rotate(-89)" gradientUnits="userSpaceOnUse">
      <stop offset="0" stop-color="#00eced"/>
      <stop offset=".1" stop-color="#05dae9"/>
      <stop offset=".4" stop-color="#13aede"/>
      <stop offset=".7" stop-color="#2967ce"/>
      <stop offset="1" stop-color="#3c2dc1"/>
    </linearGradient>
  </defs>
  <!-- Generator: Adobe Illustrator 28.6.0, SVG Export Plug-In . SVG Version: 1.2.0 Build 709)  -->
  <g class="cls-29">
    <g id="Cambiar">
      <g>
        <g class="cls-29">
          <path class="cls-48" d="M1054.6,811.7c1.8,1,2,2.6.5,3.5l-50.8,29.5c-1.5.9-4.2.8-6-.2l-1-.6c-1.8-1-2-2.6-.4-3.5l50.8-29.5c1.5-.9,4.2-.8,6,.3l1,.6Z"/>
          <path class="cls-39" d="M1116.4,803l-13.1,44.2-23.7-22.8-57.1,33.2c-13.6,7.9-35.8,7.9-49.5,0l-18.1-10.5c-13.7-7.9-13.7-20.8-.2-28.7l101.4-58.9c13.6-7.9,35.8-7.9,49.5,0l18.1,10.5c13.7,7.9,13.7,20.8.2,28.7l-7.5,4.4ZM985.5,833.4l96.7-56.2c1.7-1,1.5-2.8-.5-4-2-1.2-5.1-1.3-6.9-.3l-96.7,56.2c-1.7,1-1.5,2.8.5,4s5.1,1.3,6.9.3M1004.2,844.7l50.8-29.5c1.5-.9,1.3-2.4-.5-3.5l-1-.6c-1.8-1-4.5-1.1-6-.3l-50.8,29.5c-1.5.9-1.3,2.5.4,3.5l1,.6c1.8,1,4.5,1.1,6,.2"/>
          <path class="cls-48" d="M1081.6,773.2c2,1.2,2.3,3,.5,4l-96.7,56.2c-1.7,1-4.9.9-6.9-.3-2-1.2-2.2-3-.5-4l96.7-56.2c1.7-1,4.8-.9,6.9.3Z"/>
          <path class="cls-32" d="M1133.9,785.4c0,.4,0,.7-.1,1.1,0,.3-.1.6-.2.9,0,.4-.2.7-.3,1.1-.1.3-.2.6-.4.9-.2.4-.3.7-.5,1.1-.1.3-.3.5-.5.8-.3.4-.5.8-.8,1.2-.2.2-.4.5-.6.7-.4.5-.9,1.1-1.5,1.6-.2.2-.4.4-.6.6-.3.3-.7.6-1.1.9-.3.3-.6.5-1,.8-.4.3-.8.5-1.2.8-.4.3-.9.6-1.3.9l-7.5,4.4-13.1,44.2-23.7-22.8-57.1,33.2c-1,.6-2.1,1.1-3.3,1.7-.3.1-.7.3-1,.4-.9.4-1.8.7-2.7,1-.3.1-.7.2-1,.4-.6.2-1.2.3-1.8.5-.5.1-.9.3-1.4.4-.6.2-1.3.3-1.9.4-.4,0-.9.2-1.3.3-1.3.2-2.6.4-4,.6-.4,0-.8,0-1.2.1-.8,0-1.6.1-2.4.2-.5,0-1,0-1.5,0-.6,0-1.3,0-1.9,0-.5,0-1.1,0-1.6,0-.6,0-1.2,0-1.8,0-.5,0-1.1,0-1.6-.1-.6,0-1.2-.1-1.8-.2-.5,0-1-.1-1.6-.2-.6,0-1.2-.2-1.9-.3-.5,0-1-.2-1.5-.3-.7-.2-1.5-.3-2.2-.5-.4-.1-.8-.2-1.2-.3-1.3-.4-2.5-.8-3.7-1.3-.6-.2-1.2-.5-1.7-.7-.3-.1-.6-.3-.9-.4-.9-.4-1.7-.9-2.6-1.3l-18.1-10.5c-6.9-4-10.3-9.2-10.3-14.4v16.6c0,5.2,3.4,10.5,10.3,14.4l18.1,10.5c.8.5,1.7.9,2.6,1.3.3.1.6.3.9.4.5.2,1,.5,1.6.7,0,0,.1,0,.2,0,1.2.5,2.5.9,3.7,1.3,0,0,.2,0,.3,0,.3,0,.6.1.9.2.7.2,1.4.4,2.2.5.2,0,.4,0,.6.1.3,0,.6,0,.9.2.6.1,1.2.2,1.9.3.2,0,.5,0,.7.1.3,0,.6,0,.8,0,.6,0,1.2.1,1.8.2.3,0,.5,0,.8,0,.3,0,.5,0,.8,0,.6,0,1.2,0,1.8,0,.3,0,.6,0,.9,0,.2,0,.5,0,.7,0,.7,0,1.3,0,2,0,.3,0,.6,0,.9,0,.2,0,.4,0,.6,0,.8,0,1.6,0,2.4-.2.3,0,.6,0,.9,0,0,0,.2,0,.3,0,1.3-.1,2.7-.3,4-.6,0,0,.1,0,.2,0,.4,0,.8-.2,1.1-.2.6-.1,1.3-.3,1.9-.4.5-.1.9-.2,1.4-.4.6-.2,1.2-.3,1.8-.5.1,0,.3,0,.4-.1.2,0,.4-.2.6-.2.9-.3,1.8-.7,2.7-1,.3-.1.7-.3,1-.4,1.1-.5,2.2-1.1,3.3-1.7l57.1-33.2,23.7,22.8,13.1-44.2,7.5-4.4c.1,0,.3-.2.4-.2.3-.2.6-.4.9-.6.4-.3.8-.5,1.2-.8.4-.3.7-.5,1-.8.4-.3.7-.6,1-.9,0,0,.1-.1.2-.2.1-.1.2-.3.4-.4.5-.5,1-1.1,1.5-1.6,0-.1.2-.2.3-.3,0-.1.2-.2.2-.4.3-.4.6-.8.8-1.2.1-.2.2-.3.3-.5,0,0,0-.2.1-.3.2-.4.4-.7.5-1.1,0-.2.2-.4.3-.6,0,0,0-.2,0-.2.1-.4.2-.7.3-1.1,0-.2.2-.5.2-.7,0,0,0-.1,0-.2,0-.4,0-.7.1-1.1,0-.2,0-.5,0-.7,0-.1,0-.2,0-.3v-16.6c0,.3,0,.7,0,1Z"/>
        </g>
        <g>
          <g class="cls-29">
            <path class="cls-51" d="M979.4,918.4c0,.6,0,1.2-.2,1.8,0,.3-.1.6-.2,1-.1.5-.3,1.1-.5,1.6-.1.3-.2.6-.4,1-.2.6-.5,1.1-.8,1.7-.2.3-.3.6-.5,1,0,.2-.2.3-.3.5-.4.6-.8,1.2-1.2,1.8,0,0-.1.2-.2.2-.5.7-1.1,1.3-1.7,1.9-.2.2-.3.3-.5.5-.5.5-1,1-1.5,1.4-.2.2-.4.3-.6.5-.7.6-1.5,1.2-2.3,1.8-.5.4-1.1.8-1.8,1.2-.2.1-.4.2-.6.3l-102.3,59.4c-.9.5-1.8,1-2.8,1.4-.3.1-.7.3-1,.4-.6.3-1.3.5-2,.7-.9.3-1.9.5-2.8.8-.3,0-.6.1-.8.2-.9.2-1.8.4-2.7.5-1.2.3-2.5.5-3.7.8-.2,0-.5,0-.8.1-1.9.3-3.8.6-5.7.8,0,0-.1,0-.2,0-1.5.1-3.1.2-4.6.3-.4,0-.8,0-1.2,0-1.4,0-2.8,0-4.3,0,0,0-.1,0-.2,0-1.4,0-2.8-.1-4.3-.2-.4,0-.8,0-1.2-.1-1.1,0-2.1-.2-3.2-.4-.4,0-.8,0-1.1-.2-1.4-.2-2.8-.5-4.2-.7-.2,0-.4,0-.6-.1-1.4-.3-2.7-.6-4-1-.3,0-.6-.2-.9-.3-1.7-.5-3.4-1.1-5.1-1.7-.3-.1-.7-.3-1-.4-.8-.3-1.5-.7-2.3-1-.3-.2-.7-.3-1-.5-1.1-.5-2.1-1.1-3.1-1.6-8.3-4.8-13-11-14.1-17.3v-5.4c-.4-.3-.8-.5-1.2-.8v-12.2c-2.1-2-3.9-4.2-5.3-6.4-2.3-3.7-3.4-7.5-3.4-11.4v13.4c0,4.7,1.7,9.5,5.1,13.9v10c0,1.2.4,2.5,1.2,3.6.7,1.1,1.9,2.2,3.3,3.1v2.9c0,7.2,4.7,14.5,14.3,20,1,.6,2.1,1.1,3.1,1.7.3.2.7.3,1,.5.8.3,1.5.7,2.3,1,.2,0,.4.2.6.2.1,0,.3,0,.4.1,1.6.6,3.3,1.2,5.1,1.7.1,0,.2,0,.3.1.2,0,.4,0,.6.1,1.3.4,2.7.7,4,1,.2,0,.3,0,.4.1,0,0,.1,0,.2,0,1.4.3,2.8.5,4.2.7.1,0,.2,0,.4,0,.2,0,.5,0,.8,0,1.1.1,2.1.3,3.2.4.2,0,.5,0,.7,0,.2,0,.3,0,.5,0,1.4.1,2.8.2,4.3.2,0,0,0,0,0,0,0,0,0,0,.1,0,1.4,0,2.8,0,4.3,0,.2,0,.4,0,.6,0,.2,0,.4,0,.6,0,1.5,0,3.1-.2,4.6-.3,0,0,0,0,.1,0,0,0,0,0,0,0,1.9-.2,3.8-.5,5.7-.8.1,0,.3,0,.5,0,.1,0,.2,0,.3,0,1.2-.2,2.5-.5,3.7-.8.5,0,1-.2,1.5-.2.4,0,.8-.2,1.2-.3.3,0,.6-.1.8-.2.9-.2,1.9-.5,2.8-.8,0,0,0,0,0,0,.7-.2,1.3-.5,2-.7.3-.1.7-.2,1-.4,1-.4,1.9-.9,2.8-1.4l102.3-59.4c.1,0,.2-.1.4-.2,0,0,.1,0,.2-.1.6-.4,1.2-.8,1.8-1.2.8-.6,1.5-1.2,2.3-1.8.2-.2.4-.3.6-.5.2-.2.4-.4.6-.5.3-.3.6-.6.9-.9.2-.2.3-.3.5-.5.6-.6,1.1-1.2,1.6-1.8,0,0,0,0,0,0,0,0,.1-.2.2-.2.4-.6.8-1.2,1.2-1.8,0-.2.2-.3.3-.5,0-.1.1-.2.2-.3.1-.2.2-.4.3-.6.3-.6.6-1.1.8-1.7,0-.1.1-.3.2-.4,0-.2,0-.4.2-.5.2-.5.3-1.1.5-1.6,0-.2.1-.4.2-.6,0-.1,0-.3,0-.4.1-.6.2-1.2.2-1.8,0-.2,0-.4,0-.6,0-.1,0-.3,0-.4v-13.4c0,.4,0,.7,0,1.1Z"/>
          </g>
          <path class="cls-27" d="M965.2,897.4c17.8,10.3,19,26.5,3.5,37.6-.7.5-1.5,1.1-2.3,1.6l-102.3,59.4c-3.5,2-7.7,3.3-12.1,4-17.5,4.2-38.4,2.1-52.7-6.1-10.7-6.2-15.4-14.6-14-22.7-5.9-3.6-6.3-9.1-1.1-12.9-13.8-13-11.1-30.2,8.2-41.5,12.9-7.5,30.4-10.7,47.3-9.7,1.9-3.5,5.2-6.7,10-9.5,14.2-8.2,36.3-9.2,52.3-2.8,18.9-8.3,46-7.4,63.3,2.6Z"/>
          <g>
            <path class="cls-48" d="M869.9,920.8l-8.5-1.3c-1.1-.2-2.2.4-2.5,1l-1.3,2.8h0c-2.6,0-5.7.1-8.5.6l-2.6-2.5c-.6-.6-1.8-.8-2.8-.4l-7.7,2.5c-1,.3-1.3,1-.8,1.6l2.5,2.5h0c-2.1,1.1-3.8,2.2-5.3,3.9l-4.9-.8c-1.1-.2-2.3.2-2.6.9l-2.3,4.9c-.3.6.6,1,1.6,1.2l4.9.8h0c-.2,1.9.2,3.4,1,5l-4.5,1.6c-1,.3-1.3,1-.8,1.6l4.4,4.4c.6.6,1.8.8,2.8.4l4.4-1.5h0c1.9,1.2,3.9,2.2,6.8,3l-1.3,2.8c-.3.6.3,1.1,1.4,1.3l8.5,1.3c1.1.2,1.9,0,2.2-.7l1.3-2.8h0c3.3.1,5.8-.1,8.6-.6l2.7,2.6c.6.6,1.8.8,2.8.4l7.7-2.5c1-.3,1.3-1.1.8-1.6l-2.5-2.6h0c2.1-1.2,3.8-2.4,5.3-4.1l4.9.8c1.1.2,2,0,2.3-.6l2.3-4.9c.3-.6-.2-1.3-1.3-1.5l-4.9-.8h0c.2-1.9-.3-3.3-1.1-4.9l4.4-1.4c1-.3,1.3-1,.8-1.6l-4.4-4.4c-.6-.6-1.8-.8-2.8-.4l-4.4,1.5h0c-1.9-1.2-4-2.2-6.9-3.1l1.3-2.8c.3-.6,0-1.4-1.1-1.6ZM844,940.1c-.2-.9,0-1.8.4-2.8.5-1.2,1.5-2.2,2.9-3,.1,0,.3-.2.4-.3,0,0,.1,0,.2-.1.1,0,.3-.2.5-.2.2,0,.3-.2.5-.2,0,0,.2,0,.2-.1.3-.1.7-.3,1-.4,0,0,.2,0,.3,0,.2,0,.4-.1.5-.2,0,0,.2,0,.3,0,.2,0,.4-.1.6-.1,0,0,.2,0,.3,0,.1,0,.3,0,.4,0,.2,0,.3,0,.5,0,.2,0,.4,0,.6,0,.3,0,.5,0,.8-.1.1,0,.3,0,.4,0,.2,0,.4,0,.6,0,.3,0,.6,0,.9,0,.2,0,.4,0,.6,0,1,0,2.1,0,3.2.3,1.9.3,3.6.8,5,1.5.2.1.5.2.7.4.1,0,.3.2.4.3.1,0,.3.2.4.3.3.2.6.5.9.7.1,0,.2.2.3.3.2.2.3.3.4.5,0,.1.2.2.3.3,0,0,0,.1.1.2,0,.1.1.2.2.3,0,.2.2.3.3.5,0,.1.1.2.1.3.4,1.1.4,2.3-.2,3.4-.5,1-1.2,1.9-2.3,2.6-.1,0-.3.2-.4.3-.4.3-.8.5-1.3.8-.2,0-.3.2-.5.2,0,0-.2,0-.2.1-.2.1-.5.2-.8.3-2.9,1.1-6.6,1.5-10.2.9-1.7-.3-3.3-.7-4.6-1.3-.6-.3-1.1-.5-1.6-.8-.2-.1-.3-.2-.5-.3-.4-.3-.7-.5-1-.8s-.6-.6-.8-.9c0,0,0-.1-.1-.2,0-.1-.1-.2-.2-.3,0-.1-.1-.2-.2-.3-.1-.2-.2-.5-.3-.7,0,0,0-.2,0-.2,0,0,0-.2,0-.2Z"/>
            <path class="cls-48" d="M911,922.8l-5.5.4c-.7,0-1.1.5-1.1.9l.4,1.8h0c-1.5.4-3.3.9-4.7,1.5l-2.5-1.1c-.6-.3-1.4-.2-1.8.1l-3.4,2.5c-.4.3-.3.8.2,1l2.5,1.1h0c-.7.9-1.3,1.8-1.5,3l-3.2.2c-.7,0-1.3.5-1.2.9l.7,3.2c0,.4.8.5,1.5.5l3.2-.2h0c.7,1.1,1.5,2,2.7,2.8l-1.9,1.5c-.4.3-.3.8.2,1l4.4,2c.6.3,1.4.2,1.8-.1l2-1.5h0c1.6.4,3.2.7,5.2.8l.4,1.8c0,.4.6.6,1.3.5l5.5-.4c.7,0,1.1-.3,1-.7l-.4-1.8h0c1.9-.4,3.3-.9,4.8-1.5l2.6,1.1c.6.3,1.4.2,1.8-.1l3.4-2.5c.4-.3.3-.8-.2-1.1l-2.5-1.2h0c.7-1,1.3-1.9,1.4-3.1l3.2-.2c.7,0,1.2-.2,1.1-.6l-.7-3.2c0-.4-.7-.7-1.4-.7l-3.2.2h0c-.7-1.1-1.5-1.9-2.6-2.7l2-1.4c.4-.3.3-.8-.2-1l-4.4-2c-.6-.3-1.4-.2-1.8.1l-2,1.5h0c-1.6-.4-3.2-.7-5.3-.8l-.4-1.8c0-.4-.6-.8-1.3-.8ZM903.8,937.5c-.5-.5-.8-1.1-.9-1.7-.2-.7,0-1.5.4-2.1,0,0,0-.1.1-.2,0,0,0,0,0-.1,0,0,.1-.1.2-.2,0,0,.1-.1.2-.2,0,0,0,0,0,0,.1-.1.3-.2.4-.4,0,0,0,0,.1,0,0,0,.2-.1.2-.2,0,0,0,0,.1,0,0,0,.2-.1.3-.2,0,0,0,0,.1,0,0,0,.1,0,.2-.1,0,0,.2,0,.2-.1,0,0,.2,0,.3-.1.1,0,.3-.1.4-.2,0,0,.1,0,.2,0,.1,0,.2,0,.3-.1.2,0,.3-.1.5-.2.1,0,.2,0,.4,0,.6-.1,1.3-.2,1.9-.3,1.2,0,2.4,0,3.5.2.2,0,.4,0,.5.1.1,0,.2,0,.4,0,.1,0,.2,0,.3.1.3,0,.6.2.8.3.1,0,.2,0,.3.1.2,0,.3.1.4.2,0,0,.2,0,.3.2,0,0,0,0,.1,0,0,0,.2.1.3.2.1,0,.2.2.4.3,0,0,.2.1.2.2.7.6,1.2,1.3,1.3,2,.1.6,0,1.2-.2,1.8,0,0,0,.1-.1.2-.1.2-.3.4-.4.6,0,0-.1.1-.2.2,0,0,0,0,0,0,0,0-.2.2-.3.3-1.2,1-3.2,1.8-5.5,1.9-1.1,0-2.2,0-3.2-.1-.4,0-.8-.2-1.3-.3-.1,0-.3,0-.4-.1-.3-.1-.6-.2-.9-.3-.3-.1-.6-.3-.8-.4,0,0,0,0-.1,0,0,0-.2-.1-.3-.2,0,0-.2-.1-.2-.2-.2-.1-.3-.2-.4-.4,0,0,0,0-.1-.1,0,0,0,0-.1-.1Z"/>
          </g>
        </g>
        <g>
          <path class="cls-16" d="M606.6,663.1c0-7-3.5-14.1-10.4-18.1l-84-48.5c-6.4-3.7-14.4-3.7-20.8,0l-134,77.3c-7,4-10.4,11.1-10.4,18.1h0v.2h0v.2h0v.2h0v.2h0v.2h0v.2h0v.2h0v.2h0v.2h0v.2h0v.2h0v.2h0v.2h0v.2h0v.2h0v.2h0v.2h0v.2h0v.2h0v.2h0v.2h0v.2h0v.2h0v.2h0v.2h0v.2h0v.2h0v.2h0v.2h0v.2h0v.2h0v.2h0v.2h0v.2h0v.2h0v.2h0v.2h0v.2h0v.2h0v.2h0v.2h0v.2h0v.2h0v.2h0v.2h0v.2h0v.2h0v.2h0v.2h0v.2c0,7,3.5,14.1,10.4,18.1l84,48.5c6.4,3.7,14.4,3.7,20.8,0l134-77.3c7-4,10.4-11.1,10.4-18.1h0v-.2h0v-.2h0v-.2h0v-.2h0v-.2h0v-.2h0v-.2h0v-.2h0v-.2h0v-.2h0v-.2h0v-.2h0v-.2h0v-.2h0v-.2h0v-.2h0v-.2h0v-.2h0v-.2h0v-.2h0v-.2h0v-.2h0v-.2h0v-.2h0v-.2h0v-.2h0v-.2h0v-.2h0v-.2h0v-.2h0v-.2h0v-.2h0v-.2h0v-.2h0v-.2h0v-.2h0v-.2h0v-.2h0v-.2h0v-.2h0v-.2h0v-.2h0v-.2h0v-.2h0v-.2h0v-.2h0v-.2h0v-.2h0v-.2h0v-.2Z"/>
          <path class="cls-17" d="M441.4,758.4l-84-48.5c-13.9-8-13.9-28.1,0-36.1l134-77.3c6.4-3.7,14.4-3.7,20.8,0l84,48.5c13.9,8,13.9,28.1,0,36.1l-134,77.3c-6.4,3.7-14.4,3.7-20.8,0Z"/>
          <g>
            <path class="cls-48" d="M439.4,733.4c-1,.2-2,.3-3.1.3-2.8,0-5.6-.7-7.5-1.8l-54.5-31.5c-3.5-2-3.8-4.9-.8-6.7l130.5-75.3c1.5-.9,3.7-1.4,6.1-1.4,2.8,0,5.6.7,7.5,1.8l54.5,31.5c3.5,2,3.8,4.9.8,6.7l-130.5,75.3c-.8.5-1.9.8-3.1,1.1ZM508.9,618.4c-.8.1-1.3.4-1.7.6l-130.5,75.3c-2.4,1.4-2,3.9.8,5.5l54.5,31.5c1.3.7,2.9,1.2,4.4,1.2,1.4,0,2.4-.4,3-.7l130.5-75.3c2.4-1.4,2-3.9-.8-5.5l-54.5-31.5c-1.3-.7-2.9-1.2-4.4-1.2-.5,0-.9,0-1.3.1Z"/>
            <path class="cls-28" d="M532,672.9l-63,36.4c-.9.5-2.5.5-3.5-.1h0c-1-.6-1.2-1.5-.3-2l63-36.4c.9-.5,2.5-.5,3.5.1h0c1,.6,1.2,1.5.3,2Z"/>
            <g>
              <g>
                <polygon class="cls-48" points="464.2 692.4 430.5 690.3 430.7 689.1 462.3 691.1 463.3 665.4 495.6 661.9 496.9 641.8 498.9 641.9 497.5 662.9 465.3 666.4 464.2 692.4"/>
                <polygon class="cls-48" points="505 643.2 498.3 635.9 490.6 642.9 505 643.2"/>
              </g>
              <path class="cls-44" d="M435.3,687c2.6,1.5,2.6,3.9,0,5.4-2.6,1.5-6.7,1.5-9.3,0-2.6-1.5-2.6-3.9,0-5.4,2.6-1.5,6.7-1.5,9.3,0Z"/>
              <path class="cls-24" d="M467.9,689.1c2.6,1.5,2.6,3.9,0,5.4-2.6,1.5-6.7,1.5-9.3,0-2.6-1.5-2.6-3.9,0-5.4,2.6-1.5,6.7-1.5,9.3,0Z"/>
              <path class="cls-38" d="M469,663.2c2.6,1.5,2.6,3.9,0,5.4-2.6,1.5-6.7,1.5-9.3,0-2.6-1.5-2.6-3.9,0-5.4,2.6-1.5,6.7-1.5,9.3,0Z"/>
              <path class="cls-22" d="M501.2,659.7c2.6,1.5,2.6,3.9,0,5.4-2.6,1.5-6.7,1.5-9.3,0-2.6-1.5-2.6-3.9,0-5.4,2.6-1.5,6.7-1.5,9.3,0Z"/>
            </g>
            <g>
              <polygon class="cls-22" points="450.8 707.5 428.7 720.2 415.9 712.8 438 700.1 450.8 707.5"/>
              <polygon class="cls-38" points="550.8 649.8 528.7 662.5 515.9 655.1 538 642.4 550.8 649.8"/>
            </g>
          </g>
        </g>
        <g>
          <g>
            <path class="cls-50" d="M1068.7,702.3l-339.5,196c-3.6,2.1-8.1,2.1-11.7,0l-186.7-107.8c-7.8-4.5-7.8-15.8,0-20.3l339.5-196c3.6-2.1,8.1-2.1,11.7,0l186.7,107.8c7.8,4.5,7.8,15.8,0,20.3Z"/>
            <path class="cls-14" d="M870.3,574.3l-124.8,72v242.6l176.8-102.1v-189.2l-40.4-23.3c-3.6-2.1-8.1-2.1-11.7,0ZM616.9,840.3l93.1,53.8v-227.2l-93.1,53.8v119.7ZM958.4,618.4v147.6l33-19.1v-109.5l-33-19.1Z"/>
            <path class="cls-31" d="M529.5,770.6l1.1-.2c-7.5,4.6-7.4,15.6.3,20.1l186.7,107.8c3.6,2.1,8.1,2.1,11.7,0l339.5-196c7.6-4.4,7.8-15,.7-19.8h.7c4.5,2.5,7.2,7.2,7.2,12.4v8.1c0,5.2-2.7,9.9-7.2,12.5l-339.5,196c-2.2,1.3-4.7,1.9-7.2,1.9s-5-.7-7.2-1.9l-186.7-107.8c-4.5-2.6-7.2-7.3-7.2-12.5v-8.1c0-5.2,2.7-9.9,7.2-12.5Z"/>
            <g>
              <path class="cls-47" d="M530.8,770.3l20.4-11.8.9.4,209.4,120.8h0s-32.3,18.7-32.3,18.7c-3.6,2.1-8.1,2.1-11.7,0l-186.7-107.8c-7.8-4.5-7.8-15.8,0-20.3Z"/>
              <path class="cls-46" d="M838.4,592.7l31.9-18.4c3.6-2.1,8.1-2.1,11.7,0l186.7,107.8c7.8,4.5,7.8,15.8,0,20.3l-20.6,11.9h0l-209.7-121.5Z"/>
            </g>
            <path class="cls-53" d="M934.7,627l38.2,22c1.3.7,3.5.6,4.9-.2h0c1.5-.8,1.6-2.1.4-2.8l-38.2-22c-1.3-.7-3.5-.6-4.9.2h0c-1.5.8-1.6,2.1-.4,2.8Z"/>
            <path class="cls-43" d="M610.4,824.6l33.6,19.4c4.2,2.4,11.6,2.1,16.4-.7h0c4.8-2.8,5.4-7.1,1.2-9.5l-33.6-19.4c-4.2-2.4-11.6-2.1-16.4.7h0c-4.8,2.8-5.4,7.1-1.2,9.5Z"/>
            <path class="cls-48" d="M689,888.9c0-2.5-1.7-5.5-3.9-6.7-2.1-1.2-3.9-.2-3.9,2.2s1.7,5.5,3.9,6.7c2.1,1.2,3.9.2,3.9-2.2Z"/>
            <path class="cls-48" d="M612.2,847.9l22.3,12.9c.8.5,1.5,0,1.5-1.1h0c0-1.1-.7-2.4-1.5-2.8l-22.3-12.9c-.8-.5-1.5,0-1.5,1.1h0c0,1.1.7,2.4,1.5,2.8Z"/>
            <path class="cls-12" d="M1068.7,691.3l-186.7-107.8c-3.6-2.1-8.1-2.1-11.7,0l-339.5,196c-2.3,1.4-4,3.3-4.9,5.5-2.2-5.1-.6-11.6,4.9-14.7l339.5-196c3.6-2.1,8.1-2.1,11.7,0l186.7,107.8c5.5,3.1,7.1,9.6,4.9,14.7-.9-2.2-2.6-4.2-4.9-5.5Z"/>
            <path class="cls-25" d="M895.6,599.5c2.2-1.3,2.2-3.4,0-4.7-2.2-1.3-5.9-1.3-8.1,0-2.2,1.3-2.2,3.4,0,4.7,2.2,1.3,5.9,1.3,8.1,0Z"/>
            <g>
              <path class="cls-35" d="M935.1,624.2c1.5-.8,3.7-.9,4.9-.2l38.2,22c.8.5,1,1.1.7,1.8-.1-.3-.4-.5-.7-.7l-38.2-22c-1.3-.7-3.5-.6-4.9.2-.5.3-.9.7-1.1,1-.4-.7,0-1.5,1.1-2.1Z"/>
              <path class="cls-20" d="M661.6,834.9l-33.6-19.4c-4.2-2.4-11.6-2.1-16.4.7-2.4,1.4-3.7,3.1-4,4.8-.3-2,1.1-4.2,4-5.9,4.8-2.8,12.2-3.1,16.4-.7l33.6,19.4c2.1,1.2,3,2.9,2.8,4.7-.2-1.4-1.1-2.6-2.8-3.6Z"/>
              <path class="cls-49" d="M887.5,594.8c2.2-1.3,5.9-1.3,8.1,0,1.4.8,1.9,1.9,1.6,2.9-.2-.7-.7-1.3-1.6-1.8-2.2-1.3-5.9-1.3-8.1,0-.9.5-1.4,1.1-1.6,1.8-.3-1,.2-2.1,1.6-2.9Z"/>
            </g>
            <path class="cls-54" d="M525.5,777.1c.8-2.7,2.6-5.2,5.4-6.8l339.5-196c3.6-2.1,8.1-2.1,11.7,0l186.7,107.8c1.7,1,3,2.3,3.9,3.7l-547.2,91.3Z"/>
            <polygon class="cls-4" points="761.9 773.3 692.1 813.7 589.3 754.3 659.2 714 761.9 773.3"/>
          </g>
          <g>
            <g>
              <g>
                <path class="cls-22" d="M955.9,523.3l-51.6,29.8c-3.8,2.2-10.4,1.9-14.7-.6l-49.5-28.6c-4.3-2.5-4.8-6.3-1.1-8.5l51.6-29.8c3.8-2.2,10.4-1.9,14.7.6l49.5,28.6c4.3,2.5,4.8,6.3,1.1,8.5Z"/>
                <g>
                  <path class="cls-40" d="M958.4,708.7v-188.4h0c-.2,1.1-1,2.2-2.5,3l-51.6,29.8c-1.8,1-4.3,1.5-6.8,1.4v189.7c2.6,0,5-.4,6.8-1.4l51.6-29.8c2-1.1,2.8-2.7,2.5-4.3Z"/>
                  <path class="cls-21" d="M889.6,552.5l-49.5-28.6c-2.1-1.2-3.3-2.7-3.5-4.2v188.4c-.4,1.9.8,3.9,3.5,5.5l49.5,28.6c2.3,1.3,5.1,2,7.9,2.1v-189.7c-2.8,0-5.6-.8-7.9-2.1Z"/>
                </g>
              </g>
              <g>
                <path class="cls-38" d="M874.6,635.6l-51.6,29.8c-3.8,2.2-10.4,1.9-14.7-.6l-49.5-28.6c-4.3-2.5-4.8-6.3-1.1-8.5l51.6-29.8c3.8-2.2,10.4-1.9,14.7.6l49.5,28.6c4.3,2.5,4.8,6.3,1.1,8.5Z"/>
                <g>
                  <path class="cls-33" d="M877.1,755.5v-123h0c-.2,1.1-1,2.2-2.5,3l-51.6,29.8c-1.8,1-4.3,1.5-6.8,1.4v124.3c2.6,0,5-.4,6.8-1.4l51.6-29.8c2-1.1,2.8-2.7,2.5-4.3Z"/>
                  <path class="cls-42" d="M808.3,664.8l-49.5-28.6c-2.1-1.2-3.3-2.7-3.5-4.2v123c-.4,1.9.8,3.9,3.5,5.5l49.5,28.6c2.3,1.3,5.1,2,7.9,2.1v-124.3c-2.8,0-5.6-.8-7.9-2.1Z"/>
                </g>
              </g>
              <g>
                <path class="cls-24" d="M795,728.8l-51.6,29.8c-3.8,2.2-10.4,1.9-14.7-.6l-49.5-28.6c-4.3-2.5-4.8-6.3-1.1-8.5l51.6-29.8c3.8-2.2,10.4-1.9,14.7.6l49.5,28.6c4.3,2.5,4.8,6.3,1.1,8.5Z"/>
                <g>
                  <path class="cls-52" d="M797.5,801.5v-75.7s0,0,0,0h0c-.2,1.1-1,2.2-2.5,3l-51.6,29.8c-1.8,1-4.3,1.5-6.8,1.4v77.1c2.6,0,5-.4,6.8-1.4l51.6-29.8c2-1.1,2.8-2.7,2.5-4.3Z"/>
                  <path class="cls-13" d="M728.7,757.9l-49.5-28.6c-2.1-1.2-3.3-2.7-3.5-4.2v75.7c-.4,1.9.8,3.9,3.5,5.5l49.5,28.6c2.3,1.3,5.1,2,7.9,2.1v-77.1c-2.8,0-5.6-.8-7.9-2.1Z"/>
                </g>
              </g>
            </g>
            <g>
              <g>
                <polygon class="cls-3" points="892.2 520.8 907.3 529.5 879.1 545.7 864.1 537 892.2 520.8"/>
                <polygon class="cls-6" points="743.4 706.3 758.4 715 730.3 731.2 715.3 722.6 743.4 706.3"/>
                <polygon class="cls-2" points="826.3 632.8 841.3 641.5 813.2 657.7 798.2 649 826.3 632.8"/>
              </g>
              <path class="cls-23" d="M980.7,368.5l-.7-51.1-38.3,48.5,12.2.8-44.1,116.9-28.7-66.1-68.8,201.9-38.5-53.1-6.9,19.3c-.1.4-13.3,37.1-26.3,73.7-27.3,77-26.2,77.3-27.1,81.1,0,0,16.2-7.4,16.2-7.2,1.8-6.6,26.3-75.5,45-127.9l38.9,53.7,65.9-193.4,27.8,64,61.1-161.8,12.3.8Z"/>
              <g>
                <path class="cls-34" d="M766.9,585.6l6.9-19.2-13.7-7.7-6.9,19.3c-.1.4-13.3,37.1-26.3,73.7-27.3,77-26.2,77.3-27.1,81.1l13.7,7.7c.9-3.7-.3-4.1,27.1-81.1,13-36.6,26.2-73.4,26.3-73.7Z"/>
                <polygon class="cls-26" points="953.9 366.7 941.7 365.9 980 317.4 966.3 309.7 928 358.3 938.4 364 900.9 463.2 881.1 417.5 909.8 483.7 953.9 366.7"/>
                <polygon class="cls-15" points="881.1 417.5 867.4 409.9 801.2 604.1 773.8 566.3 812.3 619.4 881.1 417.5"/>
                <path class="cls-37" d="M772,612.7l27.9,38.6h0c0,0,13.7,7.7,13.7,7.7l-38.9-53.7c-1.6,4.6-3.5,9.7-2.7,7.5Z"/>
                <polygon class="cls-45" points="875 478.9 893.7 521.8 907.4 529.4 879.6 465.5 875 478.9"/>
              </g>
            </g>
          </g>
        </g>
        <g>
          <path class="cls-41" d="M669.8,996.7c-28.1,16.2-70.6,18-95,3.9l-206-119c-10.6-6.1-16-14.2-16.4-22.8h0v20.8c0,.2,0,.4,0,.5.2,8.7,5.6,17.1,16.4,23.3l206,119c24.3,14.1,66.9,12.3,95-3.9,15.9-9.2,23.8-21,23.2-32.1v-21.3c.3,10.9-7.6,22.5-23.2,31.5Z"/>
          <path class="cls-36" d="M574.8,1000.6l-206-119c-24.3-14.1-21.3-38.6,6.8-54.8h0c28.1-16.2,70.6-18,95-3.9l206,119c24.3,14.1,21.3,38.6-6.8,54.8h0c-28.1,16.2-70.6,18-95,3.9Z"/>
          <g>
            <g>
              <path class="cls-24" d="M605.9,947.7l-33.3,24.5c21.4,9.7,52.2,8.6,71.4-2.5,8.1-4.7,13.4-10.7,15.2-17.2l-53.3-4.8Z"/>
              <path class="cls-38" d="M605.9,947.7l-6.6-30.9c-11.9.9-23.1,4-31.6,8.9-20.9,12.1-20.9,32,0,44.1,1.5.9,3.2,1.7,4.9,2.5l33.3-24.5Z"/>
              <path class="cls-22" d="M605.9,947.7l53.3,4.8c2.7-9.8-3-19.8-15.2-26.9-11.8-6.8-28.3-10.1-44.8-8.9l6.6,30.9Z"/>
              <path class="cls-52" d="M644,969.7c8.1-4.7,13.4-10.7,15.2-17.2v17.5c-1.8,6.5-7.1,12.5-15.2,17.2-19.2,11.1-50.1,12.2-71.4,2.5v-17.5c21.4,9.7,52.2,8.6,71.4-2.5Z"/>
              <path class="cls-42" d="M567.7,969.7c1.5.9,3.2,1.7,4.9,2.5v17.5c-1.7-.8-3.4-1.6-4.9-2.5-10.5-6.1-15.8-14.1-15.7-22.2v-17c0,0,0-.2,0-.3,0,7.9,5.3,15.9,15.7,21.9Z"/>
            </g>
            <path class="cls-19" d="M484.1,866.9l68.1,39.3c5.6,3.2,4.9,8.9-1.6,12.6l-7.2,4.1c-6.5,3.7-16.2,4.1-21.8.9l-68.1-39.3c-5.6-3.2-4.9-8.9,1.6-12.6l7.2-4.1c6.5-3.7,16.2-4.1,21.8-.9Z"/>
            <g>
              <polygon class="cls-22" points="412.4 867.8 421.2 873 468.6 845.6 459.7 840.5 412.4 867.8"/>
              <polygon class="cls-38" points="396.5 858.7 405.4 863.8 434.5 847 425.7 841.9 396.5 858.7"/>
              <polygon class="cls-24" points="380.7 849.6 389.6 854.7 428.2 832.4 419.3 827.3 380.7 849.6"/>
            </g>
          </g>
        </g>
      </g>
      <path class="cls-9" d="M368.7,713.6l195.5,5.8s7-1.3,6.1-7.9c-.3-3.7-3.3-6.8-7-7.5l-194.7,9.6h0Z"/>
      <path class="cls-9" d="M410.6,734.8l136.6,4.1s4.9-.9,4.3-5.5c-.3-2.6-2.3-4.8-4.9-5.3l-135.9,6.8h0Z"/>
      <g class="cls-10">
        <path class="cls-18" d="M443.5,409.4c-167.1-6.5-307.8,123.7-314.3,290.8-6.5,167.1,123.7,307.8,290.8,314.3,167.1,6.5,307.8-123.7,314.3-290.8,6.5-167.1-123.7-307.8-290.8-314.3ZM424.4,898.5c-103-4-183.3-90.8-179.3-193.8,4-103,90.8-183.3,193.8-179.3,103,4,183.3,90.8,179.3,193.8-4,103-90.8,183.3-193.8,179.3Z"/>
        <path class="cls-5" d="M267.3,800.4l-114.1,30.2c-14-32.8-22.4-68.6-24-106.4-.4-10.9-.3-21.7.4-32.3,25.9-1.3,80.1,3.7,119.9,60.5,3.8,17,9.8,33.1,17.8,47.9ZM734.2,699.6c-.4-10.9-1.5-21.6-3-32.1-25.9.8-79.5,10.2-114.6,70.1-2.4,17.2-7.1,33.8-13.8,49.2l116.2,20.8c11.3-33.8,16.8-70.2,15.2-108Z"/>
      </g>
      <g class="cls-8">
        <path class="cls-7" d="M835.2,385.2c-1,58.8,45.9,107.3,104.8,108.3,58.8,1,107.3-45.9,108.3-104.8,1-58.8-45.9-107.3-104.8-108.3-58.8-1-107.3,45.9-108.3,104.8ZM1032.3,388.4c-.8,50-42,89.8-92,89-50-.8-89.8-42-89-92,.8-50,42-89.8,92-89,50,.8,89.8,42,89,92Z"/>
        <path class="cls-30" d="M1032.3,388.4c-.6,35.4-21.4,65.6-51.2,80-25.1,12.2-41.3,37.3-41.8,65.3h0c81.1,1.3,147.9-63.3,149.2-144.4,1.3-81.1-63.3-147.9-144.4-149.2h0c-.5,27.9,14.9,53.6,39.6,66.6,29.3,15.4,49.1,46.3,48.5,81.7Z"/>
        <path class="cls-1" d="M983.8,306.7c29.3,15.4,49.1,46.3,48.5,81.7-.6,35.4-21.4,65.6-51.2,80-11.7,5.7-21.4,14.2-28.6,24.5,53-5.3,94.9-49.6,95.8-104.2.9-54.6-39.4-100.3-92.3-107.4,6.8,10.5,16.2,19.3,27.8,25.4Z"/>
        <path class="cls-11" d="M795,384.5c-1.3,81.1,63.3,147.9,144.4,149.2,81.1,1.3,147.9-63.3,149.2-144.4,1.3-81.1-63.3-147.9-144.4-149.2s-147.9,63.3-149.2,144.4ZM1081.1,389.2c-1.3,76.9-64.7,138.3-141.6,137-76.9-1.3-138.3-64.7-137-141.6,1.3-76.9,64.7-138.3,141.6-137,76.9,1.3,138.3,64.7,137,141.6Z"/>
      </g>
    </g>
  </g>
</svg>