<?xml version="1.0" encoding="UTF-8"?>
<svg xmlns="http://www.w3.org/2000/svg" version="1.1" xmlns:xlink="http://www.w3.org/1999/xlink" viewBox="0 0 1298 1080">
  <defs>
    <style>
      .cls-1 {
        fill: #002894;
        opacity: .3;
      }

      .cls-1, .cls-2 {
        mix-blend-mode: multiply;
      }

      .cls-3 {
        mix-blend-mode: lighten;
      }

      .cls-4 {
        fill: url(#Degradado_sin_nombre_32-6);
      }

      .cls-5 {
        fill: url(#Degradado_sin_nombre_32-2);
      }

      .cls-6 {
        fill: url(#Degradado_sin_nombre_32-7);
      }

      .cls-7 {
        fill: none;
      }

      .cls-8 {
        fill: #fff;
        opacity: .6;
      }

      .cls-8, .cls-9 {
        mix-blend-mode: overlay;
      }

      .cls-10 {
        isolation: isolate;
      }

      .cls-11 {
        fill: url(#Degradado_sin_nombre_32);
      }

      .cls-12 {
        fill: url(#Degradado_sin_nombre_32-4);
      }

      .cls-2 {
        fill: #ffa255;
        opacity: .8;
      }

      .cls-13 {
        fill: url(#Degradado_sin_nombre_32-8);
      }

      .cls-14 {
        fill: url(#Degradado_sin_nombre_32-5);
      }

      .cls-15 {
        clip-path: url(#clippath);
      }

      .cls-16 {
        fill: url(#Degradado_sin_nombre_32-3);
      }
    </style>
    <clipPath id="clippath">
      <rect class="cls-7" x="489.1" y="208.4" width="761.6" height="862.6"/>
    </clipPath>
    <linearGradient id="Degradado_sin_nombre_32" data-name="Degradado sin nombre 32" x1="538.5" y1="592.3" x2="1156.3" y2="592.3" gradientUnits="userSpaceOnUse">
      <stop offset="0" stop-color="#00eced"/>
      <stop offset=".1" stop-color="#05dae9"/>
      <stop offset=".4" stop-color="#13aede"/>
      <stop offset=".7" stop-color="#2967ce"/>
      <stop offset="1" stop-color="#3c2dc1"/>
    </linearGradient>
    <linearGradient id="Degradado_sin_nombre_32-2" data-name="Degradado sin nombre 32" x1="654.2" y1="529.9" x2="1132.8" y2="529.9" xlink:href="#Degradado_sin_nombre_32"/>
    <linearGradient id="Degradado_sin_nombre_32-3" data-name="Degradado sin nombre 32" x1="663.8" y1="656.9" x2="1142.6" y2="656.9" xlink:href="#Degradado_sin_nombre_32"/>
    <linearGradient id="Degradado_sin_nombre_32-4" data-name="Degradado sin nombre 32" x1="620.2" y1="472.3" x2="1108.7" y2="472.3" xlink:href="#Degradado_sin_nombre_32"/>
    <linearGradient id="Degradado_sin_nombre_32-5" data-name="Degradado sin nombre 32" x1="762.8" y1="708.9" x2="1097.2" y2="708.9" xlink:href="#Degradado_sin_nombre_32"/>
    <linearGradient id="Degradado_sin_nombre_32-6" data-name="Degradado sin nombre 32" x1="864.4" y1="436" x2="1016.6" y2="436" xlink:href="#Degradado_sin_nombre_32"/>
    <linearGradient id="Degradado_sin_nombre_32-7" data-name="Degradado sin nombre 32" x1="882.6" y1="748.4" x2="1034.8" y2="748.4" xlink:href="#Degradado_sin_nombre_32"/>
    <linearGradient id="Degradado_sin_nombre_32-8" data-name="Degradado sin nombre 32" x1="906.5" y1="-998.2" x2="1317.8" y2="-998.2" gradientTransform="translate(2037.4 1719.6) rotate(-89)" xlink:href="#Degradado_sin_nombre_32"/>
  </defs>
  <!-- Generator: Adobe Illustrator 28.6.0, SVG Export Plug-In . SVG Version: 1.2.0 Build 709)  -->
  <g class="cls-10">
    <g id="Home">
      <g class="cls-15">
        <image width="3268" height="4304" transform="translate(481.3 188.9) scale(.3)" xlink:href="home-1.png"/>
      </g>
      <g class="cls-9">
        <path class="cls-11" d="M538.5,604.5l603,6.2s16.7-3.2,14.6-18.9c-.7-8.7-7.6-16.2-16.4-17.8l-601.2,30.6Z"/>
        <path class="cls-5" d="M654.2,539.4l463.8,8.9s16.7-3.2,14.6-18.9c-.7-8.7-7.6-16.2-16.4-17.8l-462,27.8Z"/>
        <path class="cls-16" d="M664,666.4l463.8,8.9s16.7-3.2,14.6-18.9c-.7-8.7-7.6-16.2-16.3-17.8l-462.2,27.8h.2Z"/>
        <path class="cls-12" d="M620.2,490.6l473,.5s17.1-3.6,15.2-19.7c-.6-8.9-7.5-16.4-16.3-17.9l-471.9,37.1Z"/>
        <path class="cls-14" d="M762.8,715.5l324,6.2s11.7-2.3,10.2-13.2c-.6-6.1-5.3-11.3-11.4-12.4l-322.7,19.6h-.1Z"/>
        <path class="cls-4" d="M864.4,439.1l147.1,3c3.1-.6,5.2-3.3,5.1-6.5-.1-2.9-2.4-5.4-5.3-5.9l-146.9,9.4Z"/>
        <path class="cls-6" d="M882.6,751.6l147.1,3c3.1-.6,5.2-3.3,5.1-6.5-.2-2.9-2.4-5.4-5.4-5.9l-146.9,9.4Z"/>
      </g>
      <g class="cls-3">
        <path class="cls-2" d="M805.7,586.8c-1.4,82.4,64.3,150.3,146.8,151.7,82.4,1.4,150.3-64.3,151.7-146.8,1.4-82.4-64.3-150.3-146.8-151.7-82.4-1.4-150.3,64.3-151.7,146.8ZM1081.7,591.4c-1.2,70-58.9,125.8-128.9,124.7-70-1.2-125.8-58.9-124.7-128.9,1.2-70,58.9-125.8,128.9-124.7,70,1.2,125.8,58.9,124.7,128.9Z"/>
        <path class="cls-13" d="M1081.7,591.4c-.8,49.5-29.9,91.9-71.7,112.1-35.2,17-57.9,52.3-58.5,91.4h0c113.6,1.9,207.1-88.6,209-202.2,1.9-113.6-88.6-207.1-202.2-209h0c-.6,39.1,20.9,75.1,55.5,93.3,41,21.6,68.7,64.9,67.9,114.4Z"/>
        <path class="cls-1" d="M1013.8,477c41,21.6,68.7,64.9,67.9,114.4-.8,49.5-29.9,91.9-71.7,112.1-16.4,7.9-30,19.9-40,34.2,74.3-7.5,132.9-69.5,134.1-146,1.3-76.5-55.2-140.4-129.2-150.4,9.5,14.7,22.7,27.1,38.9,35.6Z"/>
        <path class="cls-8" d="M749.4,585.9c-1.9,113.6,88.6,207.1,202.2,209,113.6,1.9,207.1-88.6,209-202.2,1.9-113.6-88.6-207.1-202.2-209-113.6-1.9-207.1,88.6-209,202.2ZM1150.1,592.6c-1.8,107.8-90.6,193.7-198.3,191.9-107.8-1.8-193.7-90.6-191.9-198.3,1.8-107.8,90.6-193.7,198.3-191.9,107.8,1.8,193.7,90.6,191.9,198.3Z"/>
      </g>
    </g>
  </g>
</svg>