<?xml version="1.0" encoding="UTF-8"?>
<svg xmlns="http://www.w3.org/2000/svg" version="1.1" xmlns:xlink="http://www.w3.org/1999/xlink" viewBox="0 0 1298 1080">
  <defs>
    <style>
      .cls-1, .cls-2, .cls-3, .cls-4 {
        fill: #fff;
      }

      .cls-2, .cls-4, .cls-5 {
        mix-blend-mode: multiply;
      }

      .cls-2, .cls-5 {
        opacity: .3;
      }

      .cls-3, .cls-6 {
        mix-blend-mode: overlay;
        opacity: .6;
      }

      .cls-7 {
        isolation: isolate;
      }

      .cls-4 {
        opacity: .8;
      }

      .cls-8 {
        fill: #002894;
      }
    </style>
  </defs>
  <!-- Generator: Adobe Illustrator 28.6.0, SVG Export Plug-In . SVG Version: 1.2.0 Build 709)  -->
  <g class="cls-7">
    <g id="Proceso">
      <image width="4100" height="3796" transform="translate(318.8 87.2) scale(.2)" xlink:href="proceso-1.png"/>
      <g class="cls-6">
        <path class="cls-4" d="M540.2,474.4c-26.1,154.4,77.8,300.7,232.2,326.9,154.4,26.1,300.7-77.8,326.9-232.2,26.1-154.4-77.8-300.7-232.2-326.9-154.4-26.1-300.7,77.8-326.9,232.2ZM1057.2,561.9c-22.2,131.1-146.5,219.5-277.7,197.3-131.1-22.2-219.5-146.5-197.3-277.7,22.2-131.1,146.5-219.5,277.7-197.3,131.1,22.2,219.5,146.5,197.3,277.7Z"/>
        <path class="cls-1" d="M1057.2,561.9c-15.7,92.8-82.5,164.1-166.6,190-71,21.9-123.7,81.7-136,154.9h0c212.7,36,414.3-107.2,450.3-319.9,36-212.7-107.2-414.3-319.9-450.3h0c-12.4,73.2,17.7,147,77.5,191,70.9,52.2,110.5,141.6,94.8,234.3Z"/>
        <path class="cls-2" d="M962.4,327.6c70.9,52.2,110.5,141.6,94.8,234.3-15.7,92.8-82.5,164.1-166.6,190-33.1,10.2-62.1,28.7-85,52.9,141.6,7.2,269.4-92.5,293.7-235.8,24.3-143.3-63.5-279.5-199.7-319.3,13.7,30.4,35,57.4,62.8,77.9Z"/>
        <path class="cls-3" d="M434.6,456.5c-36,212.7,107.2,414.3,319.9,450.3,212.7,36,414.3-107.2,450.3-319.9,36-212.7-107.2-414.3-319.9-450.3-212.7-36-414.3,107.2-450.3,319.9ZM1185.2,583.6c-34.2,201.8-225.5,337.7-427.3,303.6-201.8-34.2-337.7-225.5-303.6-427.3,34.2-201.8,225.5-337.7,427.3-303.6,201.8,34.2,337.7,225.5,303.6,427.3Z"/>
      </g>
      <g class="cls-5">
        <path class="cls-8" d="M368.5,593.7l790.5-5.7s21.9-4.7,19.6-25.3c-.8-11.5-9.6-21.2-21.1-23.1l-789.1,54Z"/>
        <path class="cls-8" d="M521.7,505.3l607.9,1.1s21.9-4.7,19.6-25.3c-.8-11.5-9.6-21.2-21.1-23.1l-606.4,47.2Z"/>
        <path class="cls-8" d="M531.6,672.3l607.9,1.1s22-4.6,19.6-25.3c-.8-11.5-9.6-21.1-21-23l-606.7,47.1h.2Z"/>
        <path class="cls-8" d="M478.2,441.9l620.3-10.2s22.5-5.2,20.4-26.3c-.6-11.7-9.4-21.4-21-23.2l-619.7,59.7Z"/>
        <path class="cls-8" d="M660,734.7l424.8.7s15.4-3.2,13.7-17.7c-.6-8-6.7-14.7-14.7-16.1l-423.6,33.2-.2-.2Z"/>
        <path class="cls-8" d="M799.6,368.5l192.8.6c4.1-.9,6.9-4.5,6.8-8.7,0-3.8-3-7.1-6.9-7.6l-192.8,15.7Z"/>
        <path class="cls-8" d="M816.2,779.4l192.8.6c4.1-.9,6.9-4.5,6.8-8.7-.1-3.8-3.1-7.1-6.9-7.6l-192.8,15.7Z"/>
      </g>
    </g>
  </g>
</svg>