<?xml version="1.0" encoding="UTF-8"?>
<svg xmlns="http://www.w3.org/2000/svg" version="1.1" xmlns:xlink="http://www.w3.org/1999/xlink" viewBox="0 0 1298 1080">
  <defs>
    <style>
      .cls-1 {
        fill: #002894;
        opacity: .3;
      }

      .cls-1, .cls-2, .cls-3 {
        mix-blend-mode: multiply;
      }

      .cls-4 {
        mix-blend-mode: lighten;
      }

      .cls-5 {
        fill: url(#Degradado_sin_nombre_75-14);
      }

      .cls-6 {
        fill: url(#Degradado_sin_nombre_75-33);
      }

      .cls-7 {
        fill: url(#Degradado_sin_nombre_32-2);
      }

      .cls-8 {
        fill: url(#Degradado_sin_nombre_75-28);
      }

      .cls-9 {
        fill: url(#Degradado_sin_nombre_75-12);
      }

      .cls-10 {
        fill: url(#Degradado_sin_nombre_75-27);
      }

      .cls-11 {
        fill: url(#Degradado_sin_nombre_19);
      }

      .cls-12 {
        fill: url(#Degradado_sin_nombre_75-29);
      }

      .cls-13 {
        fill: url(#Degradado_sin_nombre_75-25);
      }

      .cls-14 {
        fill: url(#Degradado_sin_nombre_75-4);
      }

      .cls-15 {
        fill: url(#Degradado_sin_nombre_75-17);
      }

      .cls-16 {
        fill: url(#Degradado_sin_nombre_75-16);
      }

      .cls-17 {
        fill: url(#Degradado_sin_nombre_75-24);
      }

      .cls-18 {
        fill: url(#Degradado_sin_nombre_75-8);
      }

      .cls-19 {
        fill: url(#Degradado_sin_nombre_19-2);
      }

      .cls-20 {
        fill: #fff;
        opacity: .6;
      }

      .cls-20, .cls-21 {
        mix-blend-mode: overlay;
      }

      .cls-22 {
        fill: url(#Degradado_sin_nombre_75-7);
      }

      .cls-23 {
        fill: url(#Degradado_sin_nombre_75-26);
      }

      .cls-24 {
        fill: url(#Degradado_sin_nombre_75-30);
      }

      .cls-25 {
        isolation: isolate;
      }

      .cls-26 {
        fill: url(#Degradado_sin_nombre_75-3);
      }

      .cls-27 {
        fill: url(#Degradado_sin_nombre_32);
      }

      .cls-2 {
        fill: #3b00a0;
        opacity: .2;
      }

      .cls-28 {
        fill: url(#Degradado_sin_nombre_75-20);
      }

      .cls-29 {
        fill: url(#Degradado_sin_nombre_75-11);
      }

      .cls-30 {
        fill: url(#Degradado_sin_nombre_75-22);
      }

      .cls-31 {
        fill: url(#Degradado_sin_nombre_75-19);
      }

      .cls-32 {
        fill: url(#Degradado_sin_nombre_75);
      }

      .cls-33 {
        mix-blend-mode: color;
      }

      .cls-34 {
        fill: url(#Degradado_sin_nombre_32-4);
      }

      .cls-35 {
        fill: url(#Degradado_sin_nombre_75-21);
      }

      .cls-36 {
        fill: url(#Degradado_sin_nombre_75-9);
      }

      .cls-37 {
        fill: url(#Degradado_sin_nombre_75-13);
      }

      .cls-38 {
        fill: url(#Degradado_sin_nombre_75-18);
      }

      .cls-3 {
        fill: #ffa255;
        opacity: .8;
      }

      .cls-39 {
        fill: url(#Degradado_sin_nombre_75-23);
      }

      .cls-40 {
        fill: url(#Degradado_sin_nombre_75-10);
      }

      .cls-41 {
        fill: url(#Degradado_sin_nombre_75-34);
      }

      .cls-42 {
        fill: url(#Degradado_sin_nombre_75-6);
      }

      .cls-43 {
        fill: url(#Degradado_sin_nombre_75-31);
      }

      .cls-44 {
        fill: url(#Degradado_sin_nombre_75-35);
      }

      .cls-45 {
        fill: url(#Degradado_sin_nombre_75-32);
      }

      .cls-46 {
        fill: url(#Degradado_sin_nombre_75-2);
      }

      .cls-47 {
        fill: url(#Degradado_sin_nombre_75-5);
      }

      .cls-48 {
        fill: url(#Degradado_sin_nombre_32-3);
      }

      .cls-49 {
        fill: url(#Degradado_sin_nombre_75-15);
      }
    </style>
    <linearGradient id="Degradado_sin_nombre_75" data-name="Degradado sin nombre 75" x1="-1291.9" y1="74.6" x2="-1199.2" y2="74.6" gradientTransform="translate(1640.9 380.8) rotate(1.5) scale(1.1) skewX(3.1)" gradientUnits="userSpaceOnUse">
      <stop offset="0" stop-color="#3b00a0"/>
      <stop offset=".2" stop-color="#3e01a2"/>
      <stop offset=".3" stop-color="#4907a8"/>
      <stop offset=".5" stop-color="#5b11b4"/>
      <stop offset=".6" stop-color="#751fc3"/>
      <stop offset=".8" stop-color="#9631d8"/>
      <stop offset=".9" stop-color="#be47f0"/>
      <stop offset="1" stop-color="#d554ff"/>
    </linearGradient>
    <linearGradient id="Degradado_sin_nombre_75-2" data-name="Degradado sin nombre 75" x1="-1274.5" y1="65.2" x2="-1202.7" y2="65.2" xlink:href="#Degradado_sin_nombre_75"/>
    <linearGradient id="Degradado_sin_nombre_75-3" data-name="Degradado sin nombre 75" x1="-1273.1" y1="84.3" x2="-1201.3" y2="84.3" xlink:href="#Degradado_sin_nombre_75"/>
    <linearGradient id="Degradado_sin_nombre_75-4" data-name="Degradado sin nombre 75" x1="-1279.6" y1="56.5" x2="-1206.3" y2="56.5" xlink:href="#Degradado_sin_nombre_75"/>
    <linearGradient id="Degradado_sin_nombre_75-5" data-name="Degradado sin nombre 75" x1="-1258.2" y1="92.1" x2="-1208.1" y2="92.1" xlink:href="#Degradado_sin_nombre_75"/>
    <linearGradient id="Degradado_sin_nombre_75-6" data-name="Degradado sin nombre 75" x1="-1243" y1="51.1" x2="-1220.2" y2="51.1" xlink:href="#Degradado_sin_nombre_75"/>
    <linearGradient id="Degradado_sin_nombre_75-7" data-name="Degradado sin nombre 75" x1="-1240.3" y1="98" x2="-1217.4" y2="98" xlink:href="#Degradado_sin_nombre_75"/>
    <linearGradient id="Degradado_sin_nombre_32" data-name="Degradado sin nombre 32" x1="-1324.3" y1="1974.8" x2="-1188.1" y2="1974.8" gradientTransform="translate(-887.8 -802.1) rotate(-80.4)" gradientUnits="userSpaceOnUse">
      <stop offset="0" stop-color="#00eced"/>
      <stop offset=".1" stop-color="#05dae9"/>
      <stop offset=".4" stop-color="#13aede"/>
      <stop offset=".7" stop-color="#2967ce"/>
      <stop offset="1" stop-color="#3c2dc1"/>
    </linearGradient>
    <linearGradient id="Degradado_sin_nombre_75-8" data-name="Degradado sin nombre 75" x1="-1307" y1="255.2" x2="-1214.3" y2="255.2" gradientTransform="translate(3176.8 47) rotate(3.7) scale(2 1.9) skewX(7.4)" xlink:href="#Degradado_sin_nombre_75"/>
    <linearGradient id="Degradado_sin_nombre_75-9" data-name="Degradado sin nombre 75" x1="-1289.6" y1="245.8" x2="-1217.8" y2="245.8" gradientTransform="translate(3176.8 47) rotate(3.7) scale(2 1.9) skewX(7.4)" xlink:href="#Degradado_sin_nombre_75"/>
    <linearGradient id="Degradado_sin_nombre_75-10" data-name="Degradado sin nombre 75" x1="-1288.2" y1="264.9" x2="-1216.3" y2="264.9" gradientTransform="translate(3176.8 47) rotate(3.7) scale(2 1.9) skewX(7.4)" xlink:href="#Degradado_sin_nombre_75"/>
    <linearGradient id="Degradado_sin_nombre_75-11" data-name="Degradado sin nombre 75" x1="-1294.7" y1="237.2" x2="-1221.4" y2="237.2" gradientTransform="translate(3176.8 47) rotate(3.7) scale(2 1.9) skewX(7.4)" xlink:href="#Degradado_sin_nombre_75"/>
    <linearGradient id="Degradado_sin_nombre_75-12" data-name="Degradado sin nombre 75" x1="-1273.3" y1="272.7" x2="-1223.1" y2="272.7" gradientTransform="translate(3176.8 47) rotate(3.7) scale(2 1.9) skewX(7.4)" xlink:href="#Degradado_sin_nombre_75"/>
    <linearGradient id="Degradado_sin_nombre_75-13" data-name="Degradado sin nombre 75" x1="-1258.1" y1="231.7" x2="-1235.2" y2="231.7" gradientTransform="translate(3176.8 47) rotate(3.7) scale(2 1.9) skewX(7.4)" xlink:href="#Degradado_sin_nombre_75"/>
    <linearGradient id="Degradado_sin_nombre_75-14" data-name="Degradado sin nombre 75" x1="-1255.4" y1="278.6" x2="-1232.5" y2="278.6" gradientTransform="translate(3176.8 47) rotate(3.7) scale(2 1.9) skewX(7.4)" xlink:href="#Degradado_sin_nombre_75"/>
    <linearGradient id="Degradado_sin_nombre_32-2" data-name="Degradado sin nombre 32" x1="-981.7" y1="1888" x2="-801" y2="1888" xlink:href="#Degradado_sin_nombre_32"/>
    <linearGradient id="Degradado_sin_nombre_75-15" data-name="Degradado sin nombre 75" x1="-862.5" y1="384.7" x2="-769.8" y2="384.7" xlink:href="#Degradado_sin_nombre_75"/>
    <linearGradient id="Degradado_sin_nombre_75-16" data-name="Degradado sin nombre 75" x1="-845.2" y1="375.4" x2="-773.3" y2="375.4" xlink:href="#Degradado_sin_nombre_75"/>
    <linearGradient id="Degradado_sin_nombre_75-17" data-name="Degradado sin nombre 75" x1="-843.7" y1="394.4" x2="-771.9" y2="394.4" xlink:href="#Degradado_sin_nombre_75"/>
    <linearGradient id="Degradado_sin_nombre_75-18" data-name="Degradado sin nombre 75" x1="-850.3" y1="366.7" x2="-777" y2="366.7" xlink:href="#Degradado_sin_nombre_75"/>
    <linearGradient id="Degradado_sin_nombre_75-19" data-name="Degradado sin nombre 75" x1="-828.9" y1="402.2" x2="-778.7" y2="402.2" xlink:href="#Degradado_sin_nombre_75"/>
    <linearGradient id="Degradado_sin_nombre_75-20" data-name="Degradado sin nombre 75" x1="-813.6" y1="361.3" x2="-790.8" y2="361.3" xlink:href="#Degradado_sin_nombre_75"/>
    <linearGradient id="Degradado_sin_nombre_75-21" data-name="Degradado sin nombre 75" x1="-810.9" y1="408.2" x2="-788" y2="408.2" xlink:href="#Degradado_sin_nombre_75"/>
    <linearGradient id="Degradado_sin_nombre_75-22" data-name="Degradado sin nombre 75" x1="-1319.2" y1="501.1" x2="-1149.2" y2="501.1" xlink:href="#Degradado_sin_nombre_75"/>
    <linearGradient id="Degradado_sin_nombre_75-23" data-name="Degradado sin nombre 75" x1="-1287.4" y1="483.9" x2="-1155.7" y2="483.9" xlink:href="#Degradado_sin_nombre_75"/>
    <linearGradient id="Degradado_sin_nombre_75-24" data-name="Degradado sin nombre 75" x1="-1284.8" y1="518.8" x2="-1153" y2="518.8" xlink:href="#Degradado_sin_nombre_75"/>
    <linearGradient id="Degradado_sin_nombre_75-25" data-name="Degradado sin nombre 75" x1="-1296.8" y1="468" x2="-1162.3" y2="468" xlink:href="#Degradado_sin_nombre_75"/>
    <linearGradient id="Degradado_sin_nombre_75-26" data-name="Degradado sin nombre 75" x1="-1257.5" y1="533.1" x2="-1165.5" y2="533.1" xlink:href="#Degradado_sin_nombre_75"/>
    <linearGradient id="Degradado_sin_nombre_75-27" data-name="Degradado sin nombre 75" x1="-1229.6" y1="458" x2="-1187.7" y2="458" xlink:href="#Degradado_sin_nombre_75"/>
    <linearGradient id="Degradado_sin_nombre_75-28" data-name="Degradado sin nombre 75" x1="-1224.6" y1="544" x2="-1182.7" y2="544" xlink:href="#Degradado_sin_nombre_75"/>
    <linearGradient id="Degradado_sin_nombre_75-29" data-name="Degradado sin nombre 75" x1="-1870.5" y1="724.6" x2="-1777.8" y2="724.6" gradientTransform="translate(12487.4 -4334.9) rotate(-1) scale(6.5 6.6) skewX(-2)" xlink:href="#Degradado_sin_nombre_75"/>
    <linearGradient id="Degradado_sin_nombre_75-30" data-name="Degradado sin nombre 75" x1="-1853.1" y1="715.2" x2="-1781.3" y2="715.2" gradientTransform="translate(12487.4 -4334.9) rotate(-1) scale(6.5 6.6) skewX(-2)" xlink:href="#Degradado_sin_nombre_75"/>
    <linearGradient id="Degradado_sin_nombre_75-31" data-name="Degradado sin nombre 75" x1="-1851.7" y1="734.3" x2="-1779.9" y2="734.3" gradientTransform="translate(12487.4 -4334.9) rotate(-1) scale(6.5 6.6) skewX(-2)" xlink:href="#Degradado_sin_nombre_75"/>
    <linearGradient id="Degradado_sin_nombre_75-32" data-name="Degradado sin nombre 75" x1="-1858.3" y1="706.6" x2="-1784.9" y2="706.6" gradientTransform="translate(12487.4 -4334.9) rotate(-1) scale(6.5 6.6) skewX(-2)" xlink:href="#Degradado_sin_nombre_75"/>
    <linearGradient id="Degradado_sin_nombre_75-33" data-name="Degradado sin nombre 75" x1="-1836.9" y1="742.1" x2="-1786.7" y2="742.1" gradientTransform="translate(12487.4 -4334.9) rotate(-1) scale(6.5 6.6) skewX(-2)" xlink:href="#Degradado_sin_nombre_75"/>
    <linearGradient id="Degradado_sin_nombre_75-34" data-name="Degradado sin nombre 75" x1="-1821.6" y1="701.1" x2="-1798.8" y2="701.1" gradientTransform="translate(12487.4 -4334.9) rotate(-1) scale(6.5 6.6) skewX(-2)" xlink:href="#Degradado_sin_nombre_75"/>
    <linearGradient id="Degradado_sin_nombre_75-35" data-name="Degradado sin nombre 75" x1="-1818.9" y1="748" x2="-1796" y2="748" gradientTransform="translate(12487.4 -4334.9) rotate(-1) scale(6.5 6.6) skewX(-2)" xlink:href="#Degradado_sin_nombre_75"/>
    <linearGradient id="Degradado_sin_nombre_19" data-name="Degradado sin nombre 19" x1="208.3" y1="1047.9" x2="379.8" y2="1047.9" gradientTransform="translate(176.5 -196) rotate(4.6)" gradientUnits="userSpaceOnUse">
      <stop offset="0" stop-color="#ffef26"/>
      <stop offset="0" stop-color="#fee921"/>
      <stop offset=".1" stop-color="#fdd70e"/>
      <stop offset=".2" stop-color="#fdcb03"/>
      <stop offset=".3" stop-color="#fdc800"/>
      <stop offset=".7" stop-color="#f18f34"/>
      <stop offset=".9" stop-color="#e95f32"/>
      <stop offset="1" stop-color="#e3312d"/>
    </linearGradient>
    <linearGradient id="Degradado_sin_nombre_32-3" data-name="Degradado sin nombre 32" x1="300.6" y1="914.8" x2="472.2" y2="914.8" gradientTransform="matrix(1,0,0,1,0,0)" xlink:href="#Degradado_sin_nombre_32"/>
    <linearGradient id="Degradado_sin_nombre_19-2" data-name="Degradado sin nombre 19" x1="178.2" y1="598.9" x2="260.9" y2="598.9" xlink:href="#Degradado_sin_nombre_19"/>
    <linearGradient id="Degradado_sin_nombre_32-4" data-name="Degradado sin nombre 32" x1="306.4" y1="439.1" x2="389.1" y2="439.1" gradientTransform="matrix(1,0,0,1,0,0)" xlink:href="#Degradado_sin_nombre_32"/>
  </defs>
  <!-- Generator: Adobe Illustrator 28.6.0, SVG Export Plug-In . SVG Version: 1.2.0 Build 709)  -->
  <g class="cls-25">
    <g id="Tecnologia">
      <g>
        <path d="M45.5,441.3l-1.3,4.7h-4.3l5.6-18.2h5.4l5.7,18.2h-4.4l-1.4-4.7h-5.2ZM50.1,438.3l-1.1-3.9c-.3-1.1-.6-2.4-.9-3.5h0c-.3,1.1-.5,2.5-.8,3.5l-1.1,3.9h4Z"/>
        <path d="M70.9,441.8c0,1.7,0,3.1.1,4.2h-3.6l-.2-1.9h0c-.5.8-1.7,2.2-4.1,2.2s-4.6-1.7-4.6-5.7v-7.8h4.1v7.1c0,1.9.6,3.1,2.1,3.1s1.8-.8,2-1.4c.1-.2.2-.5.2-.9v-7.9h4.1v9Z"/>
        <path d="M78.8,429v3.8h3v3h-3v4.8c0,1.6.4,2.3,1.6,2.3s.9,0,1.2-.1v3.1c-.5.2-1.5.4-2.6.4s-2.4-.5-3.1-1.1c-.8-.8-1.1-2-1.1-3.9v-5.4h-1.8v-3h1.8v-2.8l4-.9Z"/>
        <path d="M97,439.3c0,4.8-3.4,7-7,7s-6.8-2.5-6.8-6.8,2.8-7,7.1-7,6.7,2.8,6.7,6.8ZM87.4,439.4c0,2.3,1,4,2.7,4s2.6-1.6,2.6-4-.8-4-2.6-4-2.7,2-2.7,4Z"/>
        <path d="M99.5,437c0-1.6,0-3-.1-4.2h3.5l.2,1.8h0c.6-.8,1.7-2.1,4-2.1s3,.9,3.6,2.3h0c.5-.7,1.1-1.2,1.7-1.6.7-.4,1.5-.7,2.5-.7,2.5,0,4.4,1.8,4.4,5.7v7.8h-4v-7.2c0-1.9-.6-3-1.9-3s-1.6.6-1.9,1.4c-.1.3-.1.7-.1,1v7.7h-4v-7.4c0-1.7-.6-2.8-1.9-2.8s-1.7.8-1.9,1.5c-.1.3-.2.7-.2,1v7.7h-4v-9Z"/>
        <path d="M130.3,446l-.2-1.3h0c-.9,1.1-2.2,1.6-3.8,1.6-2.7,0-4.3-1.9-4.3-4,0-3.4,3.1-5.1,7.8-5.1v-.2c0-.7-.4-1.7-2.4-1.7-1.3,0-2.8.5-3.6,1l-.8-2.6c.9-.5,2.7-1.2,5.1-1.2,4.4,0,5.8,2.6,5.8,5.7v4.6c0,1.3,0,2.5.2,3.2h-3.7ZM129.8,439.8c-2.2,0-3.8.5-3.8,2.1s.7,1.6,1.6,1.6,1.9-.7,2.1-1.5c0-.2,0-.5,0-.7v-1.4Z"/>
        <path d="M141.4,429v3.8h3v3h-3v4.8c0,1.6.4,2.3,1.6,2.3s.9,0,1.2-.1v3.1c-.5.2-1.5.4-2.6.4s-2.4-.5-3.1-1.1c-.8-.8-1.1-2-1.1-3.9v-5.4h-1.8v-3h1.8v-2.8l4-.9Z"/>
        <path d="M150.9,429.1c0,1.1-.8,2.1-2.2,2.1s-2.1-.9-2.1-2.1c0-1.2.9-2.1,2.2-2.1s2.2.9,2.2,2.1ZM146.7,446v-13.2h4.1v13.2h-4.1Z"/>
        <path d="M153,443.7l4.2-5.2c.8-.9,1.3-1.5,2.1-2.3h0c0,0-5.8,0-5.8,0v-3.3h10.8v2.5s-4,5-4,5c-.7.9-1.4,1.7-2.2,2.4h0c0,0,6.3,0,6.3,0v3.3h-11.5v-2.4Z"/>
        <path d="M174.3,446l-.2-1.3h0c-.9,1.1-2.2,1.6-3.8,1.6-2.7,0-4.3-1.9-4.3-4,0-3.4,3.1-5.1,7.8-5.1v-.2c0-.7-.4-1.7-2.4-1.7-1.3,0-2.8.5-3.6,1l-.8-2.6c.9-.5,2.7-1.2,5.1-1.2,4.4,0,5.8,2.6,5.8,5.7v4.6c0,1.3,0,2.5.2,3.2h-3.7ZM173.8,439.8c-2.2,0-3.8.5-3.8,2.1s.7,1.6,1.6,1.6,1.9-.7,2.1-1.5c0-.2,0-.5,0-.7v-1.4Z"/>
        <path d="M190.9,445.7c-.7.3-2.1.6-3.7.6-4.3,0-7-2.6-7-6.8s2.6-7,7.6-7,2.3.2,3.1.5l-.6,3.1c-.5-.2-1.2-.4-2.3-.4-2.2,0-3.6,1.5-3.5,3.7,0,2.4,1.6,3.7,3.6,3.7s1.7-.2,2.4-.4l.5,3Z"/>
        <path d="M197.4,429.1c0,1.1-.8,2.1-2.2,2.1s-2.1-.9-2.1-2.1c0-1.2.9-2.1,2.2-2.1s2.2.9,2.2,2.1ZM193.2,446v-13.2h4.1v13.2h-4.1Z"/>
        <path d="M213.6,439.3c0,4.8-3.4,7-7,7s-6.8-2.5-6.8-6.8,2.8-7,7.1-7,6.7,2.8,6.7,6.8ZM204.1,439.4c0,2.3,1,4,2.7,4s2.6-1.6,2.6-4-.8-4-2.6-4-2.7,2-2.7,4ZM211,427.1l-3.3,4.1h-2.8l2.3-4.1h3.8Z"/>
        <path d="M216.2,437c0-1.6,0-3-.1-4.2h3.6l.2,1.8h0c.5-.9,1.9-2.1,4.1-2.1s4.7,1.8,4.7,5.7v7.8h-4.1v-7.3c0-1.7-.6-2.9-2.1-2.9s-1.8.8-2.1,1.6c-.1.3-.1.6-.1,1v7.6h-4.1v-9Z"/>
        <path d="M57.1,465.1c0,1.1-.8,2.1-2.2,2.1s-2.1-.9-2.1-2.1c0-1.2.9-2.1,2.2-2.1s2.2.9,2.2,2.1ZM52.8,482v-13.2h4.1v13.2h-4.1Z"/>
        <path d="M60.2,473c0-1.6,0-3-.1-4.2h3.6l.2,1.8h0c.5-.9,1.9-2.1,4.1-2.1s4.7,1.8,4.7,5.7v7.8h-4.1v-7.3c0-1.7-.6-2.9-2.1-2.9s-1.8.8-2.1,1.6c-.1.3-.1.6-.1,1v7.6h-4.1v-9Z"/>
        <path d="M80.5,465v3.8h3v3h-3v4.8c0,1.6.4,2.3,1.6,2.3s.9,0,1.2-.1v3.1c-.5.2-1.5.4-2.6.4s-2.4-.5-3.1-1.1c-.8-.8-1.1-2-1.1-3.9v-5.4h-1.8v-3h1.8v-2.8l4-.9Z"/>
        <path d="M88.8,476.7c.1,1.7,1.8,2.5,3.7,2.5s2.5-.2,3.6-.6l.6,2.8c-1.4.6-3,.8-4.8.8-4.5,0-7-2.6-7-6.7s2.1-7.1,6.7-7.1,5.9,3.3,5.9,6.6,0,1.3-.1,1.6h-8.5ZM93.7,473.9c0-1-.4-2.7-2.3-2.7s-2.4,1.6-2.6,2.7h4.9Z"/>
        <path d="M99.9,462.8h4.1v19.2h-4.1v-19.2Z"/>
        <path d="M111.6,465.1c0,1.1-.8,2.1-2.2,2.1s-2.1-.9-2.1-2.1c0-1.2.9-2.1,2.2-2.1s2.2.9,2.2,2.1ZM107.3,482v-13.2h4.1v13.2h-4.1Z"/>
        <path d="M127.4,468.8c0,.9-.1,2-.1,3.9v7.4c0,2.5-.5,4.6-2,5.9-1.4,1.3-3.4,1.6-5.4,1.6s-3.6-.4-4.8-1l.8-3.1c.8.5,2.3,1,3.8,1s3.4-1,3.4-3.5v-.8h0c-.8,1.1-2,1.7-3.6,1.7-3.3,0-5.6-2.6-5.6-6.4s2.7-7,6-7,2.9.8,3.6,1.9h0v-1.6h3.7ZM123.1,474.2c0-.3,0-.5,0-.8-.3-1.1-1.1-1.8-2.2-1.8s-2.7,1.4-2.7,3.8,1,3.5,2.7,3.5,1.9-.7,2.2-1.7c0-.3.1-.7.1-1.1v-1.9Z"/>
        <path d="M133.7,476.7c.1,1.7,1.8,2.5,3.7,2.5s2.5-.2,3.6-.6l.6,2.8c-1.4.6-3,.8-4.8.8-4.5,0-7-2.6-7-6.7s2.1-7.1,6.7-7.1,5.9,3.3,5.9,6.6,0,1.3-.1,1.6h-8.5ZM138.5,473.9c0-1-.4-2.7-2.3-2.7s-2.4,1.6-2.6,2.7h4.9Z"/>
        <path d="M144.8,473c0-1.6,0-3-.1-4.2h3.6l.2,1.8h0c.5-.9,1.9-2.1,4.1-2.1s4.7,1.8,4.7,5.7v7.8h-4.1v-7.3c0-1.7-.6-2.9-2.1-2.9s-1.8.8-2.1,1.6c-.1.3-.1.6-.1,1v7.6h-4.1v-9Z"/>
        <path d="M165,465v3.8h3v3h-3v4.8c0,1.6.4,2.3,1.6,2.3s.9,0,1.2-.1v3.1c-.5.2-1.5.4-2.6.4s-2.4-.5-3.1-1.1c-.8-.8-1.1-2-1.1-3.9v-5.4h-1.8v-3h1.8v-2.8l4-.9Z"/>
        <path d="M173.4,476.7c.1,1.7,1.8,2.5,3.7,2.5s2.5-.2,3.6-.6l.6,2.8c-1.4.6-3,.8-4.8.8-4.5,0-7-2.6-7-6.7s2.1-7.1,6.7-7.1,5.9,3.3,5.9,6.6,0,1.3-.1,1.6h-8.5ZM178.2,473.9c0-1-.4-2.7-2.3-2.7s-2.4,1.6-2.6,2.7h4.9Z"/>
        <path d="M202.7,462.8v15.2c0,1.5,0,3.1.1,3.9h-3.7l-.2-1.9h0c-.8,1.5-2.4,2.2-4.1,2.2-3.1,0-5.6-2.7-5.6-6.8,0-4.4,2.8-7,5.9-7s2.9.6,3.5,1.5h0v-7.1h4.1ZM198.6,474.4c0-.2,0-.5,0-.7-.2-1.1-1.1-2-2.4-2-1.9,0-2.8,1.7-2.8,3.8s1.1,3.6,2.8,3.6,2.1-.8,2.4-2c0-.3,0-.6,0-.9v-1.7Z"/>
        <path d="M209.2,476.7c.1,1.7,1.8,2.5,3.7,2.5s2.5-.2,3.6-.6l.6,2.8c-1.4.6-3,.8-4.8.8-4.5,0-7-2.6-7-6.7s2.1-7.1,6.7-7.1,5.9,3.3,5.9,6.6,0,1.3-.1,1.6h-8.5ZM214,473.9c0-1-.4-2.7-2.3-2.7s-2.4,1.6-2.6,2.7h4.9Z"/>
        <path d="M33.1,501v3.8h3v3h-3v4.8c0,1.6.4,2.3,1.6,2.3s.9,0,1.2-.1v3.1c-.5.2-1.5.4-2.6.4s-2.4-.5-3.1-1.1c-.8-.8-1.1-2-1.1-3.9v-5.4h-1.8v-3h1.8v-2.8l4-.9Z"/>
        <path d="M45.9,518l-.2-1.3h0c-.9,1.1-2.2,1.6-3.8,1.6-2.7,0-4.3-1.9-4.3-4,0-3.4,3.1-5.1,7.8-5.1v-.2c0-.7-.4-1.7-2.4-1.7-1.3,0-2.8.5-3.6,1l-.8-2.6c.9-.5,2.7-1.2,5.1-1.2,4.4,0,5.8,2.6,5.8,5.7v4.6c0,1.3,0,2.5.2,3.2h-3.7ZM45.4,511.8c-2.2,0-3.8.5-3.8,2.1s.7,1.6,1.6,1.6,1.9-.7,2.1-1.5c0-.2,0-.5,0-.7v-1.4Z"/>
        <path d="M52.7,509.2c0-1.9,0-3.2-.1-4.4h3.5v2.4h.3c.7-1.9,2.3-2.7,3.6-2.7s.6,0,.9,0v3.9c-.3,0-.6-.1-1.1-.1-1.5,0-2.5.8-2.8,2.1,0,.3,0,.6,0,.9v6.7h-4.1v-8.9Z"/>
        <path d="M65.9,512.7c.1,1.7,1.8,2.5,3.7,2.5s2.5-.2,3.6-.6l.6,2.8c-1.4.6-3,.8-4.8.8-4.5,0-7-2.6-7-6.7s2.1-7.1,6.7-7.1,5.9,3.3,5.9,6.6,0,1.3-.1,1.6h-8.5ZM70.7,509.9c0-1-.4-2.7-2.3-2.7s-2.4,1.6-2.6,2.7h4.9Z"/>
        <path d="M84.5,518l-.2-1.3h0c-.9,1.1-2.2,1.6-3.8,1.6-2.7,0-4.3-1.9-4.3-4,0-3.4,3.1-5.1,7.8-5.1v-.2c0-.7-.4-1.7-2.4-1.7-1.3,0-2.8.5-3.6,1l-.8-2.6c.9-.5,2.7-1.2,5.1-1.2,4.4,0,5.8,2.6,5.8,5.7v4.6c0,1.3,0,2.5.2,3.2h-3.7ZM84,511.8c-2.2,0-3.8.5-3.8,2.1s.7,1.6,1.6,1.6,1.9-.7,2.1-1.5c0-.2,0-.5,0-.7v-1.4Z"/>
        <path d="M91.2,514.4c.7.5,2.3,1,3.5,1s1.8-.4,1.8-1.1-.4-1-1.9-1.5c-2.7-.9-3.8-2.4-3.8-3.9,0-2.5,2.1-4.3,5.4-4.3s2.9.4,3.7.8l-.7,2.8c-.6-.3-1.7-.7-2.9-.7s-1.6.4-1.6,1.1.5,1,2.1,1.5c2.5.9,3.6,2.1,3.6,4.1,0,2.5-1.9,4.3-5.7,4.3s-3.3-.4-4.3-.9l.7-2.9Z"/>
        <path d="M108.4,509.2c0-1.9,0-3.2-.1-4.4h3.5v2.4h.3c.7-1.9,2.3-2.7,3.6-2.7s.6,0,.9,0v3.9c-.3,0-.6-.1-1.1-.1-1.5,0-2.5.8-2.8,2.1,0,.3,0,.6,0,.9v6.7h-4.1v-8.9Z"/>
        <path d="M121.6,512.7c.1,1.7,1.8,2.5,3.7,2.5s2.5-.2,3.6-.6l.6,2.8c-1.4.6-3,.8-4.8.8-4.5,0-7-2.6-7-6.7s2.1-7.1,6.7-7.1,5.9,3.3,5.9,6.6,0,1.3-.1,1.6h-8.5ZM126.4,509.9c0-1-.4-2.7-2.3-2.7s-2.4,1.6-2.6,2.7h4.9Z"/>
        <path d="M132.7,509.2c0-1.7,0-3.2-.1-4.4h3.6l.2,1.8h0c1-1.4,2.5-2.1,4.4-2.1,2.9,0,5.5,2.5,5.5,6.7s-3.1,7.1-6,7.1-2.8-.6-3.4-1.5h0v6.6h-4.1v-14.1ZM136.8,512.4c0,.3,0,.6,0,.9.3,1.1,1.2,1.9,2.4,1.9,1.8,0,2.8-1.5,2.8-3.7s-.9-3.7-2.8-3.7-2.2.9-2.5,2.1c0,.2,0,.5,0,.7v1.8Z"/>
        <path d="M152.1,512.7c.1,1.7,1.8,2.5,3.7,2.5s2.5-.2,3.6-.6l.6,2.8c-1.4.6-3,.8-4.8.8-4.5,0-7-2.6-7-6.7s2.1-7.1,6.7-7.1,5.9,3.3,5.9,6.6,0,1.3-.1,1.6h-8.5ZM156.9,509.9c0-1-.4-2.7-2.3-2.7s-2.4,1.6-2.6,2.7h4.9Z"/>
        <path d="M167.8,501v3.8h3v3h-3v4.8c0,1.6.4,2.3,1.6,2.3s.9,0,1.2-.1v3.1c-.5.2-1.5.4-2.6.4s-2.4-.5-3.1-1.1c-.8-.8-1.1-2-1.1-3.9v-5.4h-1.8v-3h1.8v-2.8l4-.9Z"/>
        <path d="M177.3,501.1c0,1.1-.8,2.1-2.2,2.1s-2.1-.9-2.1-2.1c0-1.2.9-2.1,2.2-2.1s2.2.9,2.2,2.1ZM173.1,518v-13.2h4.1v13.2h-4.1Z"/>
        <path d="M185.1,501v3.8h3v3h-3v4.8c0,1.6.4,2.3,1.6,2.3s.9,0,1.2-.1v3.1c-.5.2-1.5.4-2.6.4s-2.4-.5-3.1-1.1c-.8-.8-1.1-2-1.1-3.9v-5.4h-1.8v-3h1.8v-2.8l4-.9Z"/>
        <path d="M194.6,501.1c0,1.1-.8,2.1-2.2,2.1s-2.1-.9-2.1-2.1c0-1.2.9-2.1,2.2-2.1s2.2.9,2.2,2.1ZM190.4,518v-13.2h4.1v13.2h-4.1Z"/>
        <path d="M200.8,504.8l1.8,6.1c.3,1.1.6,2.2.8,3.2h0c.2-1.1.4-2.1.7-3.2l1.7-6.1h4.3l-4.9,13.2h-4.1l-4.8-13.2h4.5Z"/>
        <path d="M219.4,518l-.2-1.3h0c-.9,1.1-2.2,1.6-3.8,1.6-2.7,0-4.3-1.9-4.3-4,0-3.4,3.1-5.1,7.8-5.1v-.2c0-.7-.4-1.7-2.4-1.7-1.3,0-2.8.5-3.6,1l-.8-2.6c.9-.5,2.7-1.2,5.1-1.2,4.4,0,5.8,2.6,5.8,5.7v4.6c0,1.3,0,2.5.2,3.2h-3.7ZM218.9,511.8c-2.2,0-3.8.5-3.8,2.1s.7,1.6,1.6,1.6,1.9-.7,2.1-1.5c0-.2,0-.5,0-.7v-1.4Z"/>
        <path d="M226.1,514.4c.7.5,2.3,1,3.5,1s1.8-.4,1.8-1.1-.4-1-1.9-1.5c-2.7-.9-3.8-2.4-3.8-3.9,0-2.5,2.1-4.3,5.4-4.3s2.9.4,3.7.8l-.7,2.8c-.6-.3-1.7-.7-2.9-.7s-1.6.4-1.6,1.1.5,1,2.1,1.5c2.5.9,3.6,2.1,3.6,4.1,0,2.5-1.9,4.3-5.7,4.3s-3.3-.4-4.3-.9l.7-2.9Z"/>
        <path d="M236,521.2c.9-2.4,1.6-5.2,2-7.7l4.2-.3c-.9,2.7-2.1,5.6-3.4,7.7l-2.7.2Z"/>
        <path d="M39.1,534.8h2.4v19.2h-2.4v-19.2Z"/>
        <path d="M48.1,537.3c0,.8-.6,1.5-1.5,1.5s-1.4-.7-1.4-1.5c0-.8.6-1.5,1.5-1.5s1.5.6,1.5,1.5ZM45.5,554v-13.1h2.4v13.1h-2.4Z"/>
        <path d="M51.7,554c0-.9.1-2.2.1-3.4v-15.8h2.4v8.2h0c.8-1.5,2.3-2.4,4.5-2.4,3.2,0,5.5,2.7,5.5,6.6,0,4.7-3,7-5.9,7s-3.4-.7-4.4-2.4h0v2.1h-2.2ZM54.1,548.8c0,.3,0,.6,0,.9.4,1.6,1.8,2.8,3.6,2.8,2.5,0,4-2,4-5s-1.4-4.9-3.9-4.9-3.1,1.1-3.6,2.9c0,.3-.1.6-.1,1v2.3Z"/>
        <path d="M68.5,547.9c0,3.2,2.1,4.5,4.5,4.5s2.7-.3,3.6-.7l.4,1.7c-.8.4-2.3.8-4.4.8-4,0-6.4-2.7-6.4-6.6s2.3-7,6.1-7,5.4,3.7,5.4,6.1,0,.9,0,1.1h-9.2ZM75.5,546.2c0-1.5-.6-3.8-3.3-3.8s-3.5,2.2-3.6,3.8h6.9Z"/>
        <path d="M80.7,545c0-1.5,0-2.9-.1-4.1h2.1v2.6h.2c.6-1.8,2-2.9,3.6-2.9s.4,0,.7,0v2.2c-.2,0-.5,0-.8,0-1.7,0-2.9,1.3-3.2,3,0,.3,0,.7,0,1.1v7h-2.4v-9Z"/>
        <path d="M96.6,554l-.2-1.6h0c-.7,1-2.1,1.9-4,1.9s-4-1.9-4-3.7c0-3.2,2.8-4.9,7.8-4.9v-.3c0-1.1-.3-3-3-3-1.2,0-2.5.4-3.4,1l-.5-1.6c1.1-.7,2.7-1.1,4.3-1.1,4,0,5,2.7,5,5.3v4.9c0,1.1,0,2.2.2,3.1h-2.1ZM96.3,547.3c-2.6,0-5.5.4-5.5,2.9s1,2.3,2.2,2.3c1.7,0,2.8-1.1,3.2-2.2,0-.3.1-.5.1-.7v-2.3Z"/>
        <path d="M102.4,544.5c0-1.4,0-2.4-.1-3.5h2.1v2.1h.2c.6-1.2,2.2-2.4,4.3-2.4s4.6,1.1,4.6,5.6v7.8h-2.4v-7.5c0-2.1-.8-3.9-3-3.9s-2.8,1.1-3.2,2.4c0,.3-.2.7-.2,1.1v7.9h-2.4v-9.5Z"/>
        <path d="M128.7,534.8v15.8c0,1.2,0,2.5.1,3.4h-2.1v-2.3h-.2c-.7,1.5-2.3,2.6-4.4,2.6-3.2,0-5.6-2.7-5.6-6.6,0-4.4,2.7-7,5.9-7s3.4.9,3.9,2h0v-7.8h2.4ZM126.3,546.3c0-.3,0-.7-.1-1-.4-1.5-1.6-2.7-3.4-2.7s-3.9,2.2-3.9,5,1.3,4.9,3.9,4.9,3-1.1,3.5-2.9c0-.3.1-.6.1-1v-2.3Z"/>
        <path d="M144.4,547.4c0,4.8-3.4,6.9-6.5,6.9s-6.3-2.6-6.3-6.7,2.9-6.9,6.5-6.9,6.3,2.7,6.3,6.7ZM134.1,547.5c0,2.9,1.6,5,4,5s4-2.1,4-5.1-1.1-5-3.9-5-4,2.6-4,5.1Z"/>
        <path d="M156,537.2v3.8h3.4v1.8h-3.4v7c0,1.6.5,2.5,1.8,2.5s1.1,0,1.4-.2v1.8c-.4.2-1.1.3-2,.3s-2-.4-2.6-1c-.7-.7-.9-1.9-.9-3.4v-7.1h-2v-1.8h2v-3.1l2.3-.6Z"/>
        <path d="M164.8,537.3c0,.8-.6,1.5-1.5,1.5s-1.4-.7-1.4-1.5c0-.8.6-1.5,1.5-1.5s1.5.6,1.5,1.5ZM162.1,554v-13.1h2.4v13.1h-2.4Z"/>
        <path d="M169.8,547.9c0,3.2,2.1,4.5,4.5,4.5s2.7-.3,3.6-.7l.4,1.7c-.8.4-2.3.8-4.4.8-4,0-6.4-2.7-6.4-6.6s2.3-7,6.1-7,5.4,3.7,5.4,6.1,0,.9,0,1.1h-9.2ZM176.7,546.2c0-1.5-.6-3.8-3.3-3.8s-3.5,2.2-3.6,3.8h6.9Z"/>
        <path d="M182,544.5c0-1.4,0-2.4-.1-3.5h2.1v2.1h.2c.7-1.2,1.9-2.4,4.1-2.4s3.1,1.1,3.7,2.6h0c.4-.7.9-1.3,1.5-1.7.8-.6,1.6-.9,2.9-.9,1.7,0,4.3,1.1,4.3,5.7v7.7h-2.3v-7.4c0-2.5-.9-4-2.8-4s-2.4,1-2.8,2.1c-.1.3-.2.8-.2,1.2v8.1h-2.3v-7.8c0-2.1-.9-3.6-2.7-3.6s-2.6,1.2-3,2.4c-.1.3-.2.8-.2,1.2v7.9h-2.3v-9.5Z"/>
        <path d="M204.5,545.2c0-1.7,0-3-.1-4.3h2.1v2.2h.2c.9-1.6,2.5-2.5,4.6-2.5,3.2,0,5.5,2.7,5.5,6.6s-2.9,7-5.9,7-3.2-.8-4-2.1h0v7.1h-2.4v-14.1ZM206.8,548.7c0,.3,0,.7.1,1,.4,1.7,1.9,2.8,3.5,2.8,2.5,0,4-2.1,4-5.1s-1.4-4.8-3.9-4.8-3.1,1.1-3.6,2.9c0,.3-.2.7-.2,1v2.3Z"/>
        <path d="M231.7,547.4c0,4.8-3.4,6.9-6.5,6.9s-6.3-2.6-6.3-6.7,2.9-6.9,6.5-6.9,6.3,2.7,6.3,6.7ZM221.3,547.5c0,2.9,1.6,5,4,5s4-2.1,4-5.1-1.1-5-3.9-5-4,2.6-4,5.1Z"/>
        <path d="M31.2,577l2.9,7.7c.3.9.6,1.9.8,2.7h0c.2-.8.5-1.8.8-2.7l2.6-7.7h2.5l-3.6,9.3c-1.7,4.5-2.9,6.8-4.5,8.2-1.2,1-2.3,1.4-2.9,1.5l-.6-2c.6-.2,1.4-.6,2.1-1.2.6-.5,1.4-1.4,2-2.6.1-.2.2-.4.2-.6s0-.3-.2-.6l-4.8-12h2.6Z"/>
        <path d="M48.7,581c0-1.5,0-2.9-.1-4.1h2.1v2.6h.2c.6-1.8,2-2.9,3.6-2.9s.4,0,.7,0v2.2c-.2,0-.5,0-.8,0-1.7,0-2.9,1.3-3.2,3,0,.3,0,.7,0,1.1v7h-2.4v-9Z"/>
        <path d="M58.6,583.9c0,3.2,2.1,4.5,4.5,4.5s2.7-.3,3.6-.7l.4,1.7c-.8.4-2.3.8-4.4.8-4,0-6.4-2.7-6.4-6.6s2.3-7,6.1-7,5.4,3.7,5.4,6.1,0,.9,0,1.1h-9.2ZM65.6,582.2c0-1.5-.6-3.8-3.3-3.8s-3.5,2.2-3.6,3.8h6.9Z"/>
        <path d="M80.1,589.5c-.6.3-2,.8-3.7.8-3.9,0-6.5-2.7-6.5-6.7s2.7-7,7-7,2.7.4,3.3.7l-.5,1.8c-.6-.3-1.5-.6-2.8-.6-3,0-4.6,2.2-4.6,4.9,0,3,1.9,4.9,4.5,4.9s2.2-.3,2.9-.6l.4,1.8Z"/>
        <path d="M93.9,586.4c0,1.4,0,2.5.1,3.6h-2.1v-2.1h-.2c-.6,1.1-2,2.4-4.3,2.4s-4.5-1.1-4.5-5.7v-7.6h2.4v7.2c0,2.5.8,4.2,2.9,4.2s2.7-1.1,3.1-2.2c.1-.3.2-.8.2-1.2v-8h2.4v9.5Z"/>
        <path d="M97.8,581c0-1.5,0-2.9-.1-4.1h2.1v2.6h.2c.6-1.8,2-2.9,3.6-2.9s.4,0,.7,0v2.2c-.2,0-.5,0-.8,0-1.7,0-2.9,1.3-3.2,3,0,.3,0,.7,0,1.1v7h-2.4v-9Z"/>
        <path d="M106.3,587.6c.7.4,2,.9,3.1.9,1.7,0,2.5-.9,2.5-1.9s-.7-1.7-2.4-2.4c-2.4-.9-3.5-2.1-3.5-3.7,0-2.1,1.7-3.8,4.5-3.8s2.5.4,3.2.8l-.6,1.7c-.5-.3-1.5-.8-2.7-.8s-2.2.8-2.2,1.8.8,1.6,2.5,2.2c2.3.8,3.4,2,3.4,3.9,0,2.3-1.8,3.9-4.9,3.9s-2.8-.4-3.7-.9l.6-1.8Z"/>
        <path d="M129.2,583.4c0,4.8-3.4,6.9-6.5,6.9s-6.3-2.6-6.3-6.7,2.9-6.9,6.5-6.9,6.3,2.7,6.3,6.7ZM118.8,583.5c0,2.9,1.6,5,4,5s4-2.1,4-5.1-1.1-5-3.9-5-4,2.6-4,5.1Z"/>
        <path d="M131.8,587.6c.7.4,2,.9,3.1.9,1.7,0,2.5-.9,2.5-1.9s-.7-1.7-2.4-2.4c-2.4-.9-3.5-2.1-3.5-3.7,0-2.1,1.7-3.8,4.5-3.8s2.5.4,3.2.8l-.6,1.7c-.5-.3-1.5-.8-2.7-.8s-2.2.8-2.2,1.8.8,1.6,2.5,2.2c2.3.8,3.4,2,3.4,3.9,0,2.3-1.8,3.9-4.9,3.9s-2.8-.4-3.7-.9l.6-1.8Z"/>
        <path d="M149.5,577l2.6,7.3c.4,1.2.8,2.3,1.1,3.4h0c.3-1.1.7-2.2,1.1-3.4l2.6-7.3h2.5l-5.1,13.1h-2.3l-5-13.1h2.5Z"/>
        <path d="M168.7,590l-.2-1.6h0c-.7,1-2.1,1.9-4,1.9s-4-1.9-4-3.7c0-3.2,2.8-4.9,7.8-4.9v-.3c0-1.1-.3-3-3-3-1.2,0-2.5.4-3.4,1l-.5-1.6c1.1-.7,2.7-1.1,4.3-1.1,4,0,5,2.7,5,5.3v4.9c0,1.1,0,2.2.2,3.1h-2.1ZM168.3,583.3c-2.6,0-5.5.4-5.5,2.9s1,2.3,2.2,2.3c1.7,0,2.8-1.1,3.2-2.2,0-.3.1-.5.1-.7v-2.3Z"/>
        <path d="M174.5,570.8h2.4v19.2h-2.4v-19.2Z"/>
        <path d="M183.5,573.3c0,.8-.6,1.5-1.5,1.5s-1.4-.7-1.4-1.5c0-.8.6-1.5,1.5-1.5s1.5.6,1.5,1.5ZM180.9,590v-13.1h2.4v13.1h-2.4Z"/>
        <path d="M199,583.4c0,4.8-3.4,6.9-6.5,6.9s-6.3-2.6-6.3-6.7,2.9-6.9,6.5-6.9,6.3,2.7,6.3,6.7ZM188.6,583.5c0,2.9,1.6,5,4,5s4-2.1,4-5.1-1.1-5-3.9-5-4,2.6-4,5.1Z"/>
        <path d="M201.7,587.6c.7.4,2,.9,3.1.9,1.7,0,2.5-.9,2.5-1.9s-.7-1.7-2.4-2.4c-2.4-.9-3.5-2.1-3.5-3.7,0-2.1,1.7-3.8,4.5-3.8s2.5.4,3.2.8l-.6,1.7c-.5-.3-1.5-.8-2.7-.8s-2.2.8-2.2,1.8.8,1.6,2.5,2.2c2.3.8,3.4,2,3.4,3.9,0,2.3-1.8,3.9-4.9,3.9s-2.8-.4-3.7-.9l.6-1.8Z"/>
        <path d="M224.5,583.4c0,4.8-3.4,6.9-6.5,6.9s-6.3-2.6-6.3-6.7,2.9-6.9,6.5-6.9,6.3,2.7,6.3,6.7ZM214.1,583.5c0,2.9,1.6,5,4,5s4-2.1,4-5.1-1.1-5-3.9-5-4,2.6-4,5.1Z"/>
        <path d="M227.2,587.6c.7.4,2,.9,3.1.9,1.7,0,2.5-.9,2.5-1.9s-.7-1.7-2.4-2.4c-2.4-.9-3.5-2.1-3.5-3.7,0-2.1,1.7-3.8,4.5-3.8s2.5.4,3.2.8l-.6,1.7c-.5-.3-1.5-.8-2.7-.8s-2.2.8-2.2,1.8.8,1.6,2.5,2.2c2.3.8,3.4,2,3.4,3.9,0,2.3-1.8,3.9-4.9,3.9s-2.8-.4-3.7-.9l.6-1.8Z"/>
        <path d="M237.3,588.6c0-1,.7-1.7,1.6-1.7s1.6.7,1.6,1.7c0,1-.6,1.7-1.6,1.7s-1.6-.7-1.6-1.7Z"/>
      </g>
      <g>
        <path d="M876.6,485.1c1.3-.2,3-.4,5.6-.4s4.3.5,5.6,1.5c1.2.9,1.9,2.4,1.9,4.2s-.6,3.3-1.7,4.3c-1.4,1.3-3.5,1.9-5.9,1.9s-1,0-1.4,0v6.5h-4.1v-18ZM880.7,493.3c.3,0,.8.1,1.4.1,2.2,0,3.5-1.1,3.5-2.9s-1.1-2.7-3.2-2.7-1.4,0-1.7.1v5.4Z"/>
        <path d="M891.9,494.2c0-1.9,0-3.2-.1-4.4h3.5v2.4h.2c.7-1.9,2.3-2.7,3.6-2.7s.6,0,.9,0v3.9c-.3,0-.6-.1-1.1-.1-1.5,0-2.5.8-2.8,2.1,0,.3,0,.6,0,.9v6.7h-4.1v-8.9Z"/>
        <path d="M915,496.3c0,4.8-3.4,7-7,7s-6.8-2.5-6.8-6.8,2.8-7,7.1-7,6.7,2.8,6.7,6.8ZM905.4,496.4c0,2.3,1,4,2.7,4s2.6-1.6,2.6-4-.8-4-2.6-4-2.7,2-2.7,4Z"/>
        <path d="M930.4,483.9v15.2c0,1.5,0,3.1.1,3.9h-3.7l-.2-1.9h0c-.8,1.5-2.4,2.2-4.1,2.2-3.1,0-5.6-2.7-5.6-6.8,0-4.4,2.8-7,5.9-7s2.9.6,3.5,1.5h0v-7.1h4.1ZM926.3,495.4c0-.2,0-.5,0-.7-.2-1.1-1.1-2-2.4-2-1.9,0-2.8,1.7-2.8,3.8s1.1,3.6,2.8,3.6,2.1-.8,2.4-2c0-.3,0-.6,0-.9v-1.7Z"/>
        <path d="M946.1,498.8c0,1.7,0,3.1.1,4.2h-3.6l-.2-1.9h0c-.5.8-1.7,2.2-4.1,2.2s-4.6-1.7-4.6-5.7v-7.8h4.1v7.1c0,1.9.6,3.1,2.1,3.1s1.8-.8,2-1.4c.1-.2.2-.5.2-.9v-7.9h4.1v9Z"/>
        <path d="M959.4,502.7c-.7.3-2.1.6-3.7.6-4.3,0-7-2.6-7-6.8s2.6-7,7.6-7,2.3.2,3.1.5l-.6,3.1c-.5-.2-1.2-.4-2.3-.4-2.2,0-3.6,1.5-3.5,3.7,0,2.4,1.6,3.7,3.6,3.7s1.7-.2,2.4-.4l.5,3Z"/>
        <path d="M966.6,486.1v3.8h3v3h-3v4.8c0,1.6.4,2.3,1.6,2.3s.9,0,1.2-.1v3.1c-.5.2-1.5.4-2.6.4s-2.4-.5-3.1-1.1c-.8-.8-1.1-2-1.1-3.9v-5.4h-1.8v-3h1.8v-2.8l4-.9Z"/>
        <path d="M976.2,486.2c0,1.1-.8,2.1-2.2,2.1s-2.1-.9-2.1-2.1c0-1.2.9-2.1,2.2-2.1s2.2.9,2.2,2.1ZM972,503v-13.2h4.1v13.2h-4.1Z"/>
        <path d="M982.4,489.8l1.8,6.1c.3,1.1.6,2.2.8,3.2h0c.2-1.1.4-2.1.7-3.2l1.7-6.1h4.3l-4.9,13.2h-4.1l-4.8-13.2h4.5Z"/>
        <path d="M997.9,486.2c0,1.1-.8,2.1-2.2,2.1s-2.1-.9-2.1-2.1c0-1.2.9-2.1,2.2-2.1s2.2.9,2.2,2.1ZM993.7,503v-13.2h4.1v13.2h-4.1Z"/>
        <path d="M1013.9,483.9v15.2c0,1.5,0,3.1.1,3.9h-3.7l-.2-1.9h0c-.8,1.5-2.4,2.2-4.1,2.2-3.1,0-5.6-2.7-5.6-6.8,0-4.4,2.8-7,5.9-7s2.9.6,3.5,1.5h0v-7.1h4.1ZM1009.7,495.4c0-.2,0-.5,0-.7-.2-1.1-1.1-2-2.4-2-1.9,0-2.8,1.7-2.8,3.8s1.1,3.6,2.8,3.6,2.1-.8,2.4-2c0-.3,0-.6,0-.9v-1.7Z"/>
        <path d="M1024.7,503l-.2-1.3h0c-.9,1.1-2.2,1.6-3.8,1.6-2.7,0-4.3-1.9-4.3-4,0-3.4,3.1-5.1,7.8-5.1v-.2c0-.7-.4-1.7-2.4-1.7-1.3,0-2.8.5-3.6,1l-.8-2.6c.9-.5,2.7-1.2,5.1-1.2,4.4,0,5.8,2.6,5.8,5.7v4.6c0,1.3,0,2.5.2,3.2h-3.7ZM1024.2,496.8c-2.2,0-3.8.5-3.8,2.1s.7,1.6,1.6,1.6,1.9-.7,2.1-1.5c0-.2,0-.5,0-.7v-1.4Z"/>
        <path d="M1044.2,483.9v15.2c0,1.5,0,3.1.1,3.9h-3.7l-.2-1.9h0c-.8,1.5-2.4,2.2-4.1,2.2-3.1,0-5.6-2.7-5.6-6.8,0-4.4,2.8-7,5.9-7s2.9.6,3.5,1.5h0v-7.1h4.1ZM1040.1,495.4c0-.2,0-.5,0-.7-.2-1.1-1.1-2-2.4-2-1.9,0-2.8,1.7-2.8,3.8s1.1,3.6,2.8,3.6,2.1-.8,2.4-2c0-.3,0-.6,0-.9v-1.7Z"/>
        <path d="M1057.2,486.2c0,1.1-.8,2.1-2.2,2.1s-2.1-.9-2.1-2.1c0-1.2.9-2.1,2.2-2.1s2.2.9,2.2,2.1ZM1053,503v-13.2h4.1v13.2h-4.1Z"/>
        <path d="M1060.4,494c0-1.6,0-3-.1-4.2h3.6l.2,1.8h0c.5-.9,1.9-2.1,4.1-2.1s4.7,1.8,4.7,5.7v7.8h-4.1v-7.3c0-1.7-.6-2.9-2.1-2.9s-1.8.8-2.1,1.6c-.1.3-.1.6-.1,1v7.6h-4.1v-9Z"/>
        <path d="M1086.1,502.7c-.7.3-2.1.6-3.7.6-4.3,0-7-2.6-7-6.8s2.6-7,7.6-7,2.3.2,3.1.5l-.6,3.1c-.5-.2-1.2-.4-2.3-.4-2.2,0-3.6,1.5-3.5,3.7,0,2.4,1.6,3.7,3.6,3.7s1.7-.2,2.4-.4l.5,3Z"/>
        <path d="M1088.4,494.2c0-1.9,0-3.2-.1-4.4h3.5l.2,2.4h.1c.7-1.9,2.3-2.7,3.6-2.7s.6,0,.9,0v3.9c-.3,0-.7-.1-1.1-.1-1.5,0-2.5.8-2.8,2.1,0,.3,0,.6,0,.9v6.7h-4.1v-8.9Z"/>
        <path d="M1101.6,497.8c.1,1.7,1.8,2.5,3.7,2.5s2.5-.2,3.6-.6l.6,2.8c-1.4.6-3,.8-4.8.8-4.5,0-7-2.6-7-6.7s2.1-7.1,6.7-7.1,5.9,3.3,5.9,6.6,0,1.3-.1,1.6h-8.5ZM1106.4,494.9c0-1-.4-2.7-2.3-2.7s-2.4,1.6-2.6,2.7h4.9Z"/>
        <path d="M1112.7,494c0-1.6,0-3-.1-4.2h3.5l.2,1.8h0c.6-.8,1.7-2.1,4-2.1s3,.9,3.6,2.3h0c.5-.7,1.1-1.2,1.7-1.6.7-.4,1.5-.7,2.5-.7,2.5,0,4.4,1.8,4.4,5.7v7.8h-4v-7.2c0-1.9-.6-3-1.9-3s-1.6.6-1.9,1.4c0,.3-.1.7-.1,1v7.7h-4v-7.4c0-1.7-.6-2.8-1.9-2.8s-1.7.8-1.9,1.5c-.1.3-.2.7-.2,1v7.7h-4v-9Z"/>
        <path d="M1139,497.8c.1,1.7,1.8,2.5,3.7,2.5s2.5-.2,3.6-.6l.6,2.8c-1.4.6-3,.8-4.8.8-4.5,0-7-2.6-7-6.7s2.1-7.1,6.7-7.1,5.9,3.3,5.9,6.6,0,1.3-.1,1.6h-8.5ZM1143.9,494.9c0-1-.4-2.7-2.3-2.7s-2.4,1.6-2.6,2.7h4.9Z"/>
        <path d="M1150.1,494c0-1.6,0-3-.1-4.2h3.6l.2,1.8h0c.5-.9,1.9-2.1,4.1-2.1s4.7,1.8,4.7,5.7v7.8h-4.1v-7.3c0-1.7-.6-2.9-2.1-2.9s-1.8.8-2.1,1.6c-.1.3-.1.6-.1,1v7.6h-4.1v-9Z"/>
        <path d="M1170.4,486.1v3.8h3v3h-3v4.8c0,1.6.4,2.3,1.6,2.3s.9,0,1.2-.1v3.1c-.5.2-1.5.4-2.6.4s-2.4-.5-3.1-1.1c-.8-.8-1.1-2-1.1-3.9v-5.4h-1.8v-3h1.8v-2.8l4-.9Z"/>
        <path d="M1183.2,503l-.2-1.3h0c-.9,1.1-2.2,1.6-3.8,1.6-2.7,0-4.3-1.9-4.3-4,0-3.4,3.1-5.1,7.8-5.1v-.2c0-.7-.4-1.7-2.4-1.7-1.3,0-2.8.5-3.6,1l-.8-2.6c.9-.5,2.7-1.2,5.1-1.2,4.4,0,5.8,2.6,5.8,5.7v4.6c0,1.3,0,2.5.2,3.2h-3.7ZM1182.7,496.8c-2.2,0-3.8.5-3.8,2.1s.7,1.6,1.6,1.6,1.9-.7,2.1-1.5c0-.2,0-.5,0-.7v-1.4Z"/>
        <path d="M1202.7,483.9v15.2c0,1.5,0,3.1.1,3.9h-3.7l-.2-1.9h0c-.8,1.5-2.4,2.2-4.1,2.2-3.1,0-5.6-2.7-5.6-6.8,0-4.4,2.8-7,5.9-7s2.9.6,3.5,1.5h0v-7.1h4.1ZM1198.6,495.4c0-.2,0-.5,0-.7-.2-1.1-1.1-2-2.4-2-1.9,0-2.8,1.7-2.8,3.8s1.1,3.6,2.8,3.6,2.1-.8,2.4-2c0-.3,0-.6,0-.9v-1.7Z"/>
        <path d="M1213.6,503l-.2-1.3h0c-.9,1.1-2.2,1.6-3.8,1.6-2.7,0-4.3-1.9-4.3-4,0-3.4,3.1-5.1,7.8-5.1v-.2c0-.7-.4-1.7-2.4-1.7-1.3,0-2.8.5-3.6,1l-.8-2.6c.9-.5,2.7-1.2,5.1-1.2,4.4,0,5.8,2.6,5.8,5.7v4.6c0,1.3,0,2.5.2,3.2h-3.7ZM1213.1,496.8c-2.2,0-3.8.5-3.8,2.1s.7,1.6,1.6,1.6,1.9-.7,2.1-1.5c0-.2,0-.5,0-.7v-1.4Z"/>
        <path d="M1218.7,506.3c.9-2.4,1.6-5.2,2-7.7l4.2-.3c-.9,2.7-2.1,5.6-3.4,7.7l-2.7.2Z"/>
        <path d="M899.6,530.2c0-1.7,0-3-.1-4.3h2.1v2.2h.2c.9-1.6,2.5-2.5,4.6-2.5,3.2,0,5.5,2.7,5.5,6.6s-2.9,7-5.9,7-3.2-.8-4-2.1h0v7.1h-2.4v-14.1ZM902,533.7c0,.3,0,.7.1,1,.4,1.7,1.9,2.8,3.5,2.8,2.5,0,4-2.1,4-5.1s-1.4-4.8-3.9-4.8-3.1,1.1-3.6,2.9c0,.3-.2.7-.2,1v2.3Z"/>
        <path d="M916.3,532.9c0,3.2,2.1,4.5,4.5,4.5s2.7-.3,3.6-.7l.4,1.7c-.8.4-2.3.8-4.4.8-4,0-6.4-2.7-6.4-6.6s2.3-7,6.1-7,5.4,3.7,5.4,6.1,0,.9,0,1.1h-9.2ZM923.3,531.2c0-1.5-.6-3.8-3.3-3.8s-3.5,2.2-3.6,3.8h6.9Z"/>
        <path d="M928.5,530.1c0-1.5,0-2.9-.1-4.1h2.1v2.6h.2c.6-1.8,2-2.9,3.6-2.9s.4,0,.7,0v2.2c-.2,0-.5,0-.8,0-1.7,0-2.9,1.3-3.2,3,0,.3,0,.7,0,1.1v7h-2.4v-9Z"/>
        <path d="M937.5,529.5c0-1.4,0-2.4-.1-3.5h2.1v2.1h.2c.7-1.2,1.9-2.4,4.1-2.4s3.1,1.1,3.7,2.6h0c.4-.7.9-1.3,1.5-1.7.8-.6,1.6-.9,2.9-.9,1.7,0,4.3,1.1,4.3,5.7v7.7h-2.3v-7.4c0-2.5-.9-4-2.8-4s-2.4,1-2.8,2.1c-.1.3-.2.8-.2,1.2v8.1h-2.3v-7.8c0-2.1-.9-3.6-2.7-3.6s-2.6,1.2-3,2.4c-.1.3-.2.8-.2,1.2v7.9h-2.3v-9.5Z"/>
        <path d="M962.6,522.3c0,.8-.6,1.5-1.5,1.5s-1.4-.7-1.4-1.5c0-.8.6-1.5,1.5-1.5s1.5.6,1.5,1.5ZM960,539v-13.1h2.4v13.1h-2.4Z"/>
        <path d="M969.1,522.2v3.8h3.4v1.8h-3.4v7c0,1.6.5,2.5,1.8,2.5s1.1,0,1.4-.2v1.8c-.4.2-1.1.3-2,.3s-2-.4-2.6-1c-.7-.7-.9-1.9-.9-3.4v-7.1h-2v-1.8h2v-3.1l2.3-.6Z"/>
        <path d="M977.9,522.3c0,.8-.6,1.5-1.5,1.5s-1.4-.7-1.4-1.5c0-.8.6-1.5,1.5-1.5s1.5.6,1.5,1.5ZM975.2,539v-13.1h2.4v13.1h-2.4Z"/>
        <path d="M982.9,532.9c0,3.2,2.1,4.5,4.5,4.5s2.7-.3,3.6-.7l.4,1.7c-.8.4-2.3.8-4.4.8-4,0-6.4-2.7-6.4-6.6s2.3-7,6.1-7,5.4,3.7,5.4,6.1,0,.9,0,1.1h-9.2ZM989.8,531.2c0-1.5-.6-3.8-3.3-3.8s-3.5,2.2-3.6,3.8h6.9Z"/>
        <path d="M995.1,529.5c0-1.4,0-2.4-.1-3.5h2.1v2.1h.2c.6-1.2,2.2-2.4,4.3-2.4s4.6,1.1,4.6,5.6v7.8h-2.4v-7.5c0-2.1-.8-3.9-3-3.9s-2.8,1.1-3.2,2.4c0,.3-.2.7-.2,1.1v7.9h-2.4v-9.5Z"/>
        <path d="M1021.3,519.9v15.8c0,1.2,0,2.5.1,3.4h-2.1v-2.3h-.2c-.7,1.5-2.3,2.6-4.4,2.6-3.2,0-5.6-2.7-5.6-6.6,0-4.4,2.7-7,5.9-7s3.4.9,3.9,2h0v-7.8h2.4ZM1019,531.3c0-.3,0-.7-.1-1-.4-1.5-1.6-2.7-3.4-2.7s-3.9,2.2-3.9,5,1.3,4.9,3.9,4.9,3-1.1,3.5-2.9c0-.3.1-.6.1-1v-2.3Z"/>
        <path d="M1037.1,532.4c0,4.8-3.4,6.9-6.5,6.9s-6.3-2.6-6.3-6.7,2.9-6.9,6.5-6.9,6.3,2.7,6.3,6.7ZM1026.8,532.5c0,2.9,1.6,5,4,5s4-2.1,4-5.1-1.1-5-3.9-5-4,2.6-4,5.1Z"/>
        <path d="M1054.7,537h0c-.7,1.3-2.2,2.3-4.3,2.3-3.1,0-5.5-2.6-5.5-6.6s3.2-7,5.9-7,3.4,1,4,2.3h0s0-2,0-2h2.2c0,1.1-.1,2.2-.1,3.6v14.8h-2.4v-7.4ZM1054.7,531.3c0-.3,0-.7-.1-1-.4-1.5-1.6-2.7-3.4-2.7s-3.9,2.1-3.9,5,1.2,4.9,3.9,4.9,2.9-1,3.4-2.6c.1-.3.2-.8.2-1.1v-2.5Z"/>
        <path d="M1072,535.5c0,1.4,0,2.5.1,3.6h-2.1v-2.1h-.2c-.6,1.1-2,2.4-4.3,2.4s-4.5-1.1-4.5-5.7v-7.6h2.4v7.2c0,2.5.8,4.2,2.9,4.2s2.7-1.1,3.1-2.2c.1-.3.2-.8.2-1.2v-8h2.4v9.5Z"/>
        <path d="M1077.2,532.9c0,3.2,2.1,4.5,4.5,4.5s2.7-.3,3.6-.7l.4,1.7c-.8.4-2.3.8-4.4.8-4,0-6.4-2.7-6.4-6.6s2.3-7,6.1-7,5.4,3.7,5.4,6.1,0,.9,0,1.1h-9.2ZM1084.2,531.2c0-1.5-.6-3.8-3.3-3.8s-3.5,2.2-3.6,3.8h6.9Z"/>
        <path d="M1098,522.2v3.8h3.4v1.8h-3.4v7c0,1.6.5,2.5,1.8,2.5s1.1,0,1.4-.2v1.8c-.4.2-1.1.3-2,.3s-2-.4-2.6-1c-.7-.7-.9-1.9-.9-3.4v-7.1h-2v-1.8h2v-3.1l2.3-.6Z"/>
        <path d="M1115,535.5c0,1.4,0,2.5.1,3.6h-2.1v-2.1h-.2c-.6,1.1-2,2.4-4.3,2.4s-4.5-1.1-4.5-5.7v-7.6h2.4v7.2c0,2.5.8,4.2,2.9,4.2s2.7-1.1,3.1-2.2c.1-.3.2-.8.2-1.2v-8h2.4v9.5Z"/>
        <path d="M1126,532.9c0,3.2,2.1,4.5,4.5,4.5s2.7-.3,3.6-.7l.4,1.7c-.8.4-2.3.8-4.4.8-4,0-6.4-2.7-6.4-6.6s2.3-7,6.1-7,5.4,3.7,5.4,6.1,0,.9,0,1.1h-9.2ZM1133,531.2c0-1.5-.6-3.8-3.3-3.8s-3.5,2.2-3.6,3.8h6.9Z"/>
        <path d="M1147.1,537h0c-.7,1.3-2.2,2.3-4.3,2.3-3.1,0-5.5-2.6-5.5-6.6s3.2-7,5.9-7,3.4,1,4,2.3h0s0-2,0-2h2.2c0,1.1-.1,2.2-.1,3.6v14.8h-2.4v-7.4ZM1147.1,531.3c0-.3,0-.7-.1-1-.4-1.5-1.6-2.7-3.4-2.7s-3.9,2.1-3.9,5,1.2,4.9,3.9,4.9,2.9-1,3.4-2.6c.1-.3.2-.8.2-1.1v-2.5Z"/>
        <path d="M1164.3,535.5c0,1.4,0,2.5.1,3.6h-2.1v-2.1h-.2c-.6,1.1-2,2.4-4.3,2.4s-4.5-1.1-4.5-5.7v-7.6h2.4v7.2c0,2.5.8,4.2,2.9,4.2s2.7-1.1,3.1-2.2c.1-.3.2-.8.2-1.2v-8h2.4v9.5Z"/>
        <path d="M1171,522.3c0,.8-.6,1.5-1.5,1.5s-1.4-.7-1.4-1.5c0-.8.6-1.5,1.5-1.5s1.5.6,1.5,1.5ZM1168.3,539v-13.1h2.4v13.1h-2.4Z"/>
        <path d="M1174.6,530.2c0-1.7,0-3-.1-4.3h2.1v2.2h.2c.9-1.6,2.5-2.5,4.6-2.5,3.2,0,5.5,2.7,5.5,6.6s-2.9,7-5.9,7-3.2-.8-4-2.1h0v7.1h-2.4v-14.1ZM1177,533.7c0,.3,0,.7.1,1,.4,1.7,1.9,2.8,3.5,2.8,2.5,0,4-2.1,4-5.1s-1.4-4.8-3.9-4.8-3.1,1.1-3.6,2.9c0,.3-.2.7-.2,1v2.3Z"/>
        <path d="M1201.8,532.4c0,4.8-3.4,6.9-6.5,6.9s-6.3-2.6-6.3-6.7,2.9-6.9,6.5-6.9,6.3,2.7,6.3,6.7ZM1191.5,532.5c0,2.9,1.6,5,4,5s4-2.1,4-5.1-1.1-5-3.9-5-4,2.6-4,5.1Z"/>
        <path d="M905.8,572.6c.7.4,2,.9,3.1.9,1.7,0,2.5-.9,2.5-1.9s-.7-1.7-2.4-2.4c-2.4-.9-3.5-2.1-3.5-3.7,0-2.1,1.7-3.8,4.5-3.8s2.5.4,3.2.8l-.6,1.7c-.5-.3-1.5-.8-2.7-.8s-2.2.8-2.2,1.8.8,1.6,2.5,2.2c2.3.8,3.4,2,3.4,3.9,0,2.3-1.8,3.9-4.9,3.9s-2.8-.4-3.7-.9l.6-1.8Z"/>
        <path d="M918.2,568.9c0,3.2,2.1,4.5,4.5,4.5s2.7-.3,3.6-.7l.4,1.7c-.8.4-2.3.8-4.4.8-4,0-6.4-2.7-6.4-6.6s2.3-7,6.1-7,5.4,3.7,5.4,6.1,0,.9,0,1.1h-9.2ZM925.1,567.2c0-1.5-.6-3.8-3.3-3.8s-3.5,2.2-3.6,3.8h6.9Z"/>
        <path d="M937.4,568.9c0,3.2,2.1,4.5,4.5,4.5s2.7-.3,3.6-.7l.4,1.7c-.8.4-2.3.8-4.4.8-4,0-6.4-2.7-6.4-6.6s2.3-7,6.1-7,5.4,3.7,5.4,6.1,0,.9,0,1.1h-9.2ZM944.4,567.2c0-1.5-.6-3.8-3.3-3.8s-3.5,2.2-3.6,3.8h6.9Z"/>
        <path d="M949.6,565.5c0-1.4,0-2.4-.1-3.5h2.1v2.1h.2c.6-1.2,2.2-2.4,4.3-2.4s4.6,1.1,4.6,5.6v7.8h-2.4v-7.5c0-2.1-.8-3.9-3-3.9s-2.8,1.1-3.2,2.4c0,.3-.2.7-.2,1.1v7.9h-2.4v-9.5Z"/>
        <path d="M964.9,575v-11.3h-1.8v-1.8h1.8v-.6c0-1.8.4-3.5,1.5-4.6.9-.9,2.1-1.2,3.2-1.2s1.6.2,2,.4l-.3,1.8c-.4-.2-.8-.3-1.5-.3-2,0-2.5,1.8-2.5,3.8v.7h3.2v1.8h-3.1v11.3h-2.4Z"/>
        <path d="M984,568.4c0,4.8-3.4,6.9-6.5,6.9s-6.3-2.6-6.3-6.7,2.9-6.9,6.5-6.9,6.3,2.7,6.3,6.7ZM973.6,568.5c0,2.9,1.6,5,4,5s4-2.1,4-5.1-1.1-5-3.9-5-4,2.6-4,5.1Z"/>
        <path d="M995.9,573h0c-.7,1.3-2.2,2.3-4.3,2.3-3.1,0-5.5-2.6-5.5-6.6s3.2-7,5.9-7,3.4,1,4,2.3h0s0-2,0-2h2.2c0,1.1-.1,2.2-.1,3.6v14.8h-2.4v-7.4ZM995.9,567.3c0-.3,0-.7-.1-1-.4-1.5-1.6-2.7-3.4-2.7s-3.9,2.1-3.9,5,1.2,4.9,3.9,4.9,2.9-1,3.4-2.6c.1-.3.2-.8.2-1.1v-2.5Z"/>
        <path d="M1013.1,571.5c0,1.4,0,2.5.1,3.6h-2.1v-2.1h-.2c-.6,1.1-2,2.4-4.3,2.4s-4.5-1.1-4.5-5.7v-7.6h2.4v7.2c0,2.5.8,4.2,2.9,4.2s2.7-1.1,3.1-2.2c.1-.3.2-.8.2-1.2v-8h2.4v9.5Z"/>
        <path d="M1018.4,568.9c0,3.2,2.1,4.5,4.5,4.5s2.7-.3,3.6-.7l.4,1.7c-.8.4-2.3.8-4.4.8-4,0-6.4-2.7-6.4-6.6s2.3-7,6.1-7,5.4,3.7,5.4,6.1,0,.9,0,1.1h-9.2ZM1025.4,567.2c0-1.5-.6-3.8-3.3-3.8s-3.5,2.2-3.6,3.8h6.9Z"/>
        <path d="M1037.7,568.9c0,3.2,2.1,4.5,4.5,4.5s2.7-.3,3.6-.7l.4,1.7c-.8.4-2.3.8-4.4.8-4,0-6.4-2.7-6.4-6.6s2.3-7,6.1-7,5.4,3.7,5.4,6.1,0,.9,0,1.1h-9.2ZM1044.6,567.2c0-1.5-.6-3.8-3.3-3.8s-3.5,2.2-3.6,3.8h6.9Z"/>
        <path d="M1049.9,565.5c0-1.4,0-2.4-.1-3.5h2.1v2.1h.2c.6-1.2,2.2-2.4,4.3-2.4s4.6,1.1,4.6,5.6v7.8h-2.4v-7.5c0-2.1-.8-3.9-3-3.9s-2.8,1.1-3.2,2.4c0,.3-.2.7-.2,1.1v7.9h-2.4v-9.5Z"/>
        <path d="M1077.8,575l-.2-1.6h0c-.7,1-2.1,1.9-4,1.9s-4-1.9-4-3.7c0-3.2,2.8-4.9,7.8-4.9v-.3c0-1.1-.3-3-3-3-1.2,0-2.5.4-3.4,1l-.5-1.6c1.1-.7,2.7-1.1,4.3-1.1,4,0,5,2.7,5,5.3v4.9c0,1.1,0,2.2.2,3.1h-2.1ZM1077.4,568.4c-2.6,0-5.5.4-5.5,2.9s1,2.3,2.2,2.3c1.7,0,2.8-1.1,3.2-2.2,0-.3.1-.5.1-.7v-2.3Z"/>
        <path d="M1092.9,574.6c-.6.3-2,.8-3.7.8-3.9,0-6.5-2.7-6.5-6.7s2.7-7,7-7,2.7.4,3.3.7l-.5,1.8c-.6-.3-1.5-.6-2.8-.6-3,0-4.6,2.2-4.6,4.9,0,3,1.9,4.9,4.5,4.9s2.2-.3,2.9-.6l.4,1.8Z"/>
        <path d="M1098.9,558.2v3.8h3.4v1.8h-3.4v7c0,1.6.5,2.5,1.8,2.5s1.1,0,1.4-.2v1.8c-.4.2-1.1.3-2,.3s-2-.4-2.6-1c-.7-.7-.9-1.9-.9-3.4v-7.1h-2v-1.8h2v-3.1l2.3-.6Z"/>
        <path d="M1107.6,558.3c0,.8-.6,1.5-1.5,1.5s-1.4-.7-1.4-1.5c0-.8.6-1.5,1.5-1.5s1.5.6,1.5,1.5ZM1105,575v-13.1h2.4v13.1h-2.4Z"/>
        <path d="M1112.2,562l2.6,7.3c.4,1.2.8,2.3,1.1,3.4h0c.3-1.1.7-2.2,1.1-3.4l2.6-7.3h2.5l-5.1,13.1h-2.3l-5-13.1h2.5Z"/>
        <path d="M1126.9,558.3c0,.8-.6,1.5-1.5,1.5s-1.4-.7-1.4-1.5c0-.8.6-1.5,1.5-1.5s1.5.6,1.5,1.5ZM1124.3,575v-13.1h2.4v13.1h-2.4Z"/>
        <path d="M1141.9,555.9v15.8c0,1.2,0,2.5.1,3.4h-2.1v-2.3h-.2c-.7,1.5-2.3,2.6-4.4,2.6-3.2,0-5.6-2.7-5.6-6.6,0-4.4,2.7-7,5.9-7s3.4.9,3.9,2h0v-7.8h2.4ZM1139.5,567.3c0-.3,0-.7-.1-1-.4-1.5-1.6-2.7-3.4-2.7s-3.9,2.2-3.9,5,1.3,4.9,3.9,4.9,3-1.1,3.5-2.9c0-.3.1-.6.1-1v-2.3Z"/>
        <path d="M1153.1,575l-.2-1.6h0c-.7,1-2.1,1.9-4,1.9s-4-1.9-4-3.7c0-3.2,2.8-4.9,7.8-4.9v-.3c0-1.1-.3-3-3-3-1.2,0-2.5.4-3.4,1l-.5-1.6c1.1-.7,2.7-1.1,4.3-1.1,4,0,5,2.7,5,5.3v4.9c0,1.1,0,2.2.2,3.1h-2.1ZM1152.7,568.4c-2.6,0-5.5.4-5.5,2.9s1,2.3,2.2,2.3c1.7,0,2.8-1.1,3.2-2.2,0-.3.1-.5.1-.7v-2.3Z"/>
        <path d="M1170.1,555.9v15.8c0,1.2,0,2.5.1,3.4h-2.1v-2.3h-.2c-.7,1.5-2.3,2.6-4.4,2.6-3.2,0-5.6-2.7-5.6-6.6,0-4.4,2.7-7,5.9-7s3.4.9,3.9,2h0v-7.8h2.4ZM1167.7,567.3c0-.3,0-.7,0-1-.4-1.5-1.6-2.7-3.4-2.7s-3.9,2.2-3.9,5,1.3,4.9,3.9,4.9,3-1.1,3.5-2.9c0-.3.1-.6.1-1v-2.3Z"/>
        <path d="M1175.4,568.9c0,3.2,2.1,4.5,4.5,4.5s2.7-.3,3.6-.7l.4,1.7c-.8.4-2.3.8-4.4.8-4,0-6.4-2.7-6.4-6.6s2.3-7,6.1-7,5.4,3.7,5.4,6.1,0,.9,0,1.1h-9.2ZM1182.3,567.2c0-1.5-.6-3.8-3.3-3.8s-3.5,2.2-3.6,3.8h6.9Z"/>
        <path d="M1187.2,572.6c.7.4,2,.9,3.1.9,1.7,0,2.5-.9,2.5-1.9s-.7-1.7-2.4-2.4c-2.4-.9-3.5-2.1-3.5-3.7,0-2.1,1.7-3.8,4.5-3.8s2.5.4,3.2.8l-.6,1.7c-.5-.3-1.5-.8-2.7-.8s-2.2.8-2.2,1.8.8,1.6,2.5,2.2c2.2.8,3.4,2,3.4,3.9,0,2.3-1.8,3.9-4.9,3.9s-2.8-.4-3.7-.9l.6-1.8Z"/>
        <path d="M986.7,604.9c0,3.2,2.1,4.5,4.5,4.5s2.7-.3,3.6-.7l.4,1.7c-.8.4-2.3.8-4.4.8-4,0-6.4-2.7-6.4-6.6s2.3-7,6.1-7,5.4,3.7,5.4,6.1,0,.9,0,1.1h-9.2ZM993.6,603.2c0-1.5-.6-3.8-3.3-3.8s-3.5,2.2-3.6,3.8h6.9Z"/>
        <path d="M998.6,608.6c.7.4,2,.9,3.1.9,1.7,0,2.5-.9,2.5-1.9s-.7-1.7-2.4-2.4c-2.4-.9-3.5-2.1-3.5-3.7,0-2.1,1.7-3.8,4.5-3.8s2.5.4,3.2.8l-.6,1.7c-.5-.3-1.5-.8-2.7-.8s-2.2.8-2.2,1.8.8,1.6,2.5,2.2c2.2.8,3.4,2,3.4,3.9,0,2.3-1.8,3.9-4.9,3.9s-2.8-.4-3.7-.9l.6-1.8Z"/>
        <path d="M1012.4,594.2v3.8h3.4v1.8h-3.4v7c0,1.6.5,2.5,1.8,2.5s1.1,0,1.4-.2v1.8c-.4.2-1.1.3-2,.3s-2-.4-2.6-1c-.7-.7-.9-1.9-.9-3.4v-7.1h-2v-1.8h2v-3.1l2.3-.6Z"/>
        <path d="M1018.5,602.1c0-1.5,0-2.9-.1-4.1h2.1v2.6h.2c.6-1.8,2-2.9,3.6-2.9s.4,0,.7,0v2.2c-.2,0-.5,0-.8,0-1.7,0-2.9,1.3-3.2,3,0,.3,0,.7,0,1.1v7h-2.4v-9Z"/>
        <path d="M1034.5,611l-.2-1.6h0c-.7,1-2.1,1.9-4,1.9s-4-1.9-4-3.7c0-3.2,2.8-4.9,7.8-4.9v-.3c0-1.1-.3-3-3-3-1.2,0-2.5.4-3.4,1l-.5-1.6c1.1-.7,2.7-1.1,4.3-1.1,4,0,5,2.7,5,5.3v4.9c0,1.1,0,2.2.2,3.1h-2.1ZM1034.1,604.4c-2.6,0-5.5.4-5.5,2.9s1,2.3,2.2,2.3c1.7,0,2.8-1.1,3.2-2.2,0-.3.1-.5.1-.7v-2.3Z"/>
        <path d="M1043,594.2v3.8h3.4v1.8h-3.4v7c0,1.6.5,2.5,1.8,2.5s1.1,0,1.4-.2v1.8c-.4.2-1.1.3-2,.3s-2-.4-2.6-1c-.7-.7-.9-1.9-.9-3.4v-7.1h-2v-1.8h2v-3.1l2.3-.6Z"/>
        <path d="M1050.2,604.9c0,3.2,2.1,4.5,4.5,4.5s2.7-.3,3.6-.7l.4,1.7c-.8.4-2.3.8-4.4.8-4,0-6.4-2.7-6.4-6.6s2.3-7,6.1-7,5.4,3.7,5.4,6.1,0,.9,0,1.1h-9.2ZM1057.2,603.2c0-1.5-.6-3.8-3.3-3.8s-3.5,2.2-3.6,3.8h6.9ZM1057.7,592.3l-3.3,3.9h-1.7l2.4-3.9h2.6Z"/>
        <path d="M1073.7,598c0,.9-.1,2-.1,3.6v7.6c0,3-.6,4.8-1.9,6-1.3,1.2-3.1,1.6-4.8,1.6s-3.3-.4-4.4-1.1l.6-1.8c.9.5,2.2,1,3.8,1,2.4,0,4.2-1.3,4.2-4.6v-1.5h0c-.7,1.2-2.1,2.2-4.1,2.2-3.3,0-5.6-2.8-5.6-6.4s2.9-6.9,5.9-6.9,3.5,1.2,4.1,2.3h0v-2h2.2ZM1071.2,603.1c0-.4,0-.7-.1-1.1-.4-1.4-1.6-2.5-3.3-2.5s-3.9,1.9-3.9,4.9,1.3,4.7,3.9,4.7,2.8-.9,3.3-2.4c.1-.4.2-.8.2-1.3v-2.4Z"/>
        <path d="M1080,594.3c0,.8-.6,1.5-1.5,1.5s-1.4-.7-1.4-1.5c0-.8.6-1.5,1.5-1.5s1.5.6,1.5,1.5ZM1077.4,611v-13.1h2.4v13.1h-2.4Z"/>
        <path d="M1093,610.6c-.6.3-2,.8-3.7.8-3.9,0-6.5-2.7-6.5-6.7s2.7-7,7-7,2.7.4,3.3.7l-.5,1.8c-.6-.3-1.5-.6-2.8-.6-3,0-4.6,2.2-4.6,4.9,0,3,1.9,4.9,4.5,4.9s2.2-.3,2.9-.6l.4,1.8Z"/>
        <path d="M1103,611l-.2-1.6h0c-.7,1-2.1,1.9-4,1.9s-4-1.9-4-3.7c0-3.2,2.8-4.9,7.8-4.9v-.3c0-1.1-.3-3-3-3-1.2,0-2.5.4-3.4,1l-.5-1.6c1.1-.7,2.7-1.1,4.3-1.1,4,0,5,2.7,5,5.3v4.9c0,1.1,0,2.2.2,3.1h-2.1ZM1102.7,604.4c-2.6,0-5.5.4-5.5,2.9s1,2.3,2.2,2.3c1.7,0,2.8-1.1,3.2-2.2,0-.3.1-.5.1-.7v-2.3Z"/>
        <path d="M1108.5,608.6c.7.4,2,.9,3.1.9,1.7,0,2.5-.9,2.5-1.9s-.7-1.7-2.4-2.4c-2.4-.9-3.5-2.1-3.5-3.7,0-2.1,1.7-3.8,4.5-3.8s2.5.4,3.2.8l-.6,1.7c-.5-.3-1.5-.8-2.7-.8s-2.2.8-2.2,1.8.8,1.6,2.5,2.2c2.3.8,3.4,2,3.4,3.9,0,2.3-1.8,3.9-4.9,3.9s-2.8-.4-3.7-.9l.6-1.8Z"/>
        <path d="M1118.6,609.6c0-1,.7-1.7,1.6-1.7s1.6.7,1.6,1.7c0,1-.6,1.7-1.6,1.7s-1.6-.7-1.6-1.7Z"/>
      </g>
      <g>
        <path d="M28.3,718.9c1.3-.2,3.3-.4,5.5-.4s4.6.4,5.9,1.4c1.1.9,1.7,2.1,1.7,3.8s-1.6,3.9-3.2,4.5h0c1.3.6,2,1.8,2.4,3.5.6,2.1,1.1,4.4,1.5,5.1h-4.2c-.3-.5-.7-2-1.3-4.2-.5-2.3-1.3-2.9-3-2.9h-1.2v7.1h-4.1v-17.9ZM32.4,726.7h1.6c2,0,3.3-1,3.3-2.6s-1.1-2.5-3-2.5c-1,0-1.6,0-1.9.1v5Z"/>
        <path d="M47.4,731.6c.1,1.7,1.8,2.5,3.7,2.5s2.5-.2,3.6-.6l.6,2.8c-1.4.6-3,.8-4.8.8-4.5,0-7-2.6-7-6.7s2.1-7.1,6.7-7.1,5.9,3.3,5.9,6.6,0,1.3-.1,1.6h-8.5ZM52.3,728.8c0-1-.4-2.7-2.3-2.7s-2.4,1.6-2.6,2.7h4.9Z"/>
        <path d="M71.3,717.7v15.2c0,1.5,0,3.1.1,3.9h-3.7l-.2-1.9h0c-.8,1.5-2.4,2.2-4.1,2.2-3.1,0-5.6-2.7-5.6-6.8,0-4.4,2.8-7,5.9-7s2.9.6,3.5,1.5h0v-7.1h4.1ZM67.2,729.3c0-.2,0-.5,0-.7-.2-1.1-1.1-2-2.4-2-1.9,0-2.8,1.7-2.8,3.8s1.1,3.6,2.8,3.6,2.1-.8,2.4-2c0-.3,0-.6,0-.9v-1.7Z"/>
        <path d="M87.1,732.6c0,1.7,0,3.1.1,4.2h-3.6l-.2-1.9h0c-.5.8-1.7,2.2-4.1,2.2s-4.6-1.7-4.6-5.7v-7.8h4.1v7.1c0,1.9.6,3.1,2.1,3.1s1.8-.8,2-1.4c.1-.2.2-.5.2-.9v-7.9h4.1v9Z"/>
        <path d="M100.3,736.5c-.7.3-2.1.6-3.7.6-4.3,0-7-2.6-7-6.8s2.6-7,7.6-7,2.3.2,3.1.5l-.6,3.1c-.5-.2-1.2-.4-2.3-.4-2.2,0-3.6,1.5-3.5,3.7,0,2.4,1.6,3.7,3.6,3.7s1.7-.2,2.4-.4l.5,3Z"/>
        <path d="M112.1,736.5c-.7.3-2.1.6-3.7.6-4.3,0-7-2.6-7-6.8s2.6-7,7.6-7,2.3.2,3.1.5l-.6,3.1c-.5-.2-1.2-.4-2.3-.4-2.2,0-3.6,1.5-3.5,3.7,0,2.4,1.6,3.7,3.6,3.7s1.7-.2,2.4-.4l.5,3Z"/>
        <path d="M118.6,720c0,1.1-.8,2.1-2.2,2.1s-2.1-.9-2.1-2.1c0-1.2.9-2.1,2.2-2.1s2.2.9,2.2,2.1ZM114.4,736.9v-13.2h4.1v13.2h-4.1Z"/>
        <path d="M134.8,730.1c0,4.8-3.4,7-7,7s-6.8-2.5-6.8-6.8,2.8-7,7.1-7,6.7,2.8,6.7,6.8ZM125.3,730.3c0,2.3,1,4,2.7,4s2.6-1.6,2.6-4-.8-4-2.6-4-2.7,2-2.7,4ZM132.2,717.9l-3.3,4.1h-2.8l2.3-4.1h3.8Z"/>
        <path d="M137.4,727.9c0-1.6,0-3-.1-4.2h3.6l.2,1.8h0c.5-.9,1.9-2.1,4.1-2.1s4.7,1.8,4.7,5.7v7.8h-4.1v-7.3c0-1.7-.6-2.9-2.1-2.9s-1.8.8-2.1,1.6c-.1.3-.1.6-.1,1v7.6h-4.1v-9Z"/>
        <path d="M171.5,717.7v15.2c0,1.5,0,3.1.1,3.9h-3.7l-.2-1.9h0c-.8,1.5-2.4,2.2-4.1,2.2-3.1,0-5.6-2.7-5.6-6.8,0-4.4,2.8-7,5.9-7s2.9.6,3.5,1.5h0v-7.1h4.1ZM167.4,729.3c0-.2,0-.5,0-.7-.2-1.1-1.1-2-2.4-2-1.9,0-2.8,1.7-2.8,3.8s1.1,3.6,2.8,3.6,2.1-.8,2.4-2c0-.3,0-.6,0-.9v-1.7Z"/>
        <path d="M177.9,731.6c.1,1.7,1.8,2.5,3.7,2.5s2.5-.2,3.6-.6l.6,2.8c-1.4.6-3,.8-4.8.8-4.5,0-7-2.6-7-6.7s2.1-7.1,6.7-7.1,5.9,3.3,5.9,6.6,0,1.3-.1,1.6h-8.5ZM182.7,728.8c0-1-.4-2.7-2.3-2.7s-2.4,1.6-2.6,2.7h4.9Z"/>
        <path d="M197.6,731.6c.1,1.7,1.8,2.5,3.7,2.5s2.5-.2,3.6-.6l.6,2.8c-1.4.6-3,.8-4.8.8-4.5,0-7-2.6-7-6.7s2.1-7.1,6.7-7.1,5.9,3.3,5.9,6.6,0,1.3-.1,1.6h-8.5ZM202.5,728.8c0-1-.4-2.7-2.3-2.7s-2.4,1.6-2.6,2.7h4.9Z"/>
        <path d="M208.7,728c0-1.9,0-3.2-.1-4.4h3.5v2.4h.3c.7-1.9,2.3-2.7,3.6-2.7s.6,0,.9,0v3.9c-.3,0-.6-.1-1.1-.1-1.5,0-2.5.8-2.8,2.1,0,.3,0,.6,0,.9v6.7h-4.1v-8.9Z"/>
        <path d="M218.9,728c0-1.9,0-3.2-.1-4.4h3.5v2.4h.3c.7-1.9,2.3-2.7,3.6-2.7s.6,0,.9,0v3.9c-.3,0-.6-.1-1.1-.1-1.5,0-2.5.8-2.8,2.1,0,.3,0,.6,0,.9v6.7h-4.1v-8.9Z"/>
        <path d="M242,730.1c0,4.8-3.4,7-7,7s-6.8-2.5-6.8-6.8,2.8-7,7.1-7,6.7,2.8,6.7,6.8ZM232.5,730.3c0,2.3,1,4,2.7,4s2.6-1.6,2.6-4-.8-4-2.6-4-2.7,2-2.7,4Z"/>
        <path d="M244.5,728c0-1.9,0-3.2-.1-4.4h3.5v2.4h.3c.7-1.9,2.3-2.7,3.6-2.7s.6,0,.9,0v3.9c-.3,0-.6-.1-1.1-.1-1.5,0-2.5.8-2.8,2.1,0,.3,0,.6,0,.9v6.7h-4.1v-8.9Z"/>
        <path d="M257.8,731.6c.1,1.7,1.8,2.5,3.7,2.5s2.5-.2,3.6-.6l.6,2.8c-1.4.6-3,.8-4.8.8-4.5,0-7-2.6-7-6.7s2.1-7.1,6.7-7.1,5.9,3.3,5.9,6.6,0,1.3-.1,1.6h-8.5ZM262.6,728.8c0-1-.4-2.7-2.3-2.7s-2.4,1.6-2.6,2.7h4.9Z"/>
        <path d="M268.8,733.3c.7.5,2.3,1,3.5,1s1.8-.4,1.8-1.1-.4-1-1.9-1.5c-2.7-.9-3.8-2.4-3.8-3.9,0-2.5,2.1-4.3,5.4-4.3s2.9.4,3.7.8l-.7,2.8c-.6-.3-1.7-.7-2.9-.7s-1.6.4-1.6,1.1.5,1,2.1,1.5c2.5.9,3.6,2.1,3.6,4.1,0,2.5-1.9,4.3-5.7,4.3s-3.3-.4-4.3-.9l.7-2.9Z"/>
        <path d="M82.3,759.7l2,6.5c.2.8.5,1.8.7,2.5h0c.2-.7.4-1.7.6-2.5l1.6-6.5h4.4l-3.1,8.7c-1.9,5.2-3.2,7.3-4.7,8.7-1.4,1.2-2.9,1.7-4,1.8l-.9-3.5c.5,0,1.2-.3,1.8-.7.6-.3,1.3-1,1.7-1.6.1-.2.2-.4.2-.6s0-.4-.2-.7l-4.8-12.1h4.5Z"/>
        <path d="M98.8,764c0-1.9,0-3.2-.1-4.4h3.5v2.4h.3c.7-1.9,2.3-2.7,3.6-2.7s.6,0,.9,0v3.9c-.3,0-.6-.1-1.1-.1-1.5,0-2.5.8-2.8,2.1,0,.3,0,.6,0,.9v6.7h-4.1v-8.9Z"/>
        <path d="M112,767.6c.1,1.7,1.8,2.5,3.7,2.5s2.5-.2,3.6-.6l.6,2.8c-1.4.6-3,.8-4.8.8-4.5,0-7-2.6-7-6.7s2.1-7.1,6.7-7.1,5.9,3.3,5.9,6.6,0,1.3-.1,1.6h-8.5ZM116.8,764.8c0-1-.4-2.7-2.3-2.7s-2.4,1.6-2.6,2.7h4.9Z"/>
        <path d="M127.7,755.9v3.8h3v3h-3v4.8c0,1.6.4,2.3,1.6,2.3s.9,0,1.2-.1v3.1c-.5.2-1.5.4-2.6.4s-2.4-.5-3.1-1.1c-.8-.8-1.1-2-1.1-3.9v-5.4h-1.8v-3h1.8v-2.8l4-.9Z"/>
        <path d="M133,764c0-1.9,0-3.2-.1-4.4h3.5v2.4h.3c.7-1.9,2.3-2.7,3.6-2.7s.6,0,.9,0v3.9c-.3,0-.6-.1-1.1-.1-1.5,0-2.5.8-2.8,2.1,0,.3,0,.6,0,.9v6.7h-4.1v-8.9Z"/>
        <path d="M150.5,772.9l-.2-1.3h0c-.9,1.1-2.2,1.6-3.8,1.6-2.7,0-4.3-1.9-4.3-4,0-3.4,3.1-5.1,7.8-5.1v-.2c0-.7-.4-1.7-2.4-1.7-1.3,0-2.8.5-3.6,1l-.8-2.6c.9-.5,2.7-1.2,5.1-1.2,4.4,0,5.8,2.6,5.8,5.7v4.6c0,1.3,0,2.5.2,3.2h-3.7ZM150,766.6c-2.2,0-3.8.5-3.8,2.1s.7,1.6,1.6,1.6,1.9-.7,2.1-1.5c0-.2,0-.5,0-.7v-1.4Z"/>
        <path d="M157.1,772.9c0-.9.1-2.4.1-3.9v-15.2h4.1v7.5h0c.8-1.1,2.2-1.9,4-1.9,3.2,0,5.5,2.6,5.5,6.7,0,4.8-3,7.1-6,7.1s-3-.6-3.9-2.1h0l-.2,1.8h-3.5ZM161.3,767.3c0,.3,0,.5,0,.7.3,1.1,1.2,2,2.4,2,1.7,0,2.8-1.4,2.8-3.7s-.9-3.7-2.8-3.7-2.2.8-2.4,2c0,.2,0,.5,0,.8v1.9Z"/>
        <path d="M180.9,772.9l-.2-1.3h0c-.9,1.1-2.2,1.6-3.8,1.6-2.7,0-4.3-1.9-4.3-4,0-3.4,3.1-5.1,7.8-5.1v-.2c0-.7-.4-1.7-2.4-1.7-1.3,0-2.8.5-3.6,1l-.8-2.6c.9-.5,2.7-1.2,5.1-1.2,4.4,0,5.8,2.6,5.8,5.7v4.6c0,1.3,0,2.5.2,3.2h-3.7ZM180.4,766.6c-2.2,0-3.8.5-3.8,2.1s.7,1.6,1.6,1.6,1.9-.7,2.1-1.5c0-.2,0-.5,0-.7v-1.4Z"/>
        <path d="M184.9,775.3c1.1,0,1.9-.3,2.4-.9.6-.6.8-1.7.8-4.3v-10.5h4.1v11.5c0,2.9-.6,4.6-1.9,5.8-1.2,1.1-3.1,1.6-5.1,1.6l-.4-3.2ZM192.4,756c0,1.1-.8,2.1-2.2,2.1s-2.1-.9-2.1-2.1c0-1.2.9-2.1,2.2-2.1s2.1.9,2.2,2.1Z"/>
        <path d="M208.5,766.1c0,4.8-3.4,7-7,7s-6.8-2.5-6.8-6.8,2.8-7,7.1-7,6.7,2.8,6.7,6.8ZM199,766.3c0,2.3,1,4,2.7,4s2.6-1.6,2.6-4-.8-4-2.6-4-2.7,2-2.7,4Z"/>
        <path d="M211.1,769.3c.7.5,2.3,1,3.5,1s1.8-.4,1.8-1.1-.4-1-1.9-1.5c-2.7-.9-3.8-2.4-3.8-3.9,0-2.5,2.1-4.3,5.4-4.3s2.9.4,3.7.8l-.7,2.8c-.6-.3-1.7-.7-2.9-.7s-1.6.4-1.6,1.1.5,1,2.1,1.5c2.5.9,3.6,2.1,3.6,4.1,0,2.5-1.9,4.3-5.7,4.3s-3.3-.4-4.3-.9l.7-2.9Z"/>
        <path d="M220.9,776.1c.9-2.4,1.6-5.2,2-7.7l4.2-.3c-.9,2.7-2.1,5.6-3.4,7.7l-2.7.2Z"/>
        <path d="M39.4,799.3c0-1.4,0-2.4-.1-3.5h2.1v2.1h.2c.7-1.2,1.9-2.4,4.1-2.4s3.1,1.1,3.7,2.6h0c.4-.7.9-1.3,1.5-1.7.8-.6,1.6-.9,2.9-.9,1.7,0,4.3,1.1,4.3,5.7v7.7h-2.3v-7.4c0-2.5-.9-4-2.8-4s-2.4,1-2.8,2.1c-.1.3-.2.8-.2,1.2v8.1h-2.3v-7.8c0-2.1-.9-3.6-2.7-3.6s-2.6,1.2-3,2.4c-.1.3-.2.8-.2,1.2v7.9h-2.3v-9.5Z"/>
        <path d="M63.3,802.8c0,3.2,2.1,4.5,4.5,4.5s2.7-.3,3.6-.7l.4,1.7c-.8.4-2.3.8-4.4.8-4,0-6.4-2.7-6.4-6.6s2.3-7,6.1-7,5.4,3.7,5.4,6.1,0,.9,0,1.1h-9.2ZM70.2,801.1c0-1.5-.6-3.8-3.3-3.8s-3.5,2.2-3.6,3.8h6.9Z"/>
        <path d="M72.3,812.6c1.1,0,2-.4,2.6-1,.6-.7.9-1.8.9-4.9v-10.9h2.4v11.8c0,2.5-.4,4.2-1.6,5.4-1,1.1-2.8,1.5-4.1,1.5l-.3-1.9ZM78.4,792.1c0,.8-.6,1.5-1.5,1.5s-1.4-.7-1.4-1.5c0-.8.6-1.5,1.5-1.5s1.4.7,1.4,1.5Z"/>
        <path d="M93.9,802.2c0,4.8-3.4,6.9-6.5,6.9s-6.3-2.6-6.3-6.7,2.9-6.9,6.5-6.9,6.3,2.7,6.3,6.7ZM83.5,802.4c0,2.9,1.6,5,4,5s4-2.1,4-5.1-1.1-5-3.9-5-4,2.6-4,5.1Z"/>
        <path d="M96.9,799.9c0-1.5,0-2.9-.1-4.1h2.1v2.6h.2c.6-1.8,2-2.9,3.6-2.9s.4,0,.7,0v2.2c-.2,0-.5,0-.8,0-1.7,0-2.9,1.3-3.2,3,0,.3,0,.7,0,1.1v7h-2.4v-9Z"/>
        <path d="M112.8,808.9l-.2-1.6h0c-.7,1-2.1,1.9-4,1.9s-4-1.9-4-3.7c0-3.2,2.8-4.9,7.8-4.9v-.3c0-1.1-.3-3-3-3-1.2,0-2.5.4-3.4,1l-.5-1.6c1.1-.7,2.7-1.1,4.3-1.1,4,0,5,2.7,5,5.3v4.9c0,1.1,0,2.2.2,3.1h-2.1ZM112.4,802.2c-2.6,0-5.5.4-5.5,2.9s1,2.3,2.2,2.3c1.7,0,2.8-1.1,3.2-2.2,0-.3.1-.5.1-.7v-2.3Z"/>
        <path d="M118.6,799.3c0-1.4,0-2.4-.1-3.5h2.1v2.1h.2c.6-1.2,2.2-2.4,4.3-2.4s4.6,1.1,4.6,5.6v7.8h-2.4v-7.5c0-2.1-.8-3.9-3-3.9s-2.8,1.1-3.2,2.4c0,.3-.2.7-.2,1.1v7.9h-2.4v-9.5Z"/>
        <path d="M144.8,789.7v15.8c0,1.2,0,2.5.1,3.4h-2.1v-2.3h-.2c-.7,1.5-2.3,2.6-4.4,2.6-3.2,0-5.6-2.7-5.6-6.6,0-4.4,2.7-7,5.9-7s3.4.9,3.9,2h0v-7.8h2.4ZM142.5,801.1c0-.3,0-.7-.1-1-.4-1.5-1.6-2.7-3.4-2.7s-3.9,2.2-3.9,5,1.3,4.9,3.9,4.9,3-1.1,3.5-2.9c0-.3.1-.6.1-1v-2.3Z"/>
        <path d="M160.6,802.2c0,4.8-3.4,6.9-6.5,6.9s-6.3-2.6-6.3-6.7,2.9-6.9,6.5-6.9,6.3,2.7,6.3,6.7ZM150.2,802.4c0,2.9,1.6,5,4,5s4-2.1,4-5.1-1.1-5-3.9-5-4,2.6-4,5.1Z"/>
        <path d="M169.3,789.7h2.4v19.2h-2.4v-19.2Z"/>
        <path d="M182.9,808.9l-.2-1.6h0c-.7,1-2.1,1.9-4,1.9s-4-1.9-4-3.7c0-3.2,2.8-4.9,7.8-4.9v-.3c0-1.1-.3-3-3-3-1.2,0-2.5.4-3.4,1l-.5-1.6c1.1-.7,2.7-1.1,4.3-1.1,4,0,5,2.7,5,5.3v4.9c0,1.1,0,2.2.2,3.1h-2.1ZM182.6,802.2c-2.6,0-5.5.4-5.5,2.9s1,2.3,2.2,2.3c1.7,0,2.8-1.1,3.2-2.2,0-.3.1-.5.1-.7v-2.3Z"/>
        <path d="M203.7,808.4c-.6.3-2,.8-3.7.8-3.9,0-6.5-2.7-6.5-6.7s2.7-7,7-7,2.7.4,3.3.7l-.5,1.8c-.6-.3-1.5-.6-2.8-.6-3,0-4.6,2.2-4.6,4.9,0,3,1.9,4.9,4.5,4.9s2.2-.3,2.9-.6l.4,1.8Z"/>
        <path d="M213.8,808.9l-.2-1.6h0c-.7,1-2.1,1.9-4,1.9s-4-1.9-4-3.7c0-3.2,2.8-4.9,7.8-4.9v-.3c0-1.1-.3-3-3-3-1.2,0-2.5.4-3.4,1l-.5-1.6c1.1-.7,2.7-1.1,4.3-1.1,4,0,5,2.7,5,5.3v4.9c0,1.1,0,2.2.2,3.1h-2.1ZM213.4,802.2c-2.6,0-5.5.4-5.5,2.9s1,2.3,2.2,2.3c1.7,0,2.8-1.1,3.2-2.2,0-.3.1-.5.1-.7v-2.3Z"/>
        <path d="M219.6,789.7h2.4v19.2h-2.4v-19.2Z"/>
        <path d="M228.6,792.1c0,.8-.6,1.5-1.5,1.5s-1.4-.7-1.4-1.5c0-.8.6-1.5,1.5-1.5s1.5.6,1.5,1.5ZM225.9,808.9v-13.1h2.4v13.1h-2.4Z"/>
        <path d="M243.5,789.7v15.8c0,1.2,0,2.5.1,3.4h-2.1v-2.3h-.2c-.7,1.5-2.3,2.6-4.4,2.6-3.2,0-5.6-2.7-5.6-6.6,0-4.4,2.7-7,5.9-7s3.4.9,3.9,2h0v-7.8h2.4ZM241.2,801.1c0-.3,0-.7-.1-1-.4-1.5-1.6-2.7-3.4-2.7s-3.9,2.2-3.9,5,1.3,4.9,3.9,4.9,3-1.1,3.5-2.9c0-.3.1-.6.1-1v-2.3Z"/>
        <path d="M254.7,808.9l-.2-1.6h0c-.7,1-2.1,1.9-4,1.9s-4-1.9-4-3.7c0-3.2,2.8-4.9,7.8-4.9v-.3c0-1.1-.3-3-3-3-1.2,0-2.5.4-3.4,1l-.5-1.6c1.1-.7,2.7-1.1,4.3-1.1,4,0,5,2.7,5,5.3v4.9c0,1.1,0,2.2.2,3.1h-2.1ZM254.4,802.2c-2.6,0-5.5.4-5.5,2.9s1,2.3,2.2,2.3c1.7,0,2.8-1.1,3.2-2.2,0-.3.1-.5.1-.7v-2.3Z"/>
        <path d="M271.8,789.7v15.8c0,1.2,0,2.5.1,3.4h-2.1v-2.3h-.2c-.7,1.5-2.3,2.6-4.4,2.6-3.2,0-5.6-2.7-5.6-6.6,0-4.4,2.7-7,5.9-7s3.4.9,3.9,2h0v-7.8h2.4ZM269.4,801.1c0-.3,0-.7-.1-1-.4-1.5-1.6-2.7-3.4-2.7s-3.9,2.2-3.9,5,1.3,4.9,3.9,4.9,3-1.1,3.5-2.9c0-.3.1-.6.1-1v-2.3Z"/>
        <path d="M34.5,831.8l2.9,7.7c.3.9.6,1.9.8,2.7h0c.2-.8.5-1.8.8-2.7l2.6-7.7h2.5l-3.6,9.3c-1.7,4.5-2.9,6.8-4.5,8.2-1.2,1-2.3,1.4-2.9,1.5l-.6-2c.6-.2,1.4-.6,2.1-1.2.6-.5,1.4-1.4,2-2.6.1-.2.2-.4.2-.6s0-.3-.2-.6l-4.8-12h2.6Z"/>
        <path d="M53.4,838.8c0,3.2,2.1,4.5,4.5,4.5s2.7-.3,3.6-.7l.4,1.7c-.8.4-2.3.8-4.4.8-4,0-6.4-2.7-6.4-6.6s2.3-7,6.1-7,5.4,3.7,5.4,6.1,0,.9,0,1.1h-9.2ZM60.3,837.1c0-1.5-.6-3.8-3.3-3.8s-3.5,2.2-3.6,3.8h6.9Z"/>
        <path d="M65.8,844.9v-11.3h-1.8v-1.8h1.8v-.7c0-3.4,2-5.7,5.7-5.7s2.6.4,3.3.9l-.7,1.8c-.6-.4-1.6-.8-2.8-.8-2.5,0-3.2,1.8-3.2,3.9v.6h7.6v13.1h-2.4v-11.3h-5.2v11.3h-2.4Z"/>
        <path d="M89,844.4c-.6.3-2,.8-3.7.8-3.9,0-6.5-2.7-6.5-6.7s2.7-7,7-7,2.7.4,3.3.7l-.5,1.8c-.6-.3-1.5-.6-2.8-.6-3,0-4.6,2.2-4.6,4.9,0,3,1.9,4.9,4.5,4.9s2.2-.3,2.9-.6l.4,1.8Z"/>
        <path d="M94.4,828.1c0,.8-.6,1.5-1.5,1.5s-1.4-.7-1.4-1.5c0-.8.6-1.5,1.5-1.5s1.5.6,1.5,1.5ZM91.8,844.9v-13.1h2.4v13.1h-2.4Z"/>
        <path d="M99.4,838.8c0,3.2,2.1,4.5,4.5,4.5s2.7-.3,3.6-.7l.4,1.7c-.8.4-2.3.8-4.4.8-4,0-6.4-2.7-6.4-6.6s2.3-7,6.1-7,5.4,3.7,5.4,6.1,0,.9,0,1.1h-9.2ZM106.4,837.1c0-1.5-.6-3.8-3.3-3.8s-3.5,2.2-3.6,3.8h6.9Z"/>
        <path d="M111.6,835.3c0-1.4,0-2.4-.1-3.5h2.1v2.1h.2c.6-1.2,2.2-2.4,4.3-2.4s4.6,1.1,4.6,5.6v7.8h-2.4v-7.5c0-2.1-.8-3.9-3-3.9s-2.8,1.1-3.2,2.4c0,.3-.2.7-.2,1.1v7.9h-2.4v-9.5Z"/>
        <path d="M135.9,844.4c-.6.3-2,.8-3.7.8-3.9,0-6.5-2.7-6.5-6.7s2.7-7,7-7,2.7.4,3.3.7l-.5,1.8c-.6-.3-1.5-.6-2.8-.6-3,0-4.6,2.2-4.6,4.9,0,3,1.9,4.9,4.5,4.9s2.2-.3,2.9-.6l.4,1.8Z"/>
        <path d="M141.4,828.1c0,.8-.6,1.5-1.5,1.5s-1.4-.7-1.4-1.5c0-.8.6-1.5,1.5-1.5s1.5.6,1.5,1.5ZM138.7,844.9v-13.1h2.4v13.1h-2.4Z"/>
        <path d="M152.3,844.9l-.2-1.6h0c-.7,1-2.1,1.9-4,1.9s-4-1.9-4-3.7c0-3.2,2.8-4.9,7.8-4.9v-.3c0-1.1-.3-3-3-3-1.2,0-2.5.4-3.4,1l-.5-1.6c1.1-.7,2.7-1.1,4.3-1.1,4,0,5,2.7,5,5.3v4.9c0,1.1,0,2.2.2,3.1h-2.1ZM151.9,838.2c-2.6,0-5.5.4-5.5,2.9s1,2.3,2.2,2.3c1.7,0,2.8-1.1,3.2-2.2,0-.3.1-.5.1-.7v-2.3Z"/>
        <path d="M175.6,838.2c0,4.8-3.4,6.9-6.5,6.9s-6.3-2.6-6.3-6.7,2.9-6.9,6.5-6.9,6.3,2.7,6.3,6.7ZM165.2,838.4c0,2.9,1.6,5,4,5s4-2.1,4-5.1-1.1-5-3.9-5-4,2.6-4,5.1Z"/>
        <path d="M178.6,836.1c0-1.7,0-3-.1-4.3h2.1v2.2h.2c.9-1.6,2.5-2.5,4.6-2.5,3.2,0,5.5,2.7,5.5,6.6s-2.9,7-5.9,7-3.2-.8-4-2.1h0v7.1h-2.4v-14.1ZM180.9,839.6c0,.3,0,.7.1,1,.4,1.7,1.9,2.8,3.5,2.8,2.5,0,4-2.1,4-5.1s-1.4-4.8-3.9-4.8-3.1,1.1-3.6,2.9c0,.3-.2.7-.2,1v2.3Z"/>
        <path d="M195.3,838.8c0,3.2,2.1,4.5,4.5,4.5s2.7-.3,3.6-.7l.4,1.7c-.8.4-2.3.8-4.4.8-4,0-6.4-2.7-6.4-6.6s2.3-7,6.1-7,5.4,3.7,5.4,6.1,0,.9,0,1.1h-9.2ZM202.3,837.1c0-1.5-.6-3.8-3.3-3.8s-3.5,2.2-3.6,3.8h6.9Z"/>
        <path d="M207.5,835.9c0-1.5,0-2.9-.1-4.1h2.1v2.6h.2c.6-1.8,2-2.9,3.6-2.9s.4,0,.7,0v2.2c-.2,0-.5,0-.8,0-1.7,0-2.9,1.3-3.2,3,0,.3,0,.7,0,1.1v7h-2.4v-9Z"/>
        <path d="M223.4,844.9l-.2-1.6h0c-.7,1-2.1,1.9-4,1.9s-4-1.9-4-3.7c0-3.2,2.8-4.9,7.8-4.9v-.3c0-1.1-.3-3-3-3-1.2,0-2.5.4-3.4,1l-.5-1.6c1.1-.7,2.7-1.1,4.3-1.1,4,0,5,2.7,5,5.3v4.9c0,1.1,0,2.2.2,3.1h-2.1ZM223.1,838.2c-2.6,0-5.5.4-5.5,2.9s1,2.3,2.2,2.3c1.7,0,2.8-1.1,3.2-2.2,0-.3.1-.5.1-.7v-2.3Z"/>
        <path d="M232,828.1v3.8h3.4v1.8h-3.4v7c0,1.6.5,2.5,1.8,2.5s1.1,0,1.4-.2v1.8c-.4.2-1.1.3-2,.3s-2-.4-2.6-1c-.7-.7-.9-1.9-.9-3.4v-7.1h-2v-1.8h2v-3.1l2.3-.6Z"/>
        <path d="M240.7,828.1c0,.8-.6,1.5-1.5,1.5s-1.4-.7-1.4-1.5c0-.8.6-1.5,1.5-1.5s1.5.6,1.5,1.5ZM238,844.9v-13.1h2.4v13.1h-2.4Z"/>
        <path d="M245.3,831.8l2.6,7.3c.4,1.2.8,2.3,1.1,3.4h0c.3-1.1.7-2.2,1.1-3.4l2.6-7.3h2.5l-5.1,13.1h-2.3l-5-13.1h2.5Z"/>
        <path d="M264.5,844.9l-.2-1.6h0c-.7,1-2.1,1.9-4,1.9s-4-1.9-4-3.7c0-3.2,2.8-4.9,7.8-4.9v-.3c0-1.1-.3-3-3-3-1.2,0-2.5.4-3.4,1l-.5-1.6c1.1-.7,2.7-1.1,4.3-1.1,4,0,5,2.7,5,5.3v4.9c0,1.1,0,2.2.2,3.1h-2.1ZM264.1,838.2c-2.6,0-5.5.4-5.5,2.9s1,2.3,2.2,2.3c1.7,0,2.8-1.1,3.2-2.2,0-.3.1-.5.1-.7v-2.3Z"/>
        <path d="M269.7,843.5c0-1,.7-1.7,1.6-1.7s1.6.7,1.6,1.7c0,1-.6,1.7-1.6,1.7s-1.6-.7-1.6-1.7Z"/>
      </g>
      <g>
        <path d="M911.3,827.5h-6.7v4.3h7.5v3.4h-11.6v-18.2h11.2v3.4h-7.1v3.8h6.7v3.3Z"/>
        <path d="M914.9,831.7c.7.5,2.3,1,3.5,1s1.8-.4,1.8-1.1-.4-1-1.9-1.5c-2.7-.9-3.8-2.4-3.8-3.9,0-2.5,2.1-4.3,5.4-4.3s2.9.4,3.7.8l-.7,2.8c-.6-.3-1.7-.7-2.9-.7s-1.6.4-1.6,1.1.5,1,2.1,1.5c2.5.9,3.6,2.1,3.6,4.1,0,2.5-1.9,4.3-5.7,4.3s-3.3-.4-4.3-.9l.7-2.9Z"/>
        <path d="M936.5,834.9c-.7.3-2.1.6-3.7.6-4.3,0-7-2.6-7-6.8s2.6-7,7.6-7,2.3.2,3.1.5l-.6,3.1c-.5-.2-1.2-.4-2.3-.4-2.2,0-3.6,1.5-3.5,3.7,0,2.4,1.6,3.7,3.6,3.7s1.7-.2,2.4-.4l.5,3Z"/>
        <path d="M946.4,835.2l-.2-1.3h0c-.9,1.1-2.2,1.6-3.8,1.6-2.7,0-4.3-1.9-4.3-4,0-3.4,3.1-5.1,7.8-5.1v-.2c0-.7-.4-1.7-2.4-1.7-1.3,0-2.8.5-3.6,1l-.8-2.6c.9-.5,2.7-1.2,5.1-1.2,4.4,0,5.8,2.6,5.8,5.7v4.6c0,1.3,0,2.5.2,3.2h-3.7ZM945.9,829c-2.2,0-3.8.5-3.8,2.1s.7,1.6,1.6,1.6,1.9-.7,2.1-1.5c0-.2,0-.5,0-.7v-1.4Z"/>
        <path d="M953.2,816.1h4.1v19.2h-4.1v-19.2Z"/>
        <path d="M968.1,835.2l-.2-1.3h0c-.9,1.1-2.2,1.6-3.8,1.6-2.7,0-4.3-1.9-4.3-4,0-3.4,3.1-5.1,7.8-5.1v-.2c0-.7-.4-1.7-2.4-1.7-1.3,0-2.8.5-3.6,1l-.8-2.6c.9-.5,2.7-1.2,5.1-1.2,4.4,0,5.8,2.6,5.8,5.7v4.6c0,1.3,0,2.5.2,3.2h-3.7ZM967.6,829c-2.2,0-3.8.5-3.8,2.1s.7,1.6,1.6,1.6,1.9-.7,2.1-1.5c0-.2,0-.5,0-.7v-1.4Z"/>
        <path d="M974.7,835.2c0-.9.1-2.4.1-3.9v-15.2h4.1v7.5h0c.8-1.1,2.2-1.9,4-1.9,3.2,0,5.5,2.6,5.5,6.7,0,4.8-3,7.1-6,7.1s-3-.6-4-2.1h0l-.2,1.8h-3.5ZM978.9,829.6c0,.3,0,.5,0,.7.3,1.1,1.2,2,2.4,2,1.7,0,2.8-1.4,2.8-3.7s-.9-3.7-2.8-3.7-2.2.8-2.4,2c0,.2,0,.5,0,.8v1.9Z"/>
        <path d="M995.2,818.4c0,1.1-.8,2.1-2.2,2.1s-2.1-.9-2.1-2.1c0-1.2.9-2.1,2.2-2.1s2.2.9,2.2,2.1ZM991,835.2v-13.2h4.1v13.2h-4.1Z"/>
        <path d="M998.4,816.1h4.1v19.2h-4.1v-19.2Z"/>
        <path d="M1010,818.4c0,1.1-.8,2.1-2.2,2.1s-2.1-.9-2.1-2.1c0-1.2.9-2.1,2.2-2.1s2.2.9,2.2,2.1ZM1005.8,835.2v-13.2h4.1v13.2h-4.1Z"/>
        <path d="M1026,816.1v15.2c0,1.5,0,3.1.1,3.9h-3.7l-.2-1.9h0c-.8,1.5-2.4,2.2-4.1,2.2-3.1,0-5.6-2.7-5.6-6.8,0-4.4,2.8-7,5.9-7s2.9.6,3.5,1.5h0v-7.1h4.1ZM1021.9,827.6c0-.2,0-.5,0-.7-.2-1.1-1.1-2-2.4-2-1.9,0-2.8,1.7-2.8,3.8s1.1,3.6,2.8,3.6,2.1-.8,2.4-2c0-.3,0-.6,0-.9v-1.7Z"/>
        <path d="M1036.8,835.2l-.2-1.3h0c-.9,1.1-2.2,1.6-3.8,1.6-2.7,0-4.3-1.9-4.3-4,0-3.4,3.1-5.1,7.8-5.1v-.2c0-.7-.4-1.7-2.4-1.7-1.3,0-2.8.5-3.6,1l-.8-2.6c.9-.5,2.7-1.2,5.1-1.2,4.4,0,5.8,2.6,5.8,5.7v4.6c0,1.3,0,2.5.2,3.2h-3.7ZM1036.3,829c-2.2,0-3.8.5-3.8,2.1s.7,1.6,1.6,1.6,1.9-.7,2.1-1.5c0-.2,0-.5,0-.7v-1.4Z"/>
        <path d="M1056.3,816.1v15.2c0,1.5,0,3.1.1,3.9h-3.7l-.2-1.9h0c-.8,1.5-2.4,2.2-4.1,2.2-3.1,0-5.6-2.7-5.6-6.8,0-4.4,2.8-7,5.9-7s2.9.6,3.5,1.5h0v-7.1h4.1ZM1052.2,827.6c0-.2,0-.5,0-.7-.2-1.1-1.1-2-2.4-2-1.9,0-2.8,1.7-2.8,3.8s1.1,3.6,2.8,3.6,2.1-.8,2.4-2c0-.3,0-.6,0-.9v-1.7Z"/>
        <path d="M1065.1,831.7c.7.5,2.3,1,3.5,1s1.8-.4,1.8-1.1-.4-1-1.9-1.5c-2.7-.9-3.8-2.4-3.8-3.9,0-2.5,2.1-4.3,5.4-4.3s2.9.4,3.7.8l-.7,2.8c-.6-.3-1.7-.7-2.9-.7s-1.6.4-1.6,1.1.5,1,2.1,1.5c2.5.9,3.6,2.1,3.6,4.1,0,2.5-1.9,4.3-5.7,4.3s-3.3-.4-4.3-.9l.7-2.9Z"/>
        <path d="M1081,818.4c0,1.1-.8,2.1-2.2,2.1s-2.1-.9-2.1-2.1c0-1.2.9-2.1,2.2-2.1s2.2.9,2.2,2.1ZM1076.8,835.2v-13.2h4.1v13.2h-4.1Z"/>
        <path d="M1084.2,826.2c0-1.6,0-3-.1-4.2h3.6l.2,1.8h0c.5-.9,1.9-2.1,4.1-2.1s4.7,1.8,4.7,5.7v7.8h-4.1v-7.3c0-1.7-.6-2.9-2.1-2.9s-1.8.8-2.1,1.6c-.1.3-.1.6-.1,1v7.6h-4.1v-9Z"/>
        <path d="M1105.5,816.1h4.1v19.2h-4.1v-19.2Z"/>
        <path d="M1112.9,835.2v-13.2h4.1v13.2h-4.1ZM1119.3,816.3l-3.3,4.1h-2.8l2.3-4.1h3.8Z"/>
        <path d="M1120.3,826.2c0-1.6,0-3-.1-4.2h3.5l.2,1.8h0c.6-.8,1.7-2.1,4-2.1s3,.9,3.6,2.3h0c.5-.7,1.1-1.2,1.7-1.6.7-.4,1.5-.7,2.5-.7,2.5,0,4.4,1.8,4.4,5.7v7.8h-4v-7.2c0-1.9-.6-3-1.9-3s-1.6.6-1.9,1.4c-.1.3-.1.7-.1,1v7.7h-4v-7.4c0-1.7-.6-2.8-1.9-2.8s-1.7.8-1.9,1.5c-.1.3-.2.7-.2,1v7.7h-4v-9Z"/>
        <path d="M1147.8,818.4c0,1.1-.8,2.1-2.2,2.1s-2.1-.9-2.1-2.1c0-1.2.9-2.1,2.2-2.1s2.2.9,2.2,2.1ZM1143.5,835.2v-13.2h4.1v13.2h-4.1Z"/>
        <path d="M1155.5,818.3v3.8h3v3h-3v4.8c0,1.6.4,2.3,1.6,2.3s.9,0,1.2-.1v3.1c-.5.2-1.5.4-2.6.4s-2.4-.5-3.1-1.1c-.8-.8-1.1-2-1.1-3.9v-5.4h-1.8v-3h1.8v-2.8l4-.9Z"/>
        <path d="M1163.9,830c.1,1.7,1.8,2.5,3.7,2.5s2.5-.2,3.6-.6l.6,2.8c-1.4.6-3,.8-4.8.8-4.5,0-7-2.6-7-6.7s2.1-7.1,6.7-7.1,5.9,3.3,5.9,6.6,0,1.3-.1,1.6h-8.5ZM1168.7,827.1c0-1-.4-2.7-2.3-2.7s-2.4,1.6-2.6,2.7h4.9Z"/>
        <path d="M1174.9,831.7c.7.5,2.3,1,3.5,1s1.8-.4,1.8-1.1-.4-1-1.9-1.5c-2.7-.9-3.8-2.4-3.8-3.9,0-2.5,2.1-4.3,5.4-4.3s2.9.4,3.7.8l-.7,2.8c-.6-.3-1.7-.7-2.9-.7s-1.6.4-1.6,1.1.5,1,2.1,1.5c2.5.9,3.6,2.1,3.6,4.1,0,2.5-1.9,4.3-5.7,4.3s-3.3-.4-4.3-.9l.7-2.9Z"/>
        <path d="M1184.8,838.5c.9-2.4,1.6-5.2,2-7.7l4.2-.3c-.9,2.7-2.1,5.6-3.4,7.7l-2.7.2Z"/>
        <path d="M881.9,865.1c0,3.2,2.1,4.5,4.5,4.5s2.7-.3,3.6-.7l.4,1.7c-.8.4-2.3.8-4.4.8-4,0-6.4-2.7-6.4-6.6s2.3-7,6.1-7,5.4,3.7,5.4,6.1,0,.9,0,1.1h-9.2ZM888.9,863.4c0-1.5-.6-3.8-3.3-3.8s-3.5,2.2-3.6,3.8h6.9Z"/>
        <path d="M895.1,858.2l1.9,2.8c.5.7.9,1.4,1.3,2.1h0c.4-.8.9-1.4,1.3-2.1l1.8-2.8h2.6l-4.5,6.3,4.6,6.7h-2.7l-1.9-2.9c-.5-.8-.9-1.5-1.4-2.3h0c-.4.8-.9,1.5-1.4,2.3l-1.9,2.9h-2.6l4.6-6.7-4.4-6.4h2.6Z"/>
        <path d="M906.5,862.4c0-1.7,0-3-.1-4.3h2.1v2.2h.2c.9-1.6,2.5-2.5,4.6-2.5,3.2,0,5.5,2.7,5.5,6.6s-2.9,7-5.9,7-3.2-.8-4-2.1h0v7.1h-2.4v-14.1ZM908.9,865.9c0,.3,0,.7.1,1,.4,1.7,1.9,2.8,3.5,2.8,2.5,0,4-2.1,4-5.1s-1.4-4.8-3.9-4.8-3.1,1.1-3.6,2.9c0,.3-.2.7-.2,1v2.3Z"/>
        <path d="M929.2,871.2l-.2-1.6h0c-.7,1-2.1,1.9-4,1.9s-4-1.9-4-3.7c0-3.2,2.8-4.9,7.8-4.9v-.3c0-1.1-.3-3-3-3-1.2,0-2.5.4-3.4,1l-.5-1.6c1.1-.7,2.7-1.1,4.3-1.1,4,0,5,2.7,5,5.3v4.9c0,1.1,0,2.2.2,3.1h-2.1ZM928.8,864.6c-2.6,0-5.5.4-5.5,2.9s1,2.3,2.2,2.3c1.7,0,2.8-1.1,3.2-2.2,0-.3.1-.5.1-.7v-2.3Z"/>
        <path d="M934.9,861.7c0-1.4,0-2.4-.1-3.5h2.1v2.1h.2c.6-1.2,2.2-2.4,4.3-2.4s4.6,1.1,4.6,5.6v7.8h-2.4v-7.5c0-2.1-.8-3.9-3-3.9s-2.8,1.1-3.2,2.4c0,.3-.2.7-.2,1.1v7.9h-2.4v-9.5Z"/>
        <path d="M961.2,852.1v15.8c0,1.2,0,2.5.1,3.4h-2.1v-2.3h-.2c-.7,1.5-2.3,2.6-4.4,2.6-3.2,0-5.6-2.7-5.6-6.6,0-4.4,2.7-7,5.9-7s3.4.9,3.9,2h0v-7.8h2.4ZM958.8,863.5c0-.3,0-.7-.1-1-.4-1.5-1.6-2.7-3.4-2.7s-3.9,2.2-3.9,5,1.3,4.9,3.9,4.9,3-1.1,3.5-2.9c0-.3.1-.6.1-1v-2.3Z"/>
        <path d="M967.8,854.5c0,.8-.6,1.5-1.5,1.5s-1.4-.7-1.4-1.5c0-.8.6-1.5,1.5-1.5s1.5.6,1.5,1.5ZM965.1,871.2v-13.1h2.4v13.1h-2.4Z"/>
        <path d="M972.8,865.1c0,3.2,2.1,4.5,4.5,4.5s2.7-.3,3.6-.7l.4,1.7c-.8.4-2.3.8-4.4.8-4,0-6.4-2.7-6.4-6.6s2.3-7,6.1-7,5.4,3.7,5.4,6.1,0,.9,0,1.1h-9.2ZM979.7,863.4c0-1.5-.6-3.8-3.3-3.8s-3.5,2.2-3.6,3.8h6.9Z"/>
        <path d="M985,861.7c0-1.4,0-2.4-.1-3.5h2.1v2.1h.2c.6-1.2,2.2-2.4,4.3-2.4s4.6,1.1,4.6,5.6v7.8h-2.4v-7.5c0-2.1-.8-3.9-3-3.9s-2.8,1.1-3.2,2.4c0,.3-.2.7-.2,1.1v7.9h-2.4v-9.5Z"/>
        <path d="M1011.2,852.1v15.8c0,1.2,0,2.5.1,3.4h-2.1v-2.3h-.2c-.7,1.5-2.3,2.6-4.4,2.6-3.2,0-5.6-2.7-5.6-6.6,0-4.4,2.7-7,5.9-7s3.4.9,3.9,2h0v-7.8h2.4ZM1008.9,863.5c0-.3,0-.7-.1-1-.4-1.5-1.6-2.7-3.4-2.7s-3.9,2.2-3.9,5,1.3,4.9,3.9,4.9,3-1.1,3.5-2.9c0-.3.1-.6.1-1v-2.3Z"/>
        <path d="M1027,864.6c0,4.8-3.4,6.9-6.5,6.9s-6.3-2.6-6.3-6.7,2.9-6.9,6.5-6.9,6.3,2.7,6.3,6.7ZM1016.7,864.7c0,2.9,1.6,5,4,5s4-2.1,4-5.1-1.1-5-3.9-5-4,2.6-4,5.1Z"/>
        <path d="M1038.6,854.4v3.8h3.4v1.8h-3.4v7c0,1.6.5,2.5,1.8,2.5s1.1,0,1.4-.2v1.8c-.4.2-1.1.3-2,.3s-2-.4-2.6-1c-.7-.7-.9-1.9-.9-3.4v-7.1h-2v-1.8h2v-3.1l2.3-.6Z"/>
        <path d="M1055.6,867.7c0,1.4,0,2.5.1,3.6h-2.1v-2.1h-.2c-.6,1.1-2,2.4-4.3,2.4s-4.5-1.1-4.5-5.7v-7.6h2.4v7.2c0,2.5.8,4.2,2.9,4.2s2.7-1.1,3.1-2.2c.1-.3.2-.8.2-1.2v-8h2.4v9.5Z"/>
        <path d="M1059.2,868.8c.7.4,2,.9,3.1.9,1.7,0,2.5-.9,2.5-1.9s-.7-1.7-2.4-2.4c-2.4-.9-3.5-2.1-3.5-3.7,0-2.1,1.7-3.8,4.5-3.8s2.5.4,3.2.8l-.6,1.7c-.5-.3-1.5-.8-2.7-.8s-2.2.8-2.2,1.8.8,1.6,2.5,2.2c2.2.8,3.4,2,3.4,3.9,0,2.3-1.8,3.9-4.9,3.9s-2.8-.4-3.7-.9l.6-1.8Z"/>
        <path d="M1087.8,864.6c0,4.8-3.4,6.9-6.5,6.9s-6.3-2.6-6.3-6.7,2.9-6.9,6.5-6.9,6.3,2.7,6.3,6.7ZM1077.4,864.7c0,2.9,1.6,5,4,5s4-2.1,4-5.1-1.1-5-3.9-5-4,2.6-4,5.1Z"/>
        <path d="M1090.8,862.4c0-1.7,0-3-.1-4.3h2.1v2.2h.2c.9-1.6,2.5-2.5,4.6-2.5,3.2,0,5.5,2.7,5.5,6.6s-2.9,7-5.9,7-3.2-.8-4-2.1h0v7.1h-2.4v-14.1ZM1093.2,865.9c0,.3,0,.7.1,1,.4,1.7,1.9,2.8,3.5,2.8,2.5,0,4-2.1,4-5.1s-1.4-4.8-3.9-4.8-3.1,1.1-3.6,2.9c0,.3-.2.7-.2,1v2.3Z"/>
        <path d="M1107.5,865.1c0,3.2,2.1,4.5,4.5,4.5s2.7-.3,3.6-.7l.4,1.7c-.8.4-2.3.8-4.4.8-4,0-6.4-2.7-6.4-6.6s2.3-7,6.1-7,5.4,3.7,5.4,6.1,0,.9,0,1.1h-9.2ZM1114.5,863.4c0-1.5-.6-3.8-3.3-3.8s-3.5,2.2-3.6,3.8h6.9Z"/>
        <path d="M1119.7,862.3c0-1.5,0-2.9-.1-4.1h2.1v2.6h.2c.6-1.8,2-2.9,3.6-2.9s.4,0,.7,0v2.2c-.2,0-.5,0-.8,0-1.7,0-2.9,1.3-3.2,3,0,.3,0,.7,0,1.1v7h-2.4v-9Z"/>
        <path d="M1135.6,871.2l-.2-1.6h0c-.7,1-2.1,1.9-4,1.9s-4-1.9-4-3.7c0-3.2,2.8-4.9,7.8-4.9v-.3c0-1.1-.3-3-3-3-1.2,0-2.5.4-3.4,1l-.5-1.6c1.1-.7,2.7-1.1,4.3-1.1,4,0,5,2.7,5,5.3v4.9c0,1.1,0,2.2.2,3.1h-2.1ZM1135.3,864.6c-2.6,0-5.5.4-5.5,2.9s1,2.3,2.2,2.3c1.7,0,2.8-1.1,3.2-2.2,0-.3.1-.5.1-.7v-2.3Z"/>
        <path d="M1150.7,870.8c-.6.3-2,.8-3.7.8-3.9,0-6.5-2.7-6.5-6.7s2.7-7,7-7,2.7.4,3.3.7l-.5,1.8c-.6-.3-1.5-.6-2.8-.6-3,0-4.6,2.2-4.6,4.9,0,3,1.9,4.9,4.5,4.9s2.2-.3,2.9-.6l.4,1.8Z"/>
        <path d="M1156.2,854.5c0,.8-.6,1.5-1.5,1.5s-1.4-.7-1.4-1.5c0-.8.6-1.5,1.5-1.5s1.5.6,1.5,1.5ZM1153.5,871.2v-13.1h2.4v13.1h-2.4Z"/>
        <path d="M1171.7,864.6c0,4.8-3.4,6.9-6.5,6.9s-6.3-2.6-6.3-6.7,2.9-6.9,6.5-6.9,6.3,2.7,6.3,6.7ZM1161.3,864.7c0,2.9,1.6,5,4,5s4-2.1,4-5.1-1.1-5-3.9-5-4,2.6-4,5.1Z"/>
        <path d="M1174.7,861.7c0-1.4,0-2.4-.1-3.5h2.1v2.1h.2c.6-1.2,2.2-2.4,4.3-2.4s4.6,1.1,4.6,5.6v7.8h-2.4v-7.5c0-2.1-.8-3.9-3-3.9s-2.8,1.1-3.2,2.4c0,.3-.2.7-.2,1.1v7.9h-2.4v-9.5Z"/>
        <path d="M1191,865.1c0,3.2,2.1,4.5,4.5,4.5s2.7-.3,3.6-.7l.4,1.7c-.8.4-2.3.8-4.4.8-4,0-6.4-2.7-6.4-6.6s2.3-7,6.1-7,5.4,3.7,5.4,6.1,0,.9,0,1.1h-9.2ZM1197.9,863.4c0-1.5-.6-3.8-3.3-3.8s-3.5,2.2-3.6,3.8h6.9Z"/>
        <path d="M1202.8,868.8c.7.4,2,.9,3.1.9,1.7,0,2.5-.9,2.5-1.9s-.7-1.7-2.4-2.4c-2.4-.9-3.5-2.1-3.5-3.7,0-2.1,1.7-3.8,4.5-3.8s2.5.4,3.2.8l-.6,1.7c-.5-.3-1.5-.8-2.7-.8s-2.2.8-2.2,1.8.8,1.6,2.5,2.2c2.3.8,3.4,2,3.4,3.9,0,2.3-1.8,3.9-4.9,3.9s-2.8-.4-3.7-.9l.6-1.8Z"/>
        <path d="M973.2,904.8c.7.4,2,.9,3.1.9,1.7,0,2.5-.9,2.5-1.9s-.7-1.7-2.4-2.4c-2.4-.9-3.5-2.1-3.5-3.7,0-2.1,1.7-3.8,4.5-3.8s2.5.4,3.2.8l-.6,1.7c-.5-.3-1.5-.8-2.7-.8s-2.2.8-2.2,1.8.8,1.6,2.5,2.2c2.2.8,3.4,2,3.4,3.9,0,2.3-1.8,3.9-4.9,3.9s-2.8-.4-3.7-.9l.6-1.8Z"/>
        <path d="M986.9,890.5c0,.8-.6,1.5-1.5,1.5s-1.4-.7-1.4-1.5c0-.8.6-1.5,1.5-1.5s1.5.6,1.5,1.5ZM984.3,907.2v-13.1h2.4v13.1h-2.4Z"/>
        <path d="M990.6,897.7c0-1.4,0-2.4-.1-3.5h2.1v2.1h.2c.6-1.2,2.2-2.4,4.3-2.4s4.6,1.1,4.6,5.6v7.8h-2.4v-7.5c0-2.1-.8-3.9-3-3.9s-2.8,1.1-3.2,2.4c0,.3-.2.7-.2,1.1v7.9h-2.4v-9.5Z"/>
        <path d="M1018.5,907.2l-.2-1.6h0c-.7,1-2.1,1.9-4,1.9s-4-1.9-4-3.7c0-3.2,2.8-4.9,7.8-4.9v-.3c0-1.1-.3-3-3-3-1.2,0-2.5.4-3.4,1l-.5-1.6c1.1-.7,2.7-1.1,4.3-1.1,4,0,5,2.7,5,5.3v4.9c0,1.1,0,2.2.2,3.1h-2.1ZM1018.2,900.6c-2.6,0-5.5.4-5.5,2.9s1,2.3,2.2,2.3c1.7,0,2.8-1.1,3.2-2.2,0-.3.1-.5.1-.7v-2.3Z"/>
        <path d="M1035.2,903.7c0,1.4,0,2.5.1,3.6h-2.1v-2.1h-.2c-.6,1.1-2,2.4-4.3,2.4s-4.5-1.1-4.5-5.7v-7.6h2.4v7.2c0,2.5.8,4.2,2.9,4.2s2.7-1.1,3.1-2.2c.1-.3.2-.8.2-1.2v-8h2.4v9.5Z"/>
        <path d="M1039.2,897.7c0-1.4,0-2.4-.1-3.5h2.1v2.1h.2c.7-1.2,1.9-2.4,4.1-2.4s3.1,1.1,3.7,2.6h0c.4-.7.9-1.3,1.5-1.7.8-.6,1.6-.9,2.9-.9,1.7,0,4.3,1.1,4.3,5.7v7.7h-2.3v-7.4c0-2.5-.9-4-2.8-4s-2.4,1-2.8,2.1c-.1.3-.2.8-.2,1.2v8.1h-2.3v-7.8c0-2.1-.9-3.6-2.7-3.6s-2.6,1.2-3,2.4c-.1.3-.2.8-.2,1.2v7.9h-2.3v-9.5Z"/>
        <path d="M1063,901.1c0,3.2,2.1,4.5,4.5,4.5s2.7-.3,3.6-.7l.4,1.7c-.8.4-2.3.8-4.4.8-4,0-6.4-2.7-6.4-6.6s2.3-7,6.1-7,5.4,3.7,5.4,6.1,0,.9,0,1.1h-9.2ZM1070,899.4c0-1.5-.6-3.8-3.3-3.8s-3.5,2.2-3.6,3.8h6.9Z"/>
        <path d="M1075.2,897.7c0-1.4,0-2.4-.1-3.5h2.1v2.1h.2c.6-1.2,2.2-2.4,4.3-2.4s4.6,1.1,4.6,5.6v7.8h-2.4v-7.5c0-2.1-.8-3.9-3-3.9s-2.8,1.1-3.2,2.4c0,.3-.2.7-.2,1.1v7.9h-2.4v-9.5Z"/>
        <path d="M1093,890.4v3.8h3.4v1.8h-3.4v7c0,1.6.5,2.5,1.8,2.5s1.1,0,1.4-.2v1.8c-.4.2-1.1.3-2,.3s-2-.4-2.6-1c-.7-.7-.9-1.9-.9-3.4v-7.1h-2v-1.8h2v-3.1l2.3-.6Z"/>
        <path d="M1106.3,907.2l-.2-1.6h0c-.7,1-2.1,1.9-4,1.9s-4-1.9-4-3.7c0-3.2,2.8-4.9,7.8-4.9v-.3c0-1.1-.3-3-3-3-1.2,0-2.5.4-3.4,1l-.5-1.6c1.1-.7,2.7-1.1,4.3-1.1,4,0,5,2.7,5,5.3v4.9c0,1.1,0,2.2.2,3.1h-2.1ZM1105.9,900.6c-2.6,0-5.5.4-5.5,2.9s1,2.3,2.2,2.3c1.7,0,2.8-1.1,3.2-2.2,0-.3.1-.5.1-.7v-2.3Z"/>
        <path d="M1112.1,898.3c0-1.5,0-2.9-.1-4.1h2.1v2.6h.2c.6-1.8,2-2.9,3.6-2.9s.4,0,.7,0v2.2c-.2,0-.5,0-.8,0-1.7,0-2.9,1.3-3.2,3,0,.3,0,.7,0,1.1v7h-2.4v-9Z"/>
        <path d="M880.7,934.4c0-1.7,0-3-.1-4.3h2.1v2.2h.2c.9-1.6,2.5-2.5,4.6-2.5,3.2,0,5.5,2.7,5.5,6.6s-2.9,7-5.9,7-3.2-.8-4-2.1h0v7.1h-2.4v-14.1ZM883.1,937.9c0,.3,0,.7.1,1,.4,1.7,1.9,2.8,3.5,2.8,2.5,0,4-2.1,4-5.1s-1.4-4.8-3.9-4.8-3.1,1.1-3.6,2.9c0,.3-.2.7-.2,1v2.3Z"/>
        <path d="M896.1,934.3c0-1.5,0-2.9-.1-4.1h2.1v2.6h.2c.6-1.8,2-2.9,3.6-2.9s.4,0,.7,0v2.2c-.2,0-.5,0-.8,0-1.7,0-2.9,1.3-3.2,3,0,.3,0,.7,0,1.1v7h-2.4v-9Z"/>
        <path d="M916.5,936.6c0,4.8-3.4,6.9-6.5,6.9s-6.3-2.6-6.3-6.7,2.9-6.9,6.5-6.9,6.3,2.7,6.3,6.7ZM906.1,936.7c0,2.9,1.6,5,4,5s4-2.1,4-5.1-1.1-5-3.9-5-4,2.6-4,5.1Z"/>
        <path d="M919.5,934.4c0-1.7,0-3-.1-4.3h2.1v2.2h.2c.9-1.6,2.5-2.5,4.6-2.5,3.2,0,5.5,2.7,5.5,6.6s-2.9,7-5.9,7-3.2-.8-4-2.1h0v7.1h-2.4v-14.1ZM921.8,937.9c0,.3,0,.7.1,1,.4,1.7,1.9,2.8,3.5,2.8,2.5,0,4-2.1,4-5.1s-1.4-4.8-3.9-4.8-3.1,1.1-3.6,2.9c0,.3-.2.7-.2,1v2.3Z"/>
        <path d="M946.7,936.6c0,4.8-3.4,6.9-6.5,6.9s-6.3-2.6-6.3-6.7,2.9-6.9,6.5-6.9,6.3,2.7,6.3,6.7ZM936.3,936.7c0,2.9,1.6,5,4,5s4-2.1,4-5.1-1.1-5-3.9-5-4,2.6-4,5.1Z"/>
        <path d="M949.7,934.3c0-1.5,0-2.9-.1-4.1h2.1v2.6h.2c.6-1.8,2-2.9,3.6-2.9s.4,0,.7,0v2.2c-.2,0-.5,0-.8,0-1.7,0-2.9,1.3-3.2,3,0,.3,0,.7,0,1.1v7h-2.4v-9Z"/>
        <path d="M967.6,942.8c-.6.3-2,.8-3.7.8-3.9,0-6.5-2.7-6.5-6.7s2.7-7,7-7,2.7.4,3.3.7l-.5,1.8c-.6-.3-1.5-.6-2.8-.6-3,0-4.6,2.2-4.6,4.9,0,3,1.9,4.9,4.5,4.9s2.2-.3,2.9-.6l.4,1.8Z"/>
        <path d="M973,926.5c0,.8-.6,1.5-1.5,1.5s-1.4-.7-1.4-1.5c0-.8.6-1.5,1.5-1.5s1.5.6,1.5,1.5ZM970.4,943.2v-13.1h2.4v13.1h-2.4Z"/>
        <path d="M988.5,936.6c0,4.8-3.4,6.9-6.5,6.9s-6.3-2.6-6.3-6.7,2.9-6.9,6.5-6.9,6.3,2.7,6.3,6.7ZM978.1,936.7c0,2.9,1.6,5,4,5s4-2.1,4-5.1-1.1-5-3.9-5-4,2.6-4,5.1Z"/>
        <path d="M991.5,933.7c0-1.4,0-2.4-.1-3.5h2.1v2.1h.2c.6-1.2,2.2-2.4,4.3-2.4s4.6,1.1,4.6,5.6v7.8h-2.4v-7.5c0-2.1-.8-3.9-3-3.9s-2.8,1.1-3.2,2.4c0,.3-.2.7-.2,1.1v7.9h-2.4v-9.5Z"/>
        <path d="M1013.7,943.2l-.2-1.6h0c-.7,1-2.1,1.9-4,1.9s-4-1.9-4-3.7c0-3.2,2.8-4.9,7.8-4.9v-.3c0-1.1-.3-3-3-3-1.2,0-2.5.4-3.4,1l-.5-1.6c1.1-.7,2.7-1.1,4.3-1.1,4,0,5,2.7,5,5.3v4.9c0,1.1,0,2.2.2,3.1h-2.1ZM1013.3,936.6c-2.6,0-5.5.4-5.5,2.9s1,2.3,2.2,2.3c1.7,0,2.8-1.1,3.2-2.2,0-.3.1-.5.1-.7v-2.3Z"/>
        <path d="M1019.5,924.1h2.4v19.2h-2.4v-19.2Z"/>
        <path d="M1025.9,933.7c0-1.4,0-2.4-.1-3.5h2.1v2.1h.2c.7-1.2,1.9-2.4,4.1-2.4s3.1,1.1,3.7,2.6h0c.4-.7.9-1.3,1.5-1.7.8-.6,1.6-.9,2.9-.9,1.7,0,4.3,1.1,4.3,5.7v7.7h-2.3v-7.4c0-2.5-.9-4-2.8-4s-2.4,1-2.8,2.1c-.1.3-.2.8-.2,1.2v8.1h-2.3v-7.8c0-2.1-.9-3.6-2.7-3.6s-2.6,1.2-3,2.4c-.1.3-.2.8-.2,1.2v7.9h-2.3v-9.5Z"/>
        <path d="M1049.7,937.1c0,3.2,2.1,4.5,4.5,4.5s2.7-.3,3.6-.7l.4,1.7c-.8.4-2.3.8-4.4.8-4,0-6.4-2.7-6.4-6.6s2.3-7,6.1-7,5.4,3.7,5.4,6.1,0,.9,0,1.1h-9.2ZM1056.7,935.4c0-1.5-.6-3.8-3.3-3.8s-3.5,2.2-3.6,3.8h6.9Z"/>
        <path d="M1061.9,933.7c0-1.4,0-2.4-.1-3.5h2.1v2.1h.2c.6-1.2,2.2-2.4,4.3-2.4s4.6,1.1,4.6,5.6v7.8h-2.4v-7.5c0-2.1-.8-3.9-3-3.9s-2.8,1.1-3.2,2.4c0,.3-.2.7-.2,1.1v7.9h-2.4v-9.5Z"/>
        <path d="M1079.6,926.4v3.8h3.4v1.8h-3.4v7c0,1.6.5,2.5,1.8,2.5s1.1,0,1.4-.2v1.8c-.4.2-1.1.3-2,.3s-2-.4-2.6-1c-.7-.7-.9-1.9-.9-3.4v-7.1h-2v-1.8h2v-3.1l2.3-.6Z"/>
        <path d="M1086.9,937.1c0,3.2,2.1,4.5,4.5,4.5s2.7-.3,3.6-.7l.4,1.7c-.8.4-2.3.8-4.4.8-4,0-6.4-2.7-6.4-6.6s2.3-7,6.1-7,5.4,3.7,5.4,6.1,0,.9,0,1.1h-9.2ZM1093.8,935.4c0-1.5-.6-3.8-3.3-3.8s-3.5,2.2-3.6,3.8h6.9Z"/>
        <path d="M1104.8,924.1h2.4v19.2h-2.4v-19.2Z"/>
        <path d="M1123,936.6c0,4.8-3.4,6.9-6.5,6.9s-6.3-2.6-6.3-6.7,2.9-6.9,6.5-6.9,6.3,2.7,6.3,6.7ZM1112.6,936.7c0,2.9,1.6,5,4,5s4-2.1,4-5.1-1.1-5-3.9-5-4,2.6-4,5.1Z"/>
        <path d="M1125.7,940.8c.7.4,2,.9,3.1.9,1.7,0,2.5-.9,2.5-1.9s-.7-1.7-2.4-2.4c-2.4-.9-3.5-2.1-3.5-3.7,0-2.1,1.7-3.8,4.5-3.8s2.5.4,3.2.8l-.6,1.7c-.5-.3-1.5-.8-2.7-.8s-2.2.8-2.2,1.8.8,1.6,2.5,2.2c2.3.8,3.4,2,3.4,3.9,0,2.3-1.8,3.9-4.9,3.9s-2.8-.4-3.7-.9l.6-1.8Z"/>
        <path d="M1151.7,942.8c-.6.3-2,.8-3.7.8-3.9,0-6.5-2.7-6.5-6.7s2.7-7,7-7,2.7.4,3.3.7l-.5,1.8c-.6-.3-1.5-.6-2.8-.6-3,0-4.6,2.2-4.6,4.9,0,3,1.9,4.9,4.5,4.9s2.2-.3,2.9-.6l.4,1.8Z"/>
        <path d="M1166.2,936.6c0,4.8-3.4,6.9-6.5,6.9s-6.3-2.6-6.3-6.7,2.9-6.9,6.5-6.9,6.3,2.7,6.3,6.7ZM1155.8,936.7c0,2.9,1.6,5,4,5s4-2.1,4-5.1-1.1-5-3.9-5-4,2.6-4,5.1Z"/>
        <path d="M1168.8,940.8c.7.4,2,.9,3.1.9,1.7,0,2.5-.9,2.5-1.9s-.7-1.7-2.4-2.4c-2.4-.9-3.5-2.1-3.5-3.7,0-2.1,1.7-3.8,4.5-3.8s2.5.4,3.2.8l-.6,1.7c-.5-.3-1.5-.8-2.7-.8s-2.2.8-2.2,1.8.8,1.6,2.5,2.2c2.3.8,3.4,2,3.4,3.9,0,2.3-1.8,3.9-4.9,3.9s-2.8-.4-3.7-.9l.6-1.8Z"/>
        <path d="M1182.7,926.4v3.8h3.4v1.8h-3.4v7c0,1.6.5,2.5,1.8,2.5s1.1,0,1.4-.2v1.8c-.4.2-1.1.3-2,.3s-2-.4-2.6-1c-.7-.7-.9-1.9-.9-3.4v-7.1h-2v-1.8h2v-3.1l2.3-.6Z"/>
        <path d="M1200.5,936.6c0,4.8-3.4,6.9-6.5,6.9s-6.3-2.6-6.3-6.7,2.9-6.9,6.5-6.9,6.3,2.7,6.3,6.7ZM1190.1,936.7c0,2.9,1.6,5,4,5s4-2.1,4-5.1-1.1-5-3.9-5-4,2.6-4,5.1Z"/>
        <path d="M1203.1,940.8c.7.4,2,.9,3.1.9,1.7,0,2.5-.9,2.5-1.9s-.7-1.7-2.4-2.4c-2.4-.9-3.5-2.1-3.5-3.7,0-2.1,1.7-3.8,4.5-3.8s2.5.4,3.2.8l-.6,1.7c-.5-.3-1.5-.8-2.7-.8s-2.2.8-2.2,1.8.8,1.6,2.5,2.2c2.3.8,3.4,2,3.4,3.9,0,2.3-1.8,3.9-4.9,3.9s-2.8-.4-3.7-.9l.6-1.8Z"/>
        <path d="M1213.3,941.8c0-1,.7-1.7,1.6-1.7s1.6.7,1.6,1.7c0,1-.6,1.7-1.6,1.7s-1.6-.7-1.6-1.7Z"/>
      </g>
      <g class="cls-33">
        <path class="cls-32" d="M274.6,424.6l95.9,3.5s2.6-.4,2.2-2.9c-.2-1.4-1.3-2.6-2.7-2.9l-95.4,2.3Z"/>
        <path class="cls-46" d="M292.8,414.8l73.8,3.4s2.6-.4,2.2-2.9c-.2-1.4-1.3-2.6-2.7-2.9l-73.3,2.4Z"/>
        <path class="cls-26" d="M294.9,434.9l73.8,3.4s2.6-.4,2.2-2.9c-.2-1.4-1.3-2.6-2.7-2.9l-73.4,2.4h0Z"/>
        <path class="cls-14" d="M287.2,406.9l75.2,2.1s2.7-.5,2.3-3c-.1-1.4-1.3-2.6-2.7-2.9l-74.9,3.9Z"/>
        <path class="cls-47" d="M310.8,443.1l51.5,2.4s1.8-.3,1.6-2c-.1-1-.9-1.8-1.9-2l-51.2,1.7h0Z"/>
        <path class="cls-42" d="M325.8,399.8l23.4,1.1c.5,0,.8-.5.8-1,0-.5-.4-.9-.9-1l-23.3.9Z"/>
        <path class="cls-22" d="M330,449.3l23.4,1.1c.5,0,.8-.5.8-1,0-.5-.4-.9-.9-.9l-23.3.9Z"/>
      </g>
      <image width="4064" height="4168" transform="translate(261.4 289.8) scale(.2)" xlink:href="tecnologia-1.png"/>
      <g class="cls-4">
        <path class="cls-3" d="M767.2,752.2c-4.6,26.9,13.6,52.5,40.5,57s52.5-13.6,57-40.5c4.6-26.9-13.6-52.5-40.5-57-26.9-4.6-52.5,13.6-57,40.5ZM857.3,767.5c-3.9,22.9-25.6,38.3-48.4,34.4-22.9-3.9-38.3-25.6-34.4-48.4,3.9-22.9,25.6-38.3,48.4-34.4,22.9,3.9,38.3,25.6,34.4,48.4Z"/>
        <path class="cls-27" d="M857.3,767.5c-2.7,16.2-14.4,28.6-29.1,33.1-12.4,3.8-21.6,14.2-23.7,27h0c37.1,6.3,72.3-18.7,78.6-55.8,6.3-37.1-18.7-72.3-55.8-78.6h0c-2.2,12.8,3.1,25.6,13.5,33.3,12.4,9.1,19.3,24.7,16.5,40.9Z"/>
        <path class="cls-1" d="M840.8,726.6c12.4,9.1,19.3,24.7,16.5,40.9-2.7,16.2-14.4,28.6-29.1,33.1-5.8,1.8-10.8,5-14.8,9.2,24.7,1.3,47-16.1,51.2-41.1,4.2-25-11.1-48.8-34.8-55.7,2.4,5.3,6.1,10,11,13.6Z"/>
        <path class="cls-20" d="M748.7,749.1c-6.3,37.1,18.7,72.3,55.8,78.6,37.1,6.3,72.3-18.7,78.6-55.8,6.3-37.1-18.7-72.3-55.8-78.6-37.1-6.3-72.3,18.7-78.6,55.8ZM879.7,771.3c-6,35.2-39.3,58.9-74.5,53-35.2-6-58.9-39.3-53-74.5,6-35.2,39.3-58.9,74.5-53,35.2,6,58.9,39.3,53,74.5Z"/>
      </g>
      <g class="cls-33">
        <path class="cls-18" d="M625.1,378.7l179.1,13.5s4.9-.6,4-5.3c-.4-2.6-2.6-4.9-5.2-5.5l-177.9-2.7Z"/>
        <path class="cls-36" d="M658.1,361.9l137.8,11.6s4.9-.6,4-5.3c-.4-2.6-2.6-4.9-5.2-5.5l-136.6-.8Z"/>
        <path class="cls-40" d="M663.5,399.2l137.8,11.6s4.9-.6,4-5.3c-.4-2.6-2.6-4.9-5.2-5.5l-136.7-.9h0Z"/>
        <path class="cls-29" d="M647.1,347l140.4,9.3s5-.7,4.1-5.5c-.4-2.6-2.5-4.9-5.2-5.5l-139.4,1.7Z"/>
        <path class="cls-9" d="M693.8,415.5l96.3,8.1s3.4-.4,2.8-3.7c-.3-1.8-1.8-3.4-3.6-3.9l-95.4-.5h0Z"/>
        <path class="cls-37" d="M718.6,336.7l43.7,3.7c.9-.1,1.5-.9,1.4-1.8,0-.9-.8-1.6-1.7-1.8h-43.4Z"/>
        <path class="cls-5" d="M730,428.4l43.7,3.7c.9-.1,1.5-.9,1.4-1.8-.1-.8-.8-1.6-1.7-1.8h-43.4Z"/>
      </g>
      <g class="cls-4">
        <path class="cls-3" d="M715.6,373.5c-6,35.7,18,69.6,53.7,75.6s69.6-18,75.6-53.7c6-35.7-18-69.6-53.7-75.6-35.7-6-69.6,18-75.6,53.7ZM835.2,393.7c-5.1,30.3-33.9,50.8-64.2,45.6-30.3-5.1-50.8-33.9-45.6-64.2,5.1-30.3,33.9-50.8,64.2-45.6,30.3,5.1,50.8,33.9,45.6,64.2Z"/>
        <path class="cls-7" d="M835.2,393.7c-3.6,21.5-19.1,38-38.5,44-16.4,5.1-28.6,18.9-31.5,35.8h0c49.2,8.3,95.9-24.8,104.2-74,8.3-49.2-24.8-95.9-74-104.2h0c-2.9,16.9,4.1,34,17.9,44.2,16.4,12.1,25.6,32.7,21.9,54.2Z"/>
        <path class="cls-1" d="M813.3,339.5c16.4,12.1,25.6,32.7,21.9,54.2-3.6,21.5-19.1,38-38.5,44-7.6,2.4-14.4,6.6-19.7,12.2,32.8,1.7,62.3-21.4,67.9-54.5,5.6-33.1-14.7-64.7-46.2-73.9,3.2,7,8.1,13.3,14.5,18Z"/>
        <path class="cls-20" d="M691.1,369.3c-8.3,49.2,24.8,95.9,74,104.2,49.2,8.3,95.9-24.8,104.2-74,8.3-49.2-24.8-95.9-74-104.2-49.2-8.3-95.9,24.8-104.2,74ZM864.8,398.7c-7.9,46.7-52.2,78.1-98.9,70.2-46.7-7.9-78.1-52.2-70.2-98.9,7.9-46.7,52.2-78.1,98.9-70.2,46.7,7.9,78.1,52.2,70.2,98.9Z"/>
      </g>
      <g class="cls-33">
        <path class="cls-49" d="M738.2,763.3l95.9,3.5s2.6-.4,2.2-2.9c-.2-1.4-1.3-2.6-2.7-2.9l-95.4,2.3Z"/>
        <path class="cls-16" d="M756.4,753.5l73.8,3.4s2.6-.4,2.2-2.9c-.2-1.4-1.3-2.6-2.7-2.9l-73.3,2.4Z"/>
        <path class="cls-15" d="M758.4,773.6l73.8,3.4s2.6-.4,2.2-2.9c-.2-1.4-1.3-2.6-2.7-2.9l-73.4,2.4h0Z"/>
        <path class="cls-38" d="M750.7,745.6l75.2,2.1s2.7-.5,2.3-3c-.1-1.4-1.3-2.6-2.7-2.9l-74.9,3.9Z"/>
        <path class="cls-31" d="M774.4,781.8l51.5,2.4s1.8-.3,1.6-2c-.1-1-.9-1.8-1.9-2l-51.2,1.7h0Z"/>
        <path class="cls-28" d="M789.3,738.5l23.4,1.1c.5,0,.8-.5.8-1,0-.5-.4-.9-.9-1l-23.3.9Z"/>
        <path class="cls-35" d="M793.6,788l23.4,1.1c.5,0,.8-.5.8-1,0-.5-.4-.9-.9-.9l-23.3.9Z"/>
      </g>
      <g class="cls-33">
        <path class="cls-30" d="M257.8,874.4l175.8,6.5s4.8-.8,4.1-5.4c-.3-2.5-2.3-4.8-4.9-5.3l-175,4.2Z"/>
        <path class="cls-39" d="M291.1,856.4l135.2,6.2s4.8-.8,4.1-5.4c-.3-2.5-2.3-4.8-4.9-5.3l-134.4,4.5Z"/>
        <path class="cls-17" d="M294.9,893.3l135.2,6.2s4.8-.8,4.1-5.4c-.3-2.5-2.3-4.7-4.9-5.3l-134.5,4.4h0Z"/>
        <path class="cls-13" d="M280.8,842l137.9,3.8s4.9-.9,4.3-5.6c-.2-2.6-2.3-4.8-4.9-5.3l-137.3,7.1Z"/>
        <path class="cls-23" d="M324.1,908.3l94.5,4.3s3.4-.6,2.9-3.8c-.2-1.8-1.6-3.3-3.4-3.7l-93.9,3.2h0Z"/>
        <path class="cls-10" d="M351.5,829l42.9,2c.9-.2,1.5-.9,1.4-1.8,0-.8-.7-1.6-1.6-1.7l-42.7,1.6Z"/>
        <path class="cls-8" d="M359.3,919.7l42.9,2c.9-.2,1.5-.9,1.4-1.8,0-.8-.8-1.6-1.6-1.7l-42.7,1.6Z"/>
      </g>
      <g class="cls-33">
        <path class="cls-12" d="M182.9,643.9l591.2-4.3s16.4-3.5,14.6-18.9c-.6-8.6-7.2-15.8-15.7-17.2l-590.1,40.4Z"/>
        <path class="cls-24" d="M297.5,577.8l454.6.8s16.4-3.5,14.6-18.9c-.6-8.6-7.2-15.8-15.7-17.2l-453.5,35.3Z"/>
        <path class="cls-43" d="M304.9,702.6l454.6.8s16.4-3.5,14.6-18.9c-.6-8.6-7.2-15.8-15.7-17.2l-453.7,35.3h.2Z"/>
        <path class="cls-45" d="M265,530.4l463.9-7.7s16.8-3.9,15.3-19.7c-.4-8.8-7-16-15.7-17.3l-463.4,44.6Z"/>
        <path class="cls-6" d="M401,749.4l317.7.5s11.5-2.4,10.3-13.2c-.4-6-5-11-11-12l-316.8,24.8h-.1Z"/>
        <path class="cls-41" d="M505.4,475.5l144.2.4c3-.7,5.1-3.3,5.1-6.5,0-2.9-2.3-5.3-5.1-5.7l-144.2,11.7Z"/>
        <path class="cls-44" d="M517.8,782.8l144.2.4c3.1-.7,5.2-3.4,5.1-6.5-.1-2.8-2.3-5.3-5.1-5.7l-144.2,11.7Z"/>
      </g>
      <g class="cls-21">
        <g>
          <path class="cls-11" d="M393.2,786.4c-47.2-3.8-88.6,31.5-92.3,78.7-3.8,47.2,31.5,88.6,78.7,92.3,47.2,3.8,88.6-31.5,92.3-78.7,3.8-47.2-31.5-88.6-78.7-92.3ZM382.2,924.6c-29.1-2.3-50.8-27.8-48.5-56.9,2.3-29.1,27.8-50.8,56.9-48.5,29.1,2.3,50.8,27.8,48.5,56.9-2.3,29.1-27.8,50.8-56.9,48.5Z"/>
          <path class="cls-2" d="M338.8,895.1l-32.7,7.2c-3.6-9.4-5.6-19.7-5.6-30.4s.2-6.1.5-9.1c7.3,0,22.6,2,33.2,18.5.9,4.9,2.4,9.5,4.5,13.8ZM472.2,871.9c0-3.1-.2-6.1-.5-9.1-7.3,0-22.6,2-33.2,18.5-.9,4.9-2.4,9.5-4.5,13.8l32.7,7.2c3.6-9.4,5.6-19.7,5.6-30.4Z"/>
        </g>
        <g>
          <path class="cls-3" d="M386.4,809.7c-34.4,0-62.3,27.9-62.3,62.3s27.9,62.3,62.3,62.3,62.3-27.9,62.3-62.3-27.9-62.3-62.3-62.3ZM386.4,924.8c-29.2,0-52.9-23.7-52.9-52.9s23.7-52.9,52.9-52.9,52.9,23.7,52.9,52.9-23.7,52.9-52.9,52.9Z"/>
          <path class="cls-48" d="M386.4,924.8c-20.7,0-38.5-11.8-47.3-29.1-7.3-14.6-22.2-23.8-38.5-23.8h0c0,47.4,38.4,85.8,85.8,85.8s85.8-38.4,85.8-85.8h0c-16.3,0-31.2,9.2-38.5,23.8-8.7,17.3-26.6,29.1-47.3,29.1Z"/>
          <path class="cls-1" d="M433.6,895.7c-8.7,17.3-26.6,29.1-47.3,29.1s-38.5-11.8-47.3-29.1c-3.4-6.8-8.5-12.4-14.6-16.5,3.6,30.9,29.9,54.9,61.8,54.9s58.2-24,61.8-54.9c-6.1,4.1-11.1,9.7-14.6,16.5Z"/>
          <path class="cls-20" d="M386.4,786.1c-47.4,0-85.8,38.4-85.8,85.8s38.4,85.8,85.8,85.8,85.8-38.4,85.8-85.8-38.4-85.8-85.8-85.8ZM386.4,953.3c-45,0-81.4-36.4-81.4-81.4s36.4-81.4,81.4-81.4,81.4,36.4,81.4,81.4-36.4,81.4-81.4,81.4Z"/>
        </g>
      </g>
      <g class="cls-21">
        <g>
          <path class="cls-19" d="M351.1,377.2c-22.8-1.8-42.7,15.2-44.5,37.9-1.8,22.8,15.2,42.7,37.9,44.5,22.8,1.8,42.7-15.2,44.5-37.9,1.8-22.8-15.2-42.7-37.9-44.5ZM345.7,443.9c-14-1.1-24.5-13.4-23.4-27.4,1.1-14,13.4-24.5,27.4-23.4,14,1.1,24.5,13.4,23.4,27.4-1.1,14-13.4,24.5-27.4,23.4Z"/>
          <path class="cls-2" d="M324.8,429.6l-15.7,3.5c-1.7-4.6-2.7-9.5-2.7-14.6s0-3,.2-4.4c3.5,0,10.9.9,16,8.9.4,2.3,1.2,4.6,2.2,6.6ZM389.1,418.5c0-1.5,0-3-.2-4.4-3.5,0-10.9.9-16,8.9-.4,2.3-1.2,4.6-2.2,6.6l15.7,3.5c1.7-4.6,2.7-9.5,2.7-14.6Z"/>
        </g>
        <g>
          <path class="cls-3" d="M347.8,388.5c-16.6,0-30,13.4-30,30s13.4,30,30,30,30-13.4,30-30-13.4-30-30-30ZM347.8,444c-14.1,0-25.5-11.4-25.5-25.5s11.4-25.5,25.5-25.5,25.5,11.4,25.5,25.5-11.4,25.5-25.5,25.5Z"/>
          <path class="cls-34" d="M347.8,444c-10,0-18.6-5.7-22.8-14-3.5-7-10.7-11.5-18.6-11.5h0c0,22.8,18.5,41.3,41.3,41.3s41.3-18.5,41.3-41.3h0c-7.9,0-15,4.4-18.6,11.5-4.2,8.3-12.8,14-22.8,14Z"/>
          <path class="cls-1" d="M370.5,429.9c-4.2,8.3-12.8,14-22.8,14s-18.6-5.7-22.8-14c-1.6-3.3-4.1-6-7-7.9,1.7,14.9,14.4,26.5,29.8,26.5s28-11.6,29.8-26.5c-2.9,2-5.4,4.7-7,7.9Z"/>
          <path class="cls-20" d="M347.8,377.1c-22.8,0-41.3,18.5-41.3,41.3s18.5,41.3,41.3,41.3,41.3-18.5,41.3-41.3-18.5-41.3-41.3-41.3ZM347.8,457.7c-21.7,0-39.2-17.6-39.2-39.2s17.6-39.2,39.2-39.2,39.2,17.6,39.2,39.2-17.6,39.2-39.2,39.2Z"/>
        </g>
      </g>
    </g>
  </g>
</svg>