<?xml version="1.0" encoding="UTF-8"?>
<svg xmlns="http://www.w3.org/2000/svg" version="1.1" xmlns:xlink="http://www.w3.org/1999/xlink" viewBox="0 0 1298 1080">
  <defs>
    <style>
      .cls-1 {
        fill: #002894;
        opacity: .3;
      }

      .cls-1, .cls-2, .cls-3 {
        mix-blend-mode: multiply;
      }

      .cls-4 {
        mix-blend-mode: lighten;
      }

      .cls-5 {
        fill: url(#Degradado_sin_nombre_32-2);
      }

      .cls-6 {
        fill: url(#Degradado_sin_nombre_68-5);
      }

      .cls-7, .cls-8 {
        fill: #fff;
      }

      .cls-9 {
        fill: url(#Naranja_amarillo);
      }

      .cls-10 {
        fill: none;
      }

      .cls-11 {
        fill: url(#Degradado_sin_nombre_68-2);
      }

      .cls-8 {
        mix-blend-mode: overlay;
        opacity: .6;
      }

      .cls-12 {
        isolation: isolate;
      }

      .cls-13 {
        fill: #ff8b00;
      }

      .cls-14 {
        fill: url(#Degradado_sin_nombre_32);
      }

      .cls-2 {
        fill: #3b00a0;
        opacity: .2;
      }

      .cls-15 {
        fill: #008bb2;
      }

      .cls-16 {
        fill: url(#Degradado_sin_nombre_68-3);
      }

      .cls-17 {
        fill: url(#Degradado_sin_nombre_68-4);
      }

      .cls-3 {
        fill: #ffa255;
        opacity: .8;
      }

      .cls-18 {
        fill: url(#Degradado_sin_nombre_68);
      }

      .cls-19 {
        clip-path: url(#clippath);
      }

      .cls-20 {
        fill: url(#Degradado_sin_nombre_32-3);
      }

      .cls-21 {
        fill: url(#Degradado_sin_nombre_68-6);
      }
    </style>
    <clipPath id="clippath">
      <path class="cls-10" d="M262.7,650.3c0,93,188.7,130.5,81.9,130.5S6.2,739.5,6.2,646.5s178.6-145.7,285.4-145.7-28.9,56.5-28.9,149.5Z"/>
    </clipPath>
    <linearGradient id="Degradado_sin_nombre_32" data-name="Degradado sin nombre 32" x1="28.8" y1="652.9" x2="424" y2="652.9" gradientUnits="userSpaceOnUse">
      <stop offset="0" stop-color="#00eced"/>
      <stop offset=".1" stop-color="#05dae9"/>
      <stop offset=".4" stop-color="#13aede"/>
      <stop offset=".7" stop-color="#2967ce"/>
      <stop offset="1" stop-color="#3c2dc1"/>
    </linearGradient>
    <linearGradient id="Naranja_amarillo" data-name="Naranja, amarillo" x1="104.9" y1="832.9" x2="365.2" y2="832.9" gradientTransform="translate(176.5 -196) rotate(4.6)" gradientUnits="userSpaceOnUse">
      <stop offset="0" stop-color="#ffef26"/>
      <stop offset="0" stop-color="#fee921"/>
      <stop offset=".1" stop-color="#fdd70e"/>
      <stop offset=".2" stop-color="#fdcb03"/>
      <stop offset=".3" stop-color="#fdc800"/>
      <stop offset=".7" stop-color="#f18f34"/>
      <stop offset=".9" stop-color="#e95f32"/>
      <stop offset="1" stop-color="#e3312d"/>
    </linearGradient>
    <linearGradient id="Degradado_sin_nombre_32-2" data-name="Degradado sin nombre 32" x1="357.5" y1="715.4" x2="617.8" y2="715.4" xlink:href="#Degradado_sin_nombre_32"/>
    <linearGradient id="Degradado_sin_nombre_68" data-name="Degradado sin nombre 68" x1="-244" y1="504" x2="2.2" y2="504" gradientTransform="translate(264.1 191.4) rotate(0) scale(.9) skewX(0)" gradientUnits="userSpaceOnUse">
      <stop offset="0" stop-color="#fdc800"/>
      <stop offset="1" stop-color="#f18f34"/>
    </linearGradient>
    <linearGradient id="Degradado_sin_nombre_68-2" data-name="Degradado sin nombre 68" x1="-197.9" y1="479.2" x2="-7.2" y2="479.2" xlink:href="#Degradado_sin_nombre_68"/>
    <linearGradient id="Degradado_sin_nombre_68-3" data-name="Degradado sin nombre 68" x1="-194.1" y1="529.8" x2="-3.3" y2="529.8" xlink:href="#Degradado_sin_nombre_68"/>
    <linearGradient id="Degradado_sin_nombre_68-4" data-name="Degradado sin nombre 68" x1="-211.4" y1="456.2" x2="-16.8" y2="456.2" xlink:href="#Degradado_sin_nombre_68"/>
    <linearGradient id="Degradado_sin_nombre_68-5" data-name="Degradado sin nombre 68" x1="-154.6" y1="550.5" x2="-21.3" y2="550.5" xlink:href="#Degradado_sin_nombre_68"/>
    <linearGradient id="Degradado_sin_nombre_68-6" data-name="Degradado sin nombre 68" x1="-114.1" y1="441.7" x2="-53.5" y2="441.7" xlink:href="#Degradado_sin_nombre_68"/>
    <linearGradient id="Degradado_sin_nombre_32-3" data-name="Degradado sin nombre 32" x1="-1326" y1="2270.8" x2="-853.9" y2="2270.8" gradientTransform="translate(-887.8 -802.1) rotate(-80.4)" xlink:href="#Degradado_sin_nombre_32"/>
  </defs>
  <!-- Generator: Adobe Illustrator 28.6.0, SVG Export Plug-In . SVG Version: 1.2.0 Build 709)  -->
  <g class="cls-12">
    <g id="Transformar">
      <image width="4336" height="4292" transform="translate(400.8 194) scale(.2)" xlink:href="transformar-1.png"/>
      <path class="cls-15" d="M180.7,655.2l196.3,4.1s5.4-1,4.7-6.1c-.3-2.8-2.5-5.3-5.4-5.8l-195.6,7.8Z"/>
      <path class="cls-15" d="M245.8,634.5l151,4.5s5.4-1,4.7-6.1c-.3-2.8-2.5-5.3-5.4-5.8l-150.3,7.4Z"/>
      <path class="cls-15" d="M249.4,675.8l151,4.5s5.4-1,4.7-6.1c-.3-2.8-2.5-5.3-5.4-5.8l-150.4,7.4h0Z"/>
      <path class="cls-15" d="M277.6,617.1l105.5,3.1s3.8-.7,3.3-4.3c-.2-2-1.8-3.7-3.8-4.1l-105,5.2Z"/>
      <path class="cls-15" d="M281.7,692.1l105.5,3.1s3.8-.7,3.3-4.3c-.2-2-1.8-3.7-3.8-4.1l-105,5.2h0Z"/>
      <path class="cls-15" d="M313.9,602.7l47.9,1.5c1-.2,1.7-1.1,1.6-2.1,0-.9-.8-1.8-1.8-1.9l-47.8,2.5Z"/>
      <g class="cls-19">
        <path class="cls-14" d="M311,529.4c-50.2.7-84.2,26.4-102.1,60.9l-30.2,2.4,28.8.4c-2.7,5.5-5,11.2-6.8,17.1l-73.1,5.6,71.2.8c-1.6,5.9-2.8,12-3.5,18.1l-113.1,8.6,112.1,1.3c-.4,6.8-.3,13.7.3,20.5l-165.9,11,167.3.3c1.2,7.1,2.9,14,5.2,20.8l-118.7,9.1h0s122.6,1.5,122.6,1.5c2.4,5.5,5.1,10.7,8.3,15.8l-87.7,6.8,93.1,1.1c3.2,4.3,6.6,8.3,10.4,12.1l-52.1,4.2,57.3.8c18.5,16.3,43.3,26.8,74.5,27.7,152.3-2.8,153.5-241.8,1.9-247Z"/>
        <polygon class="cls-13" points="124 727.6 124.7 727.5 124 727.5 124 727.6"/>
      </g>
      <g>
        <path class="cls-9" d="M355,523.2c-71.7-5.7-134.4,47.7-140.1,119.4-5.7,71.7,47.7,134.4,119.4,140.1,71.7,5.7,134.4-47.7,140.1-119.4,5.7-71.7-47.7-134.4-119.4-140.1ZM338.3,732.9c-44.2-3.5-77.1-42.2-73.6-86.4,3.5-44.2,42.2-77.1,86.4-73.6,44.2,3.5,77.1,42.2,73.6,86.4-3.5,44.2-42.2,77.1-86.4,73.6Z"/>
        <path class="cls-2" d="M272.5,688l-49.6,11c-5.4-14.3-8.4-29.9-8.4-46.1s.3-9.3.7-13.9c11.1-.1,34.3,3,50.4,28.1,1.3,7.4,3.6,14.4,6.8,20.9ZM474.8,652.9c0-4.7-.3-9.3-.7-13.9-11.1-.1-34.3,3-50.4,28.1-1.3,7.4-3.6,14.4-6.8,20.9l49.6,11c5.4-14.3,8.4-29.9,8.4-46.1Z"/>
      </g>
      <g>
        <path class="cls-3" d="M487.6,555.9c-52.2,0-94.5,42.3-94.5,94.5s42.3,94.5,94.5,94.5,94.5-42.3,94.5-94.5-42.3-94.5-94.5-94.5ZM487.6,730.6c-44.3,0-80.3-35.9-80.3-80.3s35.9-80.3,80.3-80.3,80.3,35.9,80.3,80.3-35.9,80.3-80.3,80.3Z"/>
        <path class="cls-5" d="M487.6,730.6c-31.3,0-58.5-18-71.7-44.2-11.1-22.1-33.7-36.1-58.5-36.1h0c0,71.9,58.3,130.2,130.2,130.2s130.2-58.3,130.2-130.2h0c-24.7,0-47.3,14-58.5,36.1-13.2,26.2-40.4,44.2-71.7,44.2Z"/>
        <path class="cls-1" d="M559.3,686.4c-13.2,26.2-40.4,44.2-71.7,44.2s-58.5-18-71.7-44.2c-5.2-10.3-12.9-18.8-22.1-25,5.5,46.9,45.4,83.4,93.8,83.4s88.3-36.4,93.8-83.4c-9.2,6.2-16.9,14.7-22.1,25Z"/>
        <path class="cls-8" d="M487.6,520.2c-71.9,0-130.2,58.3-130.2,130.2s58.3,130.2,130.2,130.2,130.2-58.3,130.2-130.2-58.3-130.2-130.2-130.2ZM487.6,773.9c-68.2,0-123.5-55.3-123.5-123.5s55.3-123.5,123.5-123.5,123.5,55.3,123.5,123.5-55.3,123.5-123.5,123.5Z"/>
      </g>
      <path class="cls-18" d="M42.4,654.3l218.7,2.4s6-1.2,5.3-6.9c-.3-3.2-2.8-5.9-5.9-6.5l-218,10.9Z"/>
      <path class="cls-11" d="M84.3,630.7l168.2,3.4s6-1.2,5.3-6.9c-.3-3.2-2.8-5.9-5.9-6.5l-167.5,10Z"/>
      <path class="cls-16" d="M87.9,676.8l168.2,3.4s6.1-1.2,5.3-6.9c-.3-3.2-2.8-5.9-5.9-6.5l-167.6,10h0Z"/>
      <path class="cls-17" d="M72,613.1l171.6.3s6.2-1.3,5.5-7.1c-.2-3.2-2.7-5.9-5.9-6.5l-171.2,13.3Z"/>
      <path class="cls-6" d="M123.7,694.7l117.5,2.3s4.2-.8,3.7-4.8c-.2-2.2-1.9-4.1-4.2-4.5l-117,7h0Z"/>
      <path class="cls-21" d="M160.5,594.4l53.4,1.1c1.1-.2,1.9-1.2,1.8-2.4,0-1.1-.9-2-1.9-2.1l-53.3,3.4Z"/>
      <path class="cls-7" d="M94.1,661.2l206.1,2.1s5.7-1.1,5-6.5c-.2-3-2.6-5.5-5.6-6.1l-205.5,10.4Z"/>
      <path class="cls-7" d="M133.6,638.9l158.5,3s5.7-1.1,5-6.5c-.2-3-2.6-5.5-5.6-6.1l-157.9,9.5Z"/>
      <path class="cls-7" d="M137,682.3l158.5,3s5.7-1.1,5-6.5c-.3-3-2.6-5.5-5.6-6.1l-158,9.5h0Z"/>
      <path class="cls-7" d="M122,622.3l161.7.2s5.8-1.2,5.2-6.7c-.2-3-2.5-5.6-5.6-6.1l-161.3,12.7Z"/>
      <path class="cls-7" d="M205.5,604.7l50.3,1c1.1-.2,1.8-1.1,1.7-2.2,0-1-.8-1.9-1.8-2l-50.2,3.2Z"/>
      <g class="cls-4">
        <path class="cls-3" d="M883.7,603.3c-15.8,93.3,47,181.8,140.3,197.6,93.3,15.8,181.8-47,197.6-140.3,15.8-93.3-47-181.8-140.3-197.6s-181.8,47-197.6,140.3ZM1196.2,656.3c-13.4,79.3-88.6,132.6-167.8,119.2-79.3-13.4-132.6-88.6-119.2-167.8,13.4-79.3,88.6-132.6,167.8-119.2,79.3,13.4,132.6,88.6,119.2,167.8Z"/>
        <path class="cls-20" d="M1196.2,656.3c-9.5,56.1-49.9,99.2-100.7,114.9-42.9,13.2-74.7,49.4-82.2,93.6h0c128.6,21.8,250.4-64.8,272.2-193.4s-64.8-250.4-193.4-272.2h0c-7.5,44.2,10.7,88.8,46.8,115.5,42.9,31.6,66.8,85.6,57.3,141.6Z"/>
        <path class="cls-1" d="M1138.9,514.6c42.9,31.6,66.8,85.6,57.3,141.6-9.5,56.1-49.9,99.2-100.7,114.9-20,6.2-37.5,17.3-51.4,31.9,85.6,4.4,162.8-55.9,177.5-142.5,14.7-86.6-38.4-168.9-120.7-193,8.3,18.4,21.1,34.7,38,47.1Z"/>
        <path class="cls-8" d="M819.9,592.5c-21.8,128.6,64.8,250.4,193.4,272.2,128.6,21.8,250.4-64.8,272.2-193.4s-64.8-250.4-193.4-272.2c-128.6-21.8-250.4,64.8-272.2,193.4ZM1273.6,669.4c-20.7,122-136.3,204.1-258.3,183.5-122-20.7-204.1-136.3-183.5-258.3,20.7-122,136.3-204.1,258.3-183.5,122,20.7,204.1,136.3,183.5,258.3Z"/>
      </g>
    </g>
  </g>
</svg>