<?xml version="1.0" encoding="UTF-8"?>
<svg xmlns="http://www.w3.org/2000/svg" version="1.1" xmlns:xlink="http://www.w3.org/1999/xlink" viewBox="0 0 1298 1080">
  <defs>
    <style>
      .cls-1 {
        mix-blend-mode: lighten;
      }

      .cls-2 {
        fill: url(#Degradado_sin_nombre_68-2);
      }

      .cls-2, .cls-3, .cls-4, .cls-5, .cls-6, .cls-7, .cls-8, .cls-9 {
        mix-blend-mode: overlay;
      }

      .cls-3 {
        fill: #008bb2;
      }

      .cls-10 {
        fill: url(#Naranja_amarillo);
      }

      .cls-4 {
        fill: url(#Degradado_sin_nombre_68-3);
      }

      .cls-5 {
        fill: url(#Degradado_sin_nombre_68);
      }

      .cls-6 {
        fill: url(#Degradado_sin_nombre_68-4);
      }

      .cls-11 {
        isolation: isolate;
      }

      .cls-12 {
        fill: #3b00a0;
        opacity: .2;
      }

      .cls-12, .cls-13 {
        mix-blend-mode: multiply;
      }

      .cls-7 {
        fill: url(#Degradado_sin_nombre_68-5);
      }

      .cls-8 {
        fill: #fff;
      }

      .cls-14 {
        fill: url(#Naranja_amarillo-2);
      }

      .cls-13 {
        opacity: .3;
      }

      .cls-15 {
        fill: #002894;
      }
    </style>
    <linearGradient id="Naranja_amarillo" data-name="Naranja, amarillo" x1="645" y1="798.8" x2="1086.4" y2="798.8" gradientTransform="translate(176.5 -196) rotate(4.6)" gradientUnits="userSpaceOnUse">
      <stop offset="0" stop-color="#ffef26"/>
      <stop offset="0" stop-color="#fee921"/>
      <stop offset=".1" stop-color="#fdd70e"/>
      <stop offset=".2" stop-color="#fdcb03"/>
      <stop offset=".3" stop-color="#fdc800"/>
      <stop offset=".7" stop-color="#f18f34"/>
      <stop offset=".9" stop-color="#e95f32"/>
      <stop offset="1" stop-color="#e3312d"/>
    </linearGradient>
    <linearGradient id="Degradado_sin_nombre_68" data-name="Degradado sin nombre 68" x1="196.7" y1="529.2" x2="541.1" y2="529.2" gradientTransform="translate(264.1 191.4) rotate(0) scale(.9) skewX(0)" gradientUnits="userSpaceOnUse">
      <stop offset="0" stop-color="#fdc800"/>
      <stop offset="1" stop-color="#f18f34"/>
    </linearGradient>
    <linearGradient id="Degradado_sin_nombre_68-2" data-name="Degradado sin nombre 68" x1="261.2" y1="494.4" x2="528" y2="494.4" xlink:href="#Degradado_sin_nombre_68"/>
    <linearGradient id="Degradado_sin_nombre_68-3" data-name="Degradado sin nombre 68" x1="266.6" y1="565.2" x2="533.4" y2="565.2" xlink:href="#Degradado_sin_nombre_68"/>
    <linearGradient id="Degradado_sin_nombre_68-4" data-name="Degradado sin nombre 68" x1="218.8" y1="435.9" x2="524.3" y2="435.9" xlink:href="#Degradado_sin_nombre_68"/>
    <linearGradient id="Degradado_sin_nombre_68-5" data-name="Degradado sin nombre 68" x1="308" y1="583.9" x2="517.2" y2="583.9" xlink:href="#Degradado_sin_nombre_68"/>
    <linearGradient id="Naranja_amarillo-2" data-name="Naranja, amarillo" x1="412.8" y1="821.4" x2="746.9" y2="821.4" xlink:href="#Naranja_amarillo"/>
  </defs>
  <!-- Generator: Adobe Illustrator 28.6.0, SVG Export Plug-In . SVG Version: 1.2.0 Build 709)  -->
  <g class="cls-11">
    <g id="Vanguardia">
      <path class="cls-3" d="M637,680.5l274.6,5.7s7.6-1.4,6.6-8.5c-.4-4-3.5-7.4-7.5-8.2l-273.6,11Z"/>
      <g class="cls-9">
        <path class="cls-10" d="M993.6,449.1c-121.5-9.7-227.9,81-237.5,202.5-9.7,121.5,81,227.9,202.5,237.5,121.5,9.7,227.9-81,237.5-202.5,9.7-121.5-81-227.9-202.5-237.5ZM965.2,804.7c-74.9-6-130.8-71.5-124.8-146.5,6-74.9,71.5-130.8,146.5-124.8,74.9,6,130.8,71.5,124.8,146.5-6,74.9-71.5,130.8-146.5,124.8Z"/>
        <path class="cls-12" d="M853.7,728.7l-84,18.6c-9.2-24.3-14.3-50.7-14.3-78.2s.4-15.8,1.3-23.5c18.9-.2,58.2,5.1,85.5,47.6,2.2,12.5,6.1,24.4,11.5,35.4ZM1196.7,669.1c0-7.9-.4-15.8-1.3-23.5-18.9-.2-58.2,5.1-85.5,47.6-2.2,12.5-6.1,24.4-11.5,35.4l84,18.6c9.2-24.3,14.3-50.7,14.3-78.2Z"/>
      </g>
      <path class="cls-5" d="M443.5,679.3l305.9,3.3s8.5-1.6,7.4-9.6c-.4-4.4-3.9-8.2-8.3-9l-305,15.3Z"/>
      <path class="cls-2" d="M502.1,646.3l235.2,4.7s8.5-1.6,7.4-9.6c-.4-4.4-3.9-8.2-8.3-9l-234.3,13.9Z"/>
      <path class="cls-4" d="M507.1,710.7l235.2,4.7s8.5-1.6,7.4-9.6c-.4-4.4-3.9-8.2-8.3-9l-234.4,13.9h0Z"/>
      <path class="cls-6" d="M463.4,598.6l269.3.4s9.7-2.1,8.7-11.2c-.4-5.1-4.3-9.3-9.3-10.2l-268.7,21Z"/>
      <path class="cls-7" d="M544.7,726.7l184.5,3.6s6.6-1.3,5.8-7.5c-.3-3.5-3-6.4-6.5-7.1l-183.7,11h0Z"/>
      <path class="cls-8" d="M515.8,688.9l288.2,2.9s8-1.6,7-9.1c-.3-4.2-3.6-7.8-7.8-8.5l-287.4,14.6Z"/>
      <path class="cls-8" d="M571.1,657.7l221.7,4.3s8-1.6,7-9.1c-.3-4.2-3.6-7.8-7.8-8.5l-220.8,13.3Z"/>
      <path class="cls-8" d="M565.5,707.4l248.8,4.8s9-1.7,7.8-10.2c-.4-4.7-4.1-8.7-8.8-9.5l-248,14.9h0Z"/>
      <path class="cls-8" d="M554.9,634.4l226.1.2s8.2-1.7,7.3-9.4c-.3-4.3-3.6-7.8-7.8-8.5l-225.6,17.8Z"/>
      <path class="cls-8" d="M671.6,609.8l70.3,1.4c1.5-.3,2.5-1.6,2.4-3.1,0-1.4-1.2-2.6-2.5-2.8l-70.2,4.5Z"/>
      <image class="cls-1" width="3940" height="3872" transform="translate(633.5 450.1) scale(.2)" xlink:href="vanguardia-1.png"/>
      <g class="cls-1">
        <path class="cls-14" d="M702.6,502.4c-91.9-7.3-172.4,61.3-179.8,153.2-7.3,91.9,61.3,172.4,153.2,179.8,91.9,7.3,172.4-61.3,179.8-153.2,7.3-91.9-61.3-172.4-153.2-179.8ZM681.1,771.5c-56.7-4.5-99-54.1-94.5-110.8,4.5-56.7,54.1-99,110.8-94.5,56.7,4.5,99,54.1,94.5,110.8-4.5,56.7-54.1,99-110.8,94.5Z"/>
        <path class="cls-12" d="M596.7,713.9l-63.6,14.1c-7-18.4-10.8-38.3-10.8-59.2s.3-11.9,1-17.8c14.3-.2,44.1,3.8,64.7,36,1.7,9.4,4.7,18.5,8.7,26.8ZM856.3,668.9c0-6-.3-11.9-1-17.8-14.3-.2-44.1,3.8-64.7,36-1.7,9.4-4.7,18.5-8.7,26.8l63.6,14.1c7-18.4,10.8-38.3,10.8-59.2Z"/>
      </g>
      <g class="cls-13">
        <path class="cls-15" d="M72.4,719.5l591.2-4.3s16.4-3.5,14.6-18.9c-.6-8.6-7.2-15.8-15.7-17.2l-590.1,40.4Z"/>
        <path class="cls-15" d="M187,653.4l454.6.8s16.4-3.5,14.6-18.9c-.6-8.6-7.2-15.8-15.7-17.2l-453.5,35.3Z"/>
        <path class="cls-15" d="M194.4,778.3l454.6.8s16.4-3.5,14.6-18.9c-.6-8.6-7.2-15.8-15.7-17.2l-453.7,35.3h.2Z"/>
        <path class="cls-15" d="M154.5,606l463.9-7.7s16.8-3.9,15.3-19.7c-.4-8.8-7-16-15.7-17.3l-463.4,44.6Z"/>
        <path class="cls-15" d="M290.4,825l317.7.5s11.5-2.4,10.3-13.2c-.4-6-5-11-11-12l-316.8,24.8h-.1Z"/>
        <path class="cls-15" d="M394.8,551.1l144.2.4c3-.7,5.1-3.3,5.1-6.5,0-2.9-2.3-5.3-5.1-5.7l-144.2,11.7Z"/>
        <path class="cls-15" d="M407.2,858.4l144.2.4c3.1-.7,5.2-3.4,5.1-6.5-.1-2.8-2.3-5.3-5.1-5.7l-144.2,11.7Z"/>
      </g>
    </g>
  </g>
</svg>