<?xml version="1.0" encoding="UTF-8"?>
<svg xmlns="http://www.w3.org/2000/svg" version="1.1" viewBox="0 0 52.5 52.5">
  <defs>
    <style>
      .cls-1 {
        fill: #8cb3f9;
      }
    </style>
  </defs>
  <!-- Generator: Adobe Illustrator 28.6.0, SVG Export Plug-In . SVG Version: 1.2.0 Build 709)  -->
  <g>
    <g id="Layer_1">
      <g>
        <path class="cls-1" d="M3.5,27.4l42.9.4s1.2-.2,1-1.3c0-.6-.5-1.2-1.2-1.3L3.5,27.4Z"/>
        <path class="cls-1" d="M11.7,22.8l33,.6s1.2-.2,1-1.3c0-.6-.5-1.2-1.2-1.3l-32.8,2Z"/>
        <path class="cls-1" d="M12.4,31.8l33,.6s1.2-.2,1-1.3c0-.6-.5-1.2-1.2-1.3l-32.9,2h0Z"/>
        <path class="cls-1" d="M9.3,19.3h33.6s1.2-.2,1.1-1.4c0-.6-.5-1.2-1.2-1.3l-33.6,2.6Z"/>
        <path class="cls-1" d="M19.5,35.3l23,.4s.8-.2.7-.9c0-.4-.4-.8-.8-.9l-22.9,1.4h0Z"/>
        <path class="cls-1" d="M26.7,15.7l10.5.2c.2,0,.4-.2.4-.5,0-.2-.2-.4-.4-.4l-10.4.7Z"/>
        <path class="cls-1" d="M28,37.9l10.5.2c.2,0,.4-.2.4-.5,0-.2-.2-.4-.4-.4l-10.4.7Z"/>
      </g>
    </g>
  </g>
</svg>