<?xml version="1.0" encoding="UTF-8"?>
<svg xmlns="http://www.w3.org/2000/svg" version="1.1" xmlns:xlink="http://www.w3.org/1999/xlink" viewBox="0 0 300 130">
  <defs>
    <style>
      .cls-1 {
        fill: #002894;
        opacity: .3;
      }

      .cls-1, .cls-2, .cls-3 {
        mix-blend-mode: multiply;
      }

      .cls-4 {
        fill: url(#Degradado_sin_nombre_75-14);
      }

      .cls-5 {
        fill: url(#Degradado_sin_nombre_32-2);
      }

      .cls-6 {
        fill: url(#Degradado_sin_nombre_75-12);
      }

      .cls-7 {
        fill: url(#Degradado_sin_nombre_68-5);
      }

      .cls-8 {
        fill: url(#Degradado_sin_nombre_19);
      }

      .cls-9 {
        fill: none;
      }

      .cls-10 {
        fill: url(#Degradado_sin_nombre_75-4);
      }

      .cls-11 {
        fill: url(#Degradado_sin_nombre_75-8);
      }

      .cls-12 {
        fill: url(#Degradado_sin_nombre_68-2);
      }

      .cls-13 {
        fill: #fff;
        mix-blend-mode: overlay;
        opacity: .6;
      }

      .cls-14 {
        fill: url(#Degradado_sin_nombre_75-7);
      }

      .cls-15 {
        isolation: isolate;
      }

      .cls-16 {
        fill: url(#Degradado_sin_nombre_75-3);
      }

      .cls-17 {
        fill: #ff8b00;
      }

      .cls-18 {
        fill: url(#Degradado_sin_nombre_32);
      }

      .cls-2 {
        fill: #3b00a0;
        opacity: .2;
      }

      .cls-19 {
        fill: #fcb03f;
      }

      .cls-20 {
        fill: url(#Degradado_sin_nombre_75-11);
      }

      .cls-21 {
        fill: url(#Degradado_sin_nombre_75);
      }

      .cls-22 {
        fill: url(#Degradado_sin_nombre_68-3);
      }

      .cls-23 {
        fill: url(#Degradado_sin_nombre_68-4);
      }

      .cls-24 {
        fill: url(#Degradado_sin_nombre_75-9);
      }

      .cls-25 {
        fill: url(#Degradado_sin_nombre_75-13);
      }

      .cls-26 {
        fill: url(#Degradado_sin_nombre_68-7);
      }

      .cls-3 {
        fill: #ffa255;
        opacity: .8;
      }

      .cls-27 {
        fill: url(#Degradado_sin_nombre_75-10);
      }

      .cls-28 {
        fill: #3e7ae5;
      }

      .cls-29 {
        fill: url(#Degradado_sin_nombre_75-6);
      }

      .cls-30 {
        fill: #eaeaea;
      }

      .cls-31 {
        fill: url(#Degradado_sin_nombre_68);
      }

      .cls-32 {
        fill: url(#Degradado_sin_nombre_75-2);
      }

      .cls-33 {
        fill: url(#Degradado_sin_nombre_75-5);
      }

      .cls-34 {
        clip-path: url(#clippath);
      }

      .cls-35 {
        fill: url(#Degradado_sin_nombre_68-6);
      }
    </style>
    <clipPath id="clippath">
      <path class="cls-9" d="M101.2,69c0,34,76.6,47.7,33.2,47.7S-3,101.7-3,67.6,69.5,14.3,112.9,14.3s-11.7,20.7-11.7,54.7Z"/>
    </clipPath>
    <linearGradient id="Degradado_sin_nombre_32" data-name="Degradado sin nombre 32" x1="6.2" y1="70" x2="166.6" y2="70" gradientUnits="userSpaceOnUse">
      <stop offset="0" stop-color="#00eced"/>
      <stop offset=".1" stop-color="#05dae9"/>
      <stop offset=".4" stop-color="#13aede"/>
      <stop offset=".7" stop-color="#2967ce"/>
      <stop offset="1" stop-color="#3c2dc1"/>
    </linearGradient>
    <linearGradient id="Degradado_sin_nombre_68" data-name="Degradado sin nombre 68" x1="-309.1" y1="-134.1" x2="-219" y2="-134.1" gradientTransform="translate(306.5 191.1) rotate(0) scale(.9) skewX(0)" gradientUnits="userSpaceOnUse">
      <stop offset="0" stop-color="#fdc800"/>
      <stop offset="1" stop-color="#f18f34"/>
    </linearGradient>
    <linearGradient id="Degradado_sin_nombre_68-2" data-name="Degradado sin nombre 68" x1="-292.2" y1="-143.2" x2="-222.5" y2="-143.2" xlink:href="#Degradado_sin_nombre_68"/>
    <linearGradient id="Degradado_sin_nombre_68-3" data-name="Degradado sin nombre 68" x1="-290.8" y1="-124.7" x2="-221" y2="-124.7" xlink:href="#Degradado_sin_nombre_68"/>
    <linearGradient id="Degradado_sin_nombre_68-4" data-name="Degradado sin nombre 68" x1="-297.2" y1="-151.6" x2="-226" y2="-151.6" xlink:href="#Degradado_sin_nombre_68"/>
    <linearGradient id="Degradado_sin_nombre_68-5" data-name="Degradado sin nombre 68" x1="-276.4" y1="-117.1" x2="-227.6" y2="-117.1" xlink:href="#Degradado_sin_nombre_68"/>
    <linearGradient id="Degradado_sin_nombre_68-6" data-name="Degradado sin nombre 68" x1="-261.6" y1="-156.9" x2="-239.4" y2="-156.9" xlink:href="#Degradado_sin_nombre_68"/>
    <linearGradient id="Degradado_sin_nombre_68-7" data-name="Degradado sin nombre 68" x1="-258.9" y1="-111.3" x2="-236.7" y2="-111.3" xlink:href="#Degradado_sin_nombre_68"/>
    <linearGradient id="Degradado_sin_nombre_19" data-name="Degradado sin nombre 19" x1="-65.7" y1="305.9" x2="29.6" y2="305.9" gradientTransform="translate(178 -233.5) rotate(4.6)" gradientUnits="userSpaceOnUse">
      <stop offset="0" stop-color="#ffef26"/>
      <stop offset="0" stop-color="#fee921"/>
      <stop offset=".1" stop-color="#fdd70e"/>
      <stop offset=".2" stop-color="#fdcb03"/>
      <stop offset=".3" stop-color="#fdc800"/>
      <stop offset=".7" stop-color="#f18f34"/>
      <stop offset=".9" stop-color="#e95f32"/>
      <stop offset="1" stop-color="#e3312d"/>
    </linearGradient>
    <linearGradient id="Degradado_sin_nombre_32-2" data-name="Degradado sin nombre 32" x1="88.1" y1="93.8" x2="183.4" y2="93.8" xlink:href="#Degradado_sin_nombre_32"/>
    <linearGradient id="Degradado_sin_nombre_75" data-name="Degradado sin nombre 75" x1="-1137.2" y1="-661.9" x2="-1080.1" y2="-661.9" gradientTransform="translate(1007.2 548.6) rotate(.7) scale(.7) skewX(1.4)" gradientUnits="userSpaceOnUse">
      <stop offset="0" stop-color="#3b00a0"/>
      <stop offset=".2" stop-color="#3e01a2"/>
      <stop offset=".3" stop-color="#4907a8"/>
      <stop offset=".5" stop-color="#5b11b4"/>
      <stop offset=".6" stop-color="#751fc3"/>
      <stop offset=".8" stop-color="#9631d8"/>
      <stop offset=".9" stop-color="#be47f0"/>
      <stop offset="1" stop-color="#d554ff"/>
    </linearGradient>
    <linearGradient id="Degradado_sin_nombre_75-2" data-name="Degradado sin nombre 75" x1="-1126.5" y1="-667.7" x2="-1082.2" y2="-667.7" xlink:href="#Degradado_sin_nombre_75"/>
    <linearGradient id="Degradado_sin_nombre_75-3" data-name="Degradado sin nombre 75" x1="-1125.6" y1="-655.9" x2="-1081.3" y2="-655.9" xlink:href="#Degradado_sin_nombre_75"/>
    <linearGradient id="Degradado_sin_nombre_75-4" data-name="Degradado sin nombre 75" x1="-1129.6" y1="-673" x2="-1084.5" y2="-673" xlink:href="#Degradado_sin_nombre_75"/>
    <linearGradient id="Degradado_sin_nombre_75-5" data-name="Degradado sin nombre 75" x1="-1116.5" y1="-651.1" x2="-1085.5" y2="-651.1" xlink:href="#Degradado_sin_nombre_75"/>
    <linearGradient id="Degradado_sin_nombre_75-6" data-name="Degradado sin nombre 75" x1="-1107.1" y1="-676.4" x2="-1093" y2="-676.4" xlink:href="#Degradado_sin_nombre_75"/>
    <linearGradient id="Degradado_sin_nombre_75-7" data-name="Degradado sin nombre 75" x1="-1105.4" y1="-647.5" x2="-1091.3" y2="-647.5" xlink:href="#Degradado_sin_nombre_75"/>
    <linearGradient id="Degradado_sin_nombre_75-8" data-name="Degradado sin nombre 75" x1="269.8" y1="-995.7" x2="334.8" y2="-995.7" gradientTransform="translate(-123.2 1010.3) rotate(-.5) scale(.9) skewX(-1)" xlink:href="#Degradado_sin_nombre_75"/>
    <linearGradient id="Degradado_sin_nombre_75-9" data-name="Degradado sin nombre 75" x1="282" y1="-1002.3" x2="332.3" y2="-1002.3" gradientTransform="translate(-123.2 1010.3) rotate(-.5) scale(.9) skewX(-1)" xlink:href="#Degradado_sin_nombre_75"/>
    <linearGradient id="Degradado_sin_nombre_75-10" data-name="Degradado sin nombre 75" x1="283" y1="-988.9" x2="333.3" y2="-988.9" gradientTransform="translate(-123.2 1010.3) rotate(-.5) scale(.9) skewX(-1)" xlink:href="#Degradado_sin_nombre_75"/>
    <linearGradient id="Degradado_sin_nombre_75-11" data-name="Degradado sin nombre 75" x1="278.4" y1="-1008.4" x2="329.8" y2="-1008.4" gradientTransform="translate(-123.2 1010.3) rotate(-.5) scale(.9) skewX(-1)" xlink:href="#Degradado_sin_nombre_75"/>
    <linearGradient id="Degradado_sin_nombre_75-12" data-name="Degradado sin nombre 75" x1="293.4" y1="-983.5" x2="328.6" y2="-983.5" gradientTransform="translate(-123.2 1010.3) rotate(-.5) scale(.9) skewX(-1)" xlink:href="#Degradado_sin_nombre_75"/>
    <linearGradient id="Degradado_sin_nombre_75-13" data-name="Degradado sin nombre 75" x1="304.1" y1="-1012.2" x2="320.1" y2="-1012.2" gradientTransform="translate(-123.2 1010.3) rotate(-.5) scale(.9) skewX(-1)" xlink:href="#Degradado_sin_nombre_75"/>
    <linearGradient id="Degradado_sin_nombre_75-14" data-name="Degradado sin nombre 75" x1="306" y1="-979.3" x2="322" y2="-979.3" gradientTransform="translate(-123.2 1010.3) rotate(-.5) scale(.9) skewX(-1)" xlink:href="#Degradado_sin_nombre_75"/>
  </defs>
  <!-- Generator: Adobe Illustrator 28.6.0, SVG Export Plug-In . SVG Version: 1.2.0 Build 709)  -->
  <g class="cls-15">
    <g id="Layer_1">
      <g class="cls-34">
        <path class="cls-18" d="M120.8,24.8c-20.4.3-34.2,9.7-41.4,22.3l-12.3.9h11.7c-1.1,2.2-2,4.3-2.8,6.4l-29.7,2,28.9.3c-.6,2.2-1.1,4.4-1.4,6.6l-45.9,3.2,45.5.5c-.2,2.5-.1,5,.1,7.5l-67.3,4h67.9c.5,2.7,1.2,5.3,2.1,7.7l-48.2,3.3h0s49.8.5,49.8.5c1,2,2.1,3.9,3.4,5.8l-35.6,2.5,37.8.4c1.3,1.6,2.7,3,4.2,4.4l-21.1,1.5,23.3.3c7.5,6,17.6,9.8,30.3,10.2,61.8-1,62.3-88.5.8-90.4Z"/>
        <polygon class="cls-17" points="44.9 97.3 45.1 97.3 44.8 97.3 44.9 97.3"/>
      </g>
      <path class="cls-17" d="M225,45.7c3.5,1.9,6.3,4.7,8.3,8.5,2,3.7,3,8.2,3,13.4v23.8c0,1.4-.5,2.6-1.4,3.5-.9.9-2.1,1.4-3.5,1.4s-2.6-.5-3.5-1.4c-.9-.9-1.4-2.1-1.4-3.5v-23.8c0-5.2-1.4-9.2-4.2-11.8-2.8-2.7-6.5-4-11.2-4s-5.2.5-7.4,1.6c-2.2,1.1-4,2.6-5.2,4.4-1.3,1.9-1.9,4-1.9,6.3v27.2c0,1.4-.5,2.6-1.4,3.5-.9.9-2.1,1.4-3.6,1.4s-2.6-.5-3.5-1.4c-.9-.9-1.4-2.1-1.4-3.5v-43.1c0-1.5.5-2.7,1.4-3.6.9-.9,2.1-1.4,3.5-1.4s2.7.5,3.6,1.4c.9.9,1.4,2.1,1.4,3.6v1.1c2.1-2.1,4.5-3.7,7.3-4.8,2.8-1.1,5.9-1.7,9.1-1.7s8.4,1,12,2.9Z"/>
      <path class="cls-31" d="M25.1,70.5l80,.9s2.2-.4,1.9-2.5c0-1.2-1-2.2-2.2-2.4l-79.8,4Z"/>
      <path class="cls-12" d="M40.5,61.9l61.5,1.2s2.2-.4,1.9-2.5c0-1.2-1-2.2-2.2-2.4l-61.3,3.6Z"/>
      <path class="cls-22" d="M41.8,78.7l61.5,1.2s2.2-.4,1.9-2.5c0-1.2-1-2.1-2.2-2.4l-61.3,3.6h0Z"/>
      <path class="cls-23" d="M36,55.4h62.8c0,.1,2.3-.4,2-2.5,0-1.2-1-2.2-2.2-2.4l-62.6,4.9Z"/>
      <path class="cls-7" d="M54.9,85.3l43,.8s1.5-.3,1.4-1.8c0-.8-.7-1.5-1.5-1.6l-42.8,2.6h0Z"/>
      <path class="cls-35" d="M68.4,48.6l19.5.4c.4,0,.7-.4.7-.9,0-.4-.3-.7-.7-.8l-19.5,1.2Z"/>
      <path class="cls-26" d="M70.8,90.1l19.5.4c.4,0,.7-.4.7-.9,0-.4-.3-.7-.7-.8l-19.5,1.2Z"/>
      <g>
        <path class="cls-8" d="M139.5,22.5c-26.2-2.1-49.2,17.5-51.3,43.7-2.1,26.2,17.5,49.2,43.7,51.3,26.2,2.1,49.2-17.5,51.3-43.7,2.1-26.2-17.5-49.2-43.7-51.3ZM133.4,99.3c-16.2-1.3-28.2-15.4-26.9-31.6,1.3-16.2,15.4-28.2,31.6-26.9,16.2,1.3,28.2,15.4,26.9,31.6-1.3,16.2-15.4,28.2-31.6,26.9Z"/>
        <path class="cls-2" d="M109.3,82.9l-18.1,4c-2-5.2-3.1-10.9-3.1-16.9s0-3.4.3-5.1c4.1,0,12.6,1.1,18.5,10.3.5,2.7,1.3,5.3,2.5,7.6ZM183.4,70c0-1.7,0-3.4-.3-5.1-4.1,0-12.6,1.1-18.5,10.3-.5,2.7-1.3,5.3-2.5,7.6l18.1,4c2-5.2,3.1-10.9,3.1-16.9Z"/>
      </g>
      <g>
        <path class="cls-3" d="M135.7,35.4c-19.1,0-34.6,15.5-34.6,34.6s15.5,34.6,34.6,34.6,34.6-15.5,34.6-34.6-15.5-34.6-34.6-34.6ZM135.7,99.4c-16.2,0-29.4-13.1-29.4-29.4s13.1-29.4,29.4-29.4,29.4,13.1,29.4,29.4-13.1,29.4-29.4,29.4Z"/>
        <path class="cls-5" d="M135.7,99.4c-11.5,0-21.4-6.6-26.2-16.2-4.1-8.1-12.3-13.2-21.4-13.2h0c0,26.3,21.3,47.6,47.6,47.6s47.6-21.3,47.6-47.6h0c-9.1,0-17.3,5.1-21.4,13.2-4.8,9.6-14.8,16.2-26.2,16.2Z"/>
        <path class="cls-1" d="M162,83.2c-4.8,9.6-14.8,16.2-26.2,16.2s-21.4-6.6-26.2-16.2c-1.9-3.8-4.7-6.9-8.1-9.1,2,17.2,16.6,30.5,34.3,30.5s32.3-13.3,34.3-30.5c-3.4,2.3-6.2,5.4-8.1,9.1Z"/>
        <path class="cls-13" d="M135.7,22.4c-26.3,0-47.6,21.3-47.6,47.6s21.3,47.6,47.6,47.6,47.6-21.3,47.6-47.6-21.3-47.6-47.6-47.6ZM135.7,115.2c-25,0-45.2-20.2-45.2-45.2s20.2-45.2,45.2-45.2,45.2,20.2,45.2,45.2-20.2,45.2-45.2,45.2Z"/>
      </g>
      <path class="cls-30" d="M44.1,73l75.4.8s2.1-.4,1.8-2.4c0-1.1-.9-2-2-2.2l-75.2,3.8Z"/>
      <path class="cls-30" d="M58.5,64.9l58,1.1s2.1-.4,1.8-2.4c0-1.1-.9-2-2-2.2l-57.8,3.5Z"/>
      <path class="cls-30" d="M59.8,80.8l58,1.1s2.1-.4,1.8-2.4c0-1.1-.9-2-2-2.2l-57.8,3.5h0Z"/>
      <path class="cls-30" d="M54.3,58.8h59.2c0,0,2.1-.4,1.9-2.4,0-1.1-.9-2.1-2-2.2l-59,4.6Z"/>
      <path class="cls-30" d="M72.1,86.9l40.5.8s1.5-.3,1.3-1.7c0-.8-.7-1.4-1.4-1.6l-40.4,2.5h0Z"/>
      <path class="cls-30" d="M84.8,52.3l18.4.4c.4,0,.6-.4.6-.8,0-.4-.3-.7-.7-.7l-18.4,1.2Z"/>
      <path class="cls-30" d="M87.1,91.4l18.4.4c.4,0,.7-.4.6-.8,0-.4-.3-.7-.7-.7l-18.4,1.2Z"/>
      <path class="cls-21" d="M198.9,73.7l39.4.9s1.1-.2.9-1.2c0-.6-.5-1.1-1.1-1.2l-39.2,1.5Z"/>
      <path class="cls-32" d="M206.4,69.6l30.3.9s1.1-.2.9-1.2c0-.6-.5-1.1-1.1-1.2l-30.1,1.4Z"/>
      <path class="cls-16" d="M207.1,77.9l30.3.9s1.1-.2.9-1.2c0-.6-.5-1.1-1.1-1.2l-30.1,1.4h0Z"/>
      <path class="cls-10" d="M204.1,66.4l30.9.4s1.1-.2,1-1.3c0-.6-.5-1.1-1.1-1.2l-30.8,2Z"/>
      <path class="cls-33" d="M213.6,81.1l21.2.7s.8-.1.7-.9c0-.4-.4-.7-.8-.8l-21,1h0Z"/>
      <path class="cls-29" d="M220,63.2l9.6.3c.2,0,.3-.2.3-.4,0-.2-.2-.4-.4-.4l-9.6.5Z"/>
      <path class="cls-14" d="M221.5,83.6l9.6.3c.2,0,.3-.2.3-.4,0-.2-.2-.4-.4-.4l-9.6.5Z"/>
      <path class="cls-19" d="M119.7,73.5h72.2c0,.1,2-.3,1.8-2.2,0-1-.9-1.9-1.9-2.1l-72,4.3Z"/>
      <path class="cls-19" d="M133.7,65.5l55.5.6s2-.4,1.8-2.3c0-1-.9-1.9-1.9-2.1l-55.4,3.8Z"/>
      <path class="cls-19" d="M134.7,80.8l55.5.6s2-.4,1.8-2.3c0-1-.9-1.9-1.9-2.1l-55.4,3.8h0Z"/>
      <path class="cls-19" d="M145.5,58.9l38.8.4s1.4-.3,1.2-1.6c0-.7-.6-1.3-1.4-1.5l-38.7,2.7Z"/>
      <path class="cls-19" d="M146.5,86.6l38.8.4s1.4-.3,1.2-1.6c0-.7-.6-1.3-1.4-1.5l-38.7,2.7h0Z"/>
      <path class="cls-19" d="M158.9,53.3l17.6.2c.4,0,.6-.4.6-.8,0-.3-.3-.6-.6-.7l-17.6,1.3Z"/>
      <path class="cls-19" d="M160.8,90.8l17.6.2c.4,0,.6-.4.6-.8,0-.3-.3-.6-.6-.7l-17.6,1.3Z"/>
      <path class="cls-11" d="M137.6,74.2h59.5c0,.1,1.6-.2,1.5-1.8,0-.9-.7-1.6-1.6-1.7l-59.3,3.5Z"/>
      <path class="cls-24" d="M149.1,67.6l45.7.5s1.6-.3,1.5-1.9c0-.9-.7-1.6-1.6-1.7l-45.6,3.1Z"/>
      <path class="cls-27" d="M149.9,80.2l45.7.5s1.7-.3,1.5-1.9c0-.9-.7-1.6-1.6-1.7l-45.6,3.1h0Z"/>
      <path class="cls-20" d="M145.8,62.8l46.6-.4s1.7-.4,1.5-2c0-.9-.7-1.6-1.6-1.8l-46.6,4.1Z"/>
      <path class="cls-6" d="M159.6,84.9l31.9.3s1.2-.2,1-1.3c0-.6-.5-1.1-1.1-1.2l-31.8,2.2h0Z"/>
      <path class="cls-25" d="M169.9,57.6l14.5.2c.3,0,.5-.3.5-.6,0-.3-.2-.5-.5-.6l-14.5,1Z"/>
      <path class="cls-4" d="M171.4,88.4l14.5.2c.3,0,.5-.3.5-.6,0-.3-.2-.5-.5-.6l-14.5,1Z"/>
      <path class="cls-28" d="M187.2,114.4c-.2-.2-.2-.4-.2-.6v-11c0-.2,0-.5.2-.6s.4-.2.6-.2h3.9c.7,0,1.4.1,1.9.4.6.3,1,.7,1.3,1.2.3.5.5,1.1.5,1.8s-.1,1-.4,1.4-.7.8-1.2,1c.7.2,1.3.5,1.7,1,.4.5.6,1.2.6,2s-.2,1.4-.5,2c-.4.6-.8,1-1.5,1.4s-1.4.5-2.2.5h-4.2c-.2,0-.4,0-.6-.2ZM191.7,107.2c.6,0,1.2-.2,1.5-.5s.6-.8.6-1.4-.2-1.1-.6-1.4-.9-.5-1.5-.5h-3v3.7h3ZM192,113.1c.8,0,1.4-.2,1.8-.6.5-.4.7-1,.7-1.7s-.2-1.2-.7-1.5c-.5-.4-1.1-.5-1.8-.5h-3.4v4.4h3.4Z"/>
      <path class="cls-28" d="M198.2,114.4c-.2-.2-.2-.4-.2-.6v-11c0-.2,0-.5.2-.6s.4-.2.6-.2h3.3c.8,0,1.5.2,2.2.5.6.4,1.1.9,1.5,1.5.4.6.5,1.4.5,2.2s-.2,1.5-.5,2.1c-.4.6-.8,1.1-1.5,1.5-.6.3-1.4.5-2.2.5h-2.4v3.6c0,.2,0,.4-.2.6-.2.2-.4.2-.6.2s-.4,0-.6-.2ZM202,108.7c.7,0,1.3-.2,1.8-.7.5-.5.7-1.1.7-1.8s-.2-1.4-.7-1.9c-.5-.5-1.1-.7-1.8-.7h-2.4v5.2h2.4Z"/>
      <path class="cls-28" d="M209.8,114c-1-.6-1.7-1.3-2.3-2.3s-.8-2.1-.8-3.4.3-2.4.8-3.4,1.3-1.8,2.3-2.3,2.1-.8,3.4-.8,2.4.3,3.3.8c1,.6,1.7,1.3,2.3,2.3s.8,2.1.8,3.4-.3,2.4-.8,3.4-1.3,1.8-2.3,2.3c-1,.6-2.1.8-3.4.8s-2.4-.3-3.4-.8ZM215.6,112.6c.7-.4,1.3-1,1.7-1.8.4-.8.6-1.6.6-2.5s-.2-1.8-.6-2.5c-.4-.8-1-1.4-1.7-1.8-.7-.4-1.6-.7-2.5-.7s-1.8.2-2.5.7c-.7.4-1.3,1-1.7,1.8-.4.8-.6,1.6-.6,2.5s.2,1.8.6,2.5c.4.8,1,1.4,1.7,1.8s1.6.7,2.5.7,1.8-.2,2.5-.7Z"/>
    </g>
  </g>
</svg>