<?xml version="1.0" encoding="UTF-8"?>
<svg xmlns="http://www.w3.org/2000/svg" version="1.1" xmlns:xlink="http://www.w3.org/1999/xlink" viewBox="0 0 704 204">
  <defs>
    <style>
      .cls-1 {
        fill: #002894;
        opacity: .3;
      }

      .cls-1, .cls-2, .cls-3 {
        mix-blend-mode: multiply;
      }

      .cls-4 {
        fill: url(#Degradado_sin_nombre_75-14);
      }

      .cls-5 {
        fill: url(#Degradado_sin_nombre_32-2);
      }

      .cls-6 {
        fill: url(#Degradado_sin_nombre_75-12);
      }

      .cls-7 {
        fill: url(#Degradado_sin_nombre_68-5);
      }

      .cls-8 {
        fill: url(#Degradado_sin_nombre_19);
      }

      .cls-9 {
        fill: none;
      }

      .cls-10 {
        mix-blend-mode: color-burn;
      }

      .cls-11 {
        fill: url(#Degradado_sin_nombre_75-4);
      }

      .cls-12 {
        fill: #6997ff;
      }

      .cls-13 {
        fill: url(#Degradado_sin_nombre_75-8);
      }

      .cls-14 {
        fill: url(#Degradado_sin_nombre_68-2);
      }

      .cls-15 {
        fill: #fff;
        mix-blend-mode: overlay;
        opacity: .6;
      }

      .cls-16 {
        fill: url(#Degradado_sin_nombre_75-7);
      }

      .cls-17 {
        isolation: isolate;
      }

      .cls-18 {
        fill: url(#Degradado_sin_nombre_75-3);
      }

      .cls-19 {
        fill: #ff8b00;
      }

      .cls-20 {
        fill: url(#Degradado_sin_nombre_32);
      }

      .cls-2 {
        fill: #3b00a0;
        opacity: .2;
      }

      .cls-21 {
        fill: #fcb03f;
      }

      .cls-22 {
        fill: url(#Degradado_sin_nombre_75-11);
      }

      .cls-23 {
        fill: url(#Degradado_sin_nombre_75);
      }

      .cls-24 {
        mix-blend-mode: color;
      }

      .cls-25 {
        fill: url(#Degradado_sin_nombre_68-3);
      }

      .cls-26 {
        fill: url(#Degradado_sin_nombre_68-4);
      }

      .cls-27 {
        fill: url(#Degradado_sin_nombre_75-9);
      }

      .cls-28 {
        fill: url(#Degradado_sin_nombre_75-13);
      }

      .cls-29 {
        fill: url(#Degradado_sin_nombre_68-7);
      }

      .cls-3 {
        fill: #ffa255;
        opacity: .8;
      }

      .cls-30 {
        fill: url(#Degradado_sin_nombre_75-10);
      }

      .cls-31 {
        fill: #3e7ae5;
      }

      .cls-32 {
        fill: url(#Degradado_sin_nombre_75-6);
      }

      .cls-33 {
        fill: #eaeaea;
      }

      .cls-34 {
        fill: url(#Degradado_sin_nombre_68);
      }

      .cls-35 {
        fill: url(#Degradado_sin_nombre_75-2);
      }

      .cls-36 {
        fill: url(#Degradado_sin_nombre_75-5);
      }

      .cls-37 {
        clip-path: url(#clippath);
      }

      .cls-38 {
        fill: url(#Degradado_sin_nombre_68-6);
      }
    </style>
    <clipPath id="clippath">
      <path class="cls-9" d="M202.2,106c0,65.9,148.4,92.5,64.4,92.5S.4,169.3.4,103.3,140.9,0,224.9,0s-22.7,40.1-22.7,106Z"/>
    </clipPath>
    <linearGradient id="Degradado_sin_nombre_32" data-name="Degradado sin nombre 32" x1="18.2" y1="107.9" x2="329.1" y2="107.9" gradientUnits="userSpaceOnUse">
      <stop offset="0" stop-color="#00eced"/>
      <stop offset=".1" stop-color="#05dae9"/>
      <stop offset=".4" stop-color="#13aede"/>
      <stop offset=".7" stop-color="#2967ce"/>
      <stop offset="1" stop-color="#3c2dc1"/>
    </linearGradient>
    <linearGradient id="Degradado_sin_nombre_68" data-name="Degradado sin nombre 68" x1="-231.5" y1="-50.6" x2="-57" y2="-50.6" gradientTransform="translate(265.6 152) rotate(0) scale(.9) skewX(0)" gradientUnits="userSpaceOnUse">
      <stop offset="0" stop-color="#fdc800"/>
      <stop offset="1" stop-color="#f18f34"/>
    </linearGradient>
    <linearGradient id="Degradado_sin_nombre_68-2" data-name="Degradado sin nombre 68" x1="-198.8" y1="-68.2" x2="-63.6" y2="-68.2" xlink:href="#Degradado_sin_nombre_68"/>
    <linearGradient id="Degradado_sin_nombre_68-3" data-name="Degradado sin nombre 68" x1="-196.1" y1="-32.3" x2="-60.8" y2="-32.3" xlink:href="#Degradado_sin_nombre_68"/>
    <linearGradient id="Degradado_sin_nombre_68-4" data-name="Degradado sin nombre 68" x1="-208.4" y1="-84.5" x2="-70.4" y2="-84.5" xlink:href="#Degradado_sin_nombre_68"/>
    <linearGradient id="Degradado_sin_nombre_68-5" data-name="Degradado sin nombre 68" x1="-168.1" y1="-17.6" x2="-73.7" y2="-17.6" xlink:href="#Degradado_sin_nombre_68"/>
    <linearGradient id="Degradado_sin_nombre_68-6" data-name="Degradado sin nombre 68" x1="-139.4" y1="-94.8" x2="-96.4" y2="-94.8" xlink:href="#Degradado_sin_nombre_68"/>
    <linearGradient id="Degradado_sin_nombre_68-7" data-name="Degradado sin nombre 68" x1="-134.3" y1="-6.5" x2="-91.3" y2="-6.5" xlink:href="#Degradado_sin_nombre_68"/>
    <linearGradient id="Degradado_sin_nombre_19" data-name="Degradado sin nombre 19" x1="59.1" y1="295.3" x2="243.6" y2="295.3" gradientTransform="translate(141.8 -198.5) rotate(4.6)" gradientUnits="userSpaceOnUse">
      <stop offset="0" stop-color="#ffef26"/>
      <stop offset="0" stop-color="#fee921"/>
      <stop offset=".1" stop-color="#fdd70e"/>
      <stop offset=".2" stop-color="#fdcb03"/>
      <stop offset=".3" stop-color="#fdc800"/>
      <stop offset=".7" stop-color="#f18f34"/>
      <stop offset=".9" stop-color="#e95f32"/>
      <stop offset="1" stop-color="#e3312d"/>
    </linearGradient>
    <linearGradient id="Degradado_sin_nombre_32-2" data-name="Degradado sin nombre 32" x1="176.9" y1="154" x2="361.5" y2="154" xlink:href="#Degradado_sin_nombre_32"/>
    <linearGradient id="Degradado_sin_nombre_75" data-name="Degradado sin nombre 75" x1="-685.9" y1="-435.4" x2="-536.3" y2="-435.4" gradientTransform="translate(876.3 422.8) rotate(.7) scale(.7) skewX(1.4)" gradientUnits="userSpaceOnUse">
      <stop offset="0" stop-color="#3b00a0"/>
      <stop offset=".2" stop-color="#3e01a2"/>
      <stop offset=".3" stop-color="#4907a8"/>
      <stop offset=".5" stop-color="#5b11b4"/>
      <stop offset=".6" stop-color="#751fc3"/>
      <stop offset=".8" stop-color="#9631d8"/>
      <stop offset=".9" stop-color="#be47f0"/>
      <stop offset="1" stop-color="#d554ff"/>
    </linearGradient>
    <linearGradient id="Degradado_sin_nombre_75-2" data-name="Degradado sin nombre 75" x1="-657.9" y1="-450.5" x2="-542" y2="-450.5" xlink:href="#Degradado_sin_nombre_75"/>
    <linearGradient id="Degradado_sin_nombre_75-3" data-name="Degradado sin nombre 75" x1="-655.6" y1="-419.8" x2="-539.6" y2="-419.8" xlink:href="#Degradado_sin_nombre_75"/>
    <linearGradient id="Degradado_sin_nombre_75-4" data-name="Degradado sin nombre 75" x1="-666.2" y1="-464.5" x2="-547.8" y2="-464.5" xlink:href="#Degradado_sin_nombre_75"/>
    <linearGradient id="Degradado_sin_nombre_75-5" data-name="Degradado sin nombre 75" x1="-631.6" y1="-407.2" x2="-550.6" y2="-407.2" xlink:href="#Degradado_sin_nombre_75"/>
    <linearGradient id="Degradado_sin_nombre_75-6" data-name="Degradado sin nombre 75" x1="-607" y1="-473.3" x2="-570.1" y2="-473.3" xlink:href="#Degradado_sin_nombre_75"/>
    <linearGradient id="Degradado_sin_nombre_75-7" data-name="Degradado sin nombre 75" x1="-602.6" y1="-397.6" x2="-565.7" y2="-397.6" xlink:href="#Degradado_sin_nombre_75"/>
    <linearGradient id="Degradado_sin_nombre_75-8" data-name="Degradado sin nombre 75" x1="449" y1="-918.6" x2="574.9" y2="-918.6" gradientTransform="translate(-155.4 980.1) rotate(-.5) scale(.9) skewX(-1)" xlink:href="#Degradado_sin_nombre_75"/>
    <linearGradient id="Degradado_sin_nombre_75-9" data-name="Degradado sin nombre 75" x1="472.6" y1="-931.4" x2="570.1" y2="-931.4" gradientTransform="translate(-155.4 980.1) rotate(-.5) scale(.9) skewX(-1)" xlink:href="#Degradado_sin_nombre_75"/>
    <linearGradient id="Degradado_sin_nombre_75-10" data-name="Degradado sin nombre 75" x1="474.6" y1="-905.5" x2="572.1" y2="-905.5" gradientTransform="translate(-155.4 980.1) rotate(-.5) scale(.9) skewX(-1)" xlink:href="#Degradado_sin_nombre_75"/>
    <linearGradient id="Degradado_sin_nombre_75-11" data-name="Degradado sin nombre 75" x1="465.7" y1="-943.1" x2="565.2" y2="-943.1" gradientTransform="translate(-155.4 980.1) rotate(-.5) scale(.9) skewX(-1)" xlink:href="#Degradado_sin_nombre_75"/>
    <linearGradient id="Degradado_sin_nombre_75-12" data-name="Degradado sin nombre 75" x1="494.7" y1="-894.9" x2="562.9" y2="-894.9" gradientTransform="translate(-155.4 980.1) rotate(-.5) scale(.9) skewX(-1)" xlink:href="#Degradado_sin_nombre_75"/>
    <linearGradient id="Degradado_sin_nombre_75-13" data-name="Degradado sin nombre 75" x1="515.4" y1="-950.5" x2="546.5" y2="-950.5" gradientTransform="translate(-155.4 980.1) rotate(-.5) scale(.9) skewX(-1)" xlink:href="#Degradado_sin_nombre_75"/>
    <linearGradient id="Degradado_sin_nombre_75-14" data-name="Degradado sin nombre 75" x1="519.1" y1="-886.8" x2="550.2" y2="-886.8" gradientTransform="translate(-155.4 980.1) rotate(-.5) scale(.9) skewX(-1)" xlink:href="#Degradado_sin_nombre_75"/>
  </defs>
  <!-- Generator: Adobe Illustrator 28.6.0, SVG Export Plug-In . SVG Version: 1.2.0 Build 709)  -->
  <g class="cls-17">
    <g id="Layer_1">
      <g>
        <g class="cls-37">
          <g>
            <path class="cls-20" d="M240.2,20.4c-39.5.5-66.2,18.7-80.3,43.2l-23.7,1.7,22.6.3c-2.1,3.9-3.9,8-5.4,12.1l-57.5,4,56,.6c-1.2,4.2-2.2,8.5-2.8,12.8l-88.9,6.1,88.2.9c-.3,4.9-.2,9.7.2,14.6l-130.5,7.8,131.6.2c.9,5,2.3,10,4.1,14.8l-93.3,6.4h0s96.5,1,96.5,1c1.9,3.9,4,7.6,6.5,11.2l-69,4.8,73.2.8c2.5,3,5.2,5.9,8.2,8.6l-40.9,3,45.1.5c14.5,11.5,34.1,19,58.6,19.7,119.8-2,120.8-171.4,1.5-175.1Z"/>
            <polygon class="cls-19" points="93.1 160.8 93.7 160.8 93.1 160.8 93.1 160.8"/>
          </g>
        </g>
        <g>
          <path class="cls-19" d="M442.2,60.7c6.9,3.7,12.2,9.2,16.1,16.4,3.9,7.2,5.8,15.8,5.8,25.9v46c0,2.7-.9,5-2.7,6.8-1.8,1.8-4.1,2.7-6.8,2.7s-5-.9-6.8-2.7c-1.8-1.8-2.7-4.1-2.7-6.8v-46c0-10.1-2.7-17.7-8.1-22.9-5.4-5.2-12.6-7.8-21.6-7.8s-10,1.1-14.3,3.2c-4.3,2.1-7.7,5-10.1,8.6-2.4,3.6-3.6,7.7-3.6,12.2v52.8c0,2.7-.9,5-2.6,6.8-1.7,1.8-4.1,2.7-6.9,2.7s-5-.9-6.8-2.7c-1.8-1.8-2.7-4.1-2.7-6.8v-83.5c0-2.9.9-5.2,2.7-6.9,1.8-1.7,4.1-2.6,6.8-2.6s5.2.9,6.9,2.6c1.7,1.7,2.6,4.1,2.6,6.9v2.1c4-4,8.7-7.1,14.2-9.3,5.5-2.2,11.4-3.3,17.6-3.3s16.3,1.9,23.2,5.6Z"/>
          <path class="cls-12" d="M517.8,160.7c1.5,1.7,2.3,4,2.3,6.7s-1,4.9-3.1,6.7c-2,1.7-4.7,2.6-7.9,2.6h-3.3c-6.1,0-11.6-1.6-16.6-4.7-5-3.2-8.9-7.4-11.8-12.9-2.8-5.4-4.3-11.6-4.3-18.4v-76.3h-8.5c-2.6,0-4.7-.7-6.3-2.2-1.6-1.5-2.4-3.3-2.4-5.6s.8-4.4,2.4-5.9c1.6-1.5,3.7-2.2,6.3-2.2h8.5v-26.7c0-2.7.9-4.9,2.6-6.7,1.7-1.7,4-2.6,6.7-2.6s4.9.9,6.7,2.6c1.7,1.7,2.6,4,2.6,6.7v26.7h15.8c2.6,0,4.7.7,6.3,2.2,1.6,1.5,2.4,3.5,2.4,5.9s-.8,4.1-2.4,5.6c-1.6,1.5-3.7,2.2-6.3,2.2h-15.8v76.3c0,4.9,1.4,9.1,4.1,12.4,2.7,3.3,6.1,5,10,5h6.3c2.2,0,4.1.9,5.7,2.6Z"/>
          <path class="cls-12" d="M505.2,147.1c-1.3-1.2-1.9-2.8-1.9-4.7v-57.6c0-2,.6-3.6,1.9-4.8,1.2-1.2,2.8-1.8,4.7-1.8s3.6.6,4.8,1.8c1.2,1.2,1.8,2.8,1.8,4.8v57.6c0,1.9-.6,3.5-1.8,4.7-1.2,1.3-2.8,1.9-4.8,1.9s-3.5-.6-4.7-1.9Z"/>
          <path class="cls-12" d="M620.7,85c4.6,4.9,6.9,11.8,6.9,20.6v37c0,1.9-.6,3.5-1.8,4.7-1.2,1.3-2.8,1.9-4.8,1.9s-3.5-.6-4.7-1.9c-1.3-1.2-1.9-2.8-1.9-4.7v-37c0-5.3-1.3-9.2-3.9-12-2.6-2.7-6.1-4.1-10.5-4.1s-8.2,1.6-11.1,4.7c-2.9,3.1-4.3,7.1-4.3,11.9v36.5c0,1.9-.6,3.5-1.8,4.7-1.2,1.3-2.8,1.9-4.8,1.9s-3.5-.6-4.7-1.9c-1.3-1.2-1.9-2.8-1.9-4.7v-37c0-5.3-1.3-9.2-3.9-12-2.6-2.7-6.1-4.1-10.5-4.1s-8.3,1.6-11.2,4.7c-2.9,3.1-4.3,7.1-4.3,11.9v36.5c0,1.9-.6,3.5-1.8,4.7-1.2,1.3-2.8,1.9-4.8,1.9s-3.5-.6-4.7-1.9c-1.3-1.2-1.9-2.8-1.9-4.7v-57.6c0-2,.6-3.6,1.9-4.8,1.2-1.2,2.8-1.8,4.7-1.8s3.4.6,4.7,1.7c1.2,1.2,1.9,2.7,1.9,4.6,2.2-2.2,4.9-4,8-5.2,3.1-1.2,6.5-1.9,10.1-1.9s8.3.9,11.8,2.7c3.5,1.8,6.4,4.3,8.6,7.6,2.6-3.2,5.8-5.7,9.7-7.5,3.9-1.8,8.2-2.7,12.9-2.7,7.5,0,13.6,2.5,18.2,7.4Z"/>
          <path class="cls-12" d="M696.1,101.4c-.5,1.5-1.5,2.6-3,3.4l-43.5,22.9c3.7,4.9,8.4,7.9,14.1,9.1,5.7,1.2,11.5.2,17.3-2.8,2.3-1.2,4.4-2.9,6.5-5,2-2.1,3.5-4.3,4.5-6.3.6-1.4,1.7-2.5,3.1-3.2,1.4-.8,2.8-1,4-.7,2,.4,3.3,1.4,4.1,2.8s.7,2.8,0,4.4c-1.5,3.4-3.8,6.8-7,10.1-3.2,3.3-6.5,5.9-10,7.8-6.3,3.3-12.6,4.9-19,4.8-6.4,0-12.2-1.8-17.6-5.1-5.3-3.3-9.6-8.1-12.8-14.2-3.2-6.1-4.8-12.3-4.7-18.5,0-6.2,1.7-11.9,5-17.1,3.3-5.2,7.9-9.3,13.8-12.5,5.9-3.1,11.6-4.5,17.3-4.1,5.6.3,10.8,2.2,15.6,5.7,4.7,3.4,8.7,8.2,11.9,14.2.8,1.4.9,2.9.4,4.4ZM645,102.8c-1.9,4.9-1.9,10.1-.1,15.7l38.1-20.1c-3.4-4.7-7.4-7.8-12.2-9.2-4.7-1.4-9.6-.8-14.7,1.9-5.6,2.9-9.3,6.8-11.1,11.7Z"/>
        </g>
        <path class="cls-19" d="M510,48.5c3.8,0,6.3,2.1,7.7,6.3l.2,1.8c0,3.7-2,6.3-6,7.7h-1.6c0,.1-.7.1-.7.1-3.6,0-6.1-2-7.5-6l-.2-1.6v-.5c0-3.7,1.9-6.2,5.8-7.5l2.3-.3Z"/>
        <g>
          <path class="cls-31" d="M531.5,184.8c-.3-.3-.5-.7-.5-1.2v-21.4c0-.5.2-.9.5-1.2s.7-.5,1.2-.5h7.5c1.4,0,2.7.3,3.8.8,1.1.6,2,1.3,2.6,2.3.6,1,.9,2.1.9,3.4s-.3,2-.8,2.8-1.3,1.5-2.3,2c1.4.3,2.6,1,3.4,2,.8,1,1.2,2.3,1.2,3.9s-.3,2.7-1,3.9c-.7,1.1-1.6,2-2.9,2.7s-2.6.9-4.2.9h-8.2c-.5,0-.9-.2-1.2-.5ZM540.2,170.7c1.2,0,2.2-.3,3-.9.7-.6,1.1-1.5,1.1-2.7s-.4-2-1.1-2.6-1.7-.9-3-.9h-5.9v7.1h5.9ZM540.9,182.2c1.5,0,2.7-.4,3.6-1.2.9-.8,1.4-1.9,1.4-3.3s-.4-2.3-1.3-3c-.9-.7-2.1-1-3.6-1h-6.6v8.5h6.6Z"/>
          <path class="cls-31" d="M552.7,184.8c-.3-.3-.5-.7-.5-1.2v-21.4c0-.5.2-.9.5-1.2s.7-.5,1.2-.5h6.3c1.6,0,3,.3,4.2,1,1.2.7,2.2,1.7,2.9,2.9.7,1.2,1,2.7,1,4.2s-.3,2.9-1,4.1c-.7,1.2-1.6,2.1-2.9,2.8-1.2.7-2.6,1-4.2,1h-4.7v6.9c0,.5-.2.9-.5,1.2-.3.3-.7.5-1.2.5s-.9-.2-1.2-.5ZM560.2,173.6c1.4,0,2.6-.5,3.5-1.4.9-.9,1.4-2.1,1.4-3.5s-.5-2.7-1.4-3.7c-.9-1-2.1-1.5-3.5-1.5h-4.7v10h4.7Z"/>
          <path class="cls-31" d="M575.2,183.9c-1.9-1.1-3.4-2.6-4.4-4.5-1.1-1.9-1.6-4.1-1.6-6.6s.5-4.6,1.6-6.5c1.1-1.9,2.5-3.4,4.4-4.5s4.1-1.6,6.5-1.6,4.6.5,6.5,1.6,3.4,2.6,4.5,4.5c1.1,1.9,1.6,4.1,1.6,6.5s-.5,4.6-1.6,6.6c-1.1,1.9-2.5,3.4-4.4,4.5-1.9,1.1-4.1,1.6-6.5,1.6s-4.6-.5-6.5-1.6ZM586.6,181.3c1.4-.9,2.5-2,3.3-3.5.8-1.5,1.2-3.1,1.2-4.9s-.4-3.5-1.2-4.9c-.8-1.5-1.9-2.6-3.3-3.5-1.4-.8-3-1.3-4.8-1.3s-3.4.4-4.8,1.3c-1.4.8-2.5,2-3.3,3.5-.8,1.5-1.2,3.1-1.2,4.9s.4,3.5,1.2,4.9c.8,1.5,1.9,2.6,3.3,3.5,1.4.9,3,1.3,4.8,1.3s3.4-.4,4.8-1.3Z"/>
        </g>
        <g>
          <path class="cls-34" d="M54.9,108.9l155,1.7s4.3-.8,3.8-4.9c-.2-2.2-2-4.2-4.2-4.6l-154.6,7.8Z"/>
          <path class="cls-14" d="M84.6,92.2l119.2,2.4s4.3-.8,3.8-4.9c-.2-2.2-2-4.2-4.2-4.6l-118.8,7.1Z"/>
          <path class="cls-25" d="M87.2,124.8l119.2,2.4s4.3-.8,3.8-4.9c-.2-2.2-2-4.2-4.2-4.6l-118.8,7.1h0Z"/>
          <path class="cls-26" d="M75.9,79.7l121.6.2s4.4-.9,3.9-5.1c-.2-2.3-1.9-4.2-4.2-4.6l-121.3,9.5Z"/>
          <path class="cls-7" d="M112.6,137.5l83.3,1.6s3-.6,2.6-3.4c-.1-1.6-1.4-2.9-2.9-3.2l-83,5h0Z"/>
          <path class="cls-38" d="M138.7,66.5l37.8.8c.8-.2,1.3-.8,1.3-1.7,0-.7-.6-1.4-1.4-1.5l-37.8,2.4Z"/>
          <path class="cls-29" d="M143.4,146.8l37.8.8c.8-.2,1.3-.9,1.3-1.7,0-.7-.6-1.4-1.4-1.5l-37.8,2.4Z"/>
        </g>
        <g>
          <g>
            <path class="cls-8" d="M276.5,15.9c-50.8-4-95.3,33.9-99.3,84.7-4,50.8,33.9,95.3,84.7,99.3,50.8,4,95.3-33.9,99.3-84.7,4-50.8-33.9-95.3-84.7-99.3ZM264.7,164.6c-31.3-2.5-54.7-29.9-52.2-61.2,2.5-31.3,29.9-54.7,61.2-52.2,31.3,2.5,54.7,29.9,52.2,61.2-2.5,31.3-29.9,54.7-61.2,52.2Z"/>
            <path class="cls-2" d="M218,132.8l-35.1,7.8c-3.9-10.2-6-21.2-6-32.7s.2-6.6.5-9.8c7.9,0,24.3,2.1,35.8,19.9.9,5.2,2.6,10.2,4.8,14.8ZM361.5,107.9c0-3.3-.2-6.6-.5-9.8-7.9,0-24.3,2.1-35.8,19.9-.9,5.2-2.6,10.2-4.8,14.8l35.1,7.8c3.9-10.2,6-21.2,6-32.7Z"/>
          </g>
          <g>
            <path class="cls-3" d="M269.2,40.9c-37,0-67,30-67,67s30,67,67,67,67-30,67-67-30-67-67-67ZM269.2,164.8c-31.4,0-56.9-25.5-56.9-56.9s25.5-56.9,56.9-56.9,56.9,25.5,56.9,56.9-25.5,56.9-56.9,56.9Z"/>
            <path class="cls-5" d="M269.2,164.8c-22.2,0-41.5-12.7-50.8-31.3-7.9-15.7-23.9-25.6-41.4-25.6h0c0,51,41.3,92.3,92.3,92.3s92.3-41.3,92.3-92.3h0c-17.5,0-33.5,9.9-41.4,25.6-9.4,18.6-28.6,31.3-50.8,31.3Z"/>
            <path class="cls-1" d="M320,133.5c-9.4,18.6-28.6,31.3-50.8,31.3s-41.5-12.7-50.8-31.3c-3.7-7.3-9.1-13.3-15.7-17.7,3.9,33.3,32.2,59.1,66.5,59.1s62.6-25.8,66.5-59.1c-6.5,4.4-12,10.4-15.7,17.7Z"/>
            <path class="cls-15" d="M269.2,15.6c-51,0-92.3,41.3-92.3,92.3s41.3,92.3,92.3,92.3,92.3-41.3,92.3-92.3S320.2,15.6,269.2,15.6ZM269.2,195.5c-48.4,0-87.6-39.2-87.6-87.6s39.2-87.6,87.6-87.6,87.6,39.2,87.6,87.6-39.2,87.6-87.6,87.6Z"/>
          </g>
        </g>
        <g>
          <path class="cls-33" d="M91.6,113.8l146.1,1.5s4-.8,3.5-4.6c-.2-2.1-1.8-3.9-4-4.3l-145.7,7.4Z"/>
          <path class="cls-33" d="M119.6,98l112.4,2.2s4-.8,3.5-4.6c-.2-2.1-1.8-3.9-4-4.3l-111.9,6.7Z"/>
          <path class="cls-33" d="M122,128.8l112.4,2.2s4-.8,3.5-4.6c-.2-2.1-1.8-3.9-4-4.3l-112,6.7h0Z"/>
          <path class="cls-33" d="M111.4,86.2h114.6c0,.1,4.1-.8,3.7-4.7-.1-2.2-1.8-4-4-4.3l-114.4,9Z"/>
          <path class="cls-33" d="M145.9,140.7l78.5,1.5s2.8-.5,2.5-3.2c-.1-1.5-1.3-2.7-2.8-3l-78.2,4.8h0Z"/>
          <path class="cls-33" d="M170.6,73.7l35.6.7c.7-.2,1.3-.8,1.2-1.6,0-.7-.6-1.3-1.3-1.4l-35.6,2.3Z"/>
          <path class="cls-33" d="M174.9,149.4l35.6.7c.8-.2,1.3-.8,1.2-1.6,0-.7-.6-1.3-1.3-1.4l-35.6,2.3Z"/>
        </g>
        <g class="cls-24">
          <path class="cls-23" d="M388.4,112.5l103.1,2.3s2.8-.5,2.5-3.2c-.1-1.5-1.3-2.8-2.8-3.1l-102.8,4Z"/>
          <path class="cls-35" d="M408,101.7l79.3,2.5s2.8-.5,2.5-3.2c-.1-1.5-1.3-2.8-2.8-3.1l-79,3.8Z"/>
          <path class="cls-18" d="M410,123.4l79.3,2.5s2.9-.5,2.5-3.2c-.1-1.5-1.3-2.8-2.8-3.1l-79,3.8h0Z"/>
          <path class="cls-11" d="M402.1,93.3l80.9,1.1s2.9-.6,2.6-3.3c-.1-1.5-1.3-2.8-2.8-3.1l-80.6,5.4Z"/>
          <path class="cls-36" d="M427,131.9l55.4,1.7s2-.4,1.7-2.2c-.1-1-.9-1.9-2-2.1l-55.1,2.7h0Z"/>
          <path class="cls-32" d="M443.8,85l25.2.8c.5-.1.9-.6.9-1.1,0-.5-.4-.9-.9-1l-25.1,1.3Z"/>
          <path class="cls-16" d="M447.5,138.3l25.2.8c.5-.1.9-.6.9-1.1,0-.5-.4-.9-.9-1l-25.1,1.3Z"/>
        </g>
        <g>
          <path class="cls-21" d="M238.2,114.7l139.9.2s3.9-.8,3.4-4.4c-.2-2-1.7-3.8-3.8-4.1l-139.6,8.3Z"/>
          <path class="cls-21" d="M265.2,99.3l107.6,1.1s3.9-.8,3.4-4.4c-.2-2-1.7-3.8-3.8-4.1l-107.3,7.4Z"/>
          <path class="cls-21" d="M267.2,128.8l107.6,1.1s3.9-.8,3.4-4.4c-.2-2-1.7-3.7-3.8-4.1l-107.3,7.4h0Z"/>
          <path class="cls-21" d="M288.1,86.4l75.2.8s2.7-.6,2.4-3.1c-.1-1.4-1.2-2.6-2.6-2.9l-75,5.2Z"/>
          <path class="cls-21" d="M290,140l75.2.8s2.7-.5,2.4-3.1c-.1-1.4-1.2-2.6-2.6-2.9l-74.9,5.2h0Z"/>
          <path class="cls-21" d="M314.2,75.6l34.1.4c.7-.2,1.2-.8,1.2-1.5,0-.7-.5-1.3-1.2-1.4l-34.1,2.5Z"/>
          <path class="cls-21" d="M317.7,148.2l34.1.4c.7-.2,1.2-.8,1.2-1.5,0-.7-.6-1.3-1.2-1.4l-34.1,2.5Z"/>
        </g>
        <g class="cls-10">
          <path class="cls-13" d="M272.8,116l115.2.2s3.2-.6,2.8-3.6c-.1-1.7-1.4-3.1-3.1-3.4l-114.9,6.8Z"/>
          <path class="cls-27" d="M295,103.3l88.6,1s3.2-.6,2.8-3.6c-.1-1.7-1.4-3.1-3.1-3.4l-88.3,6.1Z"/>
          <path class="cls-30" d="M296.7,127.6l88.6,1s3.2-.6,2.8-3.6c-.1-1.7-1.4-3.1-3.1-3.4l-88.4,6.1h0Z"/>
          <path class="cls-22" d="M288.6,94.1l90.4-.7s3.3-.7,2.9-3.8c-.1-1.7-1.4-3.1-3.1-3.4l-90.2,7.9Z"/>
          <path class="cls-6" d="M315.5,136.9l61.9.7s2.2-.4,2-2.5c0-1.2-1-2.2-2.2-2.4l-61.7,4.3h0Z"/>
          <path class="cls-28" d="M335.3,83.8l28.1.3c.6-.1,1-.6,1-1.3,0-.6-.5-1-1-1.1l-28.1,2Z"/>
          <path class="cls-4" d="M338.3,143.6l28.1.3c.6-.1,1-.6,1-1.3,0-.6-.5-1-1-1.1l-28.1,2Z"/>
        </g>
      </g>
    </g>
  </g>
</svg>