<?xml version="1.0" encoding="UTF-8"?>
<svg xmlns="http://www.w3.org/2000/svg" version="1.1" xmlns:xlink="http://www.w3.org/1999/xlink" viewBox="0 0 770.3 391.6">
  <defs>
    <style>
      .cls-1 {
        fill: url(#linear-gradient-2);
      }

      .cls-2 {
        fill: #002d7c;
      }

      .cls-3 {
        fill: #f24a00;
      }

      .cls-4, .cls-5 {
        fill: #fff;
      }

      .cls-6 {
        fill: none;
      }

      .cls-7 {
        fill: url(#linear-gradient-4);
      }

      .cls-5 {
        mix-blend-mode: overlay;
        opacity: .6;
      }

      .cls-5, .cls-8, .cls-9, .cls-10, .cls-11 {
        isolation: isolate;
      }

      .cls-12 {
        fill: #6997ff;
      }

      .cls-13 {
        fill: url(#linear-gradient-3);
      }

      .cls-14 {
        fill: url(#linear-gradient-5);
      }

      .cls-15 {
        fill: #ff8b00;
      }

      .cls-9 {
        fill: #002894;
        opacity: .3;
      }

      .cls-9, .cls-10, .cls-11 {
        mix-blend-mode: multiply;
      }

      .cls-16 {
        fill: url(#linear-gradient-8);
      }

      .cls-17 {
        fill: #008bb2;
      }

      .cls-10 {
        fill: #ffa255;
        opacity: .8;
      }

      .cls-18 {
        fill: url(#linear-gradient-7);
      }

      .cls-19 {
        fill: url(#linear-gradient-9);
      }

      .cls-20 {
        fill: url(#linear-gradient-6);
      }

      .cls-11 {
        fill: #3b00a0;
        opacity: .2;
      }

      .cls-21 {
        fill: url(#linear-gradient);
      }

      .cls-22 {
        clip-path: url(#clippath);
      }
    </style>
    <clipPath id="clippath">
      <path class="cls-6" d="M501.2,201.5c0,60.5,136.1,84.8,59.1,84.8s-244.2-26.8-244.2-87.3,128.8-94.8,205.9-94.8-20.9,36.8-20.9,97.2h0Z"/>
    </clipPath>
    <linearGradient id="linear-gradient" x1="332.3" y1="190.5" x2="617.4" y2="190.5" gradientTransform="translate(0 393.6) scale(1 -1)" gradientUnits="userSpaceOnUse">
      <stop offset="0" stop-color="#00eced"/>
      <stop offset="0" stop-color="#05dae9"/>
      <stop offset=".4" stop-color="#13aede"/>
      <stop offset=".7" stop-color="#2967ce"/>
      <stop offset="1" stop-color="#3c2dc1"/>
    </linearGradient>
    <linearGradient id="linear-gradient-2" x1="384.3" y1="69.5" x2="553.6" y2="69.5" gradientTransform="translate(89.4 234.8) rotate(4.6) scale(1 -1)" gradientUnits="userSpaceOnUse">
      <stop offset="0" stop-color="#ffef26"/>
      <stop offset="0" stop-color="#fee921"/>
      <stop offset="0" stop-color="#fdd70e"/>
      <stop offset=".2" stop-color="#fdcb03"/>
      <stop offset=".3" stop-color="#fdc800"/>
      <stop offset=".7" stop-color="#f18f34"/>
      <stop offset=".9" stop-color="#e95f32"/>
      <stop offset="1" stop-color="#e3312d"/>
    </linearGradient>
    <linearGradient id="linear-gradient-3" x1="477.9" y1="148.1" x2="647.2" y2="148.1" gradientTransform="translate(0 393.6) scale(1 -1)" gradientUnits="userSpaceOnUse">
      <stop offset="0" stop-color="#00eced"/>
      <stop offset="0" stop-color="#05dae9"/>
      <stop offset=".4" stop-color="#13aede"/>
      <stop offset=".7" stop-color="#2967ce"/>
      <stop offset="1" stop-color="#3c2dc1"/>
    </linearGradient>
    <linearGradient id="linear-gradient-4" x1="168.5" y1="311.2" x2="328.5" y2="311.2" gradientTransform="translate(213.1 481.3) scale(.9 -.9)" gradientUnits="userSpaceOnUse">
      <stop offset="0" stop-color="#fdc800"/>
      <stop offset="1" stop-color="#f18f34"/>
    </linearGradient>
    <linearGradient id="linear-gradient-5" x1="198.4" y1="327.5" x2="322.5" y2="327.5" gradientTransform="translate(213.1 481.3) scale(.9 -.9)" gradientUnits="userSpaceOnUse">
      <stop offset="0" stop-color="#fdc800"/>
      <stop offset="1" stop-color="#f18f34"/>
    </linearGradient>
    <linearGradient id="linear-gradient-6" x1="200.9" y1="294.2" x2="325" y2="294.2" gradientTransform="translate(213.1 481.3) scale(.9 -.9)" gradientUnits="userSpaceOnUse">
      <stop offset="0" stop-color="#fdc800"/>
      <stop offset="1" stop-color="#f18f34"/>
    </linearGradient>
    <linearGradient id="linear-gradient-7" x1="189.6" y1="342.6" x2="316.2" y2="342.6" gradientTransform="translate(213.1 481.3) scale(.9 -.9)" gradientUnits="userSpaceOnUse">
      <stop offset="0" stop-color="#fdc800"/>
      <stop offset="1" stop-color="#f18f34"/>
    </linearGradient>
    <linearGradient id="linear-gradient-8" x1="226.6" y1="280.7" x2="313.2" y2="280.7" gradientTransform="translate(213.1 481.3) scale(.9 -.9)" gradientUnits="userSpaceOnUse">
      <stop offset="0" stop-color="#fdc800"/>
      <stop offset="1" stop-color="#f18f34"/>
    </linearGradient>
    <linearGradient id="linear-gradient-9" x1="252.9" y1="352.2" x2="292.3" y2="352.2" gradientTransform="translate(213.1 481.3) scale(.9 -.9)" gradientUnits="userSpaceOnUse">
      <stop offset="0" stop-color="#fdc800"/>
      <stop offset="1" stop-color="#f18f34"/>
    </linearGradient>
  </defs>
  <!-- Generator: Adobe Illustrator 28.6.0, SVG Export Plug-In . SVG Version: 1.2.0 Build 709)  -->
  <g>
    <g id="Layer_1">
      <g class="cls-8">
        <g id="Layer_1-2" data-name="Layer_1">
          <g>
            <path class="cls-15" d="M50.3,16.3c.7.7,1.1,1.6,1.1,2.7s-.4,2-1.1,2.7c-.7.7-1.6,1.1-2.7,1.1h-16.8v49.4c0,1.1-.4,2.1-1.1,2.9s-1.7,1.1-2.9,1.1-2.1-.4-2.9-1.1-1.1-1.7-1.1-2.9V22.7H5.9c-1.1,0-2-.4-2.7-1.1-.7-.7-1.1-1.6-1.1-2.7s.4-2,1.1-2.7c.7-.7,1.6-1.1,2.7-1.1h41.7c1.1,0,2,.4,2.7,1.1Z"/>
            <path class="cls-15" d="M74.2,36.1c3.3,1.9,5.8,4.5,7.8,7.8s2.9,7,2.9,11v17.4c0,1.1-.4,2.1-1.1,2.9-.8.8-1.7,1.1-2.9,1.1s-2.1-.4-2.9-1.1c-.8-.8-1.1-1.7-1.1-2.9v-2.9c-1.8,2.2-4,4-6.6,5.3-2.6,1.2-5.5,1.9-8.4,1.9s-7.2-1-10.1-2.8-5.5-4.5-7.2-7.8c-1.7-3.4-2.6-7-2.6-11s1-7.8,2.8-11c1.9-3.4,4.5-5.9,7.8-7.8,3.4-1.9,7-2.9,11-2.9s7.7,1,10.9,2.9v-.2ZM70.4,67.6c2.1-1.2,3.7-3.1,5-5.3,1.2-2.2,1.8-4.7,1.8-7.5s-.6-5.3-1.8-7.5-2.9-4-5-5.3-4.5-1.9-7.1-1.9-5,.7-7.1,1.9c-2.1,1.2-3.7,3.1-5,5.3s-1.8,4.7-1.8,7.5.6,5.3,1.8,7.5c1.2,2.2,2.9,3.9,5,5.3,2.1,1.2,4.5,1.9,7.1,1.9s5-.7,7.1-1.9Z"/>
            <path class="cls-15" d="M96.9,74.4c-1.8-1.2-3.2-3-4.2-5.2-1-2.2-1.5-4.7-1.5-7.5V19.2c0-1.1.4-2.1,1.1-2.8.8-.8,1.6-1.1,2.8-1.1s2.1.4,2.8,1.1c.8.8,1.1,1.6,1.1,2.8v42.6c0,1.9.4,3.5,1.1,4.8.8,1.2,1.6,1.9,2.8,1.9h1.9c1.1,0,1.9.4,2.6,1.1.7.8,1,1.6,1,2.8s-.5,2.1-1.5,2.8c-1,.8-2.3,1.1-3.8,1.1h-.2c-2.2,0-4.2-.6-6-1.8h.4Z"/>
            <path class="cls-15" d="M147.3,56.6c-.7.7-1.5,1-2.6,1h-29.7c.6,3.6,2.2,6.6,5,8.8,2.8,2.2,6,3.4,10.1,3.4s3.2-.3,4.9-.9,3.1-1.2,4.2-2.1c.8-.6,1.6-.9,2.6-.9s1.7.3,2.3.8c1,.8,1.4,1.6,1.4,2.7s-.4,1.7-1.2,2.3c-1.7,1.4-3.9,2.6-6.6,3.4-2.6.9-5.2,1.3-7.6,1.3-4.3,0-8.1-1-11.5-2.8s-6-4.4-7.9-7.7-2.9-7-2.9-11.2.9-7.9,2.7-11.2c1.8-3.4,4.3-5.8,7.5-7.8,3.2-1.8,6.8-2.8,10.9-2.8s7.5.9,10.3,2.7c2.9,1.7,5.2,4.2,6.7,7.5,1.5,3.2,2.3,6.8,2.3,10.9s-.4,1.8-1.1,2.5h.2ZM119.6,43c-2.4,2.1-3.8,4.9-4.5,8.3h26c-.5-3.4-1.7-6.3-3.9-8.3-2.1-2.1-4.9-3.2-8.3-3.2s-6.9,1.1-9.3,3.2Z"/>
            <path class="cls-15" d="M185.5,35.5c2.9,1.5,5.1,3.8,6.7,6.8s2.4,6.6,2.4,10.8v19.2c0,1.1-.4,2.1-1.1,2.9s-1.7,1.1-2.9,1.1-2.1-.4-2.9-1.1c-.8-.8-1.1-1.7-1.1-2.9v-19.2c0-4.2-1.1-7.4-3.4-9.6-2.3-2.2-5.3-3.3-9-3.3s-4.2.5-5.9,1.3c-1.8.9-3.2,2.1-4.2,3.6-1.1,1.5-1.5,3.2-1.5,5.1v22c0,1.1-.4,2.1-1.1,2.9-.8.8-1.7,1.1-2.9,1.1s-2.1-.4-2.9-1.1c-.8-.8-1.1-1.7-1.1-2.9v-34.8c0-1.2.4-2.2,1.1-2.9.8-.8,1.7-1.1,2.9-1.1s2.2.4,2.9,1.1c.8.8,1.1,1.7,1.1,2.9v.9c1.6-1.6,3.6-3,5.9-3.8,2.3-1,4.7-1.3,7.4-1.3s6.8.8,9.7,2.3h0Z"/>
            <path class="cls-15" d="M224.5,69.6c.7.8,1,1.6,1,2.8s-.4,2.1-1.2,2.8c-.9.8-2,1.1-3.4,1.1h-1.4c-2.6,0-4.9-.7-7-2s-3.7-3.2-5-5.5c-1.2-2.3-1.8-4.9-1.8-7.8v-19.2h-3.6c-1.1,0-2-.3-2.7-1s-1.1-1.4-1.1-2.3.4-1.9,1.1-2.5c.7-.7,1.5-1,2.7-1h3.6v-11.2c0-1.1.4-2.1,1.1-2.8.8-.8,1.6-1.1,2.8-1.1s2.1.4,2.8,1.1c.8.8,1.1,1.6,1.1,2.8v11.2h6.6c1.1,0,2,.3,2.7,1s1.1,1.4,1.1,2.5-.4,1.7-1.1,2.3c-.7.7-1.5,1-2.7,1h-6.6v19.2c0,2.1.6,3.8,1.7,5.3s2.6,2.1,4.2,2.1h2.7c1,0,1.7.4,2.4,1.1l.2.2Z"/>
            <path class="cls-15" d="M239.6,73.8c-3.3-1.8-5.8-4.4-7.7-7.7s-2.8-7-2.8-11.2,1-7.9,2.8-11.2,4.4-5.8,7.7-7.7c3.3-1.8,7-2.8,11.2-2.8s7.8,1,11,2.8,5.8,4.4,7.7,7.7,2.8,7,2.8,11.2-1,7.8-2.8,11.2c-1.8,3.3-4.4,5.8-7.7,7.7s-7,2.8-11.1,2.8-7.8-1-11.2-2.8h0ZM257.8,67.6c2.1-1.2,3.7-3,4.9-5.2s1.7-4.7,1.7-7.6-.6-5.4-1.7-7.6c-1.1-2.2-2.8-4-4.9-5.3s-4.5-1.9-7.2-1.9-5.1.7-7.2,1.9-3.7,3-5,5.3c-1.2,2.2-1.8,4.8-1.8,7.6s.6,5.4,1.8,7.6c1.2,2.2,2.9,3.9,5,5.2,2.1,1.2,4.5,1.9,7.2,1.9s5.1-.7,7.2-1.9Z"/>
            <path class="cls-12" d="M310.6,63.5c-.8-.8-1.1-1.7-1.1-2.9v-10.4h-10.4c-1.1,0-2.1-.4-2.9-1.1s-1.1-1.7-1.1-2.9.4-2.1,1.1-2.9c.8-.8,1.7-1.1,2.9-1.1h10.4v-10.4c0-1.1.4-2,1.2-2.8.8-.8,1.7-1.1,2.8-1.1s2.1.4,2.9,1.1c.8.8,1.1,1.7,1.1,2.9v10.4h10.4c1.1,0,2,.4,2.9,1.1.8.8,1.2,1.7,1.2,2.9s-.4,2-1.2,2.8c-.8.8-1.7,1.1-2.9,1.1h-10.4v10.4c0,1.1-.4,2.1-1.1,2.9-.8.8-1.7,1.1-2.9,1.1s-2.1-.4-2.9-1.1h0Z"/>
            <path class="cls-12" d="M399.2,16.3c.7.7,1.1,1.6,1.1,2.7s-.4,2-1.1,2.7c-.7.7-1.6,1.1-2.7,1.1h-16.8v49.4c0,1.1-.4,2.1-1.1,2.9-.8.8-1.7,1.1-2.9,1.1s-2.1-.4-2.9-1.1-1.1-1.7-1.1-2.9V22.7h-16.8c-1.1,0-2-.4-2.7-1.1-.7-.7-1.1-1.6-1.1-2.7s.4-2,1.1-2.7c.7-.7,1.6-1.1,2.7-1.1h41.7c1.1,0,2,.4,2.7,1.1h0Z"/>
            <path class="cls-12" d="M430.2,56.6c-.7.7-1.5,1-2.6,1h-29.7c.6,3.6,2.2,6.6,5,8.8,2.8,2.2,6,3.4,10.1,3.4s3.2-.3,4.9-.9c1.7-.6,3.1-1.2,4.2-2.1.8-.6,1.6-.9,2.6-.9s1.7.3,2.3.8c1,.8,1.4,1.6,1.4,2.7s-.4,1.7-1.2,2.3c-1.7,1.4-3.9,2.6-6.6,3.4-2.6.9-5.2,1.3-7.6,1.3-4.3,0-8.1-1-11.5-2.8s-6-4.4-7.9-7.7-2.9-7-2.9-11.2.9-7.9,2.7-11.2c1.8-3.4,4.3-5.8,7.5-7.8,3.2-1.8,6.8-2.8,10.9-2.8s7.5.9,10.3,2.7c2.9,1.7,5.2,4.2,6.7,7.5,1.5,3.2,2.3,6.8,2.3,10.9s-.4,1.8-1.1,2.5h.2ZM402.6,43c-2.4,2.1-3.8,4.9-4.5,8.3h26c-.5-3.4-1.7-6.3-3.9-8.3-2.1-2.1-4.9-3.2-8.3-3.2s-6.9,1.1-9.3,3.2h0Z"/>
            <path class="cls-12" d="M444.2,73.8c-3.3-1.9-5.8-4.5-7.7-7.8-1.8-3.4-2.8-7-2.8-11s.9-7.9,2.7-11.2c1.8-3.4,4.3-5.8,7.6-7.8,3.3-1.8,6.9-2.8,10.9-2.8,6.1,0,11.2,2.3,15.3,7,.5.6.8,1.2.8,2,0,1.1-.6,2.1-1.7,2.9-.5.4-1.1.6-1.8.6-1.2,0-2.2-.5-3.1-1.4-1.3-1.4-2.7-2.4-4.2-3.1s-3.3-1-5.3-1c-4,0-7.3,1.3-9.8,4s-3.7,6.2-3.7,10.6.6,5.4,1.7,7.6,2.8,3.9,4.9,5.2,4.5,1.9,7.2,1.9,6.4-1,8.6-2.8c1-.8,1.9-1.1,2.9-1.1s1.4.2,2,.7c1,.9,1.5,1.7,1.5,2.8s-.3,1.5-1,2.1c-3.7,3.4-8.4,5.3-14.1,5.3s-7.8-1-11.1-2.8h0Z"/>
            <path class="cls-12" d="M509.9,35.5c2.9,1.5,5.1,3.8,6.7,6.8s2.4,6.6,2.4,10.8v19.2c0,1.1-.4,2.1-1.1,2.9s-1.7,1.1-2.9,1.1-2.1-.4-2.9-1.1c-.8-.8-1.1-1.7-1.1-2.9v-19.2c0-4.2-1.1-7.4-3.4-9.6-2.3-2.2-5.3-3.3-9-3.3s-4.2.5-5.9,1.3c-1.8.9-3.2,2.1-4.2,3.6-1.1,1.5-1.5,3.2-1.5,5.1v22c0,1.1-.4,2.1-1.1,2.9-.8.8-1.7,1.1-2.9,1.1s-2.1-.4-2.9-1.1c-.8-.8-1.1-1.7-1.1-2.9v-34.8c0-1.2.4-2.2,1.1-2.9.8-.8,1.7-1.1,2.9-1.1s2.2.4,2.9,1.1c.8.8,1.1,1.7,1.1,2.9v.9c1.6-1.6,3.6-3,5.9-3.8,2.3-1,4.7-1.3,7.4-1.3s6.8.8,9.7,2.3h0Z"/>
            <path class="cls-12" d="M536.5,73.8c-3.3-1.8-5.8-4.4-7.7-7.7s-2.8-7-2.8-11.2,1-7.9,2.8-11.2,4.4-5.8,7.7-7.7,7-2.8,11.2-2.8,7.8,1,11,2.8,5.8,4.4,7.7,7.7,2.8,7,2.8,11.2-1,7.8-2.8,11.2c-1.8,3.3-4.4,5.8-7.7,7.7s-7,2.8-11.1,2.8-7.8-1-11.2-2.8h0ZM554.8,67.6c2.1-1.2,3.7-3,4.9-5.2s1.7-4.7,1.7-7.6-.6-5.4-1.7-7.6c-1.1-2.2-2.8-4-4.9-5.3-2.1-1.2-4.5-1.9-7.2-1.9s-5.1.7-7.2,1.9-3.7,3-5,5.3c-1.2,2.2-1.8,4.8-1.8,7.6s.6,5.4,1.8,7.6c1.2,2.2,2.9,3.9,5,5.2s4.5,1.9,7.2,1.9,5.1-.7,7.2-1.9Z"/>
            <path class="cls-12" d="M581.2,74.4c-1.8-1.2-3.2-3-4.2-5.2-1-2.2-1.5-4.7-1.5-7.5V19.2c0-1.1.4-2.1,1.1-2.8.8-.8,1.6-1.1,2.8-1.1s2.1.4,2.8,1.1c.8.8,1.1,1.6,1.1,2.8v42.6c0,1.9.4,3.5,1.1,4.8.8,1.2,1.6,1.9,2.8,1.9h1.9c1.1,0,1.9.4,2.6,1.1.7.8,1,1.6,1,2.8s-.5,2.1-1.5,2.8c-1,.8-2.3,1.1-3.8,1.1h-.2c-2.2,0-4.2-.6-6-1.8h.4Z"/>
            <path class="cls-12" d="M602.4,73.8c-3.3-1.8-5.8-4.4-7.7-7.7s-2.8-7-2.8-11.2,1-7.9,2.8-11.2,4.4-5.8,7.7-7.7,7-2.8,11.2-2.8,7.8,1,11,2.8,5.8,4.4,7.7,7.7,2.8,7,2.8,11.2-1,7.8-2.8,11.2c-1.8,3.3-4.4,5.8-7.7,7.7s-7,2.8-11.1,2.8-7.8-1-11.2-2.8h0ZM620.8,67.6c2.1-1.2,3.7-3,4.9-5.2s1.7-4.7,1.7-7.6-.6-5.4-1.7-7.6c-1.1-2.2-2.8-4-4.9-5.3-2.1-1.2-4.5-1.9-7.2-1.9s-5.1.7-7.2,1.9-3.7,3-5,5.3c-1.2,2.2-1.8,4.8-1.8,7.6s.6,5.4,1.8,7.6c1.2,2.2,2.9,3.9,5,5.2s4.5,1.9,7.2,1.9,5.1-.7,7.2-1.9Z"/>
            <path class="cls-12" d="M673.5,36c3.3,1.8,5.8,4.4,7.7,7.7s2.8,7,2.8,11.2v16.8c0,4.1-1,7.8-2.8,11.2s-4.4,6-7.7,8c-3.4,1.9-7.1,3-11.2,3s-7.3-.8-10.4-2.2c-3.3-1.5-5.9-3.6-8.1-6.3-.6-.8-.9-1.4-.9-2.2s.6-2,1.6-2.8c.8-.5,1.4-.7,2.2-.7,1.3,0,2.4.6,3.2,1.6,1.4,1.8,3.2,3.3,5.3,4.2s4.6,1.4,7.3,1.4,4.9-.6,7-1.8,3.7-3.1,5-5.4,1.9-5.2,1.9-8.5v-3.8c-1.6,2.9-3.7,5.1-6.4,6.7s-5.6,2.4-9,2.4-7.3-1-10.3-2.8-5.5-4.4-7.1-7.7c-1.7-3.3-2.6-7-2.6-11.2s1-7.9,2.8-11.2,4.4-5.8,7.7-7.7,7-2.8,11.2-2.8,7.8,1,11,2.8h0ZM669.6,67.6c2.1-1.2,3.7-3,4.9-5.2s1.7-4.7,1.7-7.6-.6-5.4-1.7-7.6c-1.1-2.2-2.8-4-4.9-5.3-2.1-1.2-4.5-1.9-7.2-1.9s-5.1.7-7.2,1.9-3.7,3-5,5.3c-1.2,2.2-1.8,4.8-1.8,7.6s.6,5.4,1.8,7.6c1.2,2.2,2.9,3.9,5,5.2s4.5,1.9,7.2,1.9,5.1-.7,7.2-1.9Z"/>
            <path class="cls-12" d="M693.8,75.1c-.8-.8-1.1-1.7-1.1-2.9v-34.7c0-1.2.4-2.2,1.1-2.9.8-.8,1.7-1.1,2.9-1.1s2.2.4,2.9,1.1c.8.8,1.1,1.7,1.1,2.9v34.7c0,1.1-.4,2.1-1.1,2.9-.8.8-1.7,1.1-2.9,1.1s-2.1-.4-2.9-1.1ZM694.1,25.7c-.8-.8-1.1-1.7-1.1-2.9s.3-2,1-2.7l7.7-7.7c.8-.8,1.7-1.1,2.8-1.1s2.1.4,2.9,1.1c.8.8,1.1,1.7,1.1,2.9s-.4,2-1.1,2.8l-7.6,7.6c-.8.8-1.6,1.1-2.8,1.1s-2.2-.4-2.9-1.1h0Z"/>
            <path class="cls-12" d="M741.8,36.1c3.3,1.9,5.8,4.5,7.8,7.8,1.9,3.4,2.9,7,2.9,11v17.4c0,1.1-.4,2.1-1.1,2.9s-1.7,1.1-2.9,1.1-2.1-.4-2.9-1.1c-.8-.8-1.1-1.7-1.1-2.9v-2.9c-1.8,2.2-4,4-6.6,5.3s-5.5,1.9-8.4,1.9-7.2-1-10.1-2.8-5.5-4.5-7.2-7.8c-1.7-3.4-2.6-7-2.6-11s1-7.8,2.8-11c1.9-3.4,4.5-5.9,7.8-7.8,3.4-1.9,7-2.9,11-2.9s7.7,1,10.9,2.9v-.2ZM738,67.6c2.1-1.2,3.7-3.1,5-5.3s1.8-4.7,1.8-7.5-.6-5.3-1.8-7.5c-1.2-2.2-2.9-4-5-5.3s-4.5-1.9-7.1-1.9-5,.7-7.1,1.9-3.7,3.1-5,5.3-1.8,4.7-1.8,7.5.6,5.3,1.8,7.5c1.2,2.2,2.9,3.9,5,5.3,2.1,1.2,4.5,1.9,7.1,1.9s5-.7,7.1-1.9Z"/>
            <path class="cls-12" d="M758.9,75.9c-1.1-1.1-1.6-2.3-1.6-3.8s.6-2.8,1.6-3.8c1.1-1.1,2.3-1.6,3.8-1.6s2.7.6,3.8,1.6c1.1,1.1,1.6,2.4,1.6,3.8s-.5,2.7-1.5,3.8c-1.1,1.1-2.3,1.6-3.8,1.6s-2.7-.6-3.8-1.6h0Z"/>
          </g>
          <g>
            <path class="cls-2" d="M33.3,271.5c-10.1-5.6-17.1-13-21-22.2-.7-1.5-1-2.9-1-3.8,0-1.9.7-3.6,2.1-5.1s3.4-2.5,5.7-3c.4,0,1.1-.2,1.9-.2,2,0,4,.6,5.8,1.8,1.8,1.2,3.3,2.9,4.1,4.9,2.3,5,6.8,9.3,13.6,12.7,6.8,3.4,14.3,5.2,22.4,5.2s17.7-2.2,24.3-6.6,10-10.5,10-18.2-2.8-13.6-8.4-18.8c-5.6-5.2-14.2-8.4-25.7-9.6-15.8-1.5-28.2-6.2-37.3-14-9.1-7.8-13.6-17.5-13.6-29.2s2.3-15.3,7-21.3c4.7-5.9,11-10.5,19.1-13.7s17.2-4.7,27.3-4.7,20.2,2.3,27.8,6.7c7.6,4.5,13.9,10.9,19.1,19.2,1.5,2.5,2.3,4.8,2.3,6.9s-1.2,5.2-3.8,6.9c-1.4.9-3.1,1.3-5,1.3s-3.7-.5-5.4-1.4-3-2.3-3.8-3.9c-3.4-5.7-7.8-10.1-12.9-13.2s-11.7-4.5-19.6-4.5-17.5,1.9-23.5,5.6c-6,3.8-9,9.3-9,16.5s2.7,12.3,8,16.8c5.4,4.5,14.9,7.5,28.7,8.9,15.3,1.5,27.2,6.2,35.6,14,8.4,7.8,12.6,18,12.6,30.7s-2.5,17.2-7.5,23.8c-5,6.6-11.6,11.6-19.8,14.8s-17,4.9-26.5,4.9-23.6-2.9-33.8-8.5v.2Z"/>
            <path class="cls-2" d="M171.3,270.2c-11.6-6.5-20.5-15.7-26.9-27.5-6.4-11.8-9.6-25.1-9.6-40s3.2-28.2,9.6-39.9,15.3-20.8,26.9-27.4c11.6-6.5,24.7-9.9,39.5-9.9s27.8,3.3,39.3,9.9c11.6,6.5,20.6,15.7,27,27.4,6.4,11.7,9.7,25,9.7,39.9s-3.3,28.2-9.7,40c-6.4,11.8-15.4,21-26.9,27.5s-24.6,9.9-39.4,9.9-28-3.3-39.5-9.9ZM240.2,254.1c8.7-5.2,15.4-12.3,20.3-21.3,4.9-9,7.3-19,7.3-30.1s-2.4-21.1-7.3-30.1-11.6-16.1-20.2-21.3-18.4-7.8-29.4-7.8-20.8,2.6-29.4,7.8c-8.6,5.2-15.3,12.3-20.2,21.3s-7.3,19-7.3,30.1,2.4,21.1,7.3,30.1,11.6,16.1,20.3,21.3c8.7,5.2,18.5,7.8,29.3,7.8s20.6-2.6,29.3-7.8Z"/>
            <path class="cls-2" d="M455.5,130.4c1.9,1.9,2.9,4.3,2.9,7.2v130.5c0,2.9-1,5.2-3,7.2-2,1.9-4.3,2.9-7,2.9s-5.2-1-7.1-2.9-2.9-4.3-2.9-7.2v-95.8l-46.3,95.1c-2.2,3.4-5.1,5-8.6,5s-7.3-2-9.2-5.9l-45.8-92.4v94.1c0,2.9-1,5.2-2.9,7.2-1.9,1.9-4.3,2.9-7.1,2.9s-5.2-1-7.1-2.9-2.9-4.3-2.9-7.2v-130.5c0-2.9,1-5.2,2.9-7.2,1.9-1.9,4.3-2.9,7.1-2.9s6.8,1.8,8.8,5.4l56.9,114.7,55.3-114.7c2-3.6,5-5.4,8.8-5.4s5.2,1,7.1,2.9h0Z"/>
            <path class="cls-2" d="M516.7,270.2c-11.6-6.5-20.5-15.7-26.9-27.5-6.4-11.8-9.6-25.1-9.6-40s3.2-28.2,9.6-39.9c6.4-11.7,15.3-20.8,26.9-27.4,11.6-6.5,24.7-9.9,39.5-9.9s27.8,3.3,39.3,9.9c11.6,6.5,20.6,15.7,27,27.4,6.4,11.7,9.7,25,9.7,39.9s-3.3,28.2-9.7,40c-6.4,11.8-15.4,21-26.9,27.5-11.5,6.5-24.6,9.9-39.4,9.9s-28-3.3-39.5-9.9ZM585.5,254.1c8.7-5.2,15.4-12.3,20.3-21.3,4.9-9,7.3-19,7.3-30.1s-2.4-21.1-7.3-30.1-11.6-16.1-20.2-21.3-18.4-7.8-29.4-7.8-20.8,2.6-29.4,7.8c-8.6,5.2-15.3,12.3-20.2,21.3-4.9,9-7.3,19-7.3,30.1s2.4,21.1,7.3,30.1,11.6,16.1,20.3,21.3c8.7,5.2,18.5,7.8,29.3,7.8s20.6-2.6,29.3-7.8Z"/>
            <path class="cls-2" d="M667.5,271.5c-10.1-5.6-17.1-13-21-22.2-.7-1.5-1-2.9-1-3.8,0-1.9.7-3.6,2.1-5.1s3.4-2.5,5.7-3c.4,0,1.1-.2,1.9-.2,2,0,4,.6,5.8,1.8,1.8,1.2,3.3,2.9,4.1,4.9,2.3,5,6.8,9.3,13.6,12.7,6.8,3.4,14.3,5.2,22.4,5.2s17.7-2.2,24.3-6.6,10-10.5,10-18.2-2.8-13.6-8.4-18.8c-5.6-5.2-14.2-8.4-25.7-9.6-15.8-1.5-28.2-6.2-37.3-14s-13.6-17.5-13.6-29.2,2.3-15.3,7-21.3c4.7-5.9,11-10.5,19.1-13.7s17.2-4.7,27.3-4.7,20.2,2.3,27.8,6.7c7.6,4.5,13.9,10.9,19.1,19.2,1.5,2.5,2.3,4.8,2.3,6.9s-1.2,5.2-3.8,6.9c-1.4.9-3.1,1.3-5,1.3s-3.7-.5-5.4-1.4c-1.6-1-3-2.3-3.8-3.9-3.4-5.7-7.8-10.1-12.9-13.2s-11.7-4.5-19.6-4.5-17.5,1.9-23.5,5.6c-6,3.8-9,9.3-9,16.5s2.7,12.3,8,16.8c5.4,4.5,14.9,7.5,28.7,8.9,15.3,1.5,27.2,6.2,35.6,14s12.6,18,12.6,30.7-2.5,17.2-7.5,23.8c-5,6.6-11.6,11.6-19.8,14.8-8.2,3.3-17,4.9-26.5,4.9s-23.6-2.9-33.8-8.5v.2Z"/>
          </g>
          <g>
            <path class="cls-3" d="M49.3,323.4c.7.7,1,1.5,1,2.6s-.3,1.9-1,2.6-1.5,1-2.5,1h-15.8v46.7c0,1.1-.4,2-1.1,2.7-.8.8-1.6,1.1-2.7,1.1s-2-.4-2.7-1.1-1.1-1.6-1.1-2.7v-46.7H7.6c-1.1,0-1.9-.3-2.5-1-.7-.7-1-1.5-1-2.6s.3-1.9,1-2.6,1.5-1,2.5-1h39.2c1.1,0,1.9.3,2.5,1h0Z"/>
            <path class="cls-3" d="M96.6,376.6c0,1-.3,1.8-1,2.5s-1.5,1-2.7,1-2.5-.6-3.3-1.8l-12.6-20.4h-10.7v18.4c0,1.1-.4,2-1.1,2.7-.7.8-1.6,1.1-2.8,1.1s-2-.4-2.7-1.1c-.8-.8-1.1-1.6-1.1-2.7v-49.9c0-1.1.4-2,1.1-2.8.8-.7,1.6-1.1,2.7-1.1h13.2c3.6,0,6.9.8,9.7,2.3,2.9,1.5,5.1,3.6,6.7,6.4,1.6,2.8,2.4,5.9,2.4,9.5s-.9,6.6-2.7,9.3c-1.7,2.7-4.1,4.8-7.2,6.1l11.2,18.1c.5.8.8,1.6.8,2.4h0ZM75.8,350.7c3.4,0,6-1,8.2-2.9,2.1-1.9,3.3-4.3,3.3-7.4s-1.1-5.9-3.3-7.9c-2.1-2.1-4.9-3.1-8.2-3.1h-9.4v21.3h9.4Z"/>
            <path class="cls-3" d="M148.2,376.2c0,1.1-.4,1.9-1.1,2.7s-1.6,1.1-2.7,1.1-1.4-.2-2.1-.7c-.7-.4-1.1-1-1.4-1.7l-4.1-10.3h-26.3l-4.2,10.3c-.4.8-.9,1.3-1.4,1.7-.7.4-1.3.7-2,.7-1.1,0-2-.4-2.7-1.1-.7-.8-1.1-1.6-1.1-2.7s0-1.1.4-1.7l20.6-49.5c.8-1.7,1.9-2.6,3.5-2.6s3,.9,3.6,2.6l20.7,49.6c.3.7.4,1.1.4,1.6h0ZM113,360.9h21.2l-10.4-26.2s-10.7,26.2-10.7,26.2Z"/>
            <path class="cls-3" d="M157.6,378.9c-.7-.7-1.1-1.6-1.1-2.8v-49.9c0-1.1.4-2,1.1-2.8.7-.7,1.6-1.1,2.7-1.1s1.1,0,1.6.4c.6.3,1,.6,1.3,1l32,42.8v-40.3c0-1.1.4-2,1.1-2.8.8-.7,1.6-1.1,2.7-1.1s2,.4,2.7,1.1,1.1,1.6,1.1,2.8v49.9c0,1.1-.4,2-1.1,2.8-.7.7-1.6,1.1-2.7,1.1s-1.1,0-1.6-.3c-.6-.2-1-.6-1.2-1l-32-42.8v40.3c0,1.1-.4,2-1.1,2.7-.7.8-1.6,1.1-2.8,1.1s-2-.4-2.7-1.1h0Z"/>
            <path class="cls-3" d="M222.6,377.5c-3.9-2.2-6.5-5-8-8.5-.3-.6-.4-1.1-.4-1.4,0-.8.3-1.3.8-1.9.6-.6,1.2-1,2.2-1.1h.8c.8,0,1.5.2,2.2.7s1.2,1.1,1.5,1.9c.9,1.9,2.6,3.5,5.2,4.9s5.5,2,8.6,2,6.8-.9,9.3-2.6c2.6-1.7,3.8-4,3.8-7s-1.1-5.2-3.3-7.2-5.5-3.3-9.9-3.6c-6-.6-10.8-2.4-14.3-5.4-3.4-3-5.2-6.7-5.2-11.2s.9-5.8,2.7-8.1,4.2-4,7.4-5.3c3.1-1.2,6.6-1.8,10.4-1.8s7.8.9,10.6,2.6c2.9,1.7,5.4,4.2,7.4,7.4.6,1,.9,1.8.9,2.7s-.5,2-1.4,2.7c-.6.4-1.1.5-1.9.5s-1.4-.2-2-.6c-.7-.4-1.1-.9-1.4-1.5-1.3-2.2-3-3.9-5-5.1-2-1.1-4.5-1.7-7.5-1.7s-6.7.8-9,2.2-3.4,3.5-3.4,6.3,1.1,4.7,3.1,6.4c2,1.7,5.7,2.9,11,3.4,5.8.6,10.4,2.4,13.6,5.4,3.3,3,4.8,6.9,4.8,11.8s-1,6.6-2.9,9.1-4.4,4.4-7.6,5.6-6.5,1.9-10.1,1.9-9-1.1-12.9-3.3h0Z"/>
            <path class="cls-3" d="M264.2,378.9c-.8-.8-1.1-1.6-1.1-2.7v-49.9c0-1.1.4-2,1.1-2.8.8-.7,1.6-1.1,2.7-1.1h33.1c1.1,0,2,.3,2.7,1,.7.7,1.1,1.5,1.1,2.6s-.4,1.9-1.1,2.5c-.7.7-1.6,1-2.7,1h-29.3v17.9h21.1c1.1,0,2,.3,2.7,1,.7.7,1.1,1.5,1.1,2.6s-.4,1.9-1.1,2.6-1.6,1-2.7,1h-21.1v21.6c0,1.1-.4,2-1.1,2.7-.8.8-1.6,1.1-2.7,1.1s-2-.4-2.7-1.1h0Z"/>
            <path class="cls-3" d="M324.8,376.9c-4.4-2.5-7.8-6-10.3-10.5-2.5-4.5-3.6-9.6-3.6-15.3s1.2-10.8,3.6-15.2c2.5-4.5,5.8-7.9,10.3-10.4,4.4-2.5,9.5-3.7,15.1-3.7s10.6,1.2,15,3.7,7.8,6,10.3,10.4c2.5,4.5,3.7,9.6,3.7,15.2s-1.2,10.8-3.7,15.3-5.9,8-10.3,10.5c-4.4,2.5-9.4,3.7-15.1,3.7s-10.7-1.2-15.1-3.7h0ZM351.2,370.8c3.4-2,5.9-4.7,7.8-8.1s2.8-7.3,2.8-11.5-1-8-2.8-11.5-4.4-6.1-7.8-8.1c-3.3-2-7.1-3-11.2-3s-7.9,1-11.2,3c-3.3,2-5.8,4.7-7.8,8.1-1.8,3.4-2.8,7.3-2.8,11.5s1,8,2.8,11.5,4.4,6.1,7.8,8.1,7.1,3,11.2,3,7.8-1,11.2-3Z"/>
            <path class="cls-3" d="M418.8,376.6c0,1-.3,1.8-1,2.5s-1.5,1-2.7,1-2.5-.6-3.3-1.8l-12.6-20.4h-10.7v18.4c0,1.1-.4,2-1.1,2.7-.7.8-1.6,1.1-2.8,1.1s-2-.4-2.7-1.1c-.8-.8-1.1-1.6-1.1-2.7v-49.9c0-1.1.4-2,1.1-2.8.8-.7,1.6-1.1,2.7-1.1h13.2c3.6,0,6.9.8,9.7,2.3,2.9,1.5,5.1,3.6,6.7,6.4,1.6,2.8,2.4,5.9,2.4,9.5s-.9,6.6-2.7,9.3c-1.7,2.7-4.1,4.8-7.2,6.1l11.2,18.1c.5.8.8,1.6.8,2.4h0ZM398,350.7c3.4,0,6-1,8.2-2.9,2.1-1.9,3.3-4.3,3.3-7.4s-1.1-5.9-3.3-7.9c-2.1-2.1-4.9-3.1-8.2-3.1h-9.4v21.3h9.4Z"/>
            <path class="cls-3" d="M483.5,323.5c.8.8,1.1,1.6,1.1,2.7v49.9c0,1.1-.4,2-1.1,2.7-.8.8-1.6,1.1-2.7,1.1s-2-.4-2.7-1.1c-.8-.8-1.1-1.6-1.1-2.7v-36.7l-17.7,36.4c-.9,1.2-1.9,1.9-3.3,1.9s-2.8-.8-3.5-2.3l-17.5-35.3v36c0,1.1-.4,2-1.1,2.7-.8.8-1.6,1.1-2.7,1.1s-2-.4-2.7-1.1c-.8-.8-1.1-1.6-1.1-2.7v-49.9c0-1.1.4-2,1.1-2.7.8-.8,1.6-1.1,2.7-1.1s2.6.7,3.4,2.1l21.7,43.8,21.2-43.8c.8-1.3,1.9-2.1,3.4-2.1s2,.4,2.7,1.1h0Z"/>
            <path class="cls-3" d="M542.3,376.2c0,1.1-.4,1.9-1.1,2.7s-1.6,1.1-2.7,1.1-1.4-.2-2.1-.7c-.7-.4-1.1-1-1.4-1.7l-4.1-10.3h-26.3l-4.2,10.3c-.4.8-.9,1.3-1.4,1.7-.7.4-1.3.7-2,.7-1.1,0-2-.4-2.7-1.1-.7-.8-1.1-1.6-1.1-2.7s0-1.1.4-1.7l20.6-49.5c.8-1.7,1.9-2.6,3.5-2.6s3,.9,3.6,2.6l20.7,49.6c.3.7.4,1.1.4,1.6h0ZM507.2,360.9h21.2l-10.4-26.2-10.7,26.2h0Z"/>
            <path class="cls-3" d="M560.5,376.8c-4.3-2.6-7.8-6.1-10.2-10.7-2.5-4.5-3.7-9.5-3.7-14.9s1.2-10.3,3.7-14.8c2.5-4.5,5.9-8,10.2-10.7,4.3-2.6,9.1-3.9,14.4-3.9s6.9.5,9.7,1.4c2.7,1,5.5,2.6,8.2,4.9.6.5,1,.9,1.1,1.3s.3,1.1.3,1.6c0,1-.4,1.8-1.1,2.4-.7.7-1.5,1-2.5,1s-1.8-.3-2.6-1c-2-1.7-3.9-3-5.8-3.7s-4.4-1.1-7.4-1.1-7.3,1.1-10.5,3.1c-3.2,2-5.7,4.8-7.7,8.2s-2.8,7.3-2.8,11.3,1,7.9,2.8,11.4c1.9,3.4,4.4,6.1,7.7,8.1,3.2,2,6.7,3.1,10.5,3.1s9.2-1.6,13.5-4.9c.9-.6,1.6-.9,2.4-.9s1.7.3,2.3,1c.6.7,1,1.5,1,2.6s-.4,1.9-1.1,2.7c-5.3,4.3-11.3,6.4-17.9,6.4s-10-1.3-14.4-3.9v.2Z"/>
            <path class="cls-3" d="M607.2,378.9c-.8-.8-1.1-1.6-1.1-2.7v-49.9c0-1.1.4-2,1.1-2.8.8-.7,1.6-1.1,2.7-1.1s2,.4,2.8,1.1c.7.7,1.1,1.6,1.1,2.8v49.9c0,1.1-.4,2-1.1,2.7-.7.8-1.6,1.1-2.8,1.1s-2-.4-2.7-1.1Z"/>
            <path class="cls-3" d="M639.7,376.9c-4.4-2.5-7.8-6-10.3-10.5-2.5-4.5-3.6-9.6-3.6-15.3s1.2-10.8,3.6-15.2c2.5-4.5,5.8-7.9,10.3-10.4,4.4-2.5,9.5-3.7,15.1-3.7s10.6,1.2,15,3.7c4.4,2.5,7.8,6,10.3,10.4,2.5,4.5,3.7,9.6,3.7,15.2s-1.2,10.8-3.7,15.3c-2.5,4.5-5.9,8-10.3,10.5s-9.4,3.7-15.1,3.7-10.7-1.2-15.1-3.7h0ZM666,370.8c3.4-2,5.9-4.7,7.8-8.1,1.8-3.4,2.8-7.3,2.8-11.5s-1-8-2.8-11.5-4.4-6.1-7.8-8.1c-3.3-2-7.1-3-11.2-3s-7.9,1-11.2,3c-3.3,2-5.8,4.7-7.8,8.1-1.8,3.4-2.8,7.3-2.8,11.5s1,8,2.8,11.5,4.4,6.1,7.8,8.1,7.1,3,11.2,3,7.8-1,11.2-3ZM652.4,315c-.7-.7-1.1-1.6-1.1-2.7s.3-1.9.9-2.5l7.2-7.2c.8-.8,1.6-1.1,2.7-1.1s2,.4,2.7,1.1c.7.8,1.1,1.6,1.1,2.7s-.4,1.9-1.1,2.6l-7.1,7.2c-.7.7-1.5,1.1-2.6,1.1s-2-.4-2.7-1.1h0Z"/>
            <path class="cls-3" d="M696.9,378.9c-.7-.7-1.1-1.6-1.1-2.8v-49.9c0-1.1.4-2,1.1-2.8.7-.7,1.6-1.1,2.7-1.1s1.1,0,1.6.4c.6.3,1,.6,1.3,1l32,42.8v-40.3c0-1.1.4-2,1.1-2.8.8-.7,1.6-1.1,2.7-1.1s2,.4,2.7,1.1,1.1,1.6,1.1,2.8v49.9c0,1.1-.4,2-1.1,2.8-.7.7-1.6,1.1-2.7,1.1s-1.1,0-1.6-.3c-.6-.2-1-.6-1.2-1l-32-42.8v40.3c0,1.1-.4,2-1.1,2.7-.7.8-1.6,1.1-2.8,1.1s-2-.4-2.7-1.1h0Z"/>
          </g>
          <path class="cls-17" d="M474,204.6l127.7,2.7s3.5-.7,3.1-3.9c-.2-1.8-1.6-3.4-3.5-3.8l-127.2,5.1h0Z"/>
          <path class="cls-17" d="M498.3,191.1l98.2,3s3.5-.7,3.1-3.9c-.2-1.8-1.6-3.4-3.5-3.8l-97.7,4.8Z"/>
          <path class="cls-17" d="M500.6,218l98.2,3s3.5-.7,3.1-3.9c-.2-1.8-1.6-3.4-3.5-3.8l-97.7,4.8h0Z"/>
          <path class="cls-17" d="M519,179.8l68.6,2s2.5-.5,2.1-2.8c0-1.2-1.1-2.4-2.5-2.7l-68.3,3.4h0Z"/>
          <path class="cls-17" d="M521.7,228.7l68.6,2s2.5-.5,2.1-2.8c0-1.2-1.1-2.4-2.5-2.7l-68.3,3.4h0Z"/>
          <path class="cls-17" d="M542.5,170.5l31.1,1c.7,0,1.1-.7,1.1-1.3s-.5-1.1-1.1-1.2l-31.1,1.6h0Z"/>
          <g class="cls-22">
            <g>
              <path class="cls-21" d="M535.9,122.9c-36.2.5-60.8,17.1-73.6,39.6l-21.7,1.5,20.8.3c-1.9,3.5-3.5,7.3-5,11.1l-52.7,3.6,51.4.6c-1.1,3.8-2,7.8-2.6,11.8l-81.6,5.6,80.9.9c-.3,4.4-.2,8.9.2,13.4l-119.7,7.2,120.7.2c.9,4.6,2.1,9.1,3.7,13.5l-85.6,5.9h0l88.5,1c1.7,3.5,3.7,7,5.9,10.2l-63.3,4.4,67.1.7c2.3,2.8,4.8,5.4,7.5,7.8l-37.5,2.7,41.4.5c13.3,10.6,31.3,17.4,53.8,18,109.9-1.8,110.8-157.3,1.4-160.5h0Z"/>
              <polygon class="cls-15" points="401 251.7 401.6 251.6 401 251.6 401 251.7"/>
            </g>
          </g>
          <g>
            <path class="cls-1" d="M569.3,118.8c-46.6-3.7-87.4,31-91.1,77.6-3.7,46.6,31,87.4,77.6,91.1,46.6,3.7,87.4-31,91.1-77.6,3.7-46.6-31-87.4-77.6-91.1h0ZM558.4,255.2c-28.7-2.3-50.2-27.5-47.9-56.2,2.3-28.7,27.5-50.2,56.2-47.9,28.7,2.3,50.2,27.5,47.9,56.2-2.3,28.7-27.5,50.2-56.2,47.9Z"/>
            <path class="cls-11" d="M515.6,226l-32.3,7.2c-3.5-9.3-5.5-19.4-5.5-30s.2-6,.5-9c7.3,0,22.3,1.9,32.8,18.3.9,4.8,2.4,9.4,4.4,13.6h0ZM647.2,203.2c0-3.1-.2-6-.5-9-7.3,0-22.3,1.9-32.8,18.3-.9,4.8-2.4,9.4-4.4,13.6l32.3,7.2c3.5-9.3,5.5-19.4,5.5-30h0Z"/>
          </g>
          <g>
            <path class="cls-10" d="M562.5,141.7c-33.9,0-61.5,27.5-61.5,61.5s27.5,61.5,61.5,61.5,61.5-27.5,61.5-61.5-27.5-61.5-61.5-61.5h0ZM562.5,255.4c-28.8,0-52.2-23.4-52.2-52.2s23.4-52.2,52.2-52.2,52.2,23.4,52.2,52.2-23.4,52.2-52.2,52.2Z"/>
            <path class="cls-13" d="M562.5,255.4c-20.4,0-38-11.7-46.6-28.7-7.3-14.4-21.9-23.5-38-23.5h0c0,46.7,37.9,84.6,84.6,84.6s84.6-37.9,84.6-84.6h0c-16.1,0-30.7,9.1-38,23.5-8.6,17-26.2,28.7-46.6,28.7Z"/>
            <path class="cls-9" d="M609.1,226.6c-8.6,17-26.2,28.7-46.6,28.7s-38-11.7-46.6-28.7c-3.4-6.7-8.3-12.3-14.4-16.3,3.5,30.5,29.5,54.2,61,54.2s57.4-23.6,61-54.2c-6,4-11,9.6-14.4,16.3Z"/>
            <path class="cls-5" d="M562.5,118.6c-46.7,0-84.6,37.9-84.6,84.6s37.9,84.6,84.6,84.6,84.6-37.9,84.6-84.6-37.9-84.6-84.6-84.6ZM562.5,283.5c-44.3,0-80.3-36-80.3-80.3s36-80.3,80.3-80.3,80.3,36,80.3,80.3-36,80.3-80.3,80.3Z"/>
          </g>
          <path class="cls-7" d="M366,204.1l142.2,1.5s3.9-.8,3.4-4.5c-.2-2.1-1.8-3.8-3.8-4.2l-141.8,7.1h0Z"/>
          <path class="cls-14" d="M393.3,188.7l109.4,2.2s3.9-.8,3.4-4.5c-.2-2.1-1.8-3.8-3.8-4.2l-108.9,6.5h0Z"/>
          <path class="cls-20" d="M395.6,218.7l109.4,2.2s3.9-.8,3.4-4.5c-.2-2-1.8-3.8-3.8-4.2l-109,6.5h0Z"/>
          <path class="cls-18" d="M385.2,177.3l111.5.2s4-.9,3.6-4.7c-.2-2.1-1.7-3.8-3.8-4.2l-111.3,8.7h0Z"/>
          <path class="cls-16" d="M418.9,230.3l76.4,1.5s2.8-.6,2.4-3.2c0-1.4-1.2-2.7-2.7-3l-76.1,4.6h0Z"/>
          <path class="cls-19" d="M442.9,165.1l34.7.8c.8-.2,1.2-.8,1.1-1.5,0-.7-.6-1.2-1.2-1.4l-34.7,2.2h0Z"/>
          <path class="cls-4" d="M399.6,208.6l134,1.3s3.7-.8,3.3-4.2c-.2-1.9-1.7-3.6-3.6-3.9l-133.6,6.8h0Z"/>
          <path class="cls-4" d="M425.4,194.1l103.1,2s3.7-.8,3.3-4.2c-.2-1.9-1.7-3.6-3.6-3.9l-102.7,6.2h0Z"/>
          <path class="cls-4" d="M427.6,222.3l103.1,2s3.7-.7,3.3-4.2c-.2-1.9-1.7-3.6-3.6-3.9l-102.7,6.1h0Z"/>
          <path class="cls-4" d="M417.8,183.3h105.1c0,0,3.8-.7,3.4-4.3,0-2-1.6-3.6-3.6-4l-104.9,8.2h0Z"/>
          <path class="cls-4" d="M472.1,171.8l32.7.7c.7,0,1.1-.8,1.1-1.4s-.6-1.2-1.1-1.3l-32.6,2.1h0Z"/>
        </g>
      </g>
    </g>
  </g>
</svg>