<?xml version="1.0" encoding="UTF-8"?>
<svg xmlns="http://www.w3.org/2000/svg" version="1.1" xmlns:xlink="http://www.w3.org/1999/xlink" viewBox="0 0 836.2 470.4">
  <defs>
    <style>
      .cls-1 {
        fill: #002894;
        opacity: .3;
      }

      .cls-1, .cls-2, .cls-3 {
        mix-blend-mode: multiply;
      }

      .cls-4 {
        fill: url(#Degradado_sin_nombre_32-2);
      }

      .cls-5 {
        fill: url(#Degradado_sin_nombre_68-5);
      }

      .cls-6 {
        fill: #002d7c;
      }

      .cls-7 {
        fill: #f24a00;
      }

      .cls-8, .cls-9 {
        fill: #fff;
      }

      .cls-10 {
        fill: url(#Naranja_amarillo);
      }

      .cls-11 {
        fill: none;
      }

      .cls-12 {
        fill: #6997ff;
      }

      .cls-13 {
        fill: url(#Degradado_sin_nombre_68-2);
      }

      .cls-9 {
        mix-blend-mode: overlay;
        opacity: .6;
      }

      .cls-14 {
        isolation: isolate;
      }

      .cls-15 {
        fill: #ff8b00;
      }

      .cls-16 {
        fill: url(#Degradado_sin_nombre_32);
      }

      .cls-2 {
        fill: #3b00a0;
        opacity: .2;
      }

      .cls-17 {
        fill: #008bb2;
      }

      .cls-18 {
        fill: url(#Degradado_sin_nombre_68-3);
      }

      .cls-19 {
        fill: url(#Degradado_sin_nombre_68-4);
      }

      .cls-3 {
        fill: #ffa255;
        opacity: .8;
      }

      .cls-20 {
        fill: url(#Degradado_sin_nombre_68);
      }

      .cls-21 {
        clip-path: url(#clippath);
      }

      .cls-22 {
        fill: url(#Degradado_sin_nombre_68-6);
      }
    </style>
    <clipPath id="clippath">
      <path class="cls-11" d="M539.5,240.8c0,63.2,142.2,88.6,61.7,88.6s-255.1-28-255.1-91.2,134.6-99,215.1-99-21.8,38.4-21.8,101.5Z"/>
    </clipPath>
    <linearGradient id="Degradado_sin_nombre_32" data-name="Degradado sin nombre 32" x1="363.2" y1="242.6" x2="661.1" y2="242.6" gradientUnits="userSpaceOnUse">
      <stop offset="0" stop-color="#00eced"/>
      <stop offset=".1" stop-color="#05dae9"/>
      <stop offset=".4" stop-color="#13aede"/>
      <stop offset=".7" stop-color="#2967ce"/>
      <stop offset="1" stop-color="#3c2dc1"/>
    </linearGradient>
    <linearGradient id="Naranja_amarillo" data-name="Naranja, amarillo" x1="396.7" y1="408.7" x2="573.6" y2="408.7" gradientTransform="translate(152.6 -203.3) rotate(4.6)" gradientUnits="userSpaceOnUse">
      <stop offset="0" stop-color="#ffef26"/>
      <stop offset="0" stop-color="#fee921"/>
      <stop offset=".1" stop-color="#fdd70e"/>
      <stop offset=".2" stop-color="#fdcb03"/>
      <stop offset=".3" stop-color="#fdc800"/>
      <stop offset=".7" stop-color="#f18f34"/>
      <stop offset=".9" stop-color="#e95f32"/>
      <stop offset="1" stop-color="#e3312d"/>
    </linearGradient>
    <linearGradient id="Degradado_sin_nombre_32-2" data-name="Degradado sin nombre 32" x1="515.3" y1="286.8" x2="692.1" y2="286.8" xlink:href="#Degradado_sin_nombre_32"/>
    <linearGradient id="Degradado_sin_nombre_68" data-name="Degradado sin nombre 68" x1="139.4" y1="84.2" x2="306.6" y2="84.2" gradientTransform="translate(271.5 163.9) rotate(0) scale(.9) skewX(0)" gradientUnits="userSpaceOnUse">
      <stop offset="0" stop-color="#fdc800"/>
      <stop offset="1" stop-color="#f18f34"/>
    </linearGradient>
    <linearGradient id="Degradado_sin_nombre_68-2" data-name="Degradado sin nombre 68" x1="170.7" y1="67.3" x2="300.2" y2="67.3" xlink:href="#Degradado_sin_nombre_68"/>
    <linearGradient id="Degradado_sin_nombre_68-3" data-name="Degradado sin nombre 68" x1="173.3" y1="101.7" x2="302.9" y2="101.7" xlink:href="#Degradado_sin_nombre_68"/>
    <linearGradient id="Degradado_sin_nombre_68-4" data-name="Degradado sin nombre 68" x1="161.5" y1="51.7" x2="293.7" y2="51.7" xlink:href="#Degradado_sin_nombre_68"/>
    <linearGradient id="Degradado_sin_nombre_68-5" data-name="Degradado sin nombre 68" x1="200.1" y1="115.7" x2="290.6" y2="115.7" xlink:href="#Degradado_sin_nombre_68"/>
    <linearGradient id="Degradado_sin_nombre_68-6" data-name="Degradado sin nombre 68" x1="227.6" y1="41.9" x2="268.8" y2="41.9" xlink:href="#Degradado_sin_nombre_68"/>
  </defs>
  <!-- Generator: Adobe Illustrator 28.6.0, SVG Export Plug-In . SVG Version: 1.2.0 Build 709)  -->
  <g class="cls-14">
    <g id="Layer_1">
      <g>
        <path class="cls-15" d="M68.6,47.4c.7.7,1.1,1.7,1.1,2.8s-.4,2.1-1.1,2.8c-.7.7-1.7,1.1-2.8,1.1h-17.5v51.6c0,1.2-.4,2.2-1.2,3-.8.8-1.8,1.2-3,1.2s-2.2-.4-3-1.2-1.2-1.8-1.2-3v-51.6h-17.6c-1.1,0-2.1-.4-2.8-1.1-.7-.7-1.1-1.7-1.1-2.8s.4-2.1,1.1-2.8c.7-.7,1.7-1.1,2.8-1.1h43.6c1.1,0,2.1.4,2.8,1.1Z"/>
        <path class="cls-15" d="M93.6,68.1c3.4,2,6.1,4.7,8.1,8.2,2,3.5,3,7.3,3,11.5v18.2c0,1.2-.4,2.2-1.2,3-.8.8-1.8,1.2-3,1.2s-2.2-.4-3-1.2c-.8-.8-1.2-1.8-1.2-3v-3c-1.9,2.3-4.2,4.2-6.9,5.5-2.7,1.3-5.7,2-8.8,2s-7.5-1-10.6-2.9-5.7-4.7-7.5-8.1c-1.8-3.5-2.7-7.3-2.7-11.5s1-8.1,2.9-11.5c2-3.5,4.7-6.2,8.1-8.2,3.5-2,7.3-3,11.5-3s8,1,11.4,3ZM89.6,101c2.2-1.3,3.9-3.2,5.2-5.5,1.3-2.3,1.9-4.9,1.9-7.8s-.6-5.5-1.9-7.8c-1.3-2.3-3-4.2-5.2-5.5-2.2-1.3-4.7-2-7.4-2s-5.2.7-7.4,2c-2.2,1.3-3.9,3.2-5.2,5.5-1.3,2.3-1.9,4.9-1.9,7.8s.6,5.5,1.9,7.8c1.3,2.3,3,4.1,5.2,5.5,2.2,1.3,4.7,2,7.4,2s5.2-.7,7.4-2Z"/>
        <path class="cls-15" d="M117.2,108.1c-1.9-1.3-3.3-3.1-4.4-5.4-1-2.3-1.6-4.9-1.6-7.8v-44.5c0-1.2.4-2.2,1.1-2.9.8-.8,1.7-1.1,2.9-1.1s2.2.4,2.9,1.1c.8.8,1.1,1.7,1.1,2.9v44.5c0,2,.4,3.7,1.1,5,.8,1.3,1.7,2,2.9,2h2c1.1,0,2,.4,2.7,1.1.7.8,1,1.7,1,2.9s-.5,2.2-1.6,2.9c-1,.8-2.4,1.1-4,1.1h-.2c-2.3,0-4.4-.6-6.3-1.9Z"/>
        <path class="cls-15" d="M169.9,89.6c-.7.7-1.6,1-2.7,1h-31c.6,3.8,2.3,6.9,5.2,9.2,2.9,2.3,6.3,3.5,10.5,3.5s3.3-.3,5.1-.9c1.8-.6,3.2-1.3,4.4-2.2.8-.6,1.7-.9,2.7-.9s1.8.3,2.4.8c1,.8,1.5,1.7,1.5,2.8s-.4,1.8-1.3,2.4c-1.8,1.5-4.1,2.7-6.9,3.6-2.7.9-5.4,1.4-7.9,1.4-4.5,0-8.5-1-12-2.9-3.5-1.9-6.3-4.6-8.3-8-2-3.4-3-7.3-3-11.7s.9-8.3,2.8-11.7c1.9-3.5,4.5-6.1,7.8-8.1,3.3-1.9,7.1-2.9,11.4-2.9s7.8.9,10.8,2.8c3,1.8,5.4,4.4,7,7.8,1.6,3.3,2.4,7.1,2.4,11.4s-.4,1.9-1.1,2.6ZM141,75.4c-2.5,2.2-4,5.1-4.7,8.7h27.2c-.5-3.6-1.8-6.6-4.1-8.7-2.2-2.2-5.1-3.3-8.7-3.3s-7.2,1.1-9.7,3.3Z"/>
        <path class="cls-15" d="M209.8,67.5c3,1.6,5.3,4,7,7.1,1.7,3.1,2.5,6.9,2.5,11.3v20.1c0,1.2-.4,2.2-1.2,3-.8.8-1.8,1.2-3,1.2s-2.2-.4-3-1.2c-.8-.8-1.2-1.8-1.2-3v-20.1c0-4.4-1.2-7.7-3.5-10-2.4-2.3-5.5-3.4-9.4-3.4s-4.4.5-6.2,1.4c-1.9.9-3.3,2.2-4.4,3.8-1.1,1.6-1.6,3.3-1.6,5.3v23c0,1.2-.4,2.2-1.1,3-.8.8-1.8,1.2-3,1.2s-2.2-.4-3-1.2c-.8-.8-1.2-1.8-1.2-3v-36.4c0-1.3.4-2.3,1.2-3,.8-.8,1.8-1.1,3-1.1s2.3.4,3,1.1c.8.8,1.1,1.8,1.1,3v.9c1.7-1.7,3.8-3.1,6.2-4,2.4-1,4.9-1.4,7.7-1.4s7.1.8,10.1,2.4Z"/>
        <path class="cls-15" d="M250.5,103c.7.8,1,1.7,1,2.9s-.4,2.2-1.3,2.9c-.9.8-2.1,1.1-3.5,1.1h-1.5c-2.7,0-5.1-.7-7.3-2.1-2.2-1.4-3.9-3.3-5.2-5.7-1.3-2.4-1.9-5.1-1.9-8.1v-20.1h-3.8c-1.1,0-2.1-.3-2.8-1-.7-.7-1.1-1.5-1.1-2.4s.4-2,1.1-2.6c.7-.7,1.6-1,2.8-1h3.8v-11.7c0-1.2.4-2.2,1.1-2.9.8-.8,1.7-1.1,2.9-1.1s2.2.4,2.9,1.1c.8.8,1.1,1.7,1.1,2.9v11.7h6.9c1.1,0,2.1.3,2.8,1,.7.7,1.1,1.5,1.1,2.6s-.4,1.8-1.1,2.4c-.7.7-1.6,1-2.8,1h-6.9v20.1c0,2.2.6,4,1.8,5.5,1.2,1.5,2.7,2.2,4.4,2.2h2.8c1,0,1.8.4,2.5,1.1Z"/>
        <path class="cls-15" d="M266.2,107.5c-3.4-1.9-6.1-4.6-8-8-1.9-3.4-2.9-7.3-2.9-11.7s1-8.3,2.9-11.7c1.9-3.4,4.6-6.1,8-8,3.4-1.9,7.3-2.9,11.7-2.9s8.1,1,11.5,2.9c3.4,1.9,6.1,4.6,8,8,1.9,3.4,2.9,7.3,2.9,11.7s-1,8.2-2.9,11.7c-1.9,3.4-4.6,6.1-8,8-3.4,1.9-7.3,2.9-11.6,2.9s-8.2-1-11.7-2.9ZM285.4,101.1c2.2-1.3,3.9-3.1,5.1-5.4s1.8-4.9,1.8-7.9-.6-5.6-1.8-7.9c-1.2-2.3-2.9-4.2-5.1-5.5-2.2-1.3-4.7-2-7.5-2s-5.3.7-7.5,2c-2.2,1.3-3.9,3.1-5.2,5.5-1.3,2.3-1.9,5-1.9,7.9s.6,5.6,1.9,7.9c1.3,2.3,3,4.1,5.2,5.4,2.2,1.3,4.7,2,7.5,2s5.3-.7,7.5-2Z"/>
        <path class="cls-12" d="M340.5,96.8c-.8-.8-1.2-1.8-1.2-3v-10.9h-10.9c-1.2,0-2.2-.4-3-1.2-.8-.8-1.2-1.8-1.2-3s.4-2.2,1.2-3c.8-.8,1.8-1.2,3-1.2h10.9v-10.9c0-1.1.4-2.1,1.3-2.9.8-.8,1.8-1.2,2.9-1.2s2.2.4,3,1.2c.8.8,1.2,1.8,1.2,3v10.9h10.9c1.1,0,2.1.4,3,1.2.8.8,1.3,1.8,1.3,3s-.4,2.1-1.3,2.9c-.8.8-1.8,1.2-3,1.2h-10.9v10.9c0,1.2-.4,2.2-1.2,3-.8.8-1.8,1.2-3,1.2s-2.2-.4-3-1.2Z"/>
        <path class="cls-12" d="M433.1,47.4c.7.7,1.1,1.7,1.1,2.8s-.4,2.1-1.1,2.8c-.7.7-1.7,1.1-2.8,1.1h-17.5v51.6c0,1.2-.4,2.2-1.2,3-.8.8-1.8,1.2-3,1.2s-2.2-.4-3-1.2-1.2-1.8-1.2-3v-51.6h-17.6c-1.1,0-2.1-.4-2.8-1.1-.7-.7-1.1-1.7-1.1-2.8s.4-2.1,1.1-2.8c.7-.7,1.7-1.1,2.8-1.1h43.6c1.1,0,2.1.4,2.8,1.1Z"/>
        <path class="cls-12" d="M465.4,89.6c-.7.7-1.6,1-2.7,1h-31c.6,3.8,2.3,6.9,5.2,9.2,2.9,2.3,6.3,3.5,10.5,3.5s3.3-.3,5.1-.9c1.8-.6,3.2-1.3,4.4-2.2.8-.6,1.7-.9,2.7-.9s1.8.3,2.4.8c1,.8,1.5,1.7,1.5,2.8s-.4,1.8-1.3,2.4c-1.8,1.5-4.1,2.7-6.9,3.6-2.7.9-5.4,1.4-7.9,1.4-4.5,0-8.5-1-12-2.9-3.5-1.9-6.3-4.6-8.3-8-2-3.4-3-7.3-3-11.7s.9-8.3,2.8-11.7c1.9-3.5,4.5-6.1,7.8-8.1,3.3-1.9,7.1-2.9,11.4-2.9s7.8.9,10.8,2.8c3,1.8,5.4,4.4,7,7.8,1.6,3.3,2.4,7.1,2.4,11.4s-.4,1.9-1.1,2.6ZM436.5,75.4c-2.5,2.2-4,5.1-4.7,8.7h27.2c-.5-3.6-1.8-6.6-4.1-8.7-2.2-2.2-5.1-3.3-8.7-3.3s-7.2,1.1-9.7,3.3Z"/>
        <path class="cls-12" d="M480,107.4c-3.4-2-6.1-4.7-8-8.1-1.9-3.5-2.9-7.3-2.9-11.5s.9-8.3,2.8-11.7c1.9-3.5,4.5-6.1,7.9-8.1,3.4-1.9,7.2-2.9,11.4-2.9,6.4,0,11.7,2.4,16,7.3.5.6.8,1.3.8,2.1,0,1.2-.6,2.2-1.8,3-.5.4-1.2.6-1.9.6-1.3,0-2.3-.5-3.2-1.5-1.4-1.5-2.8-2.5-4.4-3.2-1.6-.7-3.4-1-5.5-1-4.2,0-7.6,1.4-10.2,4.2-2.6,2.8-3.9,6.5-3.9,11.1s.6,5.6,1.8,7.9,2.9,4.1,5.1,5.4c2.2,1.3,4.7,2,7.5,2s6.7-1,9-2.9c1-.8,2-1.1,3-1.1s1.5.2,2.1.7c1,.9,1.6,1.8,1.6,2.9s-.3,1.6-1,2.2c-3.9,3.6-8.8,5.5-14.7,5.5s-8.2-1-11.6-2.9Z"/>
        <path class="cls-12" d="M548.7,67.5c3,1.6,5.3,4,7,7.1,1.7,3.1,2.5,6.9,2.5,11.3v20.1c0,1.2-.4,2.2-1.2,3-.8.8-1.8,1.2-3,1.2s-2.2-.4-3-1.2c-.8-.8-1.2-1.8-1.2-3v-20.1c0-4.4-1.2-7.7-3.5-10-2.4-2.3-5.5-3.4-9.4-3.4s-4.4.5-6.2,1.4c-1.9.9-3.3,2.2-4.4,3.8-1.1,1.6-1.6,3.3-1.6,5.3v23c0,1.2-.4,2.2-1.1,3-.8.8-1.8,1.2-3,1.2s-2.2-.4-3-1.2c-.8-.8-1.2-1.8-1.2-3v-36.4c0-1.3.4-2.3,1.2-3,.8-.8,1.8-1.1,3-1.1s2.3.4,3,1.1c.8.8,1.1,1.8,1.1,3v.9c1.7-1.7,3.8-3.1,6.2-4,2.4-1,4.9-1.4,7.7-1.4s7.1.8,10.1,2.4Z"/>
        <path class="cls-12" d="M576.5,107.5c-3.4-1.9-6.1-4.6-8-8-1.9-3.4-2.9-7.3-2.9-11.7s1-8.3,2.9-11.7c1.9-3.4,4.6-6.1,8-8,3.4-1.9,7.3-2.9,11.7-2.9s8.1,1,11.5,2.9c3.4,1.9,6.1,4.6,8,8,1.9,3.4,2.9,7.3,2.9,11.7s-1,8.2-2.9,11.7c-1.9,3.4-4.6,6.1-8,8-3.4,1.9-7.3,2.9-11.6,2.9s-8.2-1-11.7-2.9ZM595.6,101.1c2.2-1.3,3.9-3.1,5.1-5.4s1.8-4.9,1.8-7.9-.6-5.6-1.8-7.9c-1.2-2.3-2.9-4.2-5.1-5.5-2.2-1.3-4.7-2-7.5-2s-5.3.7-7.5,2c-2.2,1.3-3.9,3.1-5.2,5.5-1.3,2.3-1.9,5-1.9,7.9s.6,5.6,1.9,7.9c1.3,2.3,3,4.1,5.2,5.4,2.2,1.3,4.7,2,7.5,2s5.3-.7,7.5-2Z"/>
        <path class="cls-12" d="M623.2,108.1c-1.9-1.3-3.3-3.1-4.4-5.4-1-2.3-1.6-4.9-1.6-7.8v-44.5c0-1.2.4-2.2,1.1-2.9.8-.8,1.7-1.1,2.9-1.1s2.2.4,2.9,1.1c.8.8,1.1,1.7,1.1,2.9v44.5c0,2,.4,3.7,1.1,5,.8,1.3,1.7,2,2.9,2h2c1.1,0,2,.4,2.7,1.1.7.8,1,1.7,1,2.9s-.5,2.2-1.6,2.9c-1,.8-2.4,1.1-4,1.1h-.2c-2.3,0-4.4-.6-6.3-1.9Z"/>
        <path class="cls-12" d="M645.4,107.5c-3.4-1.9-6.1-4.6-8-8-1.9-3.4-2.9-7.3-2.9-11.7s1-8.3,2.9-11.7c1.9-3.4,4.6-6.1,8-8,3.4-1.9,7.3-2.9,11.7-2.9s8.1,1,11.5,2.9c3.4,1.9,6.1,4.6,8,8,1.9,3.4,2.9,7.3,2.9,11.7s-1,8.2-2.9,11.7c-1.9,3.4-4.6,6.1-8,8-3.4,1.9-7.3,2.9-11.6,2.9s-8.2-1-11.7-2.9ZM664.5,101.1c2.2-1.3,3.9-3.1,5.1-5.4s1.8-4.9,1.8-7.9-.6-5.6-1.8-7.9c-1.2-2.3-2.9-4.2-5.1-5.5-2.2-1.3-4.7-2-7.5-2s-5.3.7-7.5,2c-2.2,1.3-3.9,3.1-5.2,5.5-1.3,2.3-1.9,5-1.9,7.9s.6,5.6,1.9,7.9c1.3,2.3,3,4.1,5.2,5.4,2.2,1.3,4.7,2,7.5,2s5.3-.7,7.5-2Z"/>
        <path class="cls-12" d="M719.6,68c3.4,1.9,6.1,4.6,8,8,1.9,3.4,2.9,7.3,2.9,11.7v17.6c0,4.3-1,8.2-2.9,11.7-1.9,3.5-4.6,6.3-8,8.4-3.5,2-7.4,3.1-11.7,3.1s-7.6-.8-10.9-2.3c-3.4-1.6-6.2-3.8-8.5-6.6-.6-.8-.9-1.5-.9-2.3,0-1.1.6-2.1,1.7-2.9.8-.5,1.5-.7,2.3-.7,1.4,0,2.5.6,3.3,1.7,1.5,1.9,3.3,3.4,5.5,4.4,2.2,1,4.8,1.5,7.6,1.5s5.1-.6,7.3-1.9c2.2-1.3,3.9-3.2,5.2-5.6s2-5.4,2-8.9v-4c-1.7,3-3.9,5.3-6.7,7-2.8,1.7-5.9,2.5-9.4,2.5s-7.6-1-10.8-2.9c-3.2-1.9-5.7-4.6-7.4-8-1.8-3.4-2.7-7.3-2.7-11.7s1-8.3,2.9-11.7c1.9-3.4,4.6-6.1,8-8,3.4-1.9,7.3-2.9,11.7-2.9s8.1,1,11.5,2.9ZM715.5,101.1c2.2-1.3,3.9-3.1,5.1-5.4s1.8-4.9,1.8-7.9-.6-5.6-1.8-7.9c-1.2-2.3-2.9-4.2-5.1-5.5-2.2-1.3-4.7-2-7.5-2s-5.3.7-7.5,2c-2.2,1.3-3.9,3.1-5.2,5.5-1.3,2.3-1.9,5-1.9,7.9s.6,5.6,1.9,7.9c1.3,2.3,3,4.1,5.2,5.4,2.2,1.3,4.7,2,7.5,2s5.3-.7,7.5-2Z"/>
        <path class="cls-12" d="M740.8,108.9c-.8-.8-1.2-1.8-1.2-3v-36.3c0-1.3.4-2.3,1.2-3,.8-.8,1.8-1.1,3-1.1s2.3.4,3,1.1c.8.8,1.1,1.8,1.1,3v36.3c0,1.2-.4,2.2-1.1,3-.8.8-1.8,1.2-3,1.2s-2.2-.4-3-1.2ZM741.1,57.2c-.8-.8-1.1-1.8-1.1-3s.3-2.1,1-2.8l8-8c.8-.8,1.8-1.2,2.9-1.2s2.2.4,3,1.2c.8.8,1.2,1.8,1.2,3s-.4,2.1-1.1,2.9l-7.9,7.9c-.8.8-1.7,1.1-2.9,1.1s-2.3-.4-3-1.2Z"/>
        <path class="cls-12" d="M791,68.1c3.4,2,6.1,4.7,8.1,8.2,2,3.5,3,7.3,3,11.5v18.2c0,1.2-.4,2.2-1.2,3-.8.8-1.8,1.2-3,1.2s-2.2-.4-3-1.2c-.8-.8-1.2-1.8-1.2-3v-3c-1.9,2.3-4.2,4.2-6.9,5.5-2.7,1.3-5.7,2-8.8,2s-7.5-1-10.6-2.9-5.7-4.7-7.5-8.1c-1.8-3.5-2.7-7.3-2.7-11.5s1-8.1,2.9-11.5c2-3.5,4.7-6.2,8.1-8.2,3.5-2,7.3-3,11.5-3s8,1,11.4,3ZM787,101c2.2-1.3,3.9-3.2,5.2-5.5,1.3-2.3,1.9-4.9,1.9-7.8s-.6-5.5-1.9-7.8c-1.3-2.3-3-4.2-5.2-5.5-2.2-1.3-4.7-2-7.4-2s-5.2.7-7.4,2c-2.2,1.3-3.9,3.2-5.2,5.5-1.3,2.3-1.9,4.9-1.9,7.8s.6,5.5,1.9,7.8c1.3,2.3,3,4.1,5.2,5.5,2.2,1.3,4.7,2,7.4,2s5.2-.7,7.4-2Z"/>
        <path class="cls-12" d="M808.8,109.7c-1.1-1.1-1.7-2.4-1.7-4s.6-2.9,1.7-4c1.1-1.1,2.4-1.7,4-1.7s2.8.6,4,1.7c1.1,1.1,1.7,2.5,1.7,4s-.5,2.8-1.6,4c-1.1,1.1-2.4,1.7-4,1.7s-2.8-.6-4-1.7Z"/>
      </g>
      <g>
        <path class="cls-6" d="M50.8,314.1c-10.6-5.9-17.9-13.6-21.9-23.2-.7-1.6-1-3-1-4,0-2,.7-3.8,2.2-5.3,1.5-1.5,3.5-2.6,6-3.1.4-.1,1.1-.2,2-.2,2.1,0,4.2.6,6.1,1.9,1.9,1.3,3.4,3,4.3,5.1,2.4,5.2,7.1,9.7,14.2,13.3,7.1,3.6,14.9,5.4,23.4,5.4s18.5-2.3,25.4-6.9c6.9-4.6,10.4-11,10.4-19s-2.9-14.2-8.8-19.6c-5.9-5.4-14.8-8.8-26.8-10-16.5-1.6-29.5-6.5-39-14.6-9.5-8.1-14.2-18.3-14.2-30.5s2.4-16,7.3-22.3c4.9-6.2,11.5-11,20-14.3,8.5-3.3,18-4.9,28.5-4.9s21.1,2.4,29,7c7.9,4.7,14.5,11.4,20,20.1,1.6,2.6,2.4,5,2.4,7.2s-1.3,5.4-4,7.2c-1.5.9-3.2,1.4-5.2,1.4s-3.9-.5-5.6-1.5c-1.7-1-3.1-2.4-4-4.1-3.6-6-8.1-10.6-13.5-13.8-5.4-3.2-12.2-4.7-20.5-4.7s-18.3,2-24.6,5.9c-6.3,4-9.4,9.7-9.4,17.2s2.8,12.8,8.4,17.5c5.6,4.7,15.6,7.8,30,9.3,16,1.6,28.4,6.5,37.2,14.6,8.8,8.1,13.2,18.8,13.2,32.1s-2.6,18-7.8,24.9c-5.2,6.9-12.1,12.1-20.7,15.5-8.6,3.4-17.8,5.1-27.7,5.1s-24.7-3-35.3-8.9Z"/>
        <path class="cls-6" d="M195,312.7c-12.1-6.8-21.4-16.4-28.1-28.7-6.7-12.3-10-26.2-10-41.8s3.3-29.5,10-41.7c6.7-12.2,16-21.7,28.1-28.6,12.1-6.8,25.8-10.3,41.3-10.3s29,3.4,41.1,10.3c12.1,6.8,21.5,16.4,28.2,28.6,6.7,12.2,10.1,26.1,10.1,41.7s-3.4,29.5-10.1,41.8c-6.7,12.3-16.1,21.9-28.1,28.7-12,6.8-25.7,10.3-41.2,10.3s-29.2-3.4-41.3-10.3ZM267,295.9c9.1-5.4,16.1-12.9,21.2-22.3,5.1-9.4,7.6-19.9,7.6-31.4s-2.5-22-7.6-31.4c-5.1-9.4-12.1-16.8-21.1-22.2-9-5.4-19.2-8.1-30.7-8.1s-21.7,2.7-30.7,8.1c-9,5.4-16,12.8-21.1,22.2-5.1,9.4-7.6,19.9-7.6,31.4s2.5,22,7.6,31.4c5.1,9.4,12.1,16.8,21.2,22.3,9.1,5.4,19.3,8.2,30.6,8.2s21.5-2.7,30.6-8.2Z"/>
        <path class="cls-6" d="M491.8,166.7c2,2,3,4.5,3,7.5v136.3c0,3-1,5.4-3.1,7.5-2.1,2-4.5,3-7.3,3s-5.4-1-7.4-3-3-4.5-3-7.5v-100.1l-48.4,99.3c-2.3,3.5-5.3,5.2-9,5.2s-7.6-2.1-9.6-6.2l-47.8-96.5v98.3c0,3-1,5.4-3,7.5-2,2-4.5,3-7.4,3s-5.4-1-7.4-3c-2-2-3-4.5-3-7.5v-136.3c0-3,1-5.4,3-7.5,2-2,4.5-3,7.4-3s7.1,1.9,9.2,5.6l59.4,119.8,57.8-119.8c2.1-3.8,5.2-5.6,9.2-5.6s5.4,1,7.4,3Z"/>
        <path class="cls-6" d="M555.8,312.7c-12.1-6.8-21.4-16.4-28.1-28.7-6.7-12.3-10-26.2-10-41.8s3.3-29.5,10-41.7c6.7-12.2,16-21.7,28.1-28.6,12.1-6.8,25.8-10.3,41.3-10.3s29,3.4,41.1,10.3c12.1,6.8,21.5,16.4,28.2,28.6,6.7,12.2,10.1,26.1,10.1,41.7s-3.4,29.5-10.1,41.8c-6.7,12.3-16.1,21.9-28.1,28.7-12,6.8-25.7,10.3-41.2,10.3s-29.2-3.4-41.3-10.3ZM627.7,295.9c9.1-5.4,16.1-12.9,21.2-22.3,5.1-9.4,7.6-19.9,7.6-31.4s-2.5-22-7.6-31.4c-5.1-9.4-12.1-16.8-21.1-22.2-9-5.4-19.2-8.1-30.7-8.1s-21.7,2.7-30.7,8.1c-9,5.4-16,12.8-21.1,22.2-5.1,9.4-7.6,19.9-7.6,31.4s2.5,22,7.6,31.4c5.1,9.4,12.1,16.8,21.2,22.3,9.1,5.4,19.3,8.2,30.6,8.2s21.5-2.7,30.6-8.2Z"/>
        <path class="cls-6" d="M713.4,314.1c-10.6-5.9-17.9-13.6-21.9-23.2-.7-1.6-1-3-1-4,0-2,.7-3.8,2.2-5.3,1.5-1.5,3.5-2.6,6-3.1.4-.1,1.1-.2,2-.2,2.1,0,4.2.6,6.1,1.9,1.9,1.3,3.4,3,4.3,5.1,2.4,5.2,7.1,9.7,14.2,13.3,7.1,3.6,14.9,5.4,23.4,5.4s18.5-2.3,25.4-6.9c6.9-4.6,10.4-11,10.4-19s-2.9-14.2-8.8-19.6c-5.9-5.4-14.8-8.8-26.8-10-16.5-1.6-29.5-6.5-39-14.6-9.5-8.1-14.2-18.3-14.2-30.5s2.4-16,7.3-22.3c4.9-6.2,11.5-11,20-14.3,8.5-3.3,18-4.9,28.5-4.9s21.1,2.4,29,7c7.9,4.7,14.5,11.4,20,20.1,1.6,2.6,2.4,5,2.4,7.2s-1.3,5.4-4,7.2c-1.5.9-3.2,1.4-5.2,1.4s-3.9-.5-5.6-1.5c-1.7-1-3.1-2.4-4-4.1-3.6-6-8.1-10.6-13.5-13.8-5.4-3.2-12.2-4.7-20.5-4.7s-18.3,2-24.6,5.9c-6.3,4-9.4,9.7-9.4,17.2s2.8,12.8,8.4,17.5c5.6,4.7,15.6,7.8,30,9.3,16,1.6,28.4,6.5,37.2,14.6,8.8,8.1,13.2,18.8,13.2,32.1s-2.6,18-7.8,24.9c-5.2,6.9-12.1,12.1-20.7,15.5-8.6,3.4-17.8,5.1-27.7,5.1s-24.7-3-35.3-8.9Z"/>
      </g>
      <g>
        <path class="cls-7" d="M67.6,368.2c.7.7,1,1.6,1,2.7s-.3,2-1,2.7c-.7.7-1.6,1-2.6,1h-16.5v48.8c0,1.1-.4,2.1-1.1,2.8-.8.8-1.7,1.2-2.8,1.2s-2.1-.4-2.8-1.2-1.1-1.7-1.1-2.8v-48.8h-16.5c-1.1,0-2-.3-2.6-1-.7-.7-1-1.6-1-2.7s.3-2,1-2.7c.7-.7,1.6-1,2.6-1h40.9c1.1,0,2,.3,2.6,1Z"/>
        <path class="cls-7" d="M117,423.7c0,1-.3,1.9-1,2.6-.7.7-1.6,1-2.8,1s-2.6-.6-3.4-1.9l-13.2-21.3h-11.2v19.2c0,1.1-.4,2.1-1.1,2.8-.7.8-1.7,1.2-2.9,1.2s-2.1-.4-2.8-1.2c-.8-.8-1.1-1.7-1.1-2.8v-52.1c0-1.2.4-2.1,1.1-2.9.8-.7,1.7-1.1,2.8-1.1h13.8c3.8,0,7.2.8,10.1,2.4,3,1.6,5.3,3.8,7,6.7,1.7,2.9,2.5,6.2,2.5,9.9s-.9,6.9-2.8,9.7c-1.8,2.8-4.3,5-7.5,6.4l11.7,18.9c.5.8.8,1.7.8,2.5ZM95.2,396.8c3.5,0,6.3-1,8.6-3,2.2-2,3.4-4.5,3.4-7.7s-1.1-6.2-3.4-8.3c-2.2-2.2-5.1-3.2-8.6-3.2h-9.8v22.2h9.8Z"/>
        <path class="cls-7" d="M170.8,423.4c0,1.1-.4,2-1.1,2.8s-1.7,1.2-2.8,1.2-1.5-.2-2.2-.7c-.7-.4-1.2-1-1.5-1.8l-4.3-10.8h-27.5l-4.4,10.8c-.4.8-.9,1.4-1.5,1.8-.7.4-1.4.7-2.1.7-1.1,0-2.1-.4-2.8-1.2-.7-.8-1.1-1.7-1.1-2.8s.1-1.1.4-1.8l21.5-51.7c.8-1.8,2-2.7,3.7-2.7s3.1.9,3.8,2.7l21.6,51.8c.3.7.4,1.2.4,1.7ZM134.1,407.5h22.1l-10.9-27.4-11.2,27.4Z"/>
        <path class="cls-7" d="M180.7,426.2c-.7-.7-1.1-1.7-1.1-2.9v-52.1c0-1.2.4-2.1,1.1-2.9.7-.7,1.7-1.1,2.8-1.1s1.1.1,1.7.4c.6.3,1,.6,1.4,1l33.4,44.7v-42.1c0-1.2.4-2.1,1.1-2.9.8-.7,1.7-1.1,2.8-1.1s2.1.4,2.8,1.1c.7.7,1.1,1.7,1.1,2.9v52.1c0,1.2-.4,2.1-1.1,2.9-.7.7-1.7,1.1-2.8,1.1s-1.1-.1-1.7-.3c-.6-.2-1-.6-1.3-1l-33.4-44.7v42.1c0,1.1-.4,2.1-1.1,2.8-.7.8-1.7,1.2-2.9,1.2s-2.1-.4-2.8-1.1Z"/>
        <path class="cls-7" d="M248.5,424.7c-4.1-2.3-6.8-5.2-8.4-8.9-.3-.6-.4-1.1-.4-1.5,0-.8.3-1.4.8-2,.6-.6,1.3-1,2.3-1.2.2,0,.4,0,.8,0,.8,0,1.6.2,2.3.7.7.5,1.3,1.1,1.6,2,.9,2,2.7,3.7,5.4,5.1,2.7,1.4,5.7,2.1,9,2.1s7.1-.9,9.7-2.7c2.7-1.8,4-4.2,4-7.3s-1.1-5.4-3.4-7.5-5.7-3.4-10.3-3.8c-6.3-.6-11.3-2.5-14.9-5.6-3.6-3.1-5.4-7-5.4-11.7s.9-6.1,2.8-8.5,4.4-4.2,7.7-5.5c3.2-1.3,6.9-1.9,10.9-1.9s8.1.9,11.1,2.7c3,1.8,5.6,4.4,7.7,7.7.6,1,.9,1.9.9,2.8s-.5,2.1-1.5,2.8c-.6.4-1.2.5-2,.5s-1.5-.2-2.1-.6c-.7-.4-1.2-.9-1.5-1.6-1.4-2.3-3.1-4.1-5.2-5.3-2.1-1.2-4.7-1.8-7.8-1.8s-7,.8-9.4,2.3c-2.4,1.5-3.6,3.7-3.6,6.6s1.1,4.9,3.2,6.7c2.1,1.8,6,3,11.5,3.5,6.1.6,10.9,2.5,14.2,5.6,3.4,3.1,5,7.2,5,12.3s-1,6.9-3,9.5c-2,2.6-4.6,4.6-7.9,5.9-3.3,1.3-6.8,2-10.6,2s-9.4-1.1-13.5-3.4Z"/>
        <path class="cls-7" d="M292,426.2c-.8-.8-1.1-1.7-1.1-2.8v-52.1c0-1.2.4-2.1,1.1-2.9.8-.7,1.7-1.1,2.8-1.1h34.6c1.2,0,2.1.3,2.8,1,.7.7,1.1,1.6,1.1,2.7s-.4,2-1.1,2.6c-.7.7-1.7,1-2.8,1h-30.6v18.7h22c1.1,0,2.1.3,2.8,1,.7.7,1.1,1.6,1.1,2.7s-.4,2-1.1,2.7c-.7.7-1.7,1-2.8,1h-22v22.6c0,1.1-.4,2.1-1.1,2.8-.8.8-1.7,1.2-2.8,1.2s-2.1-.4-2.8-1.2Z"/>
        <path class="cls-7" d="M355.4,424.2c-4.6-2.6-8.2-6.3-10.8-11-2.6-4.7-3.8-10-3.8-16s1.3-11.3,3.8-15.9c2.6-4.7,6.1-8.3,10.8-10.9,4.6-2.6,9.9-3.9,15.8-3.9s11.1,1.3,15.7,3.9c4.6,2.6,8.2,6.3,10.8,10.9,2.6,4.7,3.9,10,3.9,15.9s-1.3,11.3-3.9,16c-2.6,4.7-6.2,8.4-10.8,11-4.6,2.6-9.8,3.9-15.8,3.9s-11.2-1.3-15.8-3.9ZM382.9,417.8c3.5-2.1,6.2-4.9,8.1-8.5,1.9-3.6,2.9-7.6,2.9-12s-1-8.4-2.9-12c-1.9-3.6-4.6-6.4-8.1-8.5-3.4-2.1-7.4-3.1-11.7-3.1s-8.3,1-11.7,3.1c-3.4,2.1-6.1,4.9-8.1,8.5-1.9,3.6-2.9,7.6-2.9,12s1,8.4,2.9,12c1.9,3.6,4.6,6.4,8.1,8.5,3.5,2.1,7.4,3.1,11.7,3.1s8.2-1,11.7-3.1Z"/>
        <path class="cls-7" d="M453.6,423.7c0,1-.3,1.9-1,2.6-.7.7-1.6,1-2.8,1s-2.6-.6-3.4-1.9l-13.2-21.3h-11.2v19.2c0,1.1-.4,2.1-1.1,2.8-.7.8-1.7,1.2-2.9,1.2s-2.1-.4-2.8-1.2c-.8-.8-1.1-1.7-1.1-2.8v-52.1c0-1.2.4-2.1,1.1-2.9.8-.7,1.7-1.1,2.8-1.1h13.8c3.8,0,7.2.8,10.1,2.4,3,1.6,5.3,3.8,7,6.7,1.7,2.9,2.5,6.2,2.5,9.9s-.9,6.9-2.8,9.7c-1.8,2.8-4.3,5-7.5,6.4l11.7,18.9c.5.8.8,1.7.8,2.5ZM431.8,396.8c3.5,0,6.3-1,8.6-3,2.2-2,3.4-4.5,3.4-7.7s-1.1-6.2-3.4-8.3c-2.2-2.2-5.1-3.2-8.6-3.2h-9.8v22.2h9.8Z"/>
        <path class="cls-7" d="M521.1,368.4c.8.8,1.1,1.7,1.1,2.8v52.1c0,1.1-.4,2.1-1.2,2.8-.8.8-1.7,1.2-2.8,1.2s-2.1-.4-2.8-1.2c-.8-.8-1.1-1.7-1.1-2.8v-38.3l-18.5,38c-.9,1.3-2,2-3.4,2s-2.9-.8-3.7-2.4l-18.3-36.9v37.6c0,1.1-.4,2.1-1.1,2.8-.8.8-1.7,1.2-2.8,1.2s-2.1-.4-2.8-1.2c-.8-.8-1.1-1.7-1.1-2.8v-52.1c0-1.1.4-2.1,1.1-2.8.8-.8,1.7-1.2,2.8-1.2s2.7.7,3.5,2.2l22.7,45.8,22.1-45.8c.8-1.4,2-2.2,3.5-2.2s2.1.4,2.8,1.2Z"/>
        <path class="cls-7" d="M582.6,423.4c0,1.1-.4,2-1.1,2.8s-1.7,1.2-2.8,1.2-1.5-.2-2.2-.7c-.7-.4-1.2-1-1.5-1.8l-4.3-10.8h-27.5l-4.4,10.8c-.4.8-.9,1.4-1.5,1.8-.7.4-1.4.7-2.1.7-1.1,0-2.1-.4-2.8-1.2-.7-.8-1.1-1.7-1.1-2.8s.1-1.1.4-1.8l21.5-51.7c.8-1.8,2-2.7,3.7-2.7s3.1.9,3.8,2.7l21.6,51.8c.3.7.4,1.2.4,1.7ZM545.9,407.5h22.1l-10.9-27.4-11.2,27.4Z"/>
        <path class="cls-7" d="M601.6,424c-4.5-2.7-8.1-6.4-10.7-11.2-2.6-4.7-3.9-9.9-3.9-15.6s1.3-10.8,3.9-15.5c2.6-4.7,6.2-8.4,10.7-11.2,4.5-2.7,9.5-4.1,15-4.1s7.2.5,10.1,1.5c2.8,1,5.7,2.7,8.6,5.1.6.5,1,.9,1.2,1.4.2.5.3,1.1.3,1.7,0,1-.4,1.9-1.1,2.5-.7.7-1.6,1-2.6,1s-1.9-.3-2.7-1c-2.1-1.8-4.1-3.1-6.1-3.9-2-.8-4.6-1.2-7.7-1.2s-7.6,1.1-11,3.2c-3.3,2.1-6,5-8,8.6-2,3.6-2.9,7.6-2.9,11.8s1,8.3,2.9,11.9c2,3.6,4.6,6.4,8,8.5,3.3,2.1,7,3.2,11,3.2s9.6-1.7,14.1-5.1c.9-.6,1.7-.9,2.5-.9s1.8.3,2.4,1c.6.7,1,1.6,1,2.7s-.4,2-1.2,2.8c-5.5,4.5-11.8,6.7-18.7,6.7s-10.4-1.4-15-4.1Z"/>
        <path class="cls-7" d="M650.4,426.2c-.8-.8-1.1-1.7-1.1-2.8v-52.1c0-1.2.4-2.1,1.1-2.9.8-.7,1.7-1.1,2.8-1.1s2.1.4,2.9,1.1c.7.7,1.1,1.7,1.1,2.9v52.1c0,1.1-.4,2.1-1.1,2.8-.7.8-1.7,1.2-2.9,1.2s-2.1-.4-2.8-1.2Z"/>
        <path class="cls-7" d="M684.3,424.2c-4.6-2.6-8.2-6.3-10.8-11-2.6-4.7-3.8-10-3.8-16s1.3-11.3,3.8-15.9c2.6-4.7,6.1-8.3,10.8-10.9,4.6-2.6,9.9-3.9,15.8-3.9s11.1,1.3,15.7,3.9c4.6,2.6,8.2,6.3,10.8,10.9,2.6,4.7,3.9,10,3.9,15.9s-1.3,11.3-3.9,16c-2.6,4.7-6.2,8.4-10.8,11-4.6,2.6-9.8,3.9-15.8,3.9s-11.2-1.3-15.8-3.9ZM711.8,417.8c3.5-2.1,6.2-4.9,8.1-8.5,1.9-3.6,2.9-7.6,2.9-12s-1-8.4-2.9-12c-1.9-3.6-4.6-6.4-8.1-8.5-3.4-2.1-7.4-3.1-11.7-3.1s-8.3,1-11.7,3.1c-3.4,2.1-6.1,4.9-8.1,8.5-1.9,3.6-2.9,7.6-2.9,12s1,8.4,2.9,12c1.9,3.6,4.6,6.4,8.1,8.5,3.5,2.1,7.4,3.1,11.7,3.1s8.2-1,11.7-3.1ZM697.6,359.5c-.7-.7-1.1-1.7-1.1-2.8s.3-2,.9-2.6l7.5-7.5c.8-.8,1.7-1.2,2.8-1.2s2.1.4,2.8,1.2c.7.8,1.1,1.7,1.1,2.8s-.4,2-1.1,2.7l-7.4,7.5c-.7.7-1.6,1.1-2.7,1.1s-2.1-.4-2.8-1.1Z"/>
        <path class="cls-7" d="M744.1,426.2c-.7-.7-1.1-1.7-1.1-2.9v-52.1c0-1.2.4-2.1,1.1-2.9.7-.7,1.7-1.1,2.8-1.1s1.1.1,1.7.4c.6.3,1,.6,1.4,1l33.4,44.7v-42.1c0-1.2.4-2.1,1.1-2.9.8-.7,1.7-1.1,2.8-1.1s2.1.4,2.8,1.1c.7.7,1.1,1.7,1.1,2.9v52.1c0,1.2-.4,2.1-1.1,2.9-.7.7-1.7,1.1-2.8,1.1s-1.1-.1-1.7-.3c-.6-.2-1-.6-1.3-1l-33.4-44.7v42.1c0,1.1-.4,2.1-1.1,2.8-.7.8-1.7,1.2-2.9,1.2s-2.1-.4-2.8-1.1Z"/>
      </g>
      <path class="cls-17" d="M511.1,244.2l133.4,2.8s3.7-.7,3.2-4.1c-.2-1.9-1.7-3.6-3.7-4l-132.9,5.3Z"/>
      <path class="cls-17" d="M536.6,230.1l102.6,3.1s3.7-.7,3.2-4.1c-.2-1.9-1.7-3.6-3.7-4l-102.1,5Z"/>
      <path class="cls-17" d="M539,258.2l102.6,3.1s3.7-.7,3.2-4.1c-.2-1.9-1.7-3.6-3.7-4l-102.1,5h0Z"/>
      <path class="cls-17" d="M558.2,218.3l71.7,2.1s2.6-.5,2.2-2.9c-.1-1.3-1.2-2.5-2.6-2.8l-71.3,3.5Z"/>
      <path class="cls-17" d="M561,269.2l71.7,2.1s2.6-.5,2.2-2.9c-.1-1.3-1.2-2.5-2.6-2.8l-71.3,3.6h0Z"/>
      <path class="cls-17" d="M582.8,208.5l32.5,1c.7-.1,1.1-.7,1.1-1.4,0-.6-.5-1.2-1.2-1.3l-32.5,1.7Z"/>
      <g class="cls-21">
        <path class="cls-16" d="M575.9,158.8c-37.8.5-63.5,17.9-76.9,41.4l-22.7,1.6,21.7.3c-2,3.7-3.7,7.6-5.2,11.6l-55.1,3.8,53.7.6c-1.2,4-2.1,8.1-2.7,12.3l-85.2,5.9,84.5.9c-.3,4.6-.2,9.3.2,14l-125,7.5,126.1.2c.9,4.8,2.2,9.5,3.9,14.1l-89.4,6.2h0s92.4,1,92.4,1c1.8,3.7,3.9,7.3,6.2,10.7l-66.1,4.6,70.1.7c2.4,2.9,5,5.6,7.8,8.2l-39.2,2.8,43.2.5c13.9,11.1,32.7,18.2,56.2,18.8,114.8-1.9,115.7-164.3,1.5-167.7Z"/>
        <polygon class="cls-15" points="435 293.4 435.5 293.3 435 293.3 435 293.4"/>
      </g>
      <g>
        <path class="cls-10" d="M610.7,154.5c-48.7-3.9-91.3,32.4-95.2,81.1-3.9,48.7,32.4,91.3,81.1,95.2,48.7,3.9,91.3-32.4,95.2-81.1,3.9-48.7-32.4-91.3-81.1-95.2ZM599.4,297c-30-2.4-52.4-28.7-50-58.7,2.4-30,28.7-52.4,58.7-50,30,2.4,52.4,28.7,50,58.7-2.4,30-28.7,52.4-58.7,50Z"/>
        <path class="cls-2" d="M554.7,266.5l-33.7,7.5c-3.7-9.7-5.7-20.3-5.7-31.3s.2-6.3.5-9.4c7.6,0,23.3,2,34.3,19.1.9,5,2.5,9.8,4.6,14.2ZM692.1,242.6c0-3.2-.2-6.3-.5-9.4-7.6,0-23.3,2-34.3,19.1-.9,5-2.5,9.8-4.6,14.2l33.7,7.5c3.7-9.7,5.7-20.3,5.7-31.3Z"/>
      </g>
      <g>
        <path class="cls-3" d="M603.7,178.5c-35.4,0-64.2,28.7-64.2,64.2s28.7,64.2,64.2,64.2,64.2-28.7,64.2-64.2-28.7-64.2-64.2-64.2ZM603.7,297.2c-30.1,0-54.5-24.4-54.5-54.5s24.4-54.5,54.5-54.5,54.5,24.4,54.5,54.5-24.4,54.5-54.5,54.5Z"/>
        <path class="cls-4" d="M603.7,297.2c-21.3,0-39.7-12.2-48.7-30-7.6-15-22.9-24.5-39.7-24.5h0c0,48.8,39.6,88.4,88.4,88.4s88.4-39.6,88.4-88.4h0c-16.8,0-32.1,9.5-39.7,24.5-9,17.8-27.4,30-48.7,30Z"/>
        <path class="cls-1" d="M652.4,267.1c-9,17.8-27.4,30-48.7,30s-39.7-12.2-48.7-30c-3.5-7-8.7-12.8-15-17,3.7,31.9,30.8,56.6,63.7,56.6s60-24.7,63.7-56.6c-6.3,4.2-11.5,10-15,17Z"/>
        <path class="cls-9" d="M603.7,154.2c-48.8,0-88.4,39.6-88.4,88.4s39.6,88.4,88.4,88.4,88.4-39.6,88.4-88.4-39.6-88.4-88.4-88.4ZM603.7,326.5c-46.3,0-83.9-37.6-83.9-83.9s37.6-83.9,83.9-83.9,83.9,37.6,83.9,83.9-37.6,83.9-83.9,83.9Z"/>
      </g>
      <path class="cls-20" d="M398.4,243.6l148.6,1.6s4.1-.8,3.6-4.7c-.2-2.2-1.9-4-4-4.4l-148.1,7.4Z"/>
      <path class="cls-13" d="M426.9,227.6l114.3,2.3s4.1-.8,3.6-4.7c-.2-2.2-1.9-4-4-4.4l-113.8,6.8Z"/>
      <path class="cls-18" d="M429.3,258.9l114.3,2.3s4.1-.8,3.6-4.7c-.2-2.1-1.9-4-4-4.4l-113.9,6.8h0Z"/>
      <path class="cls-19" d="M418.5,215.6l116.5.2s4.2-.9,3.8-4.9c-.2-2.2-1.8-4-4-4.4l-116.3,9.1Z"/>
      <path class="cls-5" d="M453.7,271l79.8,1.6s2.9-.6,2.5-3.3c-.1-1.5-1.3-2.8-2.8-3.1l-79.5,4.8h0Z"/>
      <path class="cls-22" d="M478.6,202.9l36.2.8c.8-.2,1.3-.8,1.2-1.6,0-.7-.6-1.3-1.3-1.5l-36.2,2.3Z"/>
      <path class="cls-8" d="M433.5,248.3l140,1.4s3.9-.8,3.4-4.4c-.2-2-1.8-3.8-3.8-4.1l-139.6,7.1Z"/>
      <path class="cls-8" d="M460.4,233.1l107.7,2.1s3.9-.8,3.4-4.4c-.2-2-1.8-3.8-3.8-4.1l-107.3,6.5Z"/>
      <path class="cls-8" d="M462.7,262.6l107.7,2.1s3.9-.7,3.4-4.4c-.2-2-1.8-3.8-3.8-4.1l-107.3,6.4h0Z"/>
      <path class="cls-8" d="M452.5,221.8h109.8c0,.1,4-.7,3.5-4.5-.1-2.1-1.7-3.8-3.8-4.2l-109.6,8.6Z"/>
      <path class="cls-8" d="M509.2,209.9l34.2.7c.7-.1,1.2-.8,1.2-1.5,0-.7-.6-1.3-1.2-1.4l-34.1,2.2Z"/>
    </g>
  </g>
</svg>