<?xml version="1.0" encoding="UTF-8"?>
<svg xmlns="http://www.w3.org/2000/svg" version="1.1" xmlns:xlink="http://www.w3.org/1999/xlink" viewBox="0 0 1276.8 695.2">
  <defs>
    <style>
      .cls-1 {
        fill: #002894;
        opacity: .3;
      }

      .cls-1, .cls-2, .cls-3 {
        mix-blend-mode: multiply;
      }

      .cls-4 {
        fill: url(#Degradado_sin_nombre_75-14);
      }

      .cls-5 {
        fill: url(#Degradado_sin_nombre_75-33);
      }

      .cls-6 {
        fill: url(#Degradado_sin_nombre_32-2);
      }

      .cls-7 {
        fill: url(#Degradado_sin_nombre_75-28);
      }

      .cls-8 {
        fill: url(#Degradado_sin_nombre_75-12);
      }

      .cls-9 {
        fill: url(#Degradado_sin_nombre_75-27);
      }

      .cls-10 {
        fill: url(#Degradado_sin_nombre_19);
      }

      .cls-11 {
        fill: url(#Degradado_sin_nombre_75-29);
      }

      .cls-12 {
        fill: url(#Degradado_sin_nombre_75-25);
      }

      .cls-13 {
        fill: url(#Degradado_sin_nombre_75-4);
      }

      .cls-14 {
        fill: url(#Degradado_sin_nombre_75-17);
      }

      .cls-15 {
        fill: url(#Degradado_sin_nombre_75-16);
      }

      .cls-16 {
        fill: url(#Degradado_sin_nombre_75-24);
      }

      .cls-17 {
        fill: url(#Degradado_sin_nombre_75-8);
      }

      .cls-18 {
        fill: url(#Degradado_sin_nombre_19-2);
      }

      .cls-19 {
        fill: #fff;
        mix-blend-mode: overlay;
        opacity: .6;
      }

      .cls-20 {
        fill: url(#Degradado_sin_nombre_75-7);
      }

      .cls-21 {
        fill: url(#Degradado_sin_nombre_75-26);
      }

      .cls-22 {
        fill: url(#Degradado_sin_nombre_75-30);
      }

      .cls-23 {
        isolation: isolate;
      }

      .cls-24 {
        fill: url(#Degradado_sin_nombre_75-3);
      }

      .cls-25 {
        fill: url(#Degradado_sin_nombre_32);
      }

      .cls-2 {
        fill: #3b00a0;
        opacity: .2;
      }

      .cls-26 {
        fill: url(#Degradado_sin_nombre_75-20);
      }

      .cls-27 {
        fill: url(#Degradado_sin_nombre_75-11);
      }

      .cls-28 {
        fill: url(#Degradado_sin_nombre_75-22);
      }

      .cls-29 {
        fill: url(#Degradado_sin_nombre_75-19);
      }

      .cls-30 {
        fill: url(#Degradado_sin_nombre_75);
      }

      .cls-31 {
        fill: url(#Degradado_sin_nombre_32-4);
      }

      .cls-32 {
        fill: url(#Degradado_sin_nombre_75-21);
      }

      .cls-33 {
        fill: url(#Degradado_sin_nombre_75-9);
      }

      .cls-34 {
        fill: url(#Degradado_sin_nombre_75-13);
      }

      .cls-35 {
        fill: url(#Degradado_sin_nombre_75-18);
      }

      .cls-3 {
        fill: #ffa255;
        opacity: .8;
      }

      .cls-36 {
        fill: url(#Degradado_sin_nombre_75-23);
      }

      .cls-37 {
        fill: url(#Degradado_sin_nombre_75-10);
      }

      .cls-38 {
        fill: url(#Degradado_sin_nombre_75-34);
      }

      .cls-39 {
        fill: url(#Degradado_sin_nombre_75-6);
      }

      .cls-40 {
        fill: url(#Degradado_sin_nombre_75-31);
      }

      .cls-41 {
        fill: url(#Degradado_sin_nombre_75-35);
      }

      .cls-42 {
        fill: url(#Degradado_sin_nombre_75-32);
      }

      .cls-43 {
        fill: url(#Degradado_sin_nombre_75-2);
      }

      .cls-44 {
        fill: url(#Degradado_sin_nombre_75-5);
      }

      .cls-45 {
        fill: url(#Degradado_sin_nombre_32-3);
      }

      .cls-46 {
        fill: url(#Degradado_sin_nombre_75-15);
      }
    </style>
    <linearGradient id="Degradado_sin_nombre_75" data-name="Degradado sin nombre 75" x1="-1260.2" y1="-196" x2="-1167.5" y2="-196" gradientTransform="translate(1627.8 381.2) rotate(1.5) scale(1.1) skewX(3.1)" gradientUnits="userSpaceOnUse">
      <stop offset="0" stop-color="#3b00a0"/>
      <stop offset=".2" stop-color="#3e01a2"/>
      <stop offset=".3" stop-color="#4907a8"/>
      <stop offset=".5" stop-color="#5b11b4"/>
      <stop offset=".6" stop-color="#751fc3"/>
      <stop offset=".8" stop-color="#9631d8"/>
      <stop offset=".9" stop-color="#be47f0"/>
      <stop offset="1" stop-color="#d554ff"/>
    </linearGradient>
    <linearGradient id="Degradado_sin_nombre_75-2" data-name="Degradado sin nombre 75" x1="-1242.8" y1="-205.3" x2="-1171" y2="-205.3" xlink:href="#Degradado_sin_nombre_75"/>
    <linearGradient id="Degradado_sin_nombre_75-3" data-name="Degradado sin nombre 75" x1="-1241.4" y1="-186.3" x2="-1169.5" y2="-186.3" xlink:href="#Degradado_sin_nombre_75"/>
    <linearGradient id="Degradado_sin_nombre_75-4" data-name="Degradado sin nombre 75" x1="-1247.9" y1="-214" x2="-1174.6" y2="-214" xlink:href="#Degradado_sin_nombre_75"/>
    <linearGradient id="Degradado_sin_nombre_75-5" data-name="Degradado sin nombre 75" x1="-1226.5" y1="-178.5" x2="-1176.3" y2="-178.5" xlink:href="#Degradado_sin_nombre_75"/>
    <linearGradient id="Degradado_sin_nombre_75-6" data-name="Degradado sin nombre 75" x1="-1211.3" y1="-219.4" x2="-1188.4" y2="-219.4" xlink:href="#Degradado_sin_nombre_75"/>
    <linearGradient id="Degradado_sin_nombre_75-7" data-name="Degradado sin nombre 75" x1="-1208.6" y1="-172.6" x2="-1185.7" y2="-172.6" xlink:href="#Degradado_sin_nombre_75"/>
    <linearGradient id="Degradado_sin_nombre_32" data-name="Degradado sin nombre 32" x1="-958.8" y1="1500.1" x2="-822.5" y2="1500.1" gradientTransform="translate(-468 -645.9) rotate(-80.4)" gradientUnits="userSpaceOnUse">
      <stop offset="0" stop-color="#00eced"/>
      <stop offset=".1" stop-color="#05dae9"/>
      <stop offset=".4" stop-color="#13aede"/>
      <stop offset=".7" stop-color="#2967ce"/>
      <stop offset="1" stop-color="#3c2dc1"/>
    </linearGradient>
    <linearGradient id="Degradado_sin_nombre_75-8" data-name="Degradado sin nombre 75" x1="-1147.8" y1="36.3" x2="-1055.1" y2="36.3" gradientTransform="translate(2903.2 169.5) rotate(3.7) scale(2 1.9) skewX(7.4)" xlink:href="#Degradado_sin_nombre_75"/>
    <linearGradient id="Degradado_sin_nombre_75-9" data-name="Degradado sin nombre 75" x1="-1130.5" y1="26.9" x2="-1058.6" y2="26.9" gradientTransform="translate(2903.2 169.5) rotate(3.7) scale(2 1.9) skewX(7.4)" xlink:href="#Degradado_sin_nombre_75"/>
    <linearGradient id="Degradado_sin_nombre_75-10" data-name="Degradado sin nombre 75" x1="-1129" y1="46" x2="-1057.2" y2="46" gradientTransform="translate(2903.2 169.5) rotate(3.7) scale(2 1.9) skewX(7.4)" xlink:href="#Degradado_sin_nombre_75"/>
    <linearGradient id="Degradado_sin_nombre_75-11" data-name="Degradado sin nombre 75" x1="-1135.6" y1="18.2" x2="-1062.2" y2="18.2" gradientTransform="translate(2903.2 169.5) rotate(3.7) scale(2 1.9) skewX(7.4)" xlink:href="#Degradado_sin_nombre_75"/>
    <linearGradient id="Degradado_sin_nombre_75-12" data-name="Degradado sin nombre 75" x1="-1114.2" y1="53.8" x2="-1064" y2="53.8" gradientTransform="translate(2903.2 169.5) rotate(3.7) scale(2 1.9) skewX(7.4)" xlink:href="#Degradado_sin_nombre_75"/>
    <linearGradient id="Degradado_sin_nombre_75-13" data-name="Degradado sin nombre 75" x1="-1098.9" y1="12.8" x2="-1076.1" y2="12.8" gradientTransform="translate(2903.2 169.5) rotate(3.7) scale(2 1.9) skewX(7.4)" xlink:href="#Degradado_sin_nombre_75"/>
    <linearGradient id="Degradado_sin_nombre_75-14" data-name="Degradado sin nombre 75" x1="-1096.2" y1="59.7" x2="-1073.3" y2="59.7" gradientTransform="translate(2903.2 169.5) rotate(3.7) scale(2 1.9) skewX(7.4)" xlink:href="#Degradado_sin_nombre_75"/>
    <linearGradient id="Degradado_sin_nombre_32-2" data-name="Degradado sin nombre 32" x1="-616.2" y1="1413.2" x2="-435.4" y2="1413.2" xlink:href="#Degradado_sin_nombre_32"/>
    <linearGradient id="Degradado_sin_nombre_75-15" data-name="Degradado sin nombre 75" x1="-830.8" y1="114.2" x2="-738.1" y2="114.2" xlink:href="#Degradado_sin_nombre_75"/>
    <linearGradient id="Degradado_sin_nombre_75-16" data-name="Degradado sin nombre 75" x1="-813.4" y1="104.8" x2="-741.6" y2="104.8" xlink:href="#Degradado_sin_nombre_75"/>
    <linearGradient id="Degradado_sin_nombre_75-17" data-name="Degradado sin nombre 75" x1="-812" y1="123.9" x2="-740.1" y2="123.9" xlink:href="#Degradado_sin_nombre_75"/>
    <linearGradient id="Degradado_sin_nombre_75-18" data-name="Degradado sin nombre 75" x1="-818.5" y1="96.2" x2="-745.2" y2="96.2" xlink:href="#Degradado_sin_nombre_75"/>
    <linearGradient id="Degradado_sin_nombre_75-19" data-name="Degradado sin nombre 75" x1="-797.1" y1="131.7" x2="-747" y2="131.7" xlink:href="#Degradado_sin_nombre_75"/>
    <linearGradient id="Degradado_sin_nombre_75-20" data-name="Degradado sin nombre 75" x1="-781.9" y1="90.7" x2="-759.1" y2="90.7" xlink:href="#Degradado_sin_nombre_75"/>
    <linearGradient id="Degradado_sin_nombre_75-21" data-name="Degradado sin nombre 75" x1="-779.2" y1="137.6" x2="-756.3" y2="137.6" xlink:href="#Degradado_sin_nombre_75"/>
    <linearGradient id="Degradado_sin_nombre_75-22" data-name="Degradado sin nombre 75" x1="-1287.5" y1="230.5" x2="-1117.5" y2="230.5" xlink:href="#Degradado_sin_nombre_75"/>
    <linearGradient id="Degradado_sin_nombre_75-23" data-name="Degradado sin nombre 75" x1="-1255.7" y1="213.4" x2="-1124" y2="213.4" xlink:href="#Degradado_sin_nombre_75"/>
    <linearGradient id="Degradado_sin_nombre_75-24" data-name="Degradado sin nombre 75" x1="-1253" y1="248.3" x2="-1121.3" y2="248.3" xlink:href="#Degradado_sin_nombre_75"/>
    <linearGradient id="Degradado_sin_nombre_75-25" data-name="Degradado sin nombre 75" x1="-1265" y1="197.5" x2="-1130.6" y2="197.5" xlink:href="#Degradado_sin_nombre_75"/>
    <linearGradient id="Degradado_sin_nombre_75-26" data-name="Degradado sin nombre 75" x1="-1225.8" y1="262.6" x2="-1133.8" y2="262.6" xlink:href="#Degradado_sin_nombre_75"/>
    <linearGradient id="Degradado_sin_nombre_75-27" data-name="Degradado sin nombre 75" x1="-1197.8" y1="187.5" x2="-1156" y2="187.5" xlink:href="#Degradado_sin_nombre_75"/>
    <linearGradient id="Degradado_sin_nombre_75-28" data-name="Degradado sin nombre 75" x1="-1192.8" y1="273.5" x2="-1151" y2="273.5" xlink:href="#Degradado_sin_nombre_75"/>
    <linearGradient id="Degradado_sin_nombre_75-29" data-name="Degradado sin nombre 75" x1="-1612.8" y1="536.2" x2="-1520" y2="536.2" gradientTransform="translate(10794.6 -3353) rotate(-1) scale(6.5 6.6) skewX(-2)" xlink:href="#Degradado_sin_nombre_75"/>
    <linearGradient id="Degradado_sin_nombre_75-30" data-name="Degradado sin nombre 75" x1="-1595.4" y1="526.8" x2="-1523.6" y2="526.8" gradientTransform="translate(10794.6 -3353) rotate(-1) scale(6.5 6.6) skewX(-2)" xlink:href="#Degradado_sin_nombre_75"/>
    <linearGradient id="Degradado_sin_nombre_75-31" data-name="Degradado sin nombre 75" x1="-1594" y1="545.9" x2="-1522.1" y2="545.9" gradientTransform="translate(10794.6 -3353) rotate(-1) scale(6.5 6.6) skewX(-2)" xlink:href="#Degradado_sin_nombre_75"/>
    <linearGradient id="Degradado_sin_nombre_75-32" data-name="Degradado sin nombre 75" x1="-1600.5" y1="518.2" x2="-1527.2" y2="518.2" gradientTransform="translate(10794.6 -3353) rotate(-1) scale(6.5 6.6) skewX(-2)" xlink:href="#Degradado_sin_nombre_75"/>
    <linearGradient id="Degradado_sin_nombre_75-33" data-name="Degradado sin nombre 75" x1="-1579.1" y1="553.7" x2="-1528.9" y2="553.7" gradientTransform="translate(10794.6 -3353) rotate(-1) scale(6.5 6.6) skewX(-2)" xlink:href="#Degradado_sin_nombre_75"/>
    <linearGradient id="Degradado_sin_nombre_75-34" data-name="Degradado sin nombre 75" x1="-1563.8" y1="512.7" x2="-1541" y2="512.7" gradientTransform="translate(10794.6 -3353) rotate(-1) scale(6.5 6.6) skewX(-2)" xlink:href="#Degradado_sin_nombre_75"/>
    <linearGradient id="Degradado_sin_nombre_75-35" data-name="Degradado sin nombre 75" x1="-1561.1" y1="559.6" x2="-1538.3" y2="559.6" gradientTransform="translate(10794.6 -3353) rotate(-1) scale(6.5 6.6) skewX(-2)" xlink:href="#Degradado_sin_nombre_75"/>
    <linearGradient id="Degradado_sin_nombre_19" data-name="Degradado sin nombre 19" x1="213" y1="787.7" x2="384.6" y2="787.7" gradientTransform="translate(163.9 -220.5) rotate(4.6)" gradientUnits="userSpaceOnUse">
      <stop offset="0" stop-color="#ffef26"/>
      <stop offset="0" stop-color="#fee921"/>
      <stop offset=".1" stop-color="#fdd70e"/>
      <stop offset=".2" stop-color="#fdcb03"/>
      <stop offset=".3" stop-color="#fdc800"/>
      <stop offset=".7" stop-color="#f18f34"/>
      <stop offset=".9" stop-color="#e95f32"/>
      <stop offset="1" stop-color="#e3312d"/>
    </linearGradient>
    <linearGradient id="Degradado_sin_nombre_32-3" data-name="Degradado sin nombre 32" x1="313.5" y1="631.3" x2="485" y2="631.3" gradientTransform="matrix(1,0,0,1,0,0)" xlink:href="#Degradado_sin_nombre_32"/>
    <linearGradient id="Degradado_sin_nombre_19-2" data-name="Degradado sin nombre 19" x1="183" y1="338.8" x2="265.7" y2="338.8" xlink:href="#Degradado_sin_nombre_19"/>
    <linearGradient id="Degradado_sin_nombre_32-4" data-name="Degradado sin nombre 32" x1="319.3" y1="155.6" x2="402" y2="155.6" gradientTransform="matrix(1,0,0,1,0,0)" xlink:href="#Degradado_sin_nombre_32"/>
  </defs>
  <!-- Generator: Adobe Illustrator 28.6.0, SVG Export Plug-In . SVG Version: 1.2.0 Build 709)  -->
  <g class="cls-23">
    <g id="Layer_1">
      <g>
        <g>
          <path d="M58.4,157.9l-1.3,4.7h-4.3l5.6-18.2h5.4l5.7,18.2h-4.4l-1.4-4.7h-5.2ZM63,154.8l-1.1-3.9c-.3-1.1-.6-2.4-.9-3.5h0c-.3,1.1-.5,2.5-.8,3.5l-1.1,3.9h4Z"/>
          <path d="M83.7,158.3c0,1.7,0,3.1.1,4.2h-3.6l-.2-1.9h0c-.5.8-1.7,2.2-4.1,2.2s-4.6-1.7-4.6-5.7v-7.8h4.1v7.1c0,1.9.6,3.1,2.1,3.1s1.8-.8,2-1.4c.1-.2.2-.5.2-.9v-7.9h4.1v9Z"/>
          <path d="M91.6,145.5v3.8h3v3h-3v4.8c0,1.6.4,2.3,1.6,2.3s.9,0,1.2-.1v3.1c-.5.2-1.5.4-2.6.4s-2.4-.5-3.1-1.1c-.8-.8-1.1-2-1.1-3.9v-5.4h-1.8v-3h1.8v-2.8l4-.9Z"/>
          <path d="M109.8,155.8c0,4.8-3.4,7-7,7s-6.8-2.5-6.8-6.8,2.8-7,7.1-7,6.7,2.8,6.7,6.8ZM100.3,155.9c0,2.3,1,4,2.7,4s2.6-1.6,2.6-4-.8-4-2.6-4-2.7,2-2.7,4Z"/>
          <path d="M112.4,153.5c0-1.6,0-3-.1-4.2h3.5l.2,1.8h0c.6-.8,1.7-2.1,4-2.1s3,.9,3.6,2.3h0c.5-.7,1.1-1.2,1.7-1.6.7-.4,1.5-.7,2.5-.7,2.5,0,4.4,1.8,4.4,5.7v7.8h-4v-7.2c0-1.9-.6-3-1.9-3s-1.6.6-1.9,1.4c-.1.3-.1.7-.1,1v7.7h-4v-7.4c0-1.7-.6-2.8-1.9-2.8s-1.7.8-1.9,1.5c-.1.3-.2.7-.2,1v7.7h-4v-9Z"/>
          <path d="M143.1,162.5l-.2-1.3h0c-.9,1.1-2.2,1.6-3.8,1.6-2.7,0-4.3-1.9-4.3-4,0-3.4,3.1-5.1,7.8-5.1v-.2c0-.7-.4-1.7-2.4-1.7-1.3,0-2.8.5-3.6,1l-.8-2.6c.9-.5,2.7-1.2,5.1-1.2,4.4,0,5.8,2.6,5.8,5.7v4.6c0,1.3,0,2.5.2,3.2h-3.7ZM142.6,156.3c-2.2,0-3.8.5-3.8,2.1s.7,1.6,1.6,1.6,1.9-.7,2.1-1.5c0-.2,0-.5,0-.7v-1.4Z"/>
          <path d="M154.2,145.5v3.8h3v3h-3v4.8c0,1.6.4,2.3,1.6,2.3s.9,0,1.2-.1v3.1c-.5.2-1.5.4-2.6.4s-2.4-.5-3.1-1.1c-.8-.8-1.1-2-1.1-3.9v-5.4h-1.8v-3h1.8v-2.8l4-.9Z"/>
          <path d="M163.8,145.6c0,1.1-.8,2.1-2.2,2.1s-2.1-.9-2.1-2.1c0-1.2.9-2.1,2.2-2.1s2.2.9,2.2,2.1ZM159.6,162.5v-13.2h4.1v13.2h-4.1Z"/>
          <path d="M165.9,160.2l4.2-5.2c.8-.9,1.3-1.5,2.1-2.3h0c0,0-5.8,0-5.8,0v-3.3h10.8v2.5s-4,5-4,5c-.7.9-1.4,1.7-2.2,2.4h0c0,0,6.3,0,6.3,0v3.3h-11.5v-2.4Z"/>
          <path d="M187.1,162.5l-.2-1.3h0c-.9,1.1-2.2,1.6-3.8,1.6-2.7,0-4.3-1.9-4.3-4,0-3.4,3.1-5.1,7.8-5.1v-.2c0-.7-.4-1.7-2.4-1.7-1.3,0-2.8.5-3.6,1l-.8-2.6c.9-.5,2.7-1.2,5.1-1.2,4.4,0,5.8,2.6,5.8,5.7v4.6c0,1.3,0,2.5.2,3.2h-3.7ZM186.6,156.3c-2.2,0-3.8.5-3.8,2.1s.7,1.6,1.6,1.6,1.9-.7,2.1-1.5c0-.2,0-.5,0-.7v-1.4Z"/>
          <path d="M203.8,162.2c-.7.3-2.1.6-3.7.6-4.3,0-7-2.6-7-6.8s2.6-7,7.6-7,2.3.2,3.1.5l-.6,3.1c-.5-.2-1.2-.4-2.3-.4-2.2,0-3.6,1.5-3.5,3.7,0,2.4,1.6,3.7,3.6,3.7s1.7-.2,2.4-.4l.5,3Z"/>
          <path d="M210.3,145.6c0,1.1-.8,2.1-2.2,2.1s-2.1-.9-2.1-2.1c0-1.2.9-2.1,2.2-2.1s2.2.9,2.2,2.1ZM206.1,162.5v-13.2h4.1v13.2h-4.1Z"/>
          <path d="M226.5,155.8c0,4.8-3.4,7-7,7s-6.8-2.5-6.8-6.8,2.8-7,7.1-7,6.7,2.8,6.7,6.8ZM216.9,155.9c0,2.3,1,4,2.7,4s2.6-1.6,2.6-4-.8-4-2.6-4-2.7,2-2.7,4ZM223.9,143.6l-3.3,4.1h-2.8l2.3-4.1h3.8Z"/>
          <path d="M229,153.5c0-1.6,0-3-.1-4.2h3.6l.2,1.8h0c.5-.9,1.9-2.1,4.1-2.1s4.7,1.8,4.7,5.7v7.8h-4.1v-7.3c0-1.7-.6-2.9-2.1-2.9s-1.8.8-2.1,1.6c-.1.3-.1.6-.1,1v7.6h-4.1v-9Z"/>
          <path d="M69.9,181.6c0,1.1-.8,2.1-2.2,2.1s-2.1-.9-2.1-2.1c0-1.2.9-2.1,2.2-2.1s2.2.9,2.2,2.1ZM65.7,198.5v-13.2h4.1v13.2h-4.1Z"/>
          <path d="M73.1,189.5c0-1.6,0-3-.1-4.2h3.6l.2,1.8h0c.5-.9,1.9-2.1,4.1-2.1s4.7,1.8,4.7,5.7v7.8h-4.1v-7.3c0-1.7-.6-2.9-2.1-2.9s-1.8.8-2.1,1.6c-.1.3-.1.6-.1,1v7.6h-4.1v-9Z"/>
          <path d="M93.3,181.5v3.8h3v3h-3v4.8c0,1.6.4,2.3,1.6,2.3s.9,0,1.2-.1v3.1c-.5.2-1.5.4-2.6.4s-2.4-.5-3.1-1.1c-.8-.8-1.1-2-1.1-3.9v-5.4h-1.8v-3h1.8v-2.8l4-.9Z"/>
          <path d="M101.7,193.2c.1,1.7,1.8,2.5,3.7,2.5s2.5-.2,3.6-.6l.6,2.8c-1.4.6-3,.8-4.8.8-4.5,0-7-2.6-7-6.7s2.1-7.1,6.7-7.1,5.9,3.3,5.9,6.6,0,1.3-.1,1.6h-8.5ZM106.5,190.4c0-1-.4-2.7-2.3-2.7s-2.4,1.6-2.6,2.7h4.9Z"/>
          <path d="M112.8,179.4h4.1v19.2h-4.1v-19.2Z"/>
          <path d="M124.4,181.6c0,1.1-.8,2.1-2.2,2.1s-2.1-.9-2.1-2.1c0-1.2.9-2.1,2.2-2.1s2.2.9,2.2,2.1ZM120.2,198.5v-13.2h4.1v13.2h-4.1Z"/>
          <path d="M140.2,185.3c0,.9-.1,2-.1,3.9v7.4c0,2.5-.5,4.6-2,5.9-1.4,1.3-3.4,1.6-5.4,1.6s-3.6-.4-4.8-1l.8-3.1c.8.5,2.3,1,3.8,1s3.4-1,3.4-3.5v-.8h0c-.8,1.1-2,1.7-3.6,1.7-3.3,0-5.6-2.6-5.6-6.4s2.7-7,6-7,2.9.8,3.6,1.9h0v-1.6h3.7ZM136,190.7c0-.3,0-.5,0-.8-.3-1.1-1.1-1.8-2.2-1.8s-2.7,1.4-2.7,3.8,1,3.5,2.7,3.5,1.9-.7,2.2-1.7c0-.3.1-.7.1-1.1v-1.9Z"/>
          <path d="M146.6,193.2c.1,1.7,1.8,2.5,3.7,2.5s2.5-.2,3.6-.6l.6,2.8c-1.4.6-3,.8-4.8.8-4.5,0-7-2.6-7-6.7s2.1-7.1,6.7-7.1,5.9,3.3,5.9,6.6,0,1.3-.1,1.6h-8.5ZM151.4,190.4c0-1-.4-2.7-2.3-2.7s-2.4,1.6-2.6,2.7h4.9Z"/>
          <path d="M157.7,189.5c0-1.6,0-3-.1-4.2h3.6l.2,1.8h0c.5-.9,1.9-2.1,4.1-2.1s4.7,1.8,4.7,5.7v7.8h-4.1v-7.3c0-1.7-.6-2.9-2.1-2.9s-1.8.8-2.1,1.6c-.1.3-.1.6-.1,1v7.6h-4.1v-9Z"/>
          <path d="M177.9,181.5v3.8h3v3h-3v4.8c0,1.6.4,2.3,1.6,2.3s.9,0,1.2-.1v3.1c-.5.2-1.5.4-2.6.4s-2.4-.5-3.1-1.1c-.8-.8-1.1-2-1.1-3.9v-5.4h-1.8v-3h1.8v-2.8l4-.9Z"/>
          <path d="M186.3,193.2c.1,1.7,1.8,2.5,3.7,2.5s2.5-.2,3.6-.6l.6,2.8c-1.4.6-3,.8-4.8.8-4.5,0-7-2.6-7-6.7s2.1-7.1,6.7-7.1,5.9,3.3,5.9,6.6,0,1.3-.1,1.6h-8.5ZM191.1,190.4c0-1-.4-2.7-2.3-2.7s-2.4,1.6-2.6,2.7h4.9Z"/>
          <path d="M215.6,179.4v15.2c0,1.5,0,3.1.1,3.9h-3.7l-.2-1.9h0c-.8,1.5-2.4,2.2-4.1,2.2-3.1,0-5.6-2.7-5.6-6.8,0-4.4,2.8-7,5.9-7s2.9.6,3.5,1.5h0v-7.1h4.1ZM211.5,190.9c0-.2,0-.5,0-.7-.2-1.1-1.1-2-2.4-2-1.9,0-2.8,1.7-2.8,3.8s1.1,3.6,2.8,3.6,2.1-.8,2.4-2c0-.3,0-.6,0-.9v-1.7Z"/>
          <path d="M222.1,193.2c.1,1.7,1.8,2.5,3.7,2.5s2.5-.2,3.6-.6l.6,2.8c-1.4.6-3,.8-4.8.8-4.5,0-7-2.6-7-6.7s2.1-7.1,6.7-7.1,5.9,3.3,5.9,6.6,0,1.3-.1,1.6h-8.5ZM226.9,190.4c0-1-.4-2.7-2.3-2.7s-2.4,1.6-2.6,2.7h4.9Z"/>
          <path d="M45.9,217.5v3.8h3v3h-3v4.8c0,1.6.4,2.3,1.6,2.3s.9,0,1.2-.1v3.1c-.5.2-1.5.4-2.6.4s-2.4-.5-3.1-1.1c-.8-.8-1.1-2-1.1-3.9v-5.4h-1.8v-3h1.8v-2.8l4-.9Z"/>
          <path d="M58.8,234.5l-.2-1.3h0c-.9,1.1-2.2,1.6-3.8,1.6-2.7,0-4.3-1.9-4.3-4,0-3.4,3.1-5.1,7.8-5.1v-.2c0-.7-.4-1.7-2.4-1.7-1.3,0-2.8.5-3.6,1l-.8-2.6c.9-.5,2.7-1.2,5.1-1.2,4.4,0,5.8,2.6,5.8,5.7v4.6c0,1.3,0,2.5.2,3.2h-3.7ZM58.3,228.3c-2.2,0-3.8.5-3.8,2.1s.7,1.6,1.6,1.6,1.9-.7,2.1-1.5c0-.2,0-.5,0-.7v-1.4Z"/>
          <path d="M65.5,225.7c0-1.9,0-3.2-.1-4.4h3.5v2.4h.3c.7-1.9,2.3-2.7,3.6-2.7s.6,0,.9,0v3.9c-.3,0-.6-.1-1.1-.1-1.5,0-2.5.8-2.8,2.1,0,.3,0,.6,0,.9v6.7h-4.1v-8.9Z"/>
          <path d="M78.7,229.2c.1,1.7,1.8,2.5,3.7,2.5s2.5-.2,3.6-.6l.6,2.8c-1.4.6-3,.8-4.8.8-4.5,0-7-2.6-7-6.7s2.1-7.1,6.7-7.1,5.9,3.3,5.9,6.6,0,1.3-.1,1.6h-8.5ZM83.6,226.4c0-1-.4-2.7-2.3-2.7s-2.4,1.6-2.6,2.7h4.9Z"/>
          <path d="M97.3,234.5l-.2-1.3h0c-.9,1.1-2.2,1.6-3.8,1.6-2.7,0-4.3-1.9-4.3-4,0-3.4,3.1-5.1,7.8-5.1v-.2c0-.7-.4-1.7-2.4-1.7-1.3,0-2.8.5-3.6,1l-.8-2.6c.9-.5,2.7-1.2,5.1-1.2,4.4,0,5.8,2.6,5.8,5.7v4.6c0,1.3,0,2.5.2,3.2h-3.7ZM96.8,228.3c-2.2,0-3.8.5-3.8,2.1s.7,1.6,1.6,1.6,1.9-.7,2.1-1.5c0-.2,0-.5,0-.7v-1.4Z"/>
          <path d="M104.1,230.9c.7.5,2.3,1,3.5,1s1.8-.4,1.8-1.1-.4-1-1.9-1.5c-2.7-.9-3.8-2.4-3.8-3.9,0-2.5,2.1-4.3,5.4-4.3s2.9.4,3.7.8l-.7,2.8c-.6-.3-1.7-.7-2.9-.7s-1.6.4-1.6,1.1.5,1,2.1,1.5c2.5.9,3.6,2.1,3.6,4.1,0,2.5-1.9,4.3-5.7,4.3s-3.3-.4-4.3-.9l.7-2.9Z"/>
          <path d="M121.3,225.7c0-1.9,0-3.2-.1-4.4h3.5v2.4h.3c.7-1.9,2.3-2.7,3.6-2.7s.6,0,.9,0v3.9c-.3,0-.6-.1-1.1-.1-1.5,0-2.5.8-2.8,2.1,0,.3,0,.6,0,.9v6.7h-4.1v-8.9Z"/>
          <path d="M134.5,229.2c.1,1.7,1.8,2.5,3.7,2.5s2.5-.2,3.6-.6l.6,2.8c-1.4.6-3,.8-4.8.8-4.5,0-7-2.6-7-6.7s2.1-7.1,6.7-7.1,5.9,3.3,5.9,6.6,0,1.3-.1,1.6h-8.5ZM139.3,226.4c0-1-.4-2.7-2.3-2.7s-2.4,1.6-2.6,2.7h4.9Z"/>
          <path d="M145.6,225.8c0-1.7,0-3.2-.1-4.4h3.6l.2,1.8h0c1-1.4,2.5-2.1,4.4-2.1,2.9,0,5.5,2.5,5.5,6.7s-3.1,7.1-6,7.1-2.8-.6-3.4-1.5h0v6.6h-4.1v-14.1ZM149.7,228.9c0,.3,0,.6,0,.9.3,1.1,1.2,1.9,2.4,1.9,1.8,0,2.8-1.5,2.8-3.7s-.9-3.7-2.8-3.7-2.2.9-2.5,2.1c0,.2,0,.5,0,.7v1.8Z"/>
          <path d="M164.9,229.2c.1,1.7,1.8,2.5,3.7,2.5s2.5-.2,3.6-.6l.6,2.8c-1.4.6-3,.8-4.8.8-4.5,0-7-2.6-7-6.7s2.1-7.1,6.7-7.1,5.9,3.3,5.9,6.6,0,1.3-.1,1.6h-8.5ZM169.8,226.4c0-1-.4-2.7-2.3-2.7s-2.4,1.6-2.6,2.7h4.9Z"/>
          <path d="M180.6,217.5v3.8h3v3h-3v4.8c0,1.6.4,2.3,1.6,2.3s.9,0,1.2-.1v3.1c-.5.2-1.5.4-2.6.4s-2.4-.5-3.1-1.1c-.8-.8-1.1-2-1.1-3.9v-5.4h-1.8v-3h1.8v-2.8l4-.9Z"/>
          <path d="M190.2,217.6c0,1.1-.8,2.1-2.2,2.1s-2.1-.9-2.1-2.1c0-1.2.9-2.1,2.2-2.1s2.2.9,2.2,2.1ZM185.9,234.5v-13.2h4.1v13.2h-4.1Z"/>
          <path d="M197.9,217.5v3.8h3v3h-3v4.8c0,1.6.4,2.3,1.6,2.3s.9,0,1.2-.1v3.1c-.5.2-1.5.4-2.6.4s-2.4-.5-3.1-1.1c-.8-.8-1.1-2-1.1-3.9v-5.4h-1.8v-3h1.8v-2.8l4-.9Z"/>
          <path d="M207.5,217.6c0,1.1-.8,2.1-2.2,2.1s-2.1-.9-2.1-2.1c0-1.2.9-2.1,2.2-2.1s2.2.9,2.2,2.1ZM203.2,234.5v-13.2h4.1v13.2h-4.1Z"/>
          <path d="M213.7,221.3l1.8,6.1c.3,1.1.6,2.2.8,3.2h0c.2-1.1.4-2.1.7-3.2l1.7-6.1h4.3l-4.9,13.2h-4.1l-4.8-13.2h4.5Z"/>
          <path d="M232.3,234.5l-.2-1.3h0c-.9,1.1-2.2,1.6-3.8,1.6-2.7,0-4.3-1.9-4.3-4,0-3.4,3.1-5.1,7.8-5.1v-.2c0-.7-.4-1.7-2.4-1.7-1.3,0-2.8.5-3.6,1l-.8-2.6c.9-.5,2.7-1.2,5.1-1.2,4.4,0,5.8,2.6,5.8,5.7v4.6c0,1.3,0,2.5.2,3.2h-3.7ZM231.8,228.3c-2.2,0-3.8.5-3.8,2.1s.7,1.6,1.6,1.6,1.9-.7,2.1-1.5c0-.2,0-.5,0-.7v-1.4Z"/>
          <path d="M239,230.9c.7.5,2.3,1,3.5,1s1.8-.4,1.8-1.1-.4-1-1.9-1.5c-2.7-.9-3.8-2.4-3.8-3.9,0-2.5,2.1-4.3,5.4-4.3s2.9.4,3.7.8l-.7,2.8c-.6-.3-1.7-.7-2.9-.7s-1.6.4-1.6,1.1.5,1,2.1,1.5c2.5.9,3.6,2.1,3.6,4.1,0,2.5-1.9,4.3-5.7,4.3s-3.3-.4-4.3-.9l.7-2.9Z"/>
          <path d="M248.9,237.7c.9-2.4,1.6-5.2,2-7.7l4.2-.3c-.9,2.7-2.1,5.6-3.4,7.7l-2.7.2Z"/>
          <path d="M52,251.4h2.4v19.2h-2.4v-19.2Z"/>
          <path d="M61,253.8c0,.8-.6,1.5-1.5,1.5s-1.4-.7-1.4-1.5c0-.8.6-1.5,1.5-1.5s1.5.6,1.5,1.5ZM58.3,270.5v-13.1h2.4v13.1h-2.4Z"/>
          <path d="M64.5,270.5c0-.9.1-2.2.1-3.4v-15.8h2.4v8.2h0c.8-1.5,2.3-2.4,4.5-2.4,3.2,0,5.5,2.7,5.5,6.6,0,4.7-3,7-5.9,7s-3.4-.7-4.4-2.4h0v2.1h-2.2ZM67,265.3c0,.3,0,.6,0,.9.4,1.6,1.8,2.8,3.6,2.8,2.5,0,4-2,4-5s-1.4-4.9-3.9-4.9-3.1,1.1-3.6,2.9c0,.3-.1.6-.1,1v2.3Z"/>
          <path d="M81.4,264.4c0,3.2,2.1,4.5,4.5,4.5s2.7-.3,3.6-.7l.4,1.7c-.8.4-2.3.8-4.4.8-4,0-6.4-2.7-6.4-6.6s2.3-7,6.1-7,5.4,3.7,5.4,6.1,0,.9,0,1.1h-9.2ZM88.3,262.7c0-1.5-.6-3.8-3.3-3.8s-3.5,2.2-3.6,3.8h6.9Z"/>
          <path d="M93.6,261.5c0-1.5,0-2.9-.1-4.1h2.1v2.6h.2c.6-1.8,2-2.9,3.6-2.9s.4,0,.7,0v2.2c-.2,0-.5,0-.8,0-1.7,0-2.9,1.3-3.2,3,0,.3,0,.7,0,1.1v7h-2.4v-9Z"/>
          <path d="M109.5,270.5l-.2-1.6h0c-.7,1-2.1,1.9-4,1.9s-4-1.9-4-3.7c0-3.2,2.8-4.9,7.8-4.9v-.3c0-1.1-.3-3-3-3-1.2,0-2.5.4-3.4,1l-.5-1.6c1.1-.7,2.7-1.1,4.3-1.1,4,0,5,2.7,5,5.3v4.9c0,1.1,0,2.2.2,3.1h-2.1ZM109.1,263.9c-2.6,0-5.5.4-5.5,2.9s1,2.3,2.2,2.3c1.7,0,2.8-1.1,3.2-2.2,0-.3.1-.5.1-.7v-2.3Z"/>
          <path d="M115.3,261c0-1.4,0-2.4-.1-3.5h2.1v2.1h.2c.6-1.2,2.2-2.4,4.3-2.4s4.6,1.1,4.6,5.6v7.8h-2.4v-7.5c0-2.1-.8-3.9-3-3.9s-2.8,1.1-3.2,2.4c0,.3-.2.7-.2,1.1v7.9h-2.4v-9.5Z"/>
          <path d="M141.5,251.4v15.8c0,1.2,0,2.5.1,3.4h-2.1v-2.3h-.2c-.7,1.5-2.3,2.6-4.4,2.6-3.2,0-5.6-2.7-5.6-6.6,0-4.4,2.7-7,5.9-7s3.4.9,3.9,2h0v-7.8h2.4ZM139.2,262.8c0-.3,0-.7-.1-1-.4-1.5-1.6-2.7-3.4-2.7s-3.9,2.2-3.9,5,1.3,4.9,3.9,4.9,3-1.1,3.5-2.9c0-.3.1-.6.1-1v-2.3Z"/>
          <path d="M157.3,263.9c0,4.8-3.4,6.9-6.5,6.9s-6.3-2.6-6.3-6.7,2.9-6.9,6.5-6.9,6.3,2.7,6.3,6.7ZM147,264c0,2.9,1.6,5,4,5s4-2.1,4-5.1-1.1-5-3.9-5-4,2.6-4,5.1Z"/>
          <path d="M168.9,253.7v3.8h3.4v1.8h-3.4v7c0,1.6.5,2.5,1.8,2.5s1.1,0,1.4-.2v1.8c-.4.2-1.1.3-2,.3s-2-.4-2.6-1c-.7-.7-.9-1.9-.9-3.4v-7.1h-2v-1.8h2v-3.1l2.3-.6Z"/>
          <path d="M177.6,253.8c0,.8-.6,1.5-1.5,1.5s-1.4-.7-1.4-1.5c0-.8.6-1.5,1.5-1.5s1.5.6,1.5,1.5ZM175,270.5v-13.1h2.4v13.1h-2.4Z"/>
          <path d="M182.6,264.4c0,3.2,2.1,4.5,4.5,4.5s2.7-.3,3.6-.7l.4,1.7c-.8.4-2.3.8-4.4.8-4,0-6.4-2.7-6.4-6.6s2.3-7,6.1-7,5.4,3.7,5.4,6.1,0,.9,0,1.1h-9.2ZM189.6,262.7c0-1.5-.6-3.8-3.3-3.8s-3.5,2.2-3.6,3.8h6.9Z"/>
          <path d="M194.8,261c0-1.4,0-2.4-.1-3.5h2.1v2.1h.2c.7-1.2,1.9-2.4,4.1-2.4s3.1,1.1,3.7,2.6h0c.4-.7.9-1.3,1.5-1.7.8-.6,1.6-.9,2.9-.9,1.7,0,4.3,1.1,4.3,5.7v7.7h-2.3v-7.4c0-2.5-.9-4-2.8-4s-2.4,1-2.8,2.1c-.1.3-.2.8-.2,1.2v8.1h-2.3v-7.8c0-2.1-.9-3.6-2.7-3.6s-2.6,1.2-3,2.4c-.1.3-.2.8-.2,1.2v7.9h-2.3v-9.5Z"/>
          <path d="M217.3,261.7c0-1.7,0-3-.1-4.3h2.1v2.2h.2c.9-1.6,2.5-2.5,4.6-2.5,3.2,0,5.5,2.7,5.5,6.6s-2.9,7-5.9,7-3.2-.8-4-2.1h0v7.1h-2.4v-14.1ZM219.7,265.2c0,.3,0,.7.1,1,.4,1.7,1.9,2.8,3.5,2.8,2.5,0,4-2.1,4-5.1s-1.4-4.8-3.9-4.8-3.1,1.1-3.6,2.9c0,.3-.2.7-.2,1v2.3Z"/>
          <path d="M244.5,263.9c0,4.8-3.4,6.9-6.5,6.9s-6.3-2.6-6.3-6.7,2.9-6.9,6.5-6.9,6.3,2.7,6.3,6.7ZM234.2,264c0,2.9,1.6,5,4,5s4-2.1,4-5.1-1.1-5-3.9-5-4,2.6-4,5.1Z"/>
          <path d="M44,293.5l2.9,7.7c.3.9.6,1.9.8,2.7h0c.2-.8.5-1.8.8-2.7l2.6-7.7h2.5l-3.6,9.3c-1.7,4.5-2.9,6.8-4.5,8.2-1.2,1-2.3,1.4-2.9,1.5l-.6-2c.6-.2,1.4-.6,2.1-1.2.6-.5,1.4-1.4,2-2.6.1-.2.2-.4.2-.6s0-.3-.2-.6l-4.8-12h2.6Z"/>
          <path d="M61.6,297.5c0-1.5,0-2.9-.1-4.1h2.1v2.6h.2c.6-1.8,2-2.9,3.6-2.9s.4,0,.7,0v2.2c-.2,0-.5,0-.8,0-1.7,0-2.9,1.3-3.2,3,0,.3,0,.7,0,1.1v7h-2.4v-9Z"/>
          <path d="M71.5,300.4c0,3.2,2.1,4.5,4.5,4.5s2.7-.3,3.6-.7l.4,1.7c-.8.4-2.3.8-4.4.8-4,0-6.4-2.7-6.4-6.6s2.3-7,6.1-7,5.4,3.7,5.4,6.1,0,.9,0,1.1h-9.2ZM78.4,298.7c0-1.5-.6-3.8-3.3-3.8s-3.5,2.2-3.6,3.8h6.9Z"/>
          <path d="M93,306.1c-.6.3-2,.8-3.7.8-3.9,0-6.5-2.7-6.5-6.7s2.7-7,7-7,2.7.4,3.3.7l-.5,1.8c-.6-.3-1.5-.6-2.8-.6-3,0-4.6,2.2-4.6,4.9,0,3,1.9,4.9,4.5,4.9s2.2-.3,2.9-.6l.4,1.8Z"/>
          <path d="M106.7,303c0,1.4,0,2.5.1,3.6h-2.1v-2.1h-.2c-.6,1.1-2,2.4-4.3,2.4s-4.5-1.1-4.5-5.7v-7.6h2.4v7.2c0,2.5.8,4.2,2.9,4.2s2.7-1.1,3.1-2.2c.1-.3.2-.8.2-1.2v-8h2.4v9.5Z"/>
          <path d="M110.7,297.5c0-1.5,0-2.9-.1-4.1h2.1v2.6h.2c.6-1.8,2-2.9,3.6-2.9s.4,0,.7,0v2.2c-.2,0-.5,0-.8,0-1.7,0-2.9,1.3-3.2,3,0,.3,0,.7,0,1.1v7h-2.4v-9Z"/>
          <path d="M119.2,304.1c.7.4,2,.9,3.1.9,1.7,0,2.5-.9,2.5-1.9s-.7-1.7-2.4-2.4c-2.4-.9-3.5-2.1-3.5-3.7,0-2.1,1.7-3.8,4.5-3.8s2.5.4,3.2.8l-.6,1.7c-.5-.3-1.5-.8-2.7-.8s-2.2.8-2.2,1.8.8,1.6,2.5,2.2c2.3.8,3.4,2,3.4,3.9,0,2.3-1.8,3.9-4.9,3.9s-2.8-.4-3.7-.9l.6-1.8Z"/>
          <path d="M142,299.9c0,4.8-3.4,6.9-6.5,6.9s-6.3-2.6-6.3-6.7,2.9-6.9,6.5-6.9,6.3,2.7,6.3,6.7ZM131.7,300c0,2.9,1.6,5,4,5s4-2.1,4-5.1-1.1-5-3.9-5-4,2.6-4,5.1Z"/>
          <path d="M144.7,304.1c.7.4,2,.9,3.1.9,1.7,0,2.5-.9,2.5-1.9s-.7-1.7-2.4-2.4c-2.4-.9-3.5-2.1-3.5-3.7,0-2.1,1.7-3.8,4.5-3.8s2.5.4,3.2.8l-.6,1.7c-.5-.3-1.5-.8-2.7-.8s-2.2.8-2.2,1.8.8,1.6,2.5,2.2c2.3.8,3.4,2,3.4,3.9,0,2.3-1.8,3.9-4.9,3.9s-2.8-.4-3.7-.9l.6-1.8Z"/>
          <path d="M162.4,293.5l2.6,7.3c.4,1.2.8,2.3,1.1,3.4h0c.3-1.1.7-2.2,1.1-3.4l2.6-7.3h2.5l-5.1,13.1h-2.3l-5-13.1h2.5Z"/>
          <path d="M181.6,306.5l-.2-1.6h0c-.7,1-2.1,1.9-4,1.9s-4-1.9-4-3.7c0-3.2,2.8-4.9,7.8-4.9v-.3c0-1.1-.3-3-3-3-1.2,0-2.5.4-3.4,1l-.5-1.6c1.1-.7,2.7-1.1,4.3-1.1,4,0,5,2.7,5,5.3v4.9c0,1.1,0,2.2.2,3.1h-2.1ZM181.2,299.9c-2.6,0-5.5.4-5.5,2.9s1,2.3,2.2,2.3c1.7,0,2.8-1.1,3.2-2.2,0-.3.1-.5.1-.7v-2.3Z"/>
          <path d="M187.3,287.4h2.4v19.2h-2.4v-19.2Z"/>
          <path d="M196.4,289.8c0,.8-.6,1.5-1.5,1.5s-1.4-.7-1.4-1.5c0-.8.6-1.5,1.5-1.5s1.5.6,1.5,1.5ZM193.7,306.5v-13.1h2.4v13.1h-2.4Z"/>
          <path d="M211.8,299.9c0,4.8-3.4,6.9-6.5,6.9s-6.3-2.6-6.3-6.7,2.9-6.9,6.5-6.9,6.3,2.7,6.3,6.7ZM201.5,300c0,2.9,1.6,5,4,5s4-2.1,4-5.1-1.1-5-3.9-5-4,2.6-4,5.1Z"/>
          <path d="M214.5,304.1c.7.4,2,.9,3.1.9,1.7,0,2.5-.9,2.5-1.9s-.7-1.7-2.4-2.4c-2.4-.9-3.5-2.1-3.5-3.7,0-2.1,1.7-3.8,4.5-3.8s2.5.4,3.2.8l-.6,1.7c-.5-.3-1.5-.8-2.7-.8s-2.2.8-2.2,1.8.8,1.6,2.5,2.2c2.3.8,3.4,2,3.4,3.9,0,2.3-1.8,3.9-4.9,3.9s-2.8-.4-3.7-.9l.6-1.8Z"/>
          <path d="M237.4,299.9c0,4.8-3.4,6.9-6.5,6.9s-6.3-2.6-6.3-6.7,2.9-6.9,6.5-6.9,6.3,2.7,6.3,6.7ZM227,300c0,2.9,1.6,5,4,5s4-2.1,4-5.1-1.1-5-3.9-5-4,2.6-4,5.1Z"/>
          <path d="M240,304.1c.7.4,2,.9,3.1.9,1.7,0,2.5-.9,2.5-1.9s-.7-1.7-2.4-2.4c-2.4-.9-3.5-2.1-3.5-3.7,0-2.1,1.7-3.8,4.5-3.8s2.5.4,3.2.8l-.6,1.7c-.5-.3-1.5-.8-2.7-.8s-2.2.8-2.2,1.8.8,1.6,2.5,2.2c2.3.8,3.4,2,3.4,3.9,0,2.3-1.8,3.9-4.9,3.9s-2.8-.4-3.7-.9l.6-1.8Z"/>
          <path d="M250.2,305.1c0-1,.7-1.7,1.6-1.7s1.6.7,1.6,1.7c0,1-.6,1.7-1.6,1.7s-1.6-.7-1.6-1.7Z"/>
        </g>
        <g>
          <path d="M889.5,201.6c1.3-.2,3-.4,5.6-.4s4.3.5,5.6,1.5c1.2.9,1.9,2.4,1.9,4.2s-.6,3.3-1.7,4.3c-1.4,1.3-3.5,1.9-5.9,1.9s-1,0-1.4,0v6.5h-4.1v-18ZM893.5,209.9c.3,0,.8.1,1.4.1,2.2,0,3.5-1.1,3.5-2.9s-1.1-2.7-3.2-2.7-1.4,0-1.7.1v5.4Z"/>
          <path d="M904.8,210.7c0-1.9,0-3.2-.1-4.4h3.5l.2,2.4h.1c.7-1.9,2.3-2.7,3.6-2.7s.6,0,.9,0v3.9c-.3,0-.6-.1-1.1-.1-1.5,0-2.5.8-2.8,2.1,0,.3,0,.6,0,.9v6.7h-4.1v-8.9Z"/>
          <path d="M927.8,212.8c0,4.8-3.4,7-7,7s-6.8-2.5-6.8-6.8,2.8-7,7.1-7,6.7,2.8,6.7,6.8ZM918.3,213c0,2.3,1,4,2.7,4s2.6-1.6,2.6-4-.8-4-2.6-4-2.7,2-2.7,4Z"/>
          <path d="M943.3,200.4v15.2c0,1.5,0,3.1.1,3.9h-3.7l-.2-1.9h0c-.8,1.5-2.4,2.2-4.1,2.2-3.1,0-5.6-2.7-5.6-6.8,0-4.4,2.8-7,5.9-7s2.9.6,3.5,1.5h0v-7.1h4.1ZM939.2,212c0-.2,0-.5,0-.7-.2-1.1-1.1-2-2.4-2-1.9,0-2.8,1.7-2.8,3.8s1.1,3.6,2.8,3.6,2.1-.8,2.4-2c0-.3,0-.6,0-.9v-1.7Z"/>
          <path d="M959,215.3c0,1.7,0,3.1.1,4.2h-3.6l-.2-1.9h0c-.5.8-1.7,2.2-4.1,2.2s-4.6-1.7-4.6-5.7v-7.8h4.1v7.1c0,1.9.6,3.1,2.1,3.1s1.8-.8,2-1.4c.1-.2.2-.5.2-.9v-7.9h4.1v9Z"/>
          <path d="M972.2,219.2c-.7.3-2.1.6-3.7.6-4.3,0-7-2.6-7-6.8s2.6-7,7.6-7,2.3.2,3.1.5l-.6,3.1c-.5-.2-1.2-.4-2.3-.4-2.2,0-3.6,1.5-3.5,3.7,0,2.4,1.6,3.7,3.6,3.7s1.7-.2,2.4-.4l.5,3Z"/>
          <path d="M979.5,202.6v3.8h3v3h-3v4.8c0,1.6.4,2.3,1.6,2.3s.9,0,1.2-.1v3.1c-.5.2-1.5.4-2.6.4s-2.4-.5-3.1-1.1c-.8-.8-1.1-2-1.1-3.9v-5.4h-1.8v-3h1.8v-2.8l4-.9Z"/>
          <path d="M989,202.7c0,1.1-.8,2.1-2.2,2.1s-2.1-.9-2.1-2.1c0-1.2.9-2.1,2.2-2.1s2.2.9,2.2,2.1ZM984.8,219.6v-13.2h4.1v13.2h-4.1Z"/>
          <path d="M995.3,206.3l1.8,6.1c.3,1.1.6,2.2.8,3.2h0c.2-1.1.4-2.1.7-3.2l1.7-6.1h4.3l-4.9,13.2h-4.1l-4.8-13.2h4.5Z"/>
          <path d="M1010.8,202.7c0,1.1-.8,2.1-2.2,2.1s-2.1-.9-2.1-2.1c0-1.2.9-2.1,2.2-2.1s2.2.9,2.2,2.1ZM1006.5,219.6v-13.2h4.1v13.2h-4.1Z"/>
          <path d="M1026.7,200.4v15.2c0,1.5,0,3.1.1,3.9h-3.7l-.2-1.9h0c-.8,1.5-2.4,2.2-4.1,2.2-3.1,0-5.6-2.7-5.6-6.8,0-4.4,2.8-7,5.9-7s2.9.6,3.5,1.5h0v-7.1h4.1ZM1022.6,212c0-.2,0-.5,0-.7-.2-1.1-1.1-2-2.4-2-1.9,0-2.8,1.7-2.8,3.8s1.1,3.6,2.8,3.6,2.1-.8,2.4-2c0-.3,0-.6,0-.9v-1.7Z"/>
          <path d="M1037.5,219.6l-.2-1.3h0c-.9,1.1-2.2,1.6-3.8,1.6-2.7,0-4.3-1.9-4.3-4,0-3.4,3.1-5.1,7.8-5.1v-.2c0-.7-.4-1.7-2.4-1.7-1.3,0-2.8.5-3.6,1l-.8-2.6c.9-.5,2.7-1.2,5.1-1.2,4.4,0,5.8,2.6,5.8,5.7v4.6c0,1.3,0,2.5.2,3.2h-3.7ZM1037,213.3c-2.2,0-3.8.5-3.8,2.1s.7,1.6,1.6,1.6,1.9-.7,2.1-1.5c0-.2,0-.5,0-.7v-1.4Z"/>
          <path d="M1057.1,200.4v15.2c0,1.5,0,3.1.1,3.9h-3.7l-.2-1.9h0c-.8,1.5-2.4,2.2-4.1,2.2-3.1,0-5.6-2.7-5.6-6.8,0-4.4,2.8-7,5.9-7s2.9.6,3.5,1.5h0v-7.1h4.1ZM1053,212c0-.2,0-.5,0-.7-.2-1.1-1.1-2-2.4-2-1.9,0-2.8,1.7-2.8,3.8s1.1,3.6,2.8,3.6,2.1-.8,2.4-2c0-.3,0-.6,0-.9v-1.7Z"/>
          <path d="M1070,202.7c0,1.1-.8,2.1-2.2,2.1s-2.1-.9-2.1-2.1c0-1.2.9-2.1,2.2-2.1s2.2.9,2.2,2.1ZM1065.8,219.6v-13.2h4.1v13.2h-4.1Z"/>
          <path d="M1073.2,210.6c0-1.6,0-3-.1-4.2h3.6l.2,1.8h0c.5-.9,1.9-2.1,4.1-2.1s4.7,1.8,4.7,5.7v7.8h-4.1v-7.3c0-1.7-.6-2.9-2.1-2.9s-1.8.8-2.1,1.6c-.1.3-.1.6-.1,1v7.6h-4.1v-9Z"/>
          <path d="M1099,219.2c-.7.3-2.1.6-3.7.6-4.3,0-7-2.6-7-6.8s2.6-7,7.6-7,2.3.2,3.1.5l-.6,3.1c-.5-.2-1.2-.4-2.3-.4-2.2,0-3.6,1.5-3.5,3.7,0,2.4,1.6,3.7,3.6,3.7s1.7-.2,2.4-.4l.5,3Z"/>
          <path d="M1101.2,210.7c0-1.9,0-3.2-.1-4.4h3.5l.2,2.4h.1c.7-1.9,2.3-2.7,3.6-2.7s.6,0,.9,0v3.9c-.3,0-.6-.1-1.1-.1-1.5,0-2.5.8-2.8,2.1,0,.3,0,.6,0,.9v6.7h-4.1v-8.9Z"/>
          <path d="M1114.4,214.3c.1,1.7,1.8,2.5,3.7,2.5s2.5-.2,3.6-.6l.6,2.8c-1.4.6-3,.8-4.8.8-4.5,0-7-2.6-7-6.7s2.1-7.1,6.7-7.1,5.9,3.3,5.9,6.6,0,1.3-.1,1.6h-8.5ZM1119.2,211.5c0-1-.4-2.7-2.3-2.7s-2.4,1.6-2.6,2.7h4.9Z"/>
          <path d="M1125.5,210.6c0-1.6,0-3-.1-4.2h3.5l.2,1.8h0c.6-.8,1.7-2.1,4-2.1s3,.9,3.6,2.3h0c.5-.7,1.1-1.2,1.7-1.6.7-.4,1.5-.7,2.5-.7,2.5,0,4.4,1.8,4.4,5.7v7.8h-4v-7.2c0-1.9-.6-3-1.9-3s-1.6.6-1.9,1.4c0,.3-.1.7-.1,1v7.7h-4v-7.4c0-1.7-.6-2.8-1.9-2.8s-1.7.8-1.9,1.5c-.1.3-.2.7-.2,1v7.7h-4v-9Z"/>
          <path d="M1151.9,214.3c.1,1.7,1.8,2.5,3.7,2.5s2.5-.2,3.6-.6l.6,2.8c-1.4.6-3,.8-4.8.8-4.5,0-7-2.6-7-6.7s2.1-7.1,6.7-7.1,5.9,3.3,5.9,6.6,0,1.3-.1,1.6h-8.5ZM1156.7,211.5c0-1-.4-2.7-2.3-2.7s-2.4,1.6-2.6,2.7h4.9Z"/>
          <path d="M1163,210.6c0-1.6,0-3-.1-4.2h3.6l.2,1.8h0c.5-.9,1.9-2.1,4.1-2.1s4.7,1.8,4.7,5.7v7.8h-4.1v-7.3c0-1.7-.6-2.9-2.1-2.9s-1.8.8-2.1,1.6c-.1.3-.1.6-.1,1v7.6h-4.1v-9Z"/>
          <path d="M1183.2,202.6v3.8h3v3h-3v4.8c0,1.6.4,2.3,1.6,2.3s.9,0,1.2-.1v3.1c-.5.2-1.5.4-2.6.4s-2.4-.5-3.1-1.1c-.8-.8-1.1-2-1.1-3.9v-5.4h-1.8v-3h1.8v-2.8l4-.9Z"/>
          <path d="M1196.1,219.6l-.2-1.3h0c-.9,1.1-2.2,1.6-3.8,1.6-2.7,0-4.3-1.9-4.3-4,0-3.4,3.1-5.1,7.8-5.1v-.2c0-.7-.4-1.7-2.4-1.7-1.3,0-2.8.5-3.6,1l-.8-2.6c.9-.5,2.7-1.2,5.1-1.2,4.4,0,5.8,2.6,5.8,5.7v4.6c0,1.3,0,2.5.2,3.2h-3.7ZM1195.6,213.3c-2.2,0-3.8.5-3.8,2.1s.7,1.6,1.6,1.6,1.9-.7,2.1-1.5c0-.2,0-.5,0-.7v-1.4Z"/>
          <path d="M1215.6,200.4v15.2c0,1.5,0,3.1.1,3.9h-3.7l-.2-1.9h0c-.8,1.5-2.4,2.2-4.1,2.2-3.1,0-5.6-2.7-5.6-6.8,0-4.4,2.8-7,5.9-7s2.9.6,3.5,1.5h0v-7.1h4.1ZM1211.5,212c0-.2,0-.5,0-.7-.2-1.1-1.1-2-2.4-2-1.9,0-2.8,1.7-2.8,3.8s1.1,3.6,2.8,3.6,2.1-.8,2.4-2c0-.3,0-.6,0-.9v-1.7Z"/>
          <path d="M1226.4,219.6l-.2-1.3h0c-.9,1.1-2.2,1.6-3.8,1.6-2.7,0-4.3-1.9-4.3-4,0-3.4,3.1-5.1,7.8-5.1v-.2c0-.7-.4-1.7-2.4-1.7-1.3,0-2.8.5-3.6,1l-.8-2.6c.9-.5,2.7-1.2,5.1-1.2,4.4,0,5.8,2.6,5.8,5.7v4.6c0,1.3,0,2.5.2,3.2h-3.7ZM1225.9,213.3c-2.2,0-3.8.5-3.8,2.1s.7,1.6,1.6,1.6,1.9-.7,2.1-1.5c0-.2,0-.5,0-.7v-1.4Z"/>
          <path d="M1231.6,222.8c.9-2.4,1.6-5.2,2-7.7l4.2-.3c-.9,2.7-2.1,5.6-3.4,7.7l-2.7.2Z"/>
          <path d="M912.5,246.8c0-1.7,0-3-.1-4.3h2.1v2.2h.2c.9-1.6,2.5-2.5,4.6-2.5,3.2,0,5.5,2.7,5.5,6.6s-2.9,7-5.9,7-3.2-.8-4-2.1h0v7.1h-2.4v-14.1ZM914.8,250.2c0,.3,0,.7.1,1,.4,1.7,1.9,2.8,3.5,2.8,2.5,0,4-2.1,4-5.1s-1.4-4.8-3.9-4.8-3.1,1.1-3.6,2.9c0,.3-.2.7-.2,1v2.3Z"/>
          <path d="M929.2,249.5c0,3.2,2.1,4.5,4.5,4.5s2.7-.3,3.6-.7l.4,1.7c-.8.4-2.3.8-4.4.8-4,0-6.4-2.7-6.4-6.6s2.3-7,6.1-7,5.4,3.7,5.4,6.1,0,.9,0,1.1h-9.2ZM936.1,247.8c0-1.5-.6-3.8-3.3-3.8s-3.5,2.2-3.6,3.8h6.9Z"/>
          <path d="M941.4,246.6c0-1.5,0-2.9-.1-4.1h2.1v2.6h.2c.6-1.8,2-2.9,3.6-2.9s.4,0,.7,0v2.2c-.2,0-.5,0-.8,0-1.7,0-2.9,1.3-3.2,3,0,.3,0,.7,0,1.1v7h-2.4v-9Z"/>
          <path d="M950.3,246c0-1.4,0-2.4-.1-3.5h2.1v2.1h.2c.7-1.2,1.9-2.4,4.1-2.4s3.1,1.1,3.7,2.6h0c.4-.7.9-1.3,1.5-1.7.8-.6,1.6-.9,2.9-.9,1.7,0,4.3,1.1,4.3,5.7v7.7h-2.3v-7.4c0-2.5-.9-4-2.8-4s-2.4,1-2.8,2.1c-.1.3-.2.8-.2,1.2v8.1h-2.3v-7.8c0-2.1-.9-3.6-2.7-3.6s-2.6,1.2-3,2.4c-.1.3-.2.8-.2,1.2v7.9h-2.3v-9.5Z"/>
          <path d="M975.5,238.8c0,.8-.6,1.5-1.5,1.5s-1.4-.7-1.4-1.5c0-.8.6-1.5,1.5-1.5s1.5.6,1.5,1.5ZM972.8,255.6v-13.1h2.4v13.1h-2.4Z"/>
          <path d="M982,238.7v3.8h3.4v1.8h-3.4v7c0,1.6.5,2.5,1.8,2.5s1.1,0,1.4-.2v1.8c-.4.2-1.1.3-2,.3s-2-.4-2.6-1c-.7-.7-.9-1.9-.9-3.4v-7.1h-2v-1.8h2v-3.1l2.3-.6Z"/>
          <path d="M990.7,238.8c0,.8-.6,1.5-1.5,1.5s-1.4-.7-1.4-1.5c0-.8.6-1.5,1.5-1.5s1.5.6,1.5,1.5ZM988.1,255.6v-13.1h2.4v13.1h-2.4Z"/>
          <path d="M995.7,249.5c0,3.2,2.1,4.5,4.5,4.5s2.7-.3,3.6-.7l.4,1.7c-.8.4-2.3.8-4.4.8-4,0-6.4-2.7-6.4-6.6s2.3-7,6.1-7,5.4,3.7,5.4,6.1,0,.9,0,1.1h-9.2ZM1002.7,247.8c0-1.5-.6-3.8-3.3-3.8s-3.5,2.2-3.6,3.8h6.9Z"/>
          <path d="M1007.9,246c0-1.4,0-2.4-.1-3.5h2.1v2.1h.2c.6-1.2,2.2-2.4,4.3-2.4s4.6,1.1,4.6,5.6v7.8h-2.4v-7.5c0-2.1-.8-3.9-3-3.9s-2.8,1.1-3.2,2.4c0,.3-.2.7-.2,1.1v7.9h-2.4v-9.5Z"/>
          <path d="M1034.2,236.4v15.8c0,1.2,0,2.5.1,3.4h-2.1v-2.3h-.2c-.7,1.5-2.3,2.6-4.4,2.6-3.2,0-5.6-2.7-5.6-6.6,0-4.4,2.7-7,5.9-7s3.4.9,3.9,2h0v-7.8h2.4ZM1031.8,247.8c0-.3,0-.7,0-1-.4-1.5-1.6-2.7-3.4-2.7s-3.9,2.2-3.9,5,1.3,4.9,3.9,4.9,3-1.1,3.5-2.9c0-.3.1-.6.1-1v-2.3Z"/>
          <path d="M1050,248.9c0,4.8-3.4,6.9-6.5,6.9s-6.3-2.6-6.3-6.7,2.9-6.9,6.5-6.9,6.3,2.7,6.3,6.7ZM1039.6,249.1c0,2.9,1.6,5,4,5s4-2.1,4-5.1-1.1-5-3.9-5-4,2.6-4,5.1Z"/>
          <path d="M1067.6,253.5h0c-.7,1.3-2.2,2.3-4.3,2.3-3.1,0-5.5-2.6-5.5-6.6s3.2-7,5.9-7,3.4,1,4,2.3h0s0-2,0-2h2.2c0,1.1-.1,2.2-.1,3.6v14.8h-2.4v-7.4ZM1067.6,247.8c0-.3,0-.7-.1-1-.4-1.5-1.6-2.7-3.4-2.7s-3.9,2.1-3.9,5,1.2,4.9,3.9,4.9,2.9-1,3.4-2.6c.1-.3.2-.8.2-1.1v-2.5Z"/>
          <path d="M1084.8,252c0,1.4,0,2.5.1,3.6h-2.1v-2.1h-.2c-.6,1.1-2,2.4-4.3,2.4s-4.5-1.1-4.5-5.7v-7.6h2.4v7.2c0,2.5.8,4.2,2.9,4.2s2.7-1.1,3.1-2.2c.1-.3.2-.8.2-1.2v-8h2.4v9.5Z"/>
          <path d="M1090.1,249.5c0,3.2,2.1,4.5,4.5,4.5s2.7-.3,3.6-.7l.4,1.7c-.8.4-2.3.8-4.4.8-4,0-6.4-2.7-6.4-6.6s2.3-7,6.1-7,5.4,3.7,5.4,6.1,0,.9,0,1.1h-9.2ZM1097.1,247.8c0-1.5-.6-3.8-3.3-3.8s-3.5,2.2-3.6,3.8h6.9Z"/>
          <path d="M1110.9,238.7v3.8h3.4v1.8h-3.4v7c0,1.6.5,2.5,1.8,2.5s1.1,0,1.4-.2v1.8c-.4.2-1.1.3-2,.3s-2-.4-2.6-1c-.7-.7-.9-1.9-.9-3.4v-7.1h-2v-1.8h2v-3.1l2.3-.6Z"/>
          <path d="M1127.9,252c0,1.4,0,2.5.1,3.6h-2.1v-2.1h-.2c-.6,1.1-2,2.4-4.3,2.4s-4.5-1.1-4.5-5.7v-7.6h2.4v7.2c0,2.5.8,4.2,2.9,4.2s2.7-1.1,3.1-2.2c.1-.3.2-.8.2-1.2v-8h2.4v9.5Z"/>
          <path d="M1138.9,249.5c0,3.2,2.1,4.5,4.5,4.5s2.7-.3,3.6-.7l.4,1.7c-.8.4-2.3.8-4.4.8-4,0-6.4-2.7-6.4-6.6s2.3-7,6.1-7,5.4,3.7,5.4,6.1,0,.9,0,1.1h-9.2ZM1145.8,247.8c0-1.5-.6-3.8-3.3-3.8s-3.5,2.2-3.6,3.8h6.9Z"/>
          <path d="M1160,253.5h0c-.7,1.3-2.2,2.3-4.3,2.3-3.1,0-5.5-2.6-5.5-6.6s3.2-7,5.9-7,3.4,1,4,2.3h0s0-2,0-2h2.2c0,1.1-.1,2.2-.1,3.6v14.8h-2.4v-7.4ZM1160,247.8c0-.3,0-.7-.1-1-.4-1.5-1.6-2.7-3.4-2.7s-3.9,2.1-3.9,5,1.2,4.9,3.9,4.9,2.9-1,3.4-2.6c.1-.3.2-.8.2-1.1v-2.5Z"/>
          <path d="M1177.2,252c0,1.4,0,2.5.1,3.6h-2.1v-2.1h-.2c-.6,1.1-2,2.4-4.3,2.4s-4.5-1.1-4.5-5.7v-7.6h2.4v7.2c0,2.5.8,4.2,2.9,4.2s2.7-1.1,3.1-2.2c.1-.3.2-.8.2-1.2v-8h2.4v9.5Z"/>
          <path d="M1183.8,238.8c0,.8-.6,1.5-1.5,1.5s-1.4-.7-1.4-1.5c0-.8.6-1.5,1.5-1.5s1.5.6,1.5,1.5ZM1181.2,255.6v-13.1h2.4v13.1h-2.4Z"/>
          <path d="M1187.5,246.8c0-1.7,0-3-.1-4.3h2.1v2.2h.2c.9-1.6,2.5-2.5,4.6-2.5,3.2,0,5.5,2.7,5.5,6.6s-2.9,7-5.9,7-3.2-.8-4-2.1h0v7.1h-2.4v-14.1ZM1189.8,250.2c0,.3,0,.7.1,1,.4,1.7,1.9,2.8,3.5,2.8,2.5,0,4-2.1,4-5.1s-1.4-4.8-3.9-4.8-3.1,1.1-3.6,2.9c0,.3-.2.7-.2,1v2.3Z"/>
          <path d="M1214.7,248.9c0,4.8-3.4,6.9-6.5,6.9s-6.3-2.6-6.3-6.7,2.9-6.9,6.5-6.9,6.3,2.7,6.3,6.7ZM1204.3,249.1c0,2.9,1.6,5,4,5s4-2.1,4-5.1-1.1-5-3.9-5-4,2.6-4,5.1Z"/>
          <path d="M918.7,289.1c.7.4,2,.9,3.1.9,1.7,0,2.5-.9,2.5-1.9s-.7-1.7-2.4-2.4c-2.4-.9-3.5-2.1-3.5-3.7,0-2.1,1.7-3.8,4.5-3.8s2.5.4,3.2.8l-.6,1.7c-.5-.3-1.5-.8-2.7-.8s-2.2.8-2.2,1.8.8,1.6,2.5,2.2c2.2.8,3.4,2,3.4,3.9,0,2.3-1.8,3.9-4.9,3.9s-2.8-.4-3.7-.9l.6-1.8Z"/>
          <path d="M931.1,285.5c0,3.2,2.1,4.5,4.5,4.5s2.7-.3,3.6-.7l.4,1.7c-.8.4-2.3.8-4.4.8-4,0-6.4-2.7-6.4-6.6s2.3-7,6.1-7,5.4,3.7,5.4,6.1,0,.9,0,1.1h-9.2ZM938,283.8c0-1.5-.6-3.8-3.3-3.8s-3.5,2.2-3.6,3.8h6.9Z"/>
          <path d="M950.3,285.5c0,3.2,2.1,4.5,4.5,4.5s2.7-.3,3.6-.7l.4,1.7c-.8.4-2.3.8-4.4.8-4,0-6.4-2.7-6.4-6.6s2.3-7,6.1-7,5.4,3.7,5.4,6.1,0,.9,0,1.1h-9.2ZM957.2,283.8c0-1.5-.6-3.8-3.3-3.8s-3.5,2.2-3.6,3.8h6.9Z"/>
          <path d="M962.5,282c0-1.4,0-2.4-.1-3.5h2.1v2.1h.2c.6-1.2,2.2-2.4,4.3-2.4s4.6,1.1,4.6,5.6v7.8h-2.4v-7.5c0-2.1-.8-3.9-3-3.9s-2.8,1.1-3.2,2.4c0,.3-.2.7-.2,1.1v7.9h-2.4v-9.5Z"/>
          <path d="M977.7,291.6v-11.3h-1.8v-1.8h1.8v-.6c0-1.8.4-3.5,1.5-4.6.9-.9,2.1-1.2,3.2-1.2s1.6.2,2,.4l-.3,1.8c-.4-.2-.8-.3-1.5-.3-2,0-2.5,1.8-2.5,3.8v.7h3.2v1.8h-3.1v11.3h-2.4Z"/>
          <path d="M996.8,284.9c0,4.8-3.4,6.9-6.5,6.9s-6.3-2.6-6.3-6.7,2.9-6.9,6.5-6.9,6.3,2.7,6.3,6.7ZM986.5,285.1c0,2.9,1.6,5,4,5s4-2.1,4-5.1-1.1-5-3.9-5-4,2.6-4,5.1Z"/>
          <path d="M1008.8,289.5h0c-.7,1.3-2.2,2.3-4.3,2.3-3.1,0-5.5-2.6-5.5-6.6s3.2-7,5.9-7,3.4,1,4,2.3h0s0-2,0-2h2.2c0,1.1-.1,2.2-.1,3.6v14.8h-2.4v-7.4ZM1008.8,283.8c0-.3,0-.7-.1-1-.4-1.5-1.6-2.7-3.4-2.7s-3.9,2.1-3.9,5,1.2,4.9,3.9,4.9,2.9-1,3.4-2.6c.1-.3.2-.8.2-1.1v-2.5Z"/>
          <path d="M1026,288c0,1.4,0,2.5.1,3.6h-2.1v-2.1h-.2c-.6,1.1-2,2.4-4.3,2.4s-4.5-1.1-4.5-5.7v-7.6h2.4v7.2c0,2.5.8,4.2,2.9,4.2s2.7-1.1,3.1-2.2c.1-.3.2-.8.2-1.2v-8h2.4v9.5Z"/>
          <path d="M1031.3,285.5c0,3.2,2.1,4.5,4.5,4.5s2.7-.3,3.6-.7l.4,1.7c-.8.4-2.3.8-4.4.8-4,0-6.4-2.7-6.4-6.6s2.3-7,6.1-7,5.4,3.7,5.4,6.1,0,.9,0,1.1h-9.2ZM1038.2,283.8c0-1.5-.6-3.8-3.3-3.8s-3.5,2.2-3.6,3.8h6.9Z"/>
          <path d="M1050.5,285.5c0,3.2,2.1,4.5,4.5,4.5s2.7-.3,3.6-.7l.4,1.7c-.8.4-2.3.8-4.4.8-4,0-6.4-2.7-6.4-6.6s2.3-7,6.1-7,5.4,3.7,5.4,6.1,0,.9,0,1.1h-9.2ZM1057.5,283.8c0-1.5-.6-3.8-3.3-3.8s-3.5,2.2-3.6,3.8h6.9Z"/>
          <path d="M1062.7,282c0-1.4,0-2.4-.1-3.5h2.1v2.1h.2c.6-1.2,2.2-2.4,4.3-2.4s4.6,1.1,4.6,5.6v7.8h-2.4v-7.5c0-2.1-.8-3.9-3-3.9s-2.8,1.1-3.2,2.4c0,.3-.2.7-.2,1.1v7.9h-2.4v-9.5Z"/>
          <path d="M1090.7,291.6l-.2-1.6h0c-.7,1-2.1,1.9-4,1.9s-4-1.9-4-3.7c0-3.2,2.8-4.9,7.8-4.9v-.3c0-1.1-.3-3-3-3-1.2,0-2.5.4-3.4,1l-.5-1.6c1.1-.7,2.7-1.1,4.3-1.1,4,0,5,2.7,5,5.3v4.9c0,1.1,0,2.2.2,3.1h-2.1ZM1090.3,284.9c-2.6,0-5.5.4-5.5,2.9s1,2.3,2.2,2.3c1.7,0,2.8-1.1,3.2-2.2,0-.3.1-.5.1-.7v-2.3Z"/>
          <path d="M1105.8,291.1c-.6.3-2,.8-3.7.8-3.9,0-6.5-2.7-6.5-6.7s2.7-7,7-7,2.7.4,3.3.7l-.5,1.8c-.6-.3-1.5-.6-2.8-.6-3,0-4.6,2.2-4.6,4.9,0,3,1.9,4.9,4.5,4.9s2.2-.3,2.9-.6l.4,1.8Z"/>
          <path d="M1111.7,274.7v3.8h3.4v1.8h-3.4v7c0,1.6.5,2.5,1.8,2.5s1.1,0,1.4-.2v1.8c-.4.2-1.1.3-2,.3s-2-.4-2.6-1c-.7-.7-.9-1.9-.9-3.4v-7.1h-2v-1.8h2v-3.1l2.3-.6Z"/>
          <path d="M1120.5,274.8c0,.8-.6,1.5-1.5,1.5s-1.4-.7-1.4-1.5c0-.8.6-1.5,1.5-1.5s1.5.6,1.5,1.5ZM1117.8,291.6v-13.1h2.4v13.1h-2.4Z"/>
          <path d="M1125.1,278.5l2.6,7.3c.4,1.2.8,2.3,1.1,3.4h0c.3-1.1.7-2.2,1.1-3.4l2.6-7.3h2.5l-5.1,13.1h-2.3l-5-13.1h2.5Z"/>
          <path d="M1139.8,274.8c0,.8-.6,1.5-1.5,1.5s-1.4-.7-1.4-1.5c0-.8.6-1.5,1.5-1.5s1.5.6,1.5,1.5ZM1137.1,291.6v-13.1h2.4v13.1h-2.4Z"/>
          <path d="M1154.7,272.4v15.8c0,1.2,0,2.5.1,3.4h-2.1v-2.3h-.2c-.7,1.5-2.3,2.6-4.4,2.6-3.2,0-5.6-2.7-5.6-6.6,0-4.4,2.7-7,5.9-7s3.4.9,3.9,2h0v-7.8h2.4ZM1152.4,283.8c0-.3,0-.7-.1-1-.4-1.5-1.6-2.7-3.4-2.7s-3.9,2.2-3.9,5,1.3,4.9,3.9,4.9,3-1.1,3.5-2.9c0-.3.1-.6.1-1v-2.3Z"/>
          <path d="M1165.9,291.6l-.2-1.6h0c-.7,1-2.1,1.9-4,1.9s-4-1.9-4-3.7c0-3.2,2.8-4.9,7.8-4.9v-.3c0-1.1-.3-3-3-3-1.2,0-2.5.4-3.4,1l-.5-1.6c1.1-.7,2.7-1.1,4.3-1.1,4,0,5,2.7,5,5.3v4.9c0,1.1,0,2.2.2,3.1h-2.1ZM1165.5,284.9c-2.6,0-5.5.4-5.5,2.9s1,2.3,2.2,2.3c1.7,0,2.8-1.1,3.2-2.2,0-.3.1-.5.1-.7v-2.3Z"/>
          <path d="M1183,272.4v15.8c0,1.2,0,2.5.1,3.4h-2.1v-2.3h-.2c-.7,1.5-2.3,2.6-4.4,2.6-3.2,0-5.6-2.7-5.6-6.6,0-4.4,2.7-7,5.9-7s3.4.9,3.9,2h0v-7.8h2.4ZM1180.6,283.8c0-.3,0-.7,0-1-.4-1.5-1.6-2.7-3.4-2.7s-3.9,2.2-3.9,5,1.3,4.9,3.9,4.9,3-1.1,3.5-2.9c0-.3.1-.6.1-1v-2.3Z"/>
          <path d="M1188.2,285.5c0,3.2,2.1,4.5,4.5,4.5s2.7-.3,3.6-.7l.4,1.7c-.8.4-2.3.8-4.4.8-4,0-6.4-2.7-6.4-6.6s2.3-7,6.1-7,5.4,3.7,5.4,6.1,0,.9,0,1.1h-9.2ZM1195.2,283.8c0-1.5-.6-3.8-3.3-3.8s-3.5,2.2-3.6,3.8h6.9Z"/>
          <path d="M1200.1,289.1c.7.4,2,.9,3.1.9,1.7,0,2.5-.9,2.5-1.9s-.7-1.7-2.4-2.4c-2.4-.9-3.5-2.1-3.5-3.7,0-2.1,1.7-3.8,4.5-3.8s2.5.4,3.2.8l-.6,1.7c-.5-.3-1.5-.8-2.7-.8s-2.2.8-2.2,1.8.8,1.6,2.5,2.2c2.2.8,3.4,2,3.4,3.9,0,2.3-1.8,3.9-4.9,3.9s-2.8-.4-3.7-.9l.6-1.8Z"/>
          <path d="M999.6,321.5c0,3.2,2.1,4.5,4.5,4.5s2.7-.3,3.6-.7l.4,1.7c-.8.4-2.3.8-4.4.8-4,0-6.4-2.7-6.4-6.6s2.3-7,6.1-7,5.4,3.7,5.4,6.1,0,.9,0,1.1h-9.2ZM1006.5,319.8c0-1.5-.6-3.8-3.3-3.8s-3.5,2.2-3.6,3.8h6.9Z"/>
          <path d="M1011.4,325.1c.7.4,2,.9,3.1.9,1.7,0,2.5-.9,2.5-1.9s-.7-1.7-2.4-2.4c-2.4-.9-3.5-2.1-3.5-3.7,0-2.1,1.7-3.8,4.5-3.8s2.5.4,3.2.8l-.6,1.7c-.5-.3-1.5-.8-2.7-.8s-2.2.8-2.2,1.8.8,1.6,2.5,2.2c2.2.8,3.4,2,3.4,3.9,0,2.3-1.8,3.9-4.9,3.9s-2.8-.4-3.7-.9l.6-1.8Z"/>
          <path d="M1025.3,310.7v3.8h3.4v1.8h-3.4v7c0,1.6.5,2.5,1.8,2.5s1.1,0,1.4-.2v1.8c-.4.2-1.1.3-2,.3s-2-.4-2.6-1c-.7-.7-.9-1.9-.9-3.4v-7.1h-2v-1.8h2v-3.1l2.3-.6Z"/>
          <path d="M1031.4,318.6c0-1.5,0-2.9-.1-4.1h2.1v2.6h.2c.6-1.8,2-2.9,3.6-2.9s.4,0,.7,0v2.2c-.2,0-.5,0-.8,0-1.7,0-2.9,1.3-3.2,3,0,.3,0,.7,0,1.1v7h-2.4v-9Z"/>
          <path d="M1047.3,327.6l-.2-1.6h0c-.7,1-2.1,1.9-4,1.9s-4-1.9-4-3.7c0-3.2,2.8-4.9,7.8-4.9v-.3c0-1.1-.3-3-3-3-1.2,0-2.5.4-3.4,1l-.5-1.6c1.1-.7,2.7-1.1,4.3-1.1,4,0,5,2.7,5,5.3v4.9c0,1.1,0,2.2.2,3.1h-2.1ZM1047,320.9c-2.6,0-5.5.4-5.5,2.9s1,2.3,2.2,2.3c1.7,0,2.8-1.1,3.2-2.2,0-.3.1-.5.1-.7v-2.3Z"/>
          <path d="M1055.8,310.7v3.8h3.4v1.8h-3.4v7c0,1.6.5,2.5,1.8,2.5s1.1,0,1.4-.2v1.8c-.4.2-1.1.3-2,.3s-2-.4-2.6-1c-.7-.7-.9-1.9-.9-3.4v-7.1h-2v-1.8h2v-3.1l2.3-.6Z"/>
          <path d="M1063.1,321.5c0,3.2,2.1,4.5,4.5,4.5s2.7-.3,3.6-.7l.4,1.7c-.8.4-2.3.8-4.4.8-4,0-6.4-2.7-6.4-6.6s2.3-7,6.1-7,5.4,3.7,5.4,6.1,0,.9,0,1.1h-9.2ZM1070,319.8c0-1.5-.6-3.8-3.3-3.8s-3.5,2.2-3.6,3.8h6.9ZM1070.6,308.8l-3.3,3.9h-1.7l2.4-3.9h2.6Z"/>
          <path d="M1086.6,314.5c0,.9-.1,2-.1,3.6v7.6c0,3-.6,4.8-1.9,6-1.3,1.2-3.1,1.6-4.8,1.6s-3.3-.4-4.4-1.1l.6-1.8c.9.5,2.2,1,3.8,1,2.4,0,4.2-1.3,4.2-4.6v-1.5h0c-.7,1.2-2.1,2.2-4.1,2.2-3.3,0-5.6-2.8-5.6-6.4s2.9-6.9,5.9-6.9,3.5,1.2,4.1,2.3h0v-2h2.2ZM1084.1,319.6c0-.4,0-.7-.1-1.1-.4-1.4-1.6-2.5-3.3-2.5s-3.9,1.9-3.9,4.9,1.3,4.7,3.9,4.7,2.8-.9,3.3-2.4c.1-.4.2-.8.2-1.3v-2.4Z"/>
          <path d="M1092.9,310.8c0,.8-.6,1.5-1.5,1.5s-1.4-.7-1.4-1.5c0-.8.6-1.5,1.5-1.5s1.5.6,1.5,1.5ZM1090.2,327.6v-13.1h2.4v13.1h-2.4Z"/>
          <path d="M1105.8,327.1c-.6.3-2,.8-3.7.8-3.9,0-6.5-2.7-6.5-6.7s2.7-7,7-7,2.7.4,3.3.7l-.5,1.8c-.6-.3-1.5-.6-2.8-.6-3,0-4.6,2.2-4.6,4.9,0,3,1.9,4.9,4.5,4.9s2.2-.3,2.9-.6l.4,1.8Z"/>
          <path d="M1115.9,327.6l-.2-1.6h0c-.7,1-2.1,1.9-4,1.9s-4-1.9-4-3.7c0-3.2,2.8-4.9,7.8-4.9v-.3c0-1.1-.3-3-3-3-1.2,0-2.5.4-3.4,1l-.5-1.6c1.1-.7,2.7-1.1,4.3-1.1,4,0,5,2.7,5,5.3v4.9c0,1.1,0,2.2.2,3.1h-2.1ZM1115.5,320.9c-2.6,0-5.5.4-5.5,2.9s1,2.3,2.2,2.3c1.7,0,2.8-1.1,3.2-2.2,0-.3.1-.5.1-.7v-2.3Z"/>
          <path d="M1121.3,325.1c.7.4,2,.9,3.1.9,1.7,0,2.5-.9,2.5-1.9s-.7-1.7-2.4-2.4c-2.4-.9-3.5-2.1-3.5-3.7,0-2.1,1.7-3.8,4.5-3.8s2.5.4,3.2.8l-.6,1.7c-.5-.3-1.5-.8-2.7-.8s-2.2.8-2.2,1.8.8,1.6,2.5,2.2c2.3.8,3.4,2,3.4,3.9,0,2.3-1.8,3.9-4.9,3.9s-2.8-.4-3.7-.9l.6-1.8Z"/>
          <path d="M1131.5,326.2c0-1,.7-1.7,1.6-1.7s1.6.7,1.6,1.7c0,1-.6,1.7-1.6,1.7s-1.6-.7-1.6-1.7Z"/>
        </g>
        <g>
          <path d="M41.2,435.4c1.3-.2,3.3-.4,5.5-.4s4.6.4,5.9,1.4c1.1.9,1.7,2.1,1.7,3.8s-1.6,3.9-3.2,4.5h0c1.3.6,2,1.8,2.4,3.5.6,2.1,1.1,4.4,1.5,5.1h-4.2c-.3-.5-.7-2-1.3-4.2-.5-2.3-1.3-2.9-3-2.9h-1.2v7.1h-4.1v-17.9ZM45.3,443.3h1.6c2,0,3.3-1,3.3-2.6s-1.1-2.5-3-2.5c-1,0-1.6,0-1.9.1v5Z"/>
          <path d="M60.3,448.1c.1,1.7,1.8,2.5,3.7,2.5s2.5-.2,3.6-.6l.6,2.8c-1.4.6-3,.8-4.8.8-4.5,0-7-2.6-7-6.7s2.1-7.1,6.7-7.1,5.9,3.3,5.9,6.6,0,1.3-.1,1.6h-8.5ZM65.1,445.3c0-1-.4-2.7-2.3-2.7s-2.4,1.6-2.6,2.7h4.9Z"/>
          <path d="M84.2,434.2v15.2c0,1.5,0,3.1.1,3.9h-3.7l-.2-1.9h0c-.8,1.5-2.4,2.2-4.1,2.2-3.1,0-5.6-2.7-5.6-6.8,0-4.4,2.8-7,5.9-7s2.9.6,3.5,1.5h0v-7.1h4.1ZM80.1,445.8c0-.2,0-.5,0-.7-.2-1.1-1.1-2-2.4-2-1.9,0-2.8,1.7-2.8,3.8s1.1,3.6,2.8,3.6,2.1-.8,2.4-2c0-.3,0-.6,0-.9v-1.7Z"/>
          <path d="M99.9,449.1c0,1.7,0,3.1.1,4.2h-3.6l-.2-1.9h0c-.5.8-1.7,2.2-4.1,2.2s-4.6-1.7-4.6-5.7v-7.8h4.1v7.1c0,1.9.6,3.1,2.1,3.1s1.8-.8,2-1.4c.1-.2.2-.5.2-.9v-7.9h4.1v9Z"/>
          <path d="M113.1,453c-.7.3-2.1.6-3.7.6-4.3,0-7-2.6-7-6.8s2.6-7,7.6-7,2.3.2,3.1.5l-.6,3.1c-.5-.2-1.2-.4-2.3-.4-2.2,0-3.6,1.5-3.5,3.7,0,2.4,1.6,3.7,3.6,3.7s1.7-.2,2.4-.4l.5,3Z"/>
          <path d="M125,453c-.7.3-2.1.6-3.7.6-4.3,0-7-2.6-7-6.8s2.6-7,7.6-7,2.3.2,3.1.5l-.6,3.1c-.5-.2-1.2-.4-2.3-.4-2.2,0-3.6,1.5-3.5,3.7,0,2.4,1.6,3.7,3.6,3.7s1.7-.2,2.4-.4l.5,3Z"/>
          <path d="M131.5,436.5c0,1.1-.8,2.1-2.2,2.1s-2.1-.9-2.1-2.1c0-1.2.9-2.1,2.2-2.1s2.2.9,2.2,2.1ZM127.3,453.4v-13.2h4.1v13.2h-4.1Z"/>
          <path d="M147.7,446.6c0,4.8-3.4,7-7,7s-6.8-2.5-6.8-6.8,2.8-7,7.1-7,6.7,2.8,6.7,6.8ZM138.2,446.8c0,2.3,1,4,2.7,4s2.6-1.6,2.6-4-.8-4-2.6-4-2.7,2-2.7,4ZM145.1,434.4l-3.3,4.1h-2.8l2.3-4.1h3.8Z"/>
          <path d="M150.3,444.4c0-1.6,0-3-.1-4.2h3.6l.2,1.8h0c.5-.9,1.9-2.1,4.1-2.1s4.7,1.8,4.7,5.7v7.8h-4.1v-7.3c0-1.7-.6-2.9-2.1-2.9s-1.8.8-2.1,1.6c-.1.3-.1.6-.1,1v7.6h-4.1v-9Z"/>
          <path d="M184.3,434.2v15.2c0,1.5,0,3.1.1,3.9h-3.7l-.2-1.9h0c-.8,1.5-2.4,2.2-4.1,2.2-3.1,0-5.6-2.7-5.6-6.8,0-4.4,2.8-7,5.9-7s2.9.6,3.5,1.5h0v-7.1h4.1ZM180.2,445.8c0-.2,0-.5,0-.7-.2-1.1-1.1-2-2.4-2-1.9,0-2.8,1.7-2.8,3.8s1.1,3.6,2.8,3.6,2.1-.8,2.4-2c0-.3,0-.6,0-.9v-1.7Z"/>
          <path d="M190.8,448.1c.1,1.7,1.8,2.5,3.7,2.5s2.5-.2,3.6-.6l.6,2.8c-1.4.6-3,.8-4.8.8-4.5,0-7-2.6-7-6.7s2.1-7.1,6.7-7.1,5.9,3.3,5.9,6.6,0,1.3-.1,1.6h-8.5ZM195.6,445.3c0-1-.4-2.7-2.3-2.7s-2.4,1.6-2.6,2.7h4.9Z"/>
          <path d="M210.5,448.1c.1,1.7,1.8,2.5,3.7,2.5s2.5-.2,3.6-.6l.6,2.8c-1.4.6-3,.8-4.8.8-4.5,0-7-2.6-7-6.7s2.1-7.1,6.7-7.1,5.9,3.3,5.9,6.6,0,1.3-.1,1.6h-8.5ZM215.3,445.3c0-1-.4-2.7-2.3-2.7s-2.4,1.6-2.6,2.7h4.9Z"/>
          <path d="M221.6,444.5c0-1.9,0-3.2-.1-4.4h3.5v2.4h.3c.7-1.9,2.3-2.7,3.6-2.7s.6,0,.9,0v3.9c-.3,0-.6-.1-1.1-.1-1.5,0-2.5.8-2.8,2.1,0,.3,0,.6,0,.9v6.7h-4.1v-8.9Z"/>
          <path d="M231.8,444.5c0-1.9,0-3.2-.1-4.4h3.5v2.4h.3c.7-1.9,2.3-2.7,3.6-2.7s.6,0,.9,0v3.9c-.3,0-.6-.1-1.1-.1-1.5,0-2.5.8-2.8,2.1,0,.3,0,.6,0,.9v6.7h-4.1v-8.9Z"/>
          <path d="M254.9,446.6c0,4.8-3.4,7-7,7s-6.8-2.5-6.8-6.8,2.8-7,7.1-7,6.7,2.8,6.7,6.8ZM245.3,446.8c0,2.3,1,4,2.7,4s2.6-1.6,2.6-4-.8-4-2.6-4-2.7,2-2.7,4Z"/>
          <path d="M257.4,444.5c0-1.9,0-3.2-.1-4.4h3.5v2.4h.3c.7-1.9,2.3-2.7,3.6-2.7s.6,0,.9,0v3.9c-.3,0-.6-.1-1.1-.1-1.5,0-2.5.8-2.8,2.1,0,.3,0,.6,0,.9v6.7h-4.1v-8.9Z"/>
          <path d="M270.6,448.1c.1,1.7,1.8,2.5,3.7,2.5s2.5-.2,3.6-.6l.6,2.8c-1.4.6-3,.8-4.8.8-4.5,0-7-2.6-7-6.7s2.1-7.1,6.7-7.1,5.9,3.3,5.9,6.6,0,1.3-.1,1.6h-8.5ZM275.4,445.3c0-1-.4-2.7-2.3-2.7s-2.4,1.6-2.6,2.7h4.9Z"/>
          <path d="M281.7,449.8c.7.5,2.3,1,3.5,1s1.8-.4,1.8-1.1-.4-1-1.9-1.5c-2.7-.9-3.8-2.4-3.8-3.9,0-2.5,2.1-4.3,5.4-4.3s2.9.4,3.7.8l-.7,2.8c-.6-.3-1.7-.7-2.9-.7s-1.6.4-1.6,1.1.5,1,2.1,1.5c2.5.9,3.6,2.1,3.6,4.1,0,2.5-1.9,4.3-5.7,4.3s-3.3-.4-4.3-.9l.7-2.9Z"/>
          <path d="M95.2,476.2l2,6.5c.2.8.5,1.8.7,2.5h0c.2-.7.4-1.7.6-2.5l1.6-6.5h4.4l-3.1,8.7c-1.9,5.2-3.2,7.3-4.7,8.7-1.4,1.2-2.9,1.7-4,1.8l-.9-3.5c.5,0,1.2-.3,1.8-.7.6-.3,1.3-1,1.7-1.6.1-.2.2-.4.2-.6s0-.4-.2-.7l-4.8-12.1h4.5Z"/>
          <path d="M111.7,480.5c0-1.9,0-3.2-.1-4.4h3.5v2.4h.3c.7-1.9,2.3-2.7,3.6-2.7s.6,0,.9,0v3.9c-.3,0-.6-.1-1.1-.1-1.5,0-2.5.8-2.8,2.1,0,.3,0,.6,0,.9v6.7h-4.1v-8.9Z"/>
          <path d="M124.9,484.1c.1,1.7,1.8,2.5,3.7,2.5s2.5-.2,3.6-.6l.6,2.8c-1.4.6-3,.8-4.8.8-4.5,0-7-2.6-7-6.7s2.1-7.1,6.7-7.1,5.9,3.3,5.9,6.6,0,1.3-.1,1.6h-8.5ZM129.7,481.3c0-1-.4-2.7-2.3-2.7s-2.4,1.6-2.6,2.7h4.9Z"/>
          <path d="M140.5,472.4v3.8h3v3h-3v4.8c0,1.6.4,2.3,1.6,2.3s.9,0,1.2-.1v3.1c-.5.2-1.5.4-2.6.4s-2.4-.5-3.1-1.1c-.8-.8-1.1-2-1.1-3.9v-5.4h-1.8v-3h1.8v-2.8l4-.9Z"/>
          <path d="M145.9,480.5c0-1.9,0-3.2-.1-4.4h3.5v2.4h.3c.7-1.9,2.3-2.7,3.6-2.7s.6,0,.9,0v3.9c-.3,0-.6-.1-1.1-.1-1.5,0-2.5.8-2.8,2.1,0,.3,0,.6,0,.9v6.7h-4.1v-8.9Z"/>
          <path d="M163.4,489.4l-.2-1.3h0c-.9,1.1-2.2,1.6-3.8,1.6-2.7,0-4.3-1.9-4.3-4,0-3.4,3.1-5.1,7.8-5.1v-.2c0-.7-.4-1.7-2.4-1.7-1.3,0-2.8.5-3.6,1l-.8-2.6c.9-.5,2.7-1.2,5.1-1.2,4.4,0,5.8,2.6,5.8,5.7v4.6c0,1.3,0,2.5.2,3.2h-3.7ZM162.9,483.1c-2.2,0-3.8.5-3.8,2.1s.7,1.6,1.6,1.6,1.9-.7,2.1-1.5c0-.2,0-.5,0-.7v-1.4Z"/>
          <path d="M170,489.4c0-.9.1-2.4.1-3.9v-15.2h4.1v7.5h0c.8-1.1,2.2-1.9,4-1.9,3.2,0,5.5,2.6,5.5,6.7,0,4.8-3,7.1-6,7.1s-3-.6-3.9-2.1h0l-.2,1.8h-3.5ZM174.2,483.8c0,.3,0,.5,0,.7.3,1.1,1.2,2,2.4,2,1.7,0,2.8-1.4,2.8-3.7s-.9-3.7-2.8-3.7-2.2.8-2.4,2c0,.2,0,.5,0,.8v1.9Z"/>
          <path d="M193.8,489.4l-.2-1.3h0c-.9,1.1-2.2,1.6-3.8,1.6-2.7,0-4.3-1.9-4.3-4,0-3.4,3.1-5.1,7.8-5.1v-.2c0-.7-.4-1.7-2.4-1.7-1.3,0-2.8.5-3.6,1l-.8-2.6c.9-.5,2.7-1.2,5.1-1.2,4.4,0,5.8,2.6,5.8,5.7v4.6c0,1.3,0,2.5.2,3.2h-3.7ZM193.3,483.1c-2.2,0-3.8.5-3.8,2.1s.7,1.6,1.6,1.6,1.9-.7,2.1-1.5c0-.2,0-.5,0-.7v-1.4Z"/>
          <path d="M197.8,491.8c1.1,0,1.9-.3,2.4-.9.6-.6.8-1.7.8-4.3v-10.5h4.1v11.5c0,2.9-.6,4.6-1.9,5.8-1.2,1.1-3.1,1.6-5.1,1.6l-.4-3.2ZM205.2,472.5c0,1.1-.8,2.1-2.2,2.1s-2.1-.9-2.1-2.1c0-1.2.9-2.1,2.2-2.1s2.1.9,2.2,2.1Z"/>
          <path d="M221.4,482.6c0,4.8-3.4,7-7,7s-6.8-2.5-6.8-6.8,2.8-7,7.1-7,6.7,2.8,6.7,6.8ZM211.8,482.8c0,2.3,1,4,2.7,4s2.6-1.6,2.6-4-.8-4-2.6-4-2.7,2-2.7,4Z"/>
          <path d="M223.9,485.8c.7.5,2.3,1,3.5,1s1.8-.4,1.8-1.1-.4-1-1.9-1.5c-2.7-.9-3.8-2.4-3.8-3.9,0-2.5,2.1-4.3,5.4-4.3s2.9.4,3.7.8l-.7,2.8c-.6-.3-1.7-.7-2.9-.7s-1.6.4-1.6,1.1.5,1,2.1,1.5c2.5.9,3.6,2.1,3.6,4.1,0,2.5-1.9,4.3-5.7,4.3s-3.3-.4-4.3-.9l.7-2.9Z"/>
          <path d="M233.8,492.6c.9-2.4,1.6-5.2,2-7.7l4.2-.3c-.9,2.7-2.1,5.6-3.4,7.7l-2.7.2Z"/>
          <path d="M52.3,515.9c0-1.4,0-2.4-.1-3.5h2.1v2.1h.2c.7-1.2,1.9-2.4,4.1-2.4s3.1,1.1,3.7,2.6h0c.4-.7.9-1.3,1.5-1.7.8-.6,1.6-.9,2.9-.9,1.7,0,4.3,1.1,4.3,5.7v7.7h-2.3v-7.4c0-2.5-.9-4-2.8-4s-2.4,1-2.8,2.1c-.1.3-.2.8-.2,1.2v8.1h-2.3v-7.8c0-2.1-.9-3.6-2.7-3.6s-2.6,1.2-3,2.4c-.1.3-.2.8-.2,1.2v7.9h-2.3v-9.5Z"/>
          <path d="M76.1,519.3c0,3.2,2.1,4.5,4.5,4.5s2.7-.3,3.6-.7l.4,1.7c-.8.4-2.3.8-4.4.8-4,0-6.4-2.7-6.4-6.6s2.3-7,6.1-7,5.4,3.7,5.4,6.1,0,.9,0,1.1h-9.2ZM83.1,517.6c0-1.5-.6-3.8-3.3-3.8s-3.5,2.2-3.6,3.8h6.9Z"/>
          <path d="M85.1,529.2c1.1,0,2-.4,2.6-1,.6-.7.9-1.8.9-4.9v-10.9h2.4v11.8c0,2.5-.4,4.2-1.6,5.4-1,1.1-2.8,1.5-4.1,1.5l-.3-1.9ZM91.3,508.6c0,.8-.6,1.5-1.5,1.5s-1.4-.7-1.4-1.5c0-.8.6-1.5,1.5-1.5s1.4.7,1.4,1.5Z"/>
          <path d="M106.7,518.7c0,4.8-3.4,6.9-6.5,6.9s-6.3-2.6-6.3-6.7,2.9-6.9,6.5-6.9,6.3,2.7,6.3,6.7ZM96.4,518.9c0,2.9,1.6,5,4,5s4-2.1,4-5.1-1.1-5-3.9-5-4,2.6-4,5.1Z"/>
          <path d="M109.7,516.4c0-1.5,0-2.9-.1-4.1h2.1v2.6h.2c.6-1.8,2-2.9,3.6-2.9s.4,0,.7,0v2.2c-.2,0-.5,0-.8,0-1.7,0-2.9,1.3-3.2,3,0,.3,0,.7,0,1.1v7h-2.4v-9Z"/>
          <path d="M125.7,525.4l-.2-1.6h0c-.7,1-2.1,1.9-4,1.9s-4-1.9-4-3.7c0-3.2,2.8-4.9,7.8-4.9v-.3c0-1.1-.3-3-3-3-1.2,0-2.5.4-3.4,1l-.5-1.6c1.1-.7,2.7-1.1,4.3-1.1,4,0,5,2.7,5,5.3v4.9c0,1.1,0,2.2.2,3.1h-2.1ZM125.3,518.7c-2.6,0-5.5.4-5.5,2.9s1,2.3,2.2,2.3c1.7,0,2.8-1.1,3.2-2.2,0-.3.1-.5.1-.7v-2.3Z"/>
          <path d="M131.4,515.9c0-1.4,0-2.4-.1-3.5h2.1v2.1h.2c.6-1.2,2.2-2.4,4.3-2.4s4.6,1.1,4.6,5.6v7.8h-2.4v-7.5c0-2.1-.8-3.9-3-3.9s-2.8,1.1-3.2,2.4c0,.3-.2.7-.2,1.1v7.9h-2.4v-9.5Z"/>
          <path d="M157.7,506.2v15.8c0,1.2,0,2.5.1,3.4h-2.1v-2.3h-.2c-.7,1.5-2.3,2.6-4.4,2.6-3.2,0-5.6-2.7-5.6-6.6,0-4.4,2.7-7,5.9-7s3.4.9,3.9,2h0v-7.8h2.4ZM155.3,517.6c0-.3,0-.7-.1-1-.4-1.5-1.6-2.7-3.4-2.7s-3.9,2.2-3.9,5,1.3,4.9,3.9,4.9,3-1.1,3.5-2.9c0-.3.1-.6.1-1v-2.3Z"/>
          <path d="M173.5,518.7c0,4.8-3.4,6.9-6.5,6.9s-6.3-2.6-6.3-6.7,2.9-6.9,6.5-6.9,6.3,2.7,6.3,6.7ZM163.1,518.9c0,2.9,1.6,5,4,5s4-2.1,4-5.1-1.1-5-3.9-5-4,2.6-4,5.1Z"/>
          <path d="M182.2,506.2h2.4v19.2h-2.4v-19.2Z"/>
          <path d="M195.8,525.4l-.2-1.6h0c-.7,1-2.1,1.9-4,1.9s-4-1.9-4-3.7c0-3.2,2.8-4.9,7.8-4.9v-.3c0-1.1-.3-3-3-3-1.2,0-2.5.4-3.4,1l-.5-1.6c1.1-.7,2.7-1.1,4.3-1.1,4,0,5,2.7,5,5.3v4.9c0,1.1,0,2.2.2,3.1h-2.1ZM195.4,518.7c-2.6,0-5.5.4-5.5,2.9s1,2.3,2.2,2.3c1.7,0,2.8-1.1,3.2-2.2,0-.3.1-.5.1-.7v-2.3Z"/>
          <path d="M216.6,524.9c-.6.3-2,.8-3.7.8-3.9,0-6.5-2.7-6.5-6.7s2.7-7,7-7,2.7.4,3.3.7l-.5,1.8c-.6-.3-1.5-.6-2.8-.6-3,0-4.6,2.2-4.6,4.9,0,3,1.9,4.9,4.5,4.9s2.2-.3,2.9-.6l.4,1.8Z"/>
          <path d="M226.7,525.4l-.2-1.6h0c-.7,1-2.1,1.9-4,1.9s-4-1.9-4-3.7c0-3.2,2.8-4.9,7.8-4.9v-.3c0-1.1-.3-3-3-3-1.2,0-2.5.4-3.4,1l-.5-1.6c1.1-.7,2.7-1.1,4.3-1.1,4,0,5,2.7,5,5.3v4.9c0,1.1,0,2.2.2,3.1h-2.1ZM226.3,518.7c-2.6,0-5.5.4-5.5,2.9s1,2.3,2.2,2.3c1.7,0,2.8-1.1,3.2-2.2,0-.3.1-.5.1-.7v-2.3Z"/>
          <path d="M232.4,506.2h2.4v19.2h-2.4v-19.2Z"/>
          <path d="M241.5,508.6c0,.8-.6,1.5-1.5,1.5s-1.4-.7-1.4-1.5c0-.8.6-1.5,1.5-1.5s1.5.6,1.5,1.5ZM238.8,525.4v-13.1h2.4v13.1h-2.4Z"/>
          <path d="M256.4,506.2v15.8c0,1.2,0,2.5.1,3.4h-2.1v-2.3h-.2c-.7,1.5-2.3,2.6-4.4,2.6-3.2,0-5.6-2.7-5.6-6.6,0-4.4,2.7-7,5.9-7s3.4.9,3.9,2h0v-7.8h2.4ZM254,517.6c0-.3,0-.7-.1-1-.4-1.5-1.6-2.7-3.4-2.7s-3.9,2.2-3.9,5,1.3,4.9,3.9,4.9,3-1.1,3.5-2.9c0-.3.1-.6.1-1v-2.3Z"/>
          <path d="M267.6,525.4l-.2-1.6h0c-.7,1-2.1,1.9-4,1.9s-4-1.9-4-3.7c0-3.2,2.8-4.9,7.8-4.9v-.3c0-1.1-.3-3-3-3-1.2,0-2.5.4-3.4,1l-.5-1.6c1.1-.7,2.7-1.1,4.3-1.1,4,0,5,2.7,5,5.3v4.9c0,1.1,0,2.2.2,3.1h-2.1ZM267.2,518.7c-2.6,0-5.5.4-5.5,2.9s1,2.3,2.2,2.3c1.7,0,2.8-1.1,3.2-2.2,0-.3.1-.5.1-.7v-2.3Z"/>
          <path d="M284.6,506.2v15.8c0,1.2,0,2.5.1,3.4h-2.1v-2.3h-.2c-.7,1.5-2.3,2.6-4.4,2.6-3.2,0-5.6-2.7-5.6-6.6,0-4.4,2.7-7,5.9-7s3.4.9,3.9,2h0v-7.8h2.4ZM282.3,517.6c0-.3,0-.7-.1-1-.4-1.5-1.6-2.7-3.4-2.7s-3.9,2.2-3.9,5,1.3,4.9,3.9,4.9,3-1.1,3.5-2.9c0-.3.1-.6.1-1v-2.3Z"/>
          <path d="M47.3,548.3l2.9,7.7c.3.9.6,1.9.8,2.7h0c.2-.8.5-1.8.8-2.7l2.6-7.7h2.5l-3.6,9.3c-1.7,4.5-2.9,6.8-4.5,8.2-1.2,1-2.3,1.4-2.9,1.5l-.6-2c.6-.2,1.4-.6,2.1-1.2.6-.5,1.4-1.4,2-2.6.1-.2.2-.4.2-.6s0-.3-.2-.6l-4.8-12h2.6Z"/>
          <path d="M66.2,555.3c0,3.2,2.1,4.5,4.5,4.5s2.7-.3,3.6-.7l.4,1.7c-.8.4-2.3.8-4.4.8-4,0-6.4-2.7-6.4-6.6s2.3-7,6.1-7,5.4,3.7,5.4,6.1,0,.9,0,1.1h-9.2ZM73.2,553.6c0-1.5-.6-3.8-3.3-3.8s-3.5,2.2-3.6,3.8h6.9Z"/>
          <path d="M78.7,561.4v-11.3h-1.8v-1.8h1.8v-.7c0-3.4,2-5.7,5.7-5.7s2.6.4,3.3.9l-.7,1.8c-.6-.4-1.6-.8-2.8-.8-2.5,0-3.2,1.8-3.2,3.9v.6h7.6v13.1h-2.4v-11.3h-5.2v11.3h-2.4Z"/>
          <path d="M101.9,560.9c-.6.3-2,.8-3.7.8-3.9,0-6.5-2.7-6.5-6.7s2.7-7,7-7,2.7.4,3.3.7l-.5,1.8c-.6-.3-1.5-.6-2.8-.6-3,0-4.6,2.2-4.6,4.9,0,3,1.9,4.9,4.5,4.9s2.2-.3,2.9-.6l.4,1.8Z"/>
          <path d="M107.3,544.6c0,.8-.6,1.5-1.5,1.5s-1.4-.7-1.4-1.5c0-.8.6-1.5,1.5-1.5s1.5.6,1.5,1.5ZM104.6,561.4v-13.1h2.4v13.1h-2.4Z"/>
          <path d="M112.3,555.3c0,3.2,2.1,4.5,4.5,4.5s2.7-.3,3.6-.7l.4,1.7c-.8.4-2.3.8-4.4.8-4,0-6.4-2.7-6.4-6.6s2.3-7,6.1-7,5.4,3.7,5.4,6.1,0,.9,0,1.1h-9.2ZM119.2,553.6c0-1.5-.6-3.8-3.3-3.8s-3.5,2.2-3.6,3.8h6.9Z"/>
          <path d="M124.5,551.9c0-1.4,0-2.4-.1-3.5h2.1v2.1h.2c.6-1.2,2.2-2.4,4.3-2.4s4.6,1.1,4.6,5.6v7.8h-2.4v-7.5c0-2.1-.8-3.9-3-3.9s-2.8,1.1-3.2,2.4c0,.3-.2.7-.2,1.1v7.9h-2.4v-9.5Z"/>
          <path d="M148.8,560.9c-.6.3-2,.8-3.7.8-3.9,0-6.5-2.7-6.5-6.7s2.7-7,7-7,2.7.4,3.3.7l-.5,1.8c-.6-.3-1.5-.6-2.8-.6-3,0-4.6,2.2-4.6,4.9,0,3,1.9,4.9,4.5,4.9s2.2-.3,2.9-.6l.4,1.8Z"/>
          <path d="M154.2,544.6c0,.8-.6,1.5-1.5,1.5s-1.4-.7-1.4-1.5c0-.8.6-1.5,1.5-1.5s1.5.6,1.5,1.5ZM151.6,561.4v-13.1h2.4v13.1h-2.4Z"/>
          <path d="M165.1,561.4l-.2-1.6h0c-.7,1-2.1,1.9-4,1.9s-4-1.9-4-3.7c0-3.2,2.8-4.9,7.8-4.9v-.3c0-1.1-.3-3-3-3-1.2,0-2.5.4-3.4,1l-.5-1.6c1.1-.7,2.7-1.1,4.3-1.1,4,0,5,2.7,5,5.3v4.9c0,1.1,0,2.2.2,3.1h-2.1ZM164.8,554.7c-2.6,0-5.5.4-5.5,2.9s1,2.3,2.2,2.3c1.7,0,2.8-1.1,3.2-2.2,0-.3.1-.5.1-.7v-2.3Z"/>
          <path d="M188.4,554.7c0,4.8-3.4,6.9-6.5,6.9s-6.3-2.6-6.3-6.7,2.9-6.9,6.5-6.9,6.3,2.7,6.3,6.7ZM178.1,554.9c0,2.9,1.6,5,4,5s4-2.1,4-5.1-1.1-5-3.9-5-4,2.6-4,5.1Z"/>
          <path d="M191.4,552.6c0-1.7,0-3-.1-4.3h2.1v2.2h.2c.9-1.6,2.5-2.5,4.6-2.5,3.2,0,5.5,2.7,5.5,6.6s-2.9,7-5.9,7-3.2-.8-4-2.1h0v7.1h-2.4v-14.1ZM193.8,556.1c0,.3,0,.7.1,1,.4,1.7,1.9,2.8,3.5,2.8,2.5,0,4-2.1,4-5.1s-1.4-4.8-3.9-4.8-3.1,1.1-3.6,2.9c0,.3-.2.7-.2,1v2.3Z"/>
          <path d="M208.2,555.3c0,3.2,2.1,4.5,4.5,4.5s2.7-.3,3.6-.7l.4,1.7c-.8.4-2.3.8-4.4.8-4,0-6.4-2.7-6.4-6.6s2.3-7,6.1-7,5.4,3.7,5.4,6.1,0,.9,0,1.1h-9.2ZM215.1,553.6c0-1.5-.6-3.8-3.3-3.8s-3.5,2.2-3.6,3.8h6.9Z"/>
          <path d="M220.4,552.4c0-1.5,0-2.9-.1-4.1h2.1v2.6h.2c.6-1.8,2-2.9,3.6-2.9s.4,0,.7,0v2.2c-.2,0-.5,0-.8,0-1.7,0-2.9,1.3-3.2,3,0,.3,0,.7,0,1.1v7h-2.4v-9Z"/>
          <path d="M236.3,561.4l-.2-1.6h0c-.7,1-2.1,1.9-4,1.9s-4-1.9-4-3.7c0-3.2,2.8-4.9,7.8-4.9v-.3c0-1.1-.3-3-3-3-1.2,0-2.5.4-3.4,1l-.5-1.6c1.1-.7,2.7-1.1,4.3-1.1,4,0,5,2.7,5,5.3v4.9c0,1.1,0,2.2.2,3.1h-2.1ZM235.9,554.7c-2.6,0-5.5.4-5.5,2.9s1,2.3,2.2,2.3c1.7,0,2.8-1.1,3.2-2.2,0-.3.1-.5.1-.7v-2.3Z"/>
          <path d="M244.8,544.6v3.8h3.4v1.8h-3.4v7c0,1.6.5,2.5,1.8,2.5s1.1,0,1.4-.2v1.8c-.4.2-1.1.3-2,.3s-2-.4-2.6-1c-.7-.7-.9-1.9-.9-3.4v-7.1h-2v-1.8h2v-3.1l2.3-.6Z"/>
          <path d="M253.6,544.6c0,.8-.6,1.5-1.5,1.5s-1.4-.7-1.4-1.5c0-.8.6-1.5,1.5-1.5s1.5.6,1.5,1.5ZM250.9,561.4v-13.1h2.4v13.1h-2.4Z"/>
          <path d="M258.1,548.3l2.6,7.3c.4,1.2.8,2.3,1.1,3.4h0c.3-1.1.7-2.2,1.1-3.4l2.6-7.3h2.5l-5.1,13.1h-2.3l-5-13.1h2.5Z"/>
          <path d="M277.3,561.4l-.2-1.6h0c-.7,1-2.1,1.9-4,1.9s-4-1.9-4-3.7c0-3.2,2.8-4.9,7.8-4.9v-.3c0-1.1-.3-3-3-3-1.2,0-2.5.4-3.4,1l-.5-1.6c1.1-.7,2.7-1.1,4.3-1.1,4,0,5,2.7,5,5.3v4.9c0,1.1,0,2.2.2,3.1h-2.1ZM277,554.7c-2.6,0-5.5.4-5.5,2.9s1,2.3,2.2,2.3c1.7,0,2.8-1.1,3.2-2.2,0-.3.1-.5.1-.7v-2.3Z"/>
          <path d="M282.5,560c0-1,.7-1.7,1.6-1.7s1.6.7,1.6,1.7c0,1-.6,1.7-1.6,1.7s-1.6-.7-1.6-1.7Z"/>
        </g>
        <g>
          <path d="M924.2,544.1h-6.7v4.3h7.5v3.4h-11.6v-18.2h11.2v3.4h-7.1v3.8h6.7v3.3Z"/>
          <path d="M927.7,548.2c.7.5,2.3,1,3.5,1s1.8-.4,1.8-1.1-.4-1-1.9-1.5c-2.7-.9-3.8-2.4-3.8-3.9,0-2.5,2.1-4.3,5.4-4.3s2.9.4,3.7.8l-.7,2.8c-.6-.3-1.7-.7-2.9-.7s-1.6.4-1.6,1.1.5,1,2.1,1.5c2.5.9,3.6,2.1,3.6,4.1,0,2.5-1.9,4.3-5.7,4.3s-3.3-.4-4.3-.9l.7-2.9Z"/>
          <path d="M949.4,551.4c-.7.3-2.1.6-3.7.6-4.3,0-7-2.6-7-6.8s2.6-7,7.6-7,2.3.2,3.1.5l-.6,3.1c-.5-.2-1.2-.4-2.3-.4-2.2,0-3.6,1.5-3.5,3.7,0,2.4,1.6,3.7,3.6,3.7s1.7-.2,2.4-.4l.5,3Z"/>
          <path d="M959.3,551.8l-.2-1.3h0c-.9,1.1-2.2,1.6-3.8,1.6-2.7,0-4.3-1.9-4.3-4,0-3.4,3.1-5.1,7.8-5.1v-.2c0-.7-.4-1.7-2.4-1.7-1.3,0-2.8.5-3.6,1l-.8-2.6c.9-.5,2.7-1.2,5.1-1.2,4.4,0,5.8,2.6,5.8,5.7v4.6c0,1.3,0,2.5.2,3.2h-3.7ZM958.8,545.5c-2.2,0-3.8.5-3.8,2.1s.7,1.6,1.6,1.6,1.9-.7,2.1-1.5c0-.2,0-.5,0-.7v-1.4Z"/>
          <path d="M966,532.6h4.1v19.2h-4.1v-19.2Z"/>
          <path d="M981,551.8l-.2-1.3h0c-.9,1.1-2.2,1.6-3.8,1.6-2.7,0-4.3-1.9-4.3-4,0-3.4,3.1-5.1,7.8-5.1v-.2c0-.7-.4-1.7-2.4-1.7-1.3,0-2.8.5-3.6,1l-.8-2.6c.9-.5,2.7-1.2,5.1-1.2,4.4,0,5.8,2.6,5.8,5.7v4.6c0,1.3,0,2.5.2,3.2h-3.7ZM980.5,545.5c-2.2,0-3.8.5-3.8,2.1s.7,1.6,1.6,1.6,1.9-.7,2.1-1.5c0-.2,0-.5,0-.7v-1.4Z"/>
          <path d="M987.6,551.8c0-.9.1-2.4.1-3.9v-15.2h4.1v7.5h0c.8-1.1,2.2-1.9,4-1.9,3.2,0,5.5,2.6,5.5,6.7,0,4.8-3,7.1-6,7.1s-3-.6-4-2.1h0l-.2,1.8h-3.5ZM991.8,546.1c0,.3,0,.5,0,.7.3,1.1,1.2,2,2.4,2,1.7,0,2.8-1.4,2.8-3.7s-.9-3.7-2.8-3.7-2.2.8-2.4,2c0,.2,0,.5,0,.8v1.9Z"/>
          <path d="M1008.1,534.9c0,1.1-.8,2.1-2.2,2.1s-2.1-.9-2.1-2.1c0-1.2.9-2.1,2.2-2.1s2.2.9,2.2,2.1ZM1003.8,551.8v-13.2h4.1v13.2h-4.1Z"/>
          <path d="M1011.2,532.6h4.1v19.2h-4.1v-19.2Z"/>
          <path d="M1022.9,534.9c0,1.1-.8,2.1-2.2,2.1s-2.1-.9-2.1-2.1c0-1.2.9-2.1,2.2-2.1s2.2.9,2.2,2.1ZM1018.7,551.8v-13.2h4.1v13.2h-4.1Z"/>
          <path d="M1038.9,532.6v15.2c0,1.5,0,3.1.1,3.9h-3.7l-.2-1.9h0c-.8,1.5-2.4,2.2-4.1,2.2-3.1,0-5.6-2.7-5.6-6.8,0-4.4,2.8-7,5.9-7s2.9.6,3.5,1.5h0v-7.1h4.1ZM1034.8,544.2c0-.2,0-.5,0-.7-.2-1.1-1.1-2-2.4-2-1.9,0-2.8,1.7-2.8,3.8s1.1,3.6,2.8,3.6,2.1-.8,2.4-2c0-.3,0-.6,0-.9v-1.7Z"/>
          <path d="M1049.7,551.8l-.2-1.3h0c-.9,1.1-2.2,1.6-3.8,1.6-2.7,0-4.3-1.9-4.3-4,0-3.4,3.1-5.1,7.8-5.1v-.2c0-.7-.4-1.7-2.4-1.7-1.3,0-2.8.5-3.6,1l-.8-2.6c.9-.5,2.7-1.2,5.1-1.2,4.4,0,5.8,2.6,5.8,5.7v4.6c0,1.3,0,2.5.2,3.2h-3.7ZM1049.2,545.5c-2.2,0-3.8.5-3.8,2.1s.7,1.6,1.6,1.6,1.9-.7,2.1-1.5c0-.2,0-.5,0-.7v-1.4Z"/>
          <path d="M1069.2,532.6v15.2c0,1.5,0,3.1.1,3.9h-3.7l-.2-1.9h0c-.8,1.5-2.4,2.2-4.1,2.2-3.1,0-5.6-2.7-5.6-6.8,0-4.4,2.8-7,5.9-7s2.9.6,3.5,1.5h0v-7.1h4.1ZM1065.1,544.2c0-.2,0-.5,0-.7-.2-1.1-1.1-2-2.4-2-1.9,0-2.8,1.7-2.8,3.8s1.1,3.6,2.8,3.6,2.1-.8,2.4-2c0-.3,0-.6,0-.9v-1.7Z"/>
          <path d="M1077.9,548.2c.7.5,2.3,1,3.5,1s1.8-.4,1.8-1.1-.4-1-1.9-1.5c-2.7-.9-3.8-2.4-3.8-3.9,0-2.5,2.1-4.3,5.4-4.3s2.9.4,3.7.8l-.7,2.8c-.6-.3-1.7-.7-2.9-.7s-1.6.4-1.6,1.1.5,1,2.1,1.5c2.5.9,3.6,2.1,3.6,4.1,0,2.5-1.9,4.3-5.7,4.3s-3.3-.4-4.3-.9l.7-2.9Z"/>
          <path d="M1093.9,534.9c0,1.1-.8,2.1-2.2,2.1s-2.1-.9-2.1-2.1c0-1.2.9-2.1,2.2-2.1s2.2.9,2.2,2.1ZM1089.7,551.8v-13.2h4.1v13.2h-4.1Z"/>
          <path d="M1097.1,542.8c0-1.6,0-3-.1-4.2h3.6l.2,1.8h0c.5-.9,1.9-2.1,4.1-2.1s4.7,1.8,4.7,5.7v7.8h-4.1v-7.3c0-1.7-.6-2.9-2.1-2.9s-1.8.8-2.1,1.6c-.1.3-.1.6-.1,1v7.6h-4.1v-9Z"/>
          <path d="M1118.4,532.6h4.1v19.2h-4.1v-19.2Z"/>
          <path d="M1125.8,551.8v-13.2h4.1v13.2h-4.1ZM1132.2,532.8l-3.3,4.1h-2.8l2.3-4.1h3.8Z"/>
          <path d="M1133.2,542.8c0-1.6,0-3-.1-4.2h3.5l.2,1.8h0c.6-.8,1.7-2.1,4-2.1s3,.9,3.6,2.3h0c.5-.7,1.1-1.2,1.7-1.6.7-.4,1.5-.7,2.5-.7,2.5,0,4.4,1.8,4.4,5.7v7.8h-4v-7.2c0-1.9-.6-3-1.9-3s-1.6.6-1.9,1.4c-.1.3-.1.7-.1,1v7.7h-4v-7.4c0-1.7-.6-2.8-1.9-2.8s-1.7.8-1.9,1.5c-.1.3-.2.7-.2,1v7.7h-4v-9Z"/>
          <path d="M1160.6,534.9c0,1.1-.8,2.1-2.2,2.1s-2.1-.9-2.1-2.1c0-1.2.9-2.1,2.2-2.1s2.2.9,2.2,2.1ZM1156.4,551.8v-13.2h4.1v13.2h-4.1Z"/>
          <path d="M1168.4,534.8v3.8h3v3h-3v4.8c0,1.6.4,2.3,1.6,2.3s.9,0,1.2-.1v3.1c-.5.2-1.5.4-2.6.4s-2.4-.5-3.1-1.1c-.8-.8-1.1-2-1.1-3.9v-5.4h-1.8v-3h1.8v-2.8l4-.9Z"/>
          <path d="M1176.7,546.5c.1,1.7,1.8,2.5,3.7,2.5s2.5-.2,3.6-.6l.6,2.8c-1.4.6-3,.8-4.8.8-4.5,0-7-2.6-7-6.7s2.1-7.1,6.7-7.1,5.9,3.3,5.9,6.6,0,1.3-.1,1.6h-8.5ZM1181.6,543.7c0-1-.4-2.7-2.3-2.7s-2.4,1.6-2.6,2.7h4.9Z"/>
          <path d="M1187.8,548.2c.7.5,2.3,1,3.5,1s1.8-.4,1.8-1.1-.4-1-1.9-1.5c-2.7-.9-3.8-2.4-3.8-3.9,0-2.5,2.1-4.3,5.4-4.3s2.9.4,3.7.8l-.7,2.8c-.6-.3-1.7-.7-2.9-.7s-1.6.4-1.6,1.1.5,1,2.1,1.5c2.5.9,3.6,2.1,3.6,4.1,0,2.5-1.9,4.3-5.7,4.3s-3.3-.4-4.3-.9l.7-2.9Z"/>
          <path d="M1197.7,555c.9-2.4,1.6-5.2,2-7.7l4.2-.3c-.9,2.7-2.1,5.6-3.4,7.7l-2.7.2Z"/>
          <path d="M894.8,581.7c0,3.2,2.1,4.5,4.5,4.5s2.7-.3,3.6-.7l.4,1.7c-.8.4-2.3.8-4.4.8-4,0-6.4-2.7-6.4-6.6s2.3-7,6.1-7,5.4,3.7,5.4,6.1,0,.9,0,1.1h-9.2ZM901.7,579.9c0-1.5-.6-3.8-3.3-3.8s-3.5,2.2-3.6,3.8h6.9Z"/>
          <path d="M908,574.7l1.9,2.8c.5.7.9,1.4,1.3,2.1h0c.4-.8.9-1.4,1.3-2.1l1.8-2.8h2.6l-4.5,6.3,4.6,6.7h-2.7l-1.9-2.9c-.5-.8-.9-1.5-1.4-2.3h0c-.4.8-.9,1.5-1.4,2.3l-1.9,2.9h-2.6l4.6-6.7-4.4-6.4h2.6Z"/>
          <path d="M919.4,579c0-1.7,0-3-.1-4.3h2.1v2.2h.2c.9-1.6,2.5-2.5,4.6-2.5,3.2,0,5.5,2.7,5.5,6.6s-2.9,7-5.9,7-3.2-.8-4-2.1h0v7.1h-2.4v-14.1ZM921.8,582.4c0,.3,0,.7.1,1,.4,1.7,1.9,2.8,3.5,2.8,2.5,0,4-2.1,4-5.1s-1.4-4.8-3.9-4.8-3.1,1.1-3.6,2.9c0,.3-.2.7-.2,1v2.3Z"/>
          <path d="M942,587.8l-.2-1.6h0c-.7,1-2.1,1.9-4,1.9s-4-1.9-4-3.7c0-3.2,2.8-4.9,7.8-4.9v-.3c0-1.1-.3-3-3-3-1.2,0-2.5.4-3.4,1l-.5-1.6c1.1-.7,2.7-1.1,4.3-1.1,4,0,5,2.7,5,5.3v4.9c0,1.1,0,2.2.2,3.1h-2.1ZM941.6,581.1c-2.6,0-5.5.4-5.5,2.9s1,2.3,2.2,2.3c1.7,0,2.8-1.1,3.2-2.2,0-.3.1-.5.1-.7v-2.3Z"/>
          <path d="M947.8,578.2c0-1.4,0-2.4-.1-3.5h2.1v2.1h.2c.6-1.2,2.2-2.4,4.3-2.4s4.6,1.1,4.6,5.6v7.8h-2.4v-7.5c0-2.1-.8-3.9-3-3.9s-2.8,1.1-3.2,2.4c0,.3-.2.7-.2,1.1v7.9h-2.4v-9.5Z"/>
          <path d="M974,568.6v15.8c0,1.2,0,2.5.1,3.4h-2.1v-2.3h-.2c-.7,1.5-2.3,2.6-4.4,2.6-3.2,0-5.6-2.7-5.6-6.6,0-4.4,2.7-7,5.9-7s3.4.9,3.9,2h0v-7.8h2.4ZM971.7,580c0-.3,0-.7-.1-1-.4-1.5-1.6-2.7-3.4-2.7s-3.9,2.2-3.9,5,1.3,4.9,3.9,4.9,3-1.1,3.5-2.8c0-.3.1-.6.1-1v-2.3Z"/>
          <path d="M980.7,571c0,.8-.6,1.5-1.5,1.5s-1.4-.7-1.4-1.5c0-.8.6-1.5,1.5-1.5s1.5.6,1.5,1.5ZM978,587.8v-13.1h2.4v13.1h-2.4Z"/>
          <path d="M985.6,581.7c0,3.2,2.1,4.5,4.5,4.5s2.7-.3,3.6-.7l.4,1.7c-.8.4-2.3.8-4.4.8-4,0-6.4-2.7-6.4-6.6s2.3-7,6.1-7,5.4,3.7,5.4,6.1,0,.9,0,1.1h-9.2ZM992.6,579.9c0-1.5-.6-3.8-3.3-3.8s-3.5,2.2-3.6,3.8h6.9Z"/>
          <path d="M997.8,578.2c0-1.4,0-2.4-.1-3.5h2.1v2.1h.2c.6-1.2,2.2-2.4,4.3-2.4s4.6,1.1,4.6,5.6v7.8h-2.4v-7.5c0-2.1-.8-3.9-3-3.9s-2.8,1.1-3.2,2.4c0,.3-.2.7-.2,1.1v7.9h-2.4v-9.5Z"/>
          <path d="M1024.1,568.6v15.8c0,1.2,0,2.5.1,3.4h-2.1v-2.3h-.2c-.7,1.5-2.3,2.6-4.4,2.6-3.2,0-5.6-2.7-5.6-6.6,0-4.4,2.7-7,5.9-7s3.4.9,3.9,2h0v-7.8h2.4ZM1021.7,580c0-.3,0-.7-.1-1-.4-1.5-1.6-2.7-3.4-2.7s-3.9,2.2-3.9,5,1.3,4.9,3.9,4.9,3-1.1,3.5-2.8c0-.3.1-.6.1-1v-2.3Z"/>
          <path d="M1039.9,581.1c0,4.8-3.4,6.9-6.5,6.9s-6.3-2.6-6.3-6.7,2.9-6.9,6.5-6.9,6.3,2.7,6.3,6.7ZM1029.5,581.3c0,2.9,1.6,5,4,5s4-2.1,4-5.1-1.1-5-3.9-5-4,2.6-4,5.1Z"/>
          <path d="M1051.5,570.9v3.8h3.4v1.8h-3.4v7c0,1.6.5,2.5,1.8,2.5s1.1,0,1.4-.2v1.8c-.4.2-1.1.3-2,.3s-2-.4-2.6-1c-.7-.7-.9-1.9-.9-3.4v-7.1h-2v-1.8h2v-3.1l2.3-.6Z"/>
          <path d="M1068.5,584.2c0,1.4,0,2.5.1,3.6h-2.1v-2.1h-.2c-.6,1.1-2,2.4-4.3,2.4s-4.5-1.1-4.5-5.7v-7.6h2.4v7.2c0,2.5.8,4.2,2.9,4.2s2.7-1.1,3.1-2.2c.1-.3.2-.8.2-1.2v-8h2.4v9.5Z"/>
          <path d="M1072.1,585.3c.7.4,2,.9,3.1.9,1.7,0,2.5-.9,2.5-1.9s-.7-1.7-2.4-2.4c-2.4-.9-3.5-2.1-3.5-3.7,0-2.1,1.7-3.8,4.5-3.8s2.5.4,3.2.8l-.6,1.7c-.5-.3-1.5-.8-2.7-.8s-2.2.8-2.2,1.8.8,1.6,2.5,2.2c2.2.8,3.4,2,3.4,3.9,0,2.3-1.8,3.9-4.9,3.9s-2.8-.4-3.7-.9l.6-1.8Z"/>
          <path d="M1100.7,581.1c0,4.8-3.4,6.9-6.5,6.9s-6.3-2.6-6.3-6.7,2.9-6.9,6.5-6.9,6.3,2.7,6.3,6.7ZM1090.3,581.3c0,2.9,1.6,5,4,5s4-2.1,4-5.1-1.1-5-3.9-5-4,2.6-4,5.1Z"/>
          <path d="M1103.7,579c0-1.7,0-3-.1-4.3h2.1v2.2h.2c.9-1.6,2.5-2.5,4.6-2.5,3.2,0,5.5,2.7,5.5,6.6s-2.9,7-5.9,7-3.2-.8-4-2.1h0v7.1h-2.4v-14.1ZM1106,582.4c0,.3,0,.7.1,1,.4,1.7,1.9,2.8,3.5,2.8,2.5,0,4-2.1,4-5.1s-1.4-4.8-3.9-4.8-3.1,1.1-3.6,2.9c0,.3-.2.7-.2,1v2.3Z"/>
          <path d="M1120.4,581.7c0,3.2,2.1,4.5,4.5,4.5s2.7-.3,3.6-.7l.4,1.7c-.8.4-2.3.8-4.4.8-4,0-6.4-2.7-6.4-6.6s2.3-7,6.1-7,5.4,3.7,5.4,6.1,0,.9,0,1.1h-9.2ZM1127.3,579.9c0-1.5-.6-3.8-3.3-3.8s-3.5,2.2-3.6,3.8h6.9Z"/>
          <path d="M1132.6,578.8c0-1.5,0-2.9-.1-4.1h2.1v2.6h.2c.6-1.8,2-2.9,3.6-2.9s.4,0,.7,0v2.2c-.2,0-.5,0-.8,0-1.7,0-2.9,1.3-3.2,3,0,.3,0,.7,0,1.1v7h-2.4v-9Z"/>
          <path d="M1148.5,587.8l-.2-1.6h0c-.7,1-2.1,1.9-4,1.9s-4-1.9-4-3.7c0-3.2,2.8-4.9,7.8-4.9v-.3c0-1.1-.3-3-3-3-1.2,0-2.5.4-3.4,1l-.5-1.6c1.1-.7,2.7-1.1,4.3-1.1,4,0,5,2.7,5,5.3v4.9c0,1.1,0,2.2.2,3.1h-2.1ZM1148.1,581.1c-2.6,0-5.5.4-5.5,2.9s1,2.3,2.2,2.3c1.7,0,2.8-1.1,3.2-2.2,0-.3.1-.5.1-.7v-2.3Z"/>
          <path d="M1163.6,587.3c-.6.3-2,.8-3.7.8-3.9,0-6.5-2.7-6.5-6.7s2.7-7,7-7,2.7.4,3.3.7l-.5,1.8c-.6-.3-1.5-.6-2.8-.6-3,0-4.6,2.2-4.6,4.9,0,3,1.9,4.9,4.5,4.9s2.2-.3,2.9-.6l.4,1.8Z"/>
          <path d="M1169,571c0,.8-.6,1.5-1.5,1.5s-1.4-.7-1.4-1.5c0-.8.6-1.5,1.5-1.5s1.5.6,1.5,1.5ZM1166.4,587.8v-13.1h2.4v13.1h-2.4Z"/>
          <path d="M1184.5,581.1c0,4.8-3.4,6.9-6.5,6.9s-6.3-2.6-6.3-6.7,2.9-6.9,6.5-6.9,6.3,2.7,6.3,6.7ZM1174.2,581.3c0,2.9,1.6,5,4,5s4-2.1,4-5.1-1.1-5-3.9-5-4,2.6-4,5.1Z"/>
          <path d="M1187.5,578.2c0-1.4,0-2.4-.1-3.5h2.1v2.1h.2c.6-1.2,2.2-2.4,4.3-2.4s4.6,1.1,4.6,5.6v7.8h-2.4v-7.5c0-2.1-.8-3.9-3-3.9s-2.8,1.1-3.2,2.4c0,.3-.2.7-.2,1.1v7.9h-2.4v-9.5Z"/>
          <path d="M1203.8,581.7c0,3.2,2.1,4.5,4.5,4.5s2.7-.3,3.6-.7l.4,1.7c-.8.4-2.3.8-4.4.8-4,0-6.4-2.7-6.4-6.6s2.3-7,6.1-7,5.4,3.7,5.4,6.1,0,.9,0,1.1h-9.2ZM1210.8,579.9c0-1.5-.6-3.8-3.3-3.8s-3.5,2.2-3.6,3.8h6.9Z"/>
          <path d="M1215.7,585.3c.7.4,2,.9,3.1.9,1.7,0,2.5-.9,2.5-1.9s-.7-1.7-2.4-2.4c-2.4-.9-3.5-2.1-3.5-3.7,0-2.1,1.7-3.8,4.5-3.8s2.5.4,3.2.8l-.6,1.7c-.5-.3-1.5-.8-2.7-.8s-2.2.8-2.2,1.8.8,1.6,2.5,2.2c2.3.8,3.4,2,3.4,3.9,0,2.3-1.8,3.9-4.9,3.9s-2.8-.4-3.7-.9l.6-1.8Z"/>
          <path d="M986.1,621.3c.7.4,2,.9,3.1.9,1.7,0,2.5-.9,2.5-1.9s-.7-1.7-2.4-2.4c-2.4-.9-3.5-2.1-3.5-3.7,0-2.1,1.7-3.8,4.5-3.8s2.5.4,3.2.8l-.6,1.7c-.5-.3-1.5-.8-2.7-.8s-2.2.8-2.2,1.8.8,1.6,2.5,2.2c2.2.8,3.4,2,3.4,3.9,0,2.3-1.8,3.9-4.9,3.9s-2.8-.4-3.7-.9l.6-1.8Z"/>
          <path d="M999.8,607c0,.8-.6,1.5-1.5,1.5s-1.4-.7-1.4-1.5c0-.8.6-1.5,1.5-1.5s1.5.6,1.5,1.5ZM997.1,623.8v-13.1h2.4v13.1h-2.4Z"/>
          <path d="M1003.4,614.2c0-1.4,0-2.4-.1-3.5h2.1v2.1h.2c.6-1.2,2.2-2.4,4.3-2.4s4.6,1.1,4.6,5.6v7.8h-2.4v-7.5c0-2.1-.8-3.9-3-3.9s-2.8,1.1-3.2,2.4c0,.3-.2.7-.2,1.1v7.9h-2.4v-9.5Z"/>
          <path d="M1031.4,623.8l-.2-1.6h0c-.7,1-2.1,1.9-4,1.9s-4-1.9-4-3.7c0-3.2,2.8-4.9,7.8-4.9v-.3c0-1.1-.3-3-3-3-1.2,0-2.5.4-3.4,1l-.5-1.6c1.1-.7,2.7-1.1,4.3-1.1,4,0,5,2.7,5,5.3v4.9c0,1.1,0,2.2.2,3.1h-2.1ZM1031,617.1c-2.6,0-5.5.4-5.5,2.9s1,2.3,2.2,2.3c1.7,0,2.8-1.1,3.2-2.2,0-.3.1-.5.1-.7v-2.3Z"/>
          <path d="M1048.1,620.2c0,1.4,0,2.5.1,3.6h-2.1v-2.1h-.2c-.6,1.1-2,2.4-4.3,2.4s-4.5-1.1-4.5-5.7v-7.6h2.4v7.2c0,2.5.8,4.2,2.9,4.2s2.7-1.1,3.1-2.2c.1-.3.2-.8.2-1.2v-8h2.4v9.5Z"/>
          <path d="M1052,614.2c0-1.4,0-2.4-.1-3.5h2.1v2.1h.2c.7-1.2,1.9-2.4,4.1-2.4s3.1,1.1,3.7,2.6h0c.4-.7.9-1.3,1.5-1.7.8-.6,1.6-.9,2.9-.9,1.7,0,4.3,1.1,4.3,5.7v7.7h-2.3v-7.4c0-2.5-.9-4-2.8-4s-2.4,1-2.8,2.1c-.1.3-.2.8-.2,1.2v8.1h-2.3v-7.8c0-2.1-.9-3.6-2.7-3.6s-2.6,1.2-3,2.4c-.1.3-.2.8-.2,1.2v7.9h-2.3v-9.5Z"/>
          <path d="M1075.9,617.7c0,3.2,2.1,4.5,4.5,4.5s2.7-.3,3.6-.7l.4,1.7c-.8.4-2.3.8-4.4.8-4,0-6.4-2.7-6.4-6.6s2.3-7,6.1-7,5.4,3.7,5.4,6.1,0,.9,0,1.1h-9.2ZM1082.8,615.9c0-1.5-.6-3.8-3.3-3.8s-3.5,2.2-3.6,3.8h6.9Z"/>
          <path d="M1088.1,614.2c0-1.4,0-2.4-.1-3.5h2.1v2.1h.2c.6-1.2,2.2-2.4,4.3-2.4s4.6,1.1,4.6,5.6v7.8h-2.4v-7.5c0-2.1-.8-3.9-3-3.9s-2.8,1.1-3.2,2.4c0,.3-.2.7-.2,1.1v7.9h-2.4v-9.5Z"/>
          <path d="M1105.8,606.9v3.8h3.4v1.8h-3.4v7c0,1.6.5,2.5,1.8,2.5s1.1,0,1.4-.2v1.8c-.4.2-1.1.3-2,.3s-2-.4-2.6-1c-.7-.7-.9-1.9-.9-3.4v-7.1h-2v-1.8h2v-3.1l2.3-.6Z"/>
          <path d="M1119.1,623.8l-.2-1.6h0c-.7,1-2.1,1.9-4,1.9s-4-1.9-4-3.7c0-3.2,2.8-4.9,7.8-4.9v-.3c0-1.1-.3-3-3-3-1.2,0-2.5.4-3.4,1l-.5-1.6c1.1-.7,2.7-1.1,4.3-1.1,4,0,5,2.7,5,5.3v4.9c0,1.1,0,2.2.2,3.1h-2.1ZM1118.8,617.1c-2.6,0-5.5.4-5.5,2.9s1,2.3,2.2,2.3c1.7,0,2.8-1.1,3.2-2.2,0-.3.1-.5.1-.7v-2.3Z"/>
          <path d="M1124.9,614.8c0-1.5,0-2.9-.1-4.1h2.1v2.6h.2c.6-1.8,2-2.9,3.6-2.9s.4,0,.7,0v2.2c-.2,0-.5,0-.8,0-1.7,0-2.9,1.3-3.2,3,0,.3,0,.7,0,1.1v7h-2.4v-9Z"/>
          <path d="M893.6,651c0-1.7,0-3-.1-4.3h2.1v2.2h.2c.9-1.6,2.5-2.5,4.6-2.5,3.2,0,5.5,2.7,5.5,6.6s-2.9,7-5.9,7-3.2-.8-4-2.1h0v7.1h-2.4v-14.1ZM896,654.4c0,.3,0,.7.1,1,.4,1.7,1.9,2.8,3.5,2.8,2.5,0,4-2.1,4-5.1s-1.4-4.8-3.9-4.8-3.1,1.1-3.6,2.9c0,.3-.2.7-.2,1v2.3Z"/>
          <path d="M909,650.8c0-1.5,0-2.9-.1-4.1h2.1v2.6h.2c.6-1.8,2-2.9,3.6-2.9s.4,0,.7,0v2.2c-.2,0-.5,0-.8,0-1.7,0-2.9,1.3-3.2,3,0,.3,0,.7,0,1.1v7h-2.4v-9Z"/>
          <path d="M929.3,653.1c0,4.8-3.4,6.9-6.5,6.9s-6.3-2.6-6.3-6.7,2.9-6.9,6.5-6.9,6.3,2.7,6.3,6.7ZM919,653.3c0,2.9,1.6,5,4,5s4-2.1,4-5.1-1.1-5-3.9-5-4,2.6-4,5.1Z"/>
          <path d="M932.3,651c0-1.7,0-3-.1-4.3h2.1v2.2h.2c.9-1.6,2.5-2.5,4.6-2.5,3.2,0,5.5,2.7,5.5,6.6s-2.9,7-5.9,7-3.2-.8-4-2.1h0v7.1h-2.4v-14.1ZM934.7,654.4c0,.3,0,.7.1,1,.4,1.7,1.9,2.8,3.5,2.8,2.5,0,4-2.1,4-5.1s-1.4-4.8-3.9-4.8-3.1,1.1-3.6,2.9c0,.3-.2.7-.2,1v2.3Z"/>
          <path d="M959.6,653.1c0,4.8-3.4,6.9-6.5,6.9s-6.3-2.6-6.3-6.7,2.9-6.9,6.5-6.9,6.3,2.7,6.3,6.7ZM949.2,653.3c0,2.9,1.6,5,4,5s4-2.1,4-5.1-1.1-5-3.9-5-4,2.6-4,5.1Z"/>
          <path d="M962.6,650.8c0-1.5,0-2.9-.1-4.1h2.1v2.6h.2c.6-1.8,2-2.9,3.6-2.9s.4,0,.7,0v2.2c-.2,0-.5,0-.8,0-1.7,0-2.9,1.3-3.2,3,0,.3,0,.7,0,1.1v7h-2.4v-9Z"/>
          <path d="M980.4,659.3c-.6.3-2,.8-3.7.8-3.9,0-6.5-2.7-6.5-6.7s2.7-7,7-7,2.7.4,3.3.7l-.5,1.8c-.6-.3-1.5-.6-2.8-.6-3,0-4.6,2.2-4.6,4.9,0,3,1.9,4.9,4.5,4.9s2.2-.3,2.9-.6l.4,1.8Z"/>
          <path d="M985.9,643c0,.8-.6,1.5-1.5,1.5s-1.4-.7-1.4-1.5c0-.8.6-1.5,1.5-1.5s1.5.6,1.5,1.5ZM983.2,659.8v-13.1h2.4v13.1h-2.4Z"/>
          <path d="M1001.3,653.1c0,4.8-3.4,6.9-6.5,6.9s-6.3-2.6-6.3-6.7,2.9-6.9,6.5-6.9,6.3,2.7,6.3,6.7ZM991,653.3c0,2.9,1.6,5,4,5s4-2.1,4-5.1-1.1-5-3.9-5-4,2.6-4,5.1Z"/>
          <path d="M1004.4,650.2c0-1.4,0-2.4-.1-3.5h2.1v2.1h.2c.6-1.2,2.2-2.4,4.3-2.4s4.6,1.1,4.6,5.6v7.8h-2.4v-7.5c0-2.1-.8-3.9-3-3.9s-2.8,1.1-3.2,2.4c0,.3-.2.7-.2,1.1v7.9h-2.4v-9.5Z"/>
          <path d="M1026.6,659.8l-.2-1.6h0c-.7,1-2.1,1.9-4,1.9s-4-1.9-4-3.7c0-3.2,2.8-4.9,7.8-4.9v-.3c0-1.1-.3-3-3-3-1.2,0-2.5.4-3.4,1l-.5-1.6c1.1-.7,2.7-1.1,4.3-1.1,4,0,5,2.7,5,5.3v4.9c0,1.1,0,2.2.2,3.1h-2.1ZM1026.2,653.1c-2.6,0-5.5.4-5.5,2.9s1,2.3,2.2,2.3c1.7,0,2.8-1.1,3.2-2.2,0-.3.1-.5.1-.7v-2.3Z"/>
          <path d="M1032.4,640.6h2.4v19.2h-2.4v-19.2Z"/>
          <path d="M1038.7,650.2c0-1.4,0-2.4-.1-3.5h2.1v2.1h.2c.7-1.2,1.9-2.4,4.1-2.4s3.1,1.1,3.7,2.6h0c.4-.7.9-1.3,1.5-1.7.8-.6,1.6-.9,2.9-.9,1.7,0,4.3,1.1,4.3,5.7v7.7h-2.3v-7.4c0-2.5-.9-4-2.8-4s-2.4,1-2.8,2.1c-.1.3-.2.8-.2,1.2v8.1h-2.3v-7.8c0-2.1-.9-3.6-2.7-3.6s-2.6,1.2-3,2.4c-.1.3-.2.8-.2,1.2v7.9h-2.3v-9.5Z"/>
          <path d="M1062.6,653.7c0,3.2,2.1,4.5,4.5,4.5s2.7-.3,3.6-.7l.4,1.7c-.8.4-2.3.8-4.4.8-4,0-6.4-2.7-6.4-6.6s2.3-7,6.1-7,5.4,3.7,5.4,6.1,0,.9,0,1.1h-9.2ZM1069.5,651.9c0-1.5-.6-3.8-3.3-3.8s-3.5,2.2-3.6,3.8h6.9Z"/>
          <path d="M1074.8,650.2c0-1.4,0-2.4-.1-3.5h2.1v2.1h.2c.6-1.2,2.2-2.4,4.3-2.4s4.6,1.1,4.6,5.6v7.8h-2.4v-7.5c0-2.1-.8-3.9-3-3.9s-2.8,1.1-3.2,2.4c0,.3-.2.7-.2,1.1v7.9h-2.4v-9.5Z"/>
          <path d="M1092.5,642.9v3.8h3.4v1.8h-3.4v7c0,1.6.5,2.5,1.8,2.5s1.1,0,1.4-.2v1.8c-.4.2-1.1.3-2,.3s-2-.4-2.6-1c-.7-.7-.9-1.9-.9-3.4v-7.1h-2v-1.8h2v-3.1l2.3-.6Z"/>
          <path d="M1099.7,653.7c0,3.2,2.1,4.5,4.5,4.5s2.7-.3,3.6-.7l.4,1.7c-.8.4-2.3.8-4.4.8-4,0-6.4-2.7-6.4-6.6s2.3-7,6.1-7,5.4,3.7,5.4,6.1,0,.9,0,1.1h-9.2ZM1106.7,651.9c0-1.5-.6-3.8-3.3-3.8s-3.5,2.2-3.6,3.8h6.9Z"/>
          <path d="M1117.7,640.6h2.4v19.2h-2.4v-19.2Z"/>
          <path d="M1135.9,653.1c0,4.8-3.4,6.9-6.5,6.9s-6.3-2.6-6.3-6.7,2.9-6.9,6.5-6.9,6.3,2.7,6.3,6.7ZM1125.5,653.3c0,2.9,1.6,5,4,5s4-2.1,4-5.1-1.1-5-3.9-5-4,2.6-4,5.1Z"/>
          <path d="M1138.5,657.3c.7.4,2,.9,3.1.9,1.7,0,2.5-.9,2.5-1.9s-.7-1.7-2.4-2.4c-2.4-.9-3.5-2.1-3.5-3.7,0-2.1,1.7-3.8,4.5-3.8s2.5.4,3.2.8l-.6,1.7c-.5-.3-1.5-.8-2.7-.8s-2.2.8-2.2,1.8.8,1.6,2.5,2.2c2.3.8,3.4,2,3.4,3.9,0,2.3-1.8,3.9-4.9,3.9s-2.8-.4-3.7-.9l.6-1.8Z"/>
          <path d="M1164.6,659.3c-.6.3-2,.8-3.7.8-3.9,0-6.5-2.7-6.5-6.7s2.7-7,7-7,2.7.4,3.3.7l-.5,1.8c-.6-.3-1.5-.6-2.8-.6-3,0-4.6,2.2-4.6,4.9,0,3,1.9,4.9,4.5,4.9s2.2-.3,2.9-.6l.4,1.8Z"/>
          <path d="M1179,653.1c0,4.8-3.4,6.9-6.5,6.9s-6.3-2.6-6.3-6.7,2.9-6.9,6.5-6.9,6.3,2.7,6.3,6.7ZM1168.7,653.3c0,2.9,1.6,5,4,5s4-2.1,4-5.1-1.1-5-3.9-5-4,2.6-4,5.1Z"/>
          <path d="M1181.7,657.3c.7.4,2,.9,3.1.9,1.7,0,2.5-.9,2.5-1.9s-.7-1.7-2.4-2.4c-2.4-.9-3.5-2.1-3.5-3.7,0-2.1,1.7-3.8,4.5-3.8s2.5.4,3.2.8l-.6,1.7c-.5-.3-1.5-.8-2.7-.8s-2.2.8-2.2,1.8.8,1.6,2.5,2.2c2.3.8,3.4,2,3.4,3.9,0,2.3-1.8,3.9-4.9,3.9s-2.8-.4-3.7-.9l.6-1.8Z"/>
          <path d="M1195.6,642.9v3.8h3.4v1.8h-3.4v7c0,1.6.5,2.5,1.8,2.5s1.1,0,1.4-.2v1.8c-.4.2-1.1.3-2,.3s-2-.4-2.6-1c-.7-.7-.9-1.9-.9-3.4v-7.1h-2v-1.8h2v-3.1l2.3-.6Z"/>
          <path d="M1213.3,653.1c0,4.8-3.4,6.9-6.5,6.9s-6.3-2.6-6.3-6.7,2.9-6.9,6.5-6.9,6.3,2.7,6.3,6.7ZM1203,653.3c0,2.9,1.6,5,4,5s4-2.1,4-5.1-1.1-5-3.9-5-4,2.6-4,5.1Z"/>
          <path d="M1216,657.3c.7.4,2,.9,3.1.9,1.7,0,2.5-.9,2.5-1.9s-.7-1.7-2.4-2.4c-2.4-.9-3.5-2.1-3.5-3.7,0-2.1,1.7-3.8,4.5-3.8s2.5.4,3.2.8l-.6,1.7c-.5-.3-1.5-.8-2.7-.8s-2.2.8-2.2,1.8.8,1.6,2.5,2.2c2.3.8,3.4,2,3.4,3.9,0,2.3-1.8,3.9-4.9,3.9s-2.8-.4-3.7-.9l.6-1.8Z"/>
          <path d="M1226.2,658.4c0-1,.7-1.7,1.6-1.7s1.6.7,1.6,1.7c0,1-.6,1.7-1.6,1.7s-1.6-.7-1.6-1.7Z"/>
        </g>
        <path class="cls-30" d="M287.5,141.1l95.9,3.5s2.6-.4,2.2-2.9c-.2-1.4-1.3-2.6-2.7-2.9l-95.4,2.3Z"/>
        <path class="cls-43" d="M305.6,131.3l73.8,3.4s2.6-.4,2.2-2.9c-.2-1.4-1.3-2.6-2.7-2.9l-73.3,2.4Z"/>
        <path class="cls-24" d="M307.7,151.4l73.8,3.4s2.6-.4,2.2-2.9c-.2-1.4-1.3-2.6-2.7-2.9l-73.4,2.4h0Z"/>
        <path class="cls-13" d="M300,123.4l75.2,2.1s2.7-.5,2.3-3c-.1-1.4-1.3-2.6-2.7-2.9l-74.9,3.9Z"/>
        <path class="cls-44" d="M323.6,159.6l51.5,2.4s1.8-.3,1.6-2c-.1-1-.9-1.8-1.9-2l-51.2,1.7h0Z"/>
        <path class="cls-39" d="M338.6,116.3l23.4,1.1c.5,0,.8-.5.8-1,0-.5-.4-.9-.9-1l-23.3.9Z"/>
        <path class="cls-20" d="M342.8,165.8l23.4,1.1c.5,0,.8-.5.8-1,0-.5-.4-.9-.9-.9l-23.3.9Z"/>
        <image width="4064" height="4168" transform="translate(274.3 6.3) scale(.2)" xlink:href="tecnologia-1.png"/>
        <path class="cls-3" d="M780,468.7c-4.6,26.9,13.6,52.5,40.5,57,26.9,4.6,52.5-13.6,57-40.5,4.6-26.9-13.6-52.5-40.5-57-26.9-4.6-52.5,13.6-57,40.5ZM870.2,484c-3.9,22.9-25.6,38.3-48.4,34.4-22.9-3.9-38.3-25.6-34.4-48.4,3.9-22.9,25.6-38.3,48.4-34.4,22.9,3.9,38.3,25.6,34.4,48.4Z"/>
        <path class="cls-25" d="M870.2,484c-2.7,16.2-14.4,28.6-29.1,33.1-12.4,3.8-21.6,14.2-23.7,27h0c37.1,6.3,72.3-18.7,78.6-55.8,6.3-37.1-18.7-72.3-55.8-78.6h0c-2.2,12.8,3.1,25.6,13.5,33.3,12.4,9.1,19.3,24.7,16.5,40.9Z"/>
        <path class="cls-1" d="M853.7,443.1c12.4,9.1,19.3,24.7,16.5,40.9-2.7,16.2-14.4,28.6-29.1,33.1-5.8,1.8-10.8,5-14.8,9.2,24.7,1.3,47-16.1,51.2-41.1,4.2-25-11.1-48.8-34.8-55.7,2.4,5.3,6.1,10,11,13.6Z"/>
        <path class="cls-19" d="M761.6,465.6c-6.3,37.1,18.7,72.3,55.8,78.6,37.1,6.3,72.3-18.7,78.6-55.8,6.3-37.1-18.7-72.3-55.8-78.6-37.1-6.3-72.3,18.7-78.6,55.8ZM892.5,487.8c-6,35.2-39.3,58.9-74.5,53-35.2-6-58.9-39.3-53-74.5,6-35.2,39.3-58.9,74.5-53,35.2,6,58.9,39.3,53,74.5Z"/>
        <path class="cls-17" d="M637.9,95.2l179.1,13.5s4.9-.6,4-5.3c-.4-2.6-2.6-4.9-5.2-5.5l-177.9-2.7Z"/>
        <path class="cls-33" d="M671,78.4l137.8,11.6s4.9-.6,4-5.3c-.4-2.6-2.6-4.9-5.2-5.5l-136.6-.8Z"/>
        <path class="cls-37" d="M676.4,115.7l137.8,11.6s4.9-.6,4-5.3c-.4-2.6-2.6-4.9-5.2-5.5l-136.7-.9h0Z"/>
        <path class="cls-27" d="M660,63.5l140.4,9.3s5-.7,4.1-5.5c-.4-2.6-2.5-4.9-5.2-5.5l-139.4,1.7Z"/>
        <path class="cls-8" d="M706.7,132l96.3,8.1s3.4-.4,2.8-3.7c-.3-1.8-1.8-3.4-3.6-3.9l-95.4-.5h0Z"/>
        <path class="cls-34" d="M731.5,53.2l43.7,3.7c.9-.1,1.5-.9,1.4-1.8,0-.9-.8-1.6-1.7-1.8h-43.4Z"/>
        <path class="cls-4" d="M742.9,144.9l43.7,3.7c.9-.1,1.5-.9,1.4-1.8-.1-.8-.8-1.6-1.7-1.8h-43.4Z"/>
        <path class="cls-3" d="M728.4,90c-6,35.7,18,69.6,53.7,75.6,35.7,6,69.6-18,75.6-53.7,6-35.7-18-69.6-53.7-75.6-35.7-6-69.6,18-75.6,53.7ZM848,110.2c-5.1,30.3-33.9,50.8-64.2,45.6-30.3-5.1-50.8-33.9-45.6-64.2,5.1-30.3,33.9-50.8,64.2-45.6,30.3,5.1,50.8,33.9,45.6,64.2Z"/>
        <path class="cls-6" d="M848,110.2c-3.6,21.5-19.1,38-38.5,44-16.4,5.1-28.6,18.9-31.5,35.8h0c49.2,8.3,95.9-24.8,104.2-74,8.3-49.2-24.8-95.9-74-104.2h0c-2.9,16.9,4.1,34,17.9,44.2,16.4,12.1,25.6,32.7,21.9,54.2Z"/>
        <path class="cls-1" d="M826.1,56c16.4,12.1,25.6,32.7,21.9,54.2-3.6,21.5-19.1,38-38.5,44-7.6,2.4-14.4,6.6-19.7,12.2,32.8,1.7,62.3-21.4,67.9-54.5,5.6-33.1-14.7-64.7-46.2-73.9,3.2,7,8.1,13.3,14.5,18Z"/>
        <path class="cls-19" d="M704,85.8c-8.3,49.2,24.8,95.9,74,104.2,49.2,8.3,95.9-24.8,104.2-74,8.3-49.2-24.8-95.9-74-104.2-49.2-8.3-95.9,24.8-104.2,74ZM877.7,115.2c-7.9,46.7-52.2,78.1-98.9,70.2-46.7-7.9-78.1-52.2-70.2-98.9,7.9-46.7,52.2-78.1,98.9-70.2,46.7,7.9,78.1,52.2,70.2,98.9Z"/>
        <path class="cls-46" d="M751.1,479.8l95.9,3.5s2.6-.4,2.2-2.9c-.2-1.4-1.3-2.6-2.7-2.9l-95.4,2.3Z"/>
        <path class="cls-15" d="M769.2,470l73.8,3.4s2.6-.4,2.2-2.9c-.2-1.4-1.3-2.6-2.7-2.9l-73.3,2.4Z"/>
        <path class="cls-14" d="M771.3,490.1l73.8,3.4s2.6-.4,2.2-2.9c-.2-1.4-1.3-2.6-2.7-2.9l-73.4,2.4h0Z"/>
        <path class="cls-35" d="M763.6,462.1l75.2,2.1s2.7-.5,2.3-3c-.1-1.4-1.3-2.6-2.7-2.9l-74.9,3.9Z"/>
        <path class="cls-29" d="M787.2,498.3l51.5,2.4s1.8-.3,1.6-2c-.1-1-.9-1.8-1.9-2l-51.2,1.7h0Z"/>
        <path class="cls-26" d="M802.2,455l23.4,1.1c.5,0,.8-.5.8-1,0-.5-.4-.9-.9-1l-23.3.9Z"/>
        <path class="cls-32" d="M806.4,504.5l23.4,1.1c.5,0,.8-.5.8-1,0-.5-.4-.9-.9-.9l-23.3.9Z"/>
        <path class="cls-28" d="M270.7,590.9l175.8,6.5s4.8-.8,4.1-5.4c-.3-2.5-2.3-4.8-4.9-5.3l-175,4.2Z"/>
        <path class="cls-36" d="M303.9,572.9l135.2,6.2s4.8-.8,4.1-5.4c-.3-2.5-2.3-4.8-4.9-5.3l-134.4,4.5Z"/>
        <path class="cls-16" d="M307.8,609.8l135.2,6.2s4.8-.8,4.1-5.4c-.3-2.5-2.3-4.7-4.9-5.3l-134.5,4.4h0Z"/>
        <path class="cls-12" d="M293.6,558.5l137.9,3.8s4.9-.9,4.3-5.6c-.2-2.6-2.3-4.8-4.9-5.3l-137.3,7.1Z"/>
        <path class="cls-21" d="M336.9,624.8l94.5,4.3s3.4-.6,2.9-3.8c-.2-1.8-1.6-3.3-3.4-3.7l-93.9,3.2h0Z"/>
        <path class="cls-9" d="M364.4,545.5l42.9,2c.9-.2,1.5-.9,1.4-1.8,0-.8-.7-1.6-1.6-1.7l-42.7,1.6Z"/>
        <path class="cls-7" d="M372.1,636.2l42.9,2c.9-.2,1.5-.9,1.4-1.8,0-.8-.8-1.6-1.6-1.7l-42.7,1.6Z"/>
        <path class="cls-11" d="M195.8,360.4l591.2-4.3s16.4-3.5,14.6-18.9c-.6-8.6-7.2-15.8-15.7-17.2l-590.1,40.4Z"/>
        <path class="cls-22" d="M310.4,294.3l454.6.8s16.4-3.5,14.6-18.9c-.6-8.6-7.2-15.8-15.7-17.2l-453.5,35.3Z"/>
        <path class="cls-40" d="M317.8,419.2l454.6.8s16.4-3.5,14.6-18.9c-.6-8.6-7.2-15.8-15.7-17.2l-453.7,35.3h.2Z"/>
        <path class="cls-42" d="M277.8,246.9l463.9-7.7s16.8-3.9,15.3-19.7c-.4-8.8-7-16-15.7-17.3l-463.4,44.6Z"/>
        <path class="cls-5" d="M413.8,465.9l317.7.5s11.5-2.4,10.3-13.2c-.4-6-5-11-11-12l-316.8,24.8h-.1Z"/>
        <path class="cls-38" d="M518.2,192l144.2.4c3-.7,5.1-3.3,5.1-6.5,0-2.9-2.3-5.3-5.1-5.7l-144.2,11.7Z"/>
        <path class="cls-41" d="M530.6,499.3l144.2.4c3.1-.7,5.2-3.4,5.1-6.5-.1-2.8-2.3-5.3-5.1-5.7l-144.2,11.7Z"/>
        <path class="cls-10" d="M406.1,502.9c-47.2-3.8-88.6,31.5-92.3,78.7-3.8,47.2,31.5,88.6,78.7,92.3,47.2,3.8,88.6-31.5,92.3-78.7,3.8-47.2-31.5-88.6-78.7-92.3ZM395,641.1c-29.1-2.3-50.8-27.8-48.5-56.9,2.3-29.1,27.8-50.8,56.9-48.5,29.1,2.3,50.8,27.8,48.5,56.9-2.3,29.1-27.8,50.8-56.9,48.5Z"/>
        <path class="cls-2" d="M351.7,611.6l-32.7,7.2c-3.6-9.4-5.6-19.7-5.6-30.4s.2-6.1.5-9.1c7.3,0,22.6,2,33.2,18.5.9,4.9,2.4,9.5,4.5,13.8ZM485,588.4c0-3.1-.2-6.1-.5-9.1-7.3,0-22.6,2-33.2,18.5-.9,4.9-2.4,9.5-4.5,13.8l32.7,7.2c3.6-9.4,5.6-19.7,5.6-30.4Z"/>
        <path class="cls-3" d="M399.2,526.2c-34.4,0-62.3,27.9-62.3,62.3s27.9,62.3,62.3,62.3,62.3-27.9,62.3-62.3-27.9-62.3-62.3-62.3ZM399.2,641.3c-29.2,0-52.9-23.7-52.9-52.9s23.7-52.9,52.9-52.9,52.9,23.7,52.9,52.9-23.7,52.9-52.9,52.9Z"/>
        <path class="cls-45" d="M399.2,641.3c-20.7,0-38.5-11.8-47.3-29.1-7.3-14.6-22.2-23.8-38.5-23.8h0c0,47.4,38.4,85.8,85.8,85.8s85.8-38.4,85.8-85.8h0c-16.3,0-31.2,9.2-38.5,23.8-8.7,17.3-26.6,29.1-47.3,29.1Z"/>
        <path class="cls-1" d="M446.5,612.2c-8.7,17.3-26.6,29.1-47.3,29.1s-38.5-11.8-47.3-29.1c-3.4-6.8-8.5-12.4-14.6-16.5,3.6,30.9,29.9,54.9,61.8,54.9s58.2-24,61.8-54.9c-6.1,4.1-11.1,9.7-14.6,16.5Z"/>
        <path class="cls-19" d="M399.2,502.6c-47.4,0-85.8,38.4-85.8,85.8s38.4,85.8,85.8,85.8,85.8-38.4,85.8-85.8-38.4-85.8-85.8-85.8ZM399.2,669.8c-45,0-81.4-36.4-81.4-81.4s36.4-81.4,81.4-81.4,81.4,36.4,81.4,81.4-36.4,81.4-81.4,81.4Z"/>
        <path class="cls-18" d="M363.9,93.8c-22.8-1.8-42.7,15.2-44.5,37.9-1.8,22.8,15.2,42.7,37.9,44.5,22.8,1.8,42.7-15.2,44.5-37.9,1.8-22.8-15.2-42.7-37.9-44.5ZM358.6,160.4c-14-1.1-24.5-13.4-23.4-27.4,1.1-14,13.4-24.5,27.4-23.4,14,1.1,24.5,13.4,23.4,27.4-1.1,14-13.4,24.5-27.4,23.4Z"/>
        <path class="cls-2" d="M337.7,146.1l-15.7,3.5c-1.7-4.6-2.7-9.5-2.7-14.6s0-3,.2-4.4c3.5,0,10.9.9,16,8.9.4,2.3,1.2,4.6,2.2,6.6ZM402,135c0-1.5,0-3-.2-4.4-3.5,0-10.9.9-16,8.9-.4,2.3-1.2,4.6-2.2,6.6l15.7,3.5c1.7-4.6,2.7-9.5,2.7-14.6Z"/>
        <path class="cls-3" d="M360.6,105c-16.6,0-30,13.4-30,30s13.4,30,30,30,30-13.4,30-30-13.4-30-30-30ZM360.6,160.5c-14.1,0-25.5-11.4-25.5-25.5s11.4-25.5,25.5-25.5,25.5,11.4,25.5,25.5-11.4,25.5-25.5,25.5Z"/>
        <path class="cls-31" d="M360.6,160.5c-10,0-18.6-5.7-22.8-14-3.5-7-10.7-11.5-18.6-11.5h0c0,22.8,18.5,41.3,41.3,41.3s41.3-18.5,41.3-41.3h0c-7.9,0-15,4.4-18.6,11.5-4.2,8.3-12.8,14-22.8,14Z"/>
        <path class="cls-1" d="M383.4,146.4c-4.2,8.3-12.8,14-22.8,14s-18.6-5.7-22.8-14c-1.6-3.3-4.1-6-7-7.9,1.7,14.9,14.4,26.5,29.8,26.5s28-11.6,29.8-26.5c-2.9,2-5.4,4.7-7,7.9Z"/>
        <path class="cls-19" d="M360.6,93.6c-22.8,0-41.3,18.5-41.3,41.3s18.5,41.3,41.3,41.3,41.3-18.5,41.3-41.3-18.5-41.3-41.3-41.3ZM360.6,174.2c-21.7,0-39.2-17.6-39.2-39.2s17.6-39.2,39.2-39.2,39.2,17.6,39.2,39.2-17.6,39.2-39.2,39.2Z"/>
      </g>
    </g>
  </g>
</svg>