<?xml version="1.0" encoding="UTF-8"?>
<svg xmlns="http://www.w3.org/2000/svg" version="1.1" viewBox="0 0 940.8 506.2">
  <defs>
    <style>
      .cls-1 {
        fill: #282828;
      }

      .cls-2 {
        fill: #147483;
      }

      .cls-3 {
        fill: #ff8311;
      }
    </style>
  </defs>
  <!-- Generator: Adobe Illustrator 28.6.0, SVG Export Plug-In . SVG Version: 1.2.0 Build 709)  -->
  <g>
    <g id="Layer_1">
      <g>
        <path class="cls-2" d="M123.8,472.7c0,1.8-.6,3.2-1.8,4.4-1.2,1.2-2.8,1.8-4.8,1.8s-4.5-1.1-5.9-3.3l-22.5-36.4h-19.1v32.8c0,1.9-.6,3.6-1.9,4.9-1.3,1.3-2.9,2-4.9,2s-3.5-.7-4.8-2c-1.3-1.3-2-2.9-2-4.9v-89.3c0-2,.7-3.7,2-4.9,1.3-1.3,2.9-1.9,4.8-1.9h23.6c6.5,0,12.2,1.4,17.4,4.1,5.1,2.7,9.1,6.5,11.9,11.5,2.8,4.9,4.3,10.5,4.3,16.9s-1.6,11.8-4.7,16.6c-3.1,4.8-7.4,8.5-12.8,10.9l20,32.4c.9,1.4,1.3,2.9,1.3,4.4ZM86.5,426.6c5.9,0,10.8-1.7,14.7-5.1,3.8-3.4,5.8-7.8,5.8-13.1s-1.9-10.5-5.8-14.2c-3.8-3.7-8.7-5.5-14.7-5.5h-16.8v38h16.8Z"/>
        <path class="cls-2" d="M134.3,476.9c-1.3-1.3-2-2.9-2-4.9v-89.3c0-2,.7-3.7,2-4.9,1.3-1.3,2.9-1.9,4.8-1.9h59.2c2,0,3.6.6,4.8,1.8,1.2,1.2,1.8,2.7,1.8,4.7s-.6,3.3-1.8,4.5c-1.2,1.1-2.8,1.7-4.8,1.7h-52.4v32h37.6c1.9,0,3.5.6,4.8,1.8,1.3,1.2,1.9,2.7,1.9,4.5s-.6,3.4-1.9,4.5c-1.3,1.2-2.9,1.8-4.8,1.8h-37.6v33h52.4c2,0,3.6.6,4.8,1.7,1.2,1.1,1.8,2.6,1.8,4.5s-.6,3.5-1.8,4.7c-1.2,1.2-2.8,1.8-4.8,1.8h-59.2c-1.9,0-3.5-.7-4.8-2Z"/>
        <path class="cls-2" d="M226.9,474.4c-6.9-3.9-11.7-8.9-14.3-15.2-.4-1.1-.7-1.9-.7-2.6,0-1.3.5-2.5,1.4-3.5,1-1,2.3-1.7,3.9-2,.3,0,.7-.1,1.3-.1,1.4,0,2.7.4,4,1.3,1.3.8,2.2,2,2.8,3.4,1.6,3.4,4.7,6.3,9.3,8.7,4.6,2.4,9.7,3.6,15.3,3.6s12.1-1.5,16.6-4.5c4.5-3,6.8-7.2,6.8-12.5s-1.9-9.3-5.8-12.9c-3.8-3.6-9.7-5.7-17.6-6.5-10.8-1.1-19.3-4.2-25.5-9.6-6.2-5.3-9.3-12-9.3-20s1.6-10.5,4.8-14.6c3.2-4.1,7.6-7.2,13.1-9.4,5.5-2.2,11.8-3.2,18.7-3.2s13.8,1.5,19,4.6c5.2,3.1,9.5,7.5,13.1,13.2,1,1.7,1.6,3.3,1.6,4.7s-.9,3.5-2.6,4.7c-1,.6-2.1.9-3.4.9s-2.5-.3-3.7-1c-1.1-.7-2-1.6-2.6-2.7-2.4-4-5.3-7-8.8-9-3.5-2.1-8-3.1-13.4-3.1s-12,1.3-16.1,3.9c-4.1,2.6-6.2,6.4-6.2,11.3s1.8,8.4,5.5,11.5c3.7,3.1,10.2,5.1,19.7,6.1,10.5,1.1,18.6,4.2,24.4,9.6,5.8,5.3,8.6,12.3,8.6,21s-1.7,11.8-5.1,16.3c-3.4,4.5-7.9,7.9-13.6,10.2-5.6,2.2-11.7,3.4-18.1,3.4s-16.2-1.9-23.1-5.8Z"/>
        <path class="cls-2" d="M321.7,476.4c-6.5-3.1-11.6-7.5-15.2-13-3.6-5.5-5.4-11.9-5.4-19v-61.6c0-2,.7-3.7,2-4.9,1.3-1.3,2.9-1.9,4.8-1.9s3.6.6,4.9,1.9c1.3,1.3,1.9,2.9,1.9,4.9v61.6c0,4.7,1.2,8.8,3.7,12.5s5.9,6.6,10.4,8.6c4.4,2.1,9.5,3.1,15.1,3.1s10.3-1,14.5-3.1c4.3-2.1,7.6-4.9,10-8.6,2.4-3.7,3.6-7.9,3.6-12.5v-61.6c0-2,.7-3.7,2-4.9,1.3-1.3,2.9-1.9,4.8-1.9s3.5.6,4.8,1.9c1.3,1.3,1.9,2.9,1.9,4.9v61.6c0,7-1.8,13.3-5.3,18.9-3.5,5.6-8.5,9.9-14.8,13.1-6.3,3.1-13.5,4.7-21.6,4.7s-15.7-1.6-22.2-4.7Z"/>
        <path class="cls-2" d="M407.1,476.9c-1.3-1.3-1.9-2.9-1.9-4.9v-89.3c0-1.9.7-3.6,2-4.9,1.3-1.3,2.9-2,4.7-2s3.5.7,4.8,2c1.3,1.3,2,2.9,2,4.9v82.4h47.4c1.9,0,3.5.7,4.8,2,1.3,1.3,2,2.9,2,4.9s-.7,3.6-2,4.9c-1.3,1.3-2.9,2-4.8,2h-54.2c-1.9,0-3.5-.7-4.8-2Z"/>
        <path class="cls-2" d="M535.5,377.7c1.2,1.2,1.8,2.7,1.8,4.5s-.6,3.4-1.8,4.5c-1.2,1.2-2.7,1.8-4.5,1.8h-28.2v83.5c0,1.9-.7,3.6-2,4.9-1.3,1.3-2.9,2-4.8,2s-3.5-.7-4.8-2c-1.3-1.3-2-2.9-2-4.9v-83.5h-28.3c-1.8,0-3.3-.6-4.5-1.8-1.2-1.2-1.8-2.7-1.8-4.5s.6-3.4,1.8-4.5c1.2-1.2,2.7-1.8,4.5-1.8h70.1c1.8,0,3.3.6,4.5,1.8Z"/>
        <path class="cls-2" d="M612.5,472.2c0,1.8-.7,3.4-2,4.7-1.3,1.3-2.9,2-4.8,2s-2.6-.4-3.7-1.1c-1.2-.7-2-1.8-2.6-3.1l-7.3-18.5h-47l-7.5,18.5c-.6,1.3-1.5,2.4-2.6,3.1-1.1.7-2.4,1.1-3.7,1.1-1.9,0-3.5-.7-4.8-2-1.3-1.4-1.9-3-1.9-4.8s.2-1.9.7-3l36.8-88.5c1.3-3.1,3.5-4.6,6.4-4.6s5.3,1.5,6.4,4.6l36.9,88.7c.4,1.1.7,2.1.7,2.9ZM549.6,444.9h37.9l-18.7-46.9-19.1,46.9Z"/>
        <path class="cls-2" d="M622.9,476.9c-1.3-1.3-2-2.9-2-4.9v-89.3c0-2,.7-3.7,2-4.9,1.3-1.3,2.9-1.9,4.8-1.9h23.7c9.9,0,18.6,2.2,26.3,6.6,7.7,4.4,13.7,10.5,17.9,18.3,4.3,7.8,6.4,16.6,6.4,26.6s-2.1,18.8-6.4,26.6c-4.3,7.8-10.3,13.9-17.9,18.3-7.7,4.4-16.5,6.6-26.3,6.6h-23.7c-1.9,0-3.5-.7-4.8-2ZM651.4,466.8c7.2,0,13.7-1.7,19.5-5,5.7-3.3,10.2-8,13.4-14,3.2-6,4.8-12.8,4.8-20.4s-1.6-14.3-4.8-20.3c-3.2-6-7.6-10.6-13.4-14-5.7-3.3-12.2-5-19.5-5h-16.9v78.7h16.9Z"/>
        <path class="cls-2" d="M734.6,473.5c-7.9-4.5-14-10.7-18.4-18.8-4.4-8-6.6-17.2-6.6-27.4s2.2-19.3,6.6-27.3c4.4-8,10.5-14.2,18.4-18.7,7.9-4.5,16.9-6.7,27.1-6.7s19,2.2,26.9,6.7c7.9,4.5,14.1,10.7,18.5,18.7,4.4,8,6.6,17.1,6.6,27.3s-2.2,19.3-6.6,27.4c-4.4,8-10.5,14.3-18.4,18.8-7.9,4.5-16.9,6.7-27,6.7s-19.2-2.2-27.1-6.7ZM781.6,462.5c5.9-3.6,10.6-8.4,13.9-14.6,3.3-6.2,5-13,5-20.6s-1.7-14.4-5-20.6c-3.3-6.2-7.9-11-13.8-14.5-5.9-3.5-12.6-5.3-20.1-5.3s-14.2,1.8-20.1,5.3c-5.9,3.5-10.5,8.4-13.8,14.5-3.3,6.2-5,13-5,20.6s1.7,14.4,5,20.6c3.3,6.2,7.9,11,13.9,14.6,5.9,3.6,12.6,5.3,20,5.3s14.1-1.8,20-5.3Z"/>
        <path class="cls-2" d="M837.8,474.4c-6.9-3.9-11.7-8.9-14.3-15.2-.4-1.1-.7-1.9-.7-2.6,0-1.3.5-2.5,1.4-3.5,1-1,2.3-1.7,3.9-2,.3,0,.7-.1,1.3-.1,1.4,0,2.7.4,4,1.3,1.3.8,2.2,2,2.8,3.4,1.6,3.4,4.7,6.3,9.3,8.7,4.6,2.4,9.7,3.6,15.3,3.6s12.1-1.5,16.6-4.5c4.5-3,6.8-7.2,6.8-12.5s-1.9-9.3-5.8-12.9c-3.8-3.6-9.7-5.7-17.6-6.5-10.8-1.1-19.3-4.2-25.5-9.6-6.2-5.3-9.3-12-9.3-20s1.6-10.5,4.8-14.6c3.2-4.1,7.6-7.2,13.1-9.4,5.5-2.2,11.8-3.2,18.7-3.2s13.8,1.5,19,4.6c5.2,3.1,9.5,7.5,13.1,13.2,1,1.7,1.6,3.3,1.6,4.7s-.9,3.5-2.6,4.7c-1,.6-2.1.9-3.4.9s-2.5-.3-3.7-1c-1.1-.7-2-1.6-2.6-2.7-2.4-4-5.3-7-8.8-9-3.5-2.1-8-3.1-13.4-3.1s-12,1.3-16.1,3.9c-4.1,2.6-6.2,6.4-6.2,11.3s1.8,8.4,5.5,11.5c3.7,3.1,10.2,5.1,19.7,6.1,10.5,1.1,18.6,4.2,24.4,9.6,5.8,5.3,8.6,12.3,8.6,21s-1.7,11.8-5.1,16.3c-3.4,4.5-7.9,7.9-13.6,10.2-5.6,2.2-11.7,3.4-18.1,3.4s-16.2-1.9-23.1-5.8Z"/>
      </g>
      <g>
        <path class="cls-1" d="M90.9,45.9c.6.6,1,1.5,1,2.4s-.3,1.8-1,2.4c-.6.6-1.4,1-2.4,1h-15.2v44.9c0,1-.4,1.9-1.1,2.6s-1.6,1.1-2.6,1.1-1.9-.4-2.6-1.1-1.1-1.6-1.1-2.6v-44.9h-15.2c-1,0-1.8-.3-2.4-1s-1-1.5-1-2.4.3-1.8,1-2.4,1.4-1,2.4-1h37.7c1,0,1.8.3,2.4,1Z"/>
        <path class="cls-1" d="M132.9,97c0,.9-.3,1.7-1,2.4s-1.5,1-2.6,1-2.4-.6-3.2-1.8l-12.1-19.6h-10.3v17.7c0,1-.3,1.9-1,2.6-.7.7-1.6,1.1-2.6,1.1s-1.9-.4-2.6-1.1-1.1-1.6-1.1-2.6v-48c0-1.1.4-2,1.1-2.7.7-.7,1.6-1,2.6-1h12.7c3.5,0,6.6.7,9.3,2.2,2.8,1.5,4.9,3.5,6.4,6.2,1.5,2.7,2.3,5.7,2.3,9.1s-.8,6.3-2.5,8.9c-1.7,2.6-4,4.6-6.9,5.9l10.8,17.5c.5.8.7,1.5.7,2.3ZM112.8,72.1c3.2,0,5.8-.9,7.9-2.7,2.1-1.8,3.1-4.2,3.1-7.1s-1-5.7-3.1-7.7c-2.1-2-4.7-3-7.9-3h-9v20.4h9Z"/>
        <path class="cls-1" d="M179,96.7c0,1-.4,1.8-1.1,2.6s-1.6,1.1-2.6,1.1-1.4-.2-2-.6c-.6-.4-1.1-1-1.4-1.7l-3.9-9.9h-25.3l-4,9.9c-.3.7-.8,1.3-1.4,1.7-.6.4-1.3.6-2,.6-1,0-1.9-.4-2.6-1.1-.7-.7-1-1.6-1-2.6s.1-1,.4-1.6l19.8-47.6c.7-1.7,1.9-2.5,3.5-2.5s2.8.8,3.5,2.5l19.9,47.8c.2.6.4,1.1.4,1.6ZM145.2,82h20.4l-10.1-25.3-10.3,25.3Z"/>
        <path class="cls-1" d="M184.5,99.3c-.7-.7-1-1.6-1-2.7v-48c0-1.1.3-2,1-2.7.7-.7,1.5-1,2.6-1s1,.1,1.6.4c.5.3.9.6,1.3,1l30.7,41.2v-38.8c0-1.1.4-2,1.1-2.7.7-.7,1.6-1,2.6-1s1.9.3,2.6,1c.7.7,1,1.6,1,2.7v48c0,1.1-.3,2-1,2.7-.7.7-1.5,1-2.6,1s-1-.1-1.6-.3-1-.5-1.2-1l-30.7-41.2v38.8c0,1-.3,1.9-1,2.6-.7.7-1.6,1.1-2.6,1.1s-1.9-.3-2.6-1Z"/>
        <path class="cls-1" d="M243.6,97.9c-3.7-2.1-6.3-4.8-7.7-8.2-.2-.6-.4-1-.4-1.4,0-.7.3-1.3.8-1.9.5-.5,1.2-.9,2.1-1.1.1,0,.4,0,.7,0,.8,0,1.5.2,2.2.7.7.5,1.2,1.1,1.5,1.8.8,1.8,2.5,3.4,5,4.7s5.2,1.9,8.2,1.9,6.5-.8,9-2.4c2.4-1.6,3.7-3.9,3.7-6.7s-1-5-3.1-6.9-5.2-3.1-9.4-3.5c-5.8-.6-10.4-2.3-13.8-5.1-3.3-2.9-5-6.4-5-10.8s.9-5.6,2.6-7.8c1.7-2.2,4.1-3.9,7.1-5,3-1.2,6.3-1.7,10-1.7s7.4.8,10.2,2.5c2.8,1.7,5.1,4,7.1,7.1.6.9.8,1.8.8,2.6s-.5,1.9-1.4,2.6c-.5.3-1.1.5-1.8.5s-1.4-.2-2-.5c-.6-.4-1.1-.8-1.4-1.5-1.3-2.1-2.9-3.7-4.8-4.9-1.9-1.1-4.3-1.7-7.2-1.7s-6.5.7-8.7,2.1c-2.2,1.4-3.3,3.4-3.3,6.1s1,4.5,3,6.2c2,1.7,5.5,2.7,10.6,3.3,5.6.6,10,2.3,13.1,5.1,3.1,2.9,4.7,6.6,4.7,11.3s-.9,6.3-2.8,8.8c-1.8,2.4-4.3,4.3-7.3,5.5-3,1.2-6.3,1.8-9.8,1.8s-8.7-1-12.4-3.1Z"/>
        <path class="cls-1" d="M280.1,99.3c-.7-.7-1.1-1.6-1.1-2.6v-48c0-1.1.4-2,1.1-2.7.7-.7,1.6-1,2.6-1h31.9c1.1,0,2,.3,2.6,1s1,1.5,1,2.5-.3,1.8-1,2.4c-.7.6-1.5.9-2.6.9h-28.2v17.2h20.2c1,0,1.9.3,2.6,1,.7.6,1,1.5,1,2.4s-.3,1.8-1,2.4-1.5,1-2.6,1h-20.2v20.9c0,1-.4,1.9-1.1,2.6s-1.6,1.1-2.6,1.1-1.9-.4-2.6-1.1Z"/>
        <path class="cls-1" d="M335,97.4c-4.3-2.4-7.6-5.8-9.9-10.1-2.3-4.3-3.5-9.2-3.5-14.7s1.2-10.4,3.5-14.7c2.4-4.3,5.7-7.7,9.9-10.1,4.3-2.4,9.1-3.6,14.6-3.6s10.2,1.2,14.5,3.6c4.3,2.4,7.6,5.8,9.9,10.1,2.4,4.3,3.6,9.2,3.6,14.7s-1.2,10.4-3.6,14.7c-2.4,4.3-5.7,7.7-9.9,10.1-4.2,2.4-9.1,3.6-14.5,3.6s-10.3-1.2-14.6-3.6ZM360.3,91.5c3.2-1.9,5.7-4.5,7.5-7.8,1.8-3.3,2.7-7,2.7-11.1s-.9-7.8-2.7-11.1c-1.8-3.3-4.3-5.9-7.4-7.8-3.2-1.9-6.8-2.8-10.8-2.8s-7.7.9-10.8,2.8c-3.2,1.9-5.7,4.5-7.4,7.8-1.8,3.3-2.7,7-2.7,11.1s.9,7.8,2.7,11.1c1.8,3.3,4.3,5.9,7.5,7.8s6.8,2.9,10.8,2.9,7.6-1,10.8-2.9Z"/>
        <path class="cls-1" d="M421.9,97c0,.9-.3,1.7-1,2.4s-1.5,1-2.6,1-2.4-.6-3.2-1.8l-12.1-19.6h-10.3v17.7c0,1-.3,1.9-1,2.6-.7.7-1.6,1.1-2.6,1.1s-1.9-.4-2.6-1.1-1.1-1.6-1.1-2.6v-48c0-1.1.4-2,1.1-2.7.7-.7,1.6-1,2.6-1h12.7c3.5,0,6.6.7,9.3,2.2,2.8,1.5,4.9,3.5,6.4,6.2,1.5,2.7,2.3,5.7,2.3,9.1s-.8,6.3-2.5,8.9c-1.7,2.6-4,4.6-6.9,5.9l10.8,17.5c.5.8.7,1.5.7,2.3ZM401.8,72.1c3.2,0,5.8-.9,7.9-2.7,2.1-1.8,3.1-4.2,3.1-7.1s-1-5.7-3.1-7.7c-2.1-2-4.7-3-7.9-3h-9v20.4h9Z"/>
        <path class="cls-1" d="M480.6,46c.7.7,1.1,1.6,1.1,2.6v48c0,1-.4,1.9-1.1,2.6-.7.7-1.6,1.1-2.6,1.1s-1.9-.4-2.6-1.1-1.1-1.6-1.1-2.6v-35.3l-17.1,35c-.8,1.2-1.9,1.8-3.2,1.8s-2.7-.7-3.4-2.2l-16.9-34v34.6c0,1-.4,1.9-1.1,2.6s-1.6,1.1-2.6,1.1-1.9-.4-2.6-1.1-1.1-1.6-1.1-2.6v-48c0-1,.4-1.9,1.1-2.6.7-.7,1.6-1.1,2.6-1.1s2.5.7,3.2,2l20.9,42.2,20.4-42.2c.8-1.3,1.8-2,3.2-2s1.9.4,2.6,1.1Z"/>
        <path class="cls-1" d="M533.8,96.7c0,1-.4,1.8-1.1,2.6s-1.6,1.1-2.6,1.1-1.4-.2-2-.6c-.6-.4-1.1-1-1.4-1.7l-3.9-9.9h-25.3l-4,9.9c-.3.7-.8,1.3-1.4,1.7-.6.4-1.3.6-2,.6-1,0-1.9-.4-2.6-1.1-.7-.7-1-1.6-1-2.6s.1-1,.4-1.6l19.8-47.6c.7-1.7,1.9-2.5,3.5-2.5s2.8.8,3.5,2.5l19.9,47.8c.2.6.4,1.1.4,1.6ZM499.9,82h20.4l-10.1-25.3-10.3,25.3Z"/>
        <path class="cls-1" d="M592.4,46c.7.7,1.1,1.6,1.1,2.6v48c0,1-.4,1.9-1.1,2.6s-1.6,1.1-2.6,1.1-1.9-.4-2.6-1.1-1.1-1.6-1.1-2.6v-35.3l-17.1,35c-.8,1.2-1.9,1.8-3.2,1.8s-2.7-.7-3.4-2.2l-16.9-34v34.6c0,1-.4,1.9-1.1,2.6s-1.6,1.1-2.6,1.1-1.9-.4-2.6-1.1c-.7-.7-1.1-1.6-1.1-2.6v-48c0-1,.4-1.9,1.1-2.6.7-.7,1.6-1.1,2.6-1.1s2.5.7,3.2,2l20.9,42.2,20.4-42.2c.8-1.3,1.8-2,3.2-2s1.9.4,2.6,1.1Z"/>
        <path class="cls-1" d="M614.9,97.4c-4.3-2.4-7.6-5.8-9.9-10.1-2.3-4.3-3.5-9.2-3.5-14.7s1.2-10.4,3.5-14.7c2.4-4.3,5.7-7.7,9.9-10.1,4.3-2.4,9.1-3.6,14.6-3.6s10.2,1.2,14.5,3.6c4.3,2.4,7.6,5.8,9.9,10.1,2.4,4.3,3.6,9.2,3.6,14.7s-1.2,10.4-3.6,14.7c-2.4,4.3-5.7,7.7-9.9,10.1-4.2,2.4-9.1,3.6-14.5,3.6s-10.3-1.2-14.6-3.6ZM640.2,91.5c3.2-1.9,5.7-4.5,7.5-7.8,1.8-3.3,2.7-7,2.7-11.1s-.9-7.8-2.7-11.1c-1.8-3.3-4.3-5.9-7.4-7.8-3.2-1.9-6.8-2.8-10.8-2.8s-7.7.9-10.8,2.8c-3.2,1.9-5.7,4.5-7.4,7.8-1.8,3.3-2.7,7-2.7,11.1s.9,7.8,2.7,11.1c1.8,3.3,4.3,5.9,7.5,7.8s6.8,2.9,10.8,2.9,7.6-1,10.8-2.9Z"/>
        <path class="cls-1" d="M670.4,97.9c-3.7-2.1-6.3-4.8-7.7-8.2-.2-.6-.4-1-.4-1.4,0-.7.3-1.3.8-1.9.5-.5,1.2-.9,2.1-1.1.1,0,.4,0,.7,0,.8,0,1.5.2,2.2.7.7.5,1.2,1.1,1.5,1.8.8,1.8,2.5,3.4,5,4.7,2.5,1.3,5.2,1.9,8.2,1.9s6.5-.8,9-2.4c2.4-1.6,3.7-3.9,3.7-6.7s-1-5-3.1-6.9c-2.1-1.9-5.2-3.1-9.4-3.5-5.8-.6-10.4-2.3-13.8-5.1-3.3-2.9-5-6.4-5-10.8s.9-5.6,2.6-7.8c1.7-2.2,4.1-3.9,7.1-5,3-1.2,6.3-1.7,10-1.7s7.5.8,10.2,2.5,5.1,4,7.1,7.1c.6.9.8,1.8.8,2.6s-.5,1.9-1.4,2.6c-.5.3-1.1.5-1.8.5s-1.4-.2-2-.5c-.6-.4-1.1-.8-1.4-1.5-1.3-2.1-2.9-3.7-4.8-4.9-1.9-1.1-4.3-1.7-7.2-1.7s-6.5.7-8.7,2.1c-2.2,1.4-3.3,3.4-3.3,6.1s1,4.5,3,6.2c2,1.7,5.5,2.7,10.6,3.3,5.6.6,10,2.3,13.1,5.1,3.1,2.9,4.7,6.6,4.7,11.3s-.9,6.3-2.8,8.8c-1.8,2.4-4.3,4.3-7.3,5.5-3,1.2-6.3,1.8-9.8,1.8s-8.7-1-12.4-3.1Z"/>
        <path class="cls-1" d="M732.8,93.4c.9,1.2,1.4,2.9,1.4,5.1s-.4,4-1.3,6.2-1.9,4.1-3.2,5.6c-1.3,1.5-2.4,2.2-3.5,2.2s-1-.2-1.3-.5c-.3-.4-.5-.8-.5-1.3s.1-1.1.4-1.6c.2-.5.6-1.1,1.1-1.7.6-.9,1.1-1.6,1.3-2.2.3-.6.4-1.3.4-2.1s-.2-1.3-.5-1.8c-.3-.5-.7-1-1.3-1.6-.6-.6-1.1-1.2-1.4-1.7-.3-.5-.5-1.2-.5-2,0-1.3.4-2.3,1.3-3.2s2-1.3,3.4-1.3,3.1.6,4.1,1.8Z"/>
      </g>
      <g>
        <path class="cls-1" d="M57.3,348.1c-.7-.7-1.1-1.6-1.1-2.6v-48c0-1.1.4-2,1.1-2.7.7-.7,1.6-1,2.6-1s2,.3,2.6,1c.7.7,1,1.6,1,2.7v48c0,1-.3,1.9-1,2.6s-1.6,1.1-2.6,1.1-1.9-.4-2.6-1.1Z"/>
        <path class="cls-1" d="M128.2,294.8c.7.7,1.1,1.6,1.1,2.6v48c0,1-.4,1.9-1.1,2.6-.7.7-1.6,1.1-2.6,1.1s-1.9-.4-2.6-1.1-1.1-1.6-1.1-2.6v-35.3l-17.1,35c-.8,1.2-1.9,1.8-3.2,1.8s-2.7-.7-3.4-2.2l-16.9-34v34.6c0,1-.4,1.9-1.1,2.6s-1.6,1.1-2.6,1.1-1.9-.4-2.6-1.1-1.1-1.6-1.1-2.6v-48c0-1,.4-1.9,1.1-2.6.7-.7,1.6-1.1,2.6-1.1s2.5.7,3.2,2l20.9,42.2,20.4-42.2c.8-1.3,1.8-2,3.2-2s1.9.4,2.6,1.1Z"/>
        <path class="cls-1" d="M140.9,348.1c-.7-.7-1.1-1.6-1.1-2.6v-48c0-1.1.4-2,1.1-2.7.7-.7,1.6-1,2.6-1h14.1c3.5,0,6.6.8,9.3,2.3,2.8,1.6,4.9,3.7,6.4,6.5,1.5,2.8,2.3,6,2.3,9.5s-.8,6.5-2.3,9.2c-1.5,2.7-3.7,4.8-6.4,6.3-2.8,1.5-5.9,2.3-9.3,2.3h-10.4v15.5c0,1-.3,1.9-1,2.6-.7.7-1.6,1.1-2.6,1.1s-1.9-.4-2.6-1.1ZM157.6,323.1c3.2,0,5.8-1,7.9-3.1,2.1-2.1,3.1-4.7,3.1-7.9s-1-6.1-3.1-8.3c-2.1-2.2-4.7-3.3-7.9-3.3h-10.4v22.6h10.4Z"/>
        <path class="cls-1" d="M191.3,347.8c-3.5-1.7-6.2-4-8.2-7-2-3-2.9-6.4-2.9-10.2v-33.1c0-1.1.4-2,1.1-2.7.7-.7,1.6-1,2.6-1s2,.3,2.6,1c.7.7,1,1.6,1,2.7v33.1c0,2.5.7,4.8,2,6.7,1.3,2,3.2,3.5,5.6,4.6,2.4,1.1,5.1,1.7,8.1,1.7s5.5-.6,7.8-1.7c2.3-1.1,4.1-2.7,5.4-4.6,1.3-2,1.9-4.2,1.9-6.7v-33.1c0-1.1.4-2,1.1-2.7.7-.7,1.6-1,2.6-1s1.9.3,2.6,1c.7.7,1,1.6,1,2.7v33.1c0,3.8-1,7.2-2.9,10.2-1.9,3-4.6,5.3-8,7s-7.3,2.5-11.6,2.5-8.4-.8-12-2.5Z"/>
        <path class="cls-1" d="M237.3,348.1c-.7-.7-1-1.6-1-2.6v-48c0-1,.4-1.9,1.1-2.6.7-.7,1.6-1.1,2.5-1.1s1.9.4,2.6,1.1c.7.7,1.1,1.6,1.1,2.6v44.4h25.5c1,0,1.9.4,2.6,1.1s1.1,1.6,1.1,2.6-.4,1.9-1.1,2.6-1.6,1.1-2.6,1.1h-29.2c-1,0-1.9-.4-2.6-1.1Z"/>
        <path class="cls-1" d="M283.1,346.7c-3.7-2.1-6.3-4.8-7.7-8.2-.2-.6-.4-1-.4-1.4,0-.7.3-1.3.8-1.9.5-.5,1.2-.9,2.1-1.1.1,0,.4,0,.7,0,.8,0,1.5.2,2.2.7.7.5,1.2,1.1,1.5,1.8.8,1.8,2.5,3.4,5,4.7,2.5,1.3,5.2,1.9,8.2,1.9s6.5-.8,9-2.4c2.4-1.6,3.7-3.9,3.7-6.7s-1-5-3.1-6.9c-2.1-1.9-5.2-3.1-9.4-3.5-5.8-.6-10.4-2.3-13.8-5.1-3.3-2.9-5-6.4-5-10.8s.9-5.6,2.6-7.8c1.7-2.2,4.1-3.9,7.1-5,3-1.2,6.3-1.7,10-1.7s7.5.8,10.2,2.5,5.1,4,7.1,7.1c.6.9.8,1.8.8,2.6s-.5,1.9-1.4,2.6c-.5.3-1.1.5-1.8.5s-1.4-.2-2-.5c-.6-.4-1.1-.8-1.4-1.5-1.3-2.1-2.9-3.7-4.8-4.9-1.9-1.1-4.3-1.7-7.2-1.7s-6.5.7-8.7,2.1c-2.2,1.4-3.3,3.4-3.3,6.1s1,4.5,3,6.2c2,1.7,5.5,2.7,10.6,3.3,5.6.6,10,2.3,13.1,5.1,3.1,2.9,4.7,6.6,4.7,11.3s-.9,6.3-2.8,8.8c-1.8,2.4-4.3,4.3-7.3,5.5-3,1.2-6.3,1.8-9.8,1.8s-8.7-1-12.4-3.1Z"/>
        <path class="cls-1" d="M364.6,345.5c0,1-.4,1.8-1.1,2.6s-1.6,1.1-2.6,1.1-1.4-.2-2-.6c-.6-.4-1.1-1-1.4-1.7l-3.9-9.9h-25.3l-4,9.9c-.3.7-.8,1.3-1.4,1.7-.6.4-1.3.6-2,.6-1,0-1.9-.4-2.6-1.1-.7-.7-1-1.6-1-2.6s.1-1,.4-1.6l19.8-47.6c.7-1.7,1.9-2.5,3.5-2.5s2.8.8,3.5,2.5l19.9,47.8c.2.6.4,1.1.4,1.6ZM330.7,330.8h20.4l-10.1-25.3-10.3,25.3Z"/>
        <path class="cls-1" d="M423.2,294.8c.7.7,1.1,1.6,1.1,2.6v48c0,1-.4,1.9-1.1,2.6-.7.7-1.6,1.1-2.6,1.1s-1.9-.4-2.6-1.1-1.1-1.6-1.1-2.6v-35.3l-17.1,35c-.8,1.2-1.9,1.8-3.2,1.8s-2.7-.7-3.4-2.2l-16.9-34v34.6c0,1-.4,1.9-1.1,2.6s-1.6,1.1-2.6,1.1-1.9-.4-2.6-1.1-1.1-1.6-1.1-2.6v-48c0-1,.4-1.9,1.1-2.6.7-.7,1.6-1.1,2.6-1.1s2.5.7,3.2,2l20.9,42.2,20.4-42.2c.8-1.3,1.8-2,3.2-2s1.9.4,2.6,1.1Z"/>
        <path class="cls-1" d="M445.7,346.3c-4.3-2.4-7.6-5.8-9.9-10.1-2.4-4.3-3.5-9.2-3.5-14.7s1.2-10.4,3.5-14.7c2.3-4.3,5.7-7.7,9.9-10.1s9.1-3.6,14.6-3.6,10.2,1.2,14.5,3.6,7.6,5.8,9.9,10.1c2.4,4.3,3.6,9.2,3.6,14.7s-1.2,10.4-3.6,14.7c-2.4,4.3-5.7,7.7-9.9,10.1-4.2,2.4-9.1,3.6-14.5,3.6s-10.3-1.2-14.6-3.6ZM471,340.3c3.2-1.9,5.7-4.5,7.5-7.8,1.8-3.3,2.7-7,2.7-11.1s-.9-7.8-2.7-11.1c-1.8-3.3-4.3-5.9-7.4-7.8s-6.8-2.8-10.8-2.8-7.7.9-10.8,2.8c-3.2,1.9-5.7,4.5-7.4,7.8-1.8,3.3-2.7,7-2.7,11.1s.9,7.8,2.7,11.1c1.8,3.3,4.3,5.9,7.5,7.8,3.2,1.9,6.8,2.9,10.8,2.9s7.6-1,10.8-2.9Z"/>
        <path class="cls-1" d="M501.2,346.7c-3.7-2.1-6.3-4.8-7.7-8.2-.2-.6-.4-1-.4-1.4,0-.7.3-1.3.8-1.9.5-.5,1.2-.9,2.1-1.1.1,0,.4,0,.7,0,.8,0,1.5.2,2.2.7.7.5,1.2,1.1,1.5,1.8.8,1.8,2.5,3.4,5,4.7,2.5,1.3,5.2,1.9,8.2,1.9s6.5-.8,9-2.4c2.4-1.6,3.7-3.9,3.7-6.7s-1-5-3.1-6.9c-2.1-1.9-5.2-3.1-9.4-3.5-5.8-.6-10.4-2.3-13.8-5.1-3.3-2.9-5-6.4-5-10.8s.9-5.6,2.6-7.8c1.7-2.2,4.1-3.9,7.1-5,3-1.2,6.3-1.7,10-1.7s7.5.8,10.2,2.5,5.1,4,7.1,7.1c.6.9.8,1.8.8,2.6s-.5,1.9-1.4,2.6c-.5.3-1.1.5-1.8.5s-1.4-.2-2-.5c-.6-.4-1.1-.8-1.4-1.5-1.3-2.1-2.9-3.7-4.8-4.9-1.9-1.1-4.3-1.7-7.2-1.7s-6.5.7-8.7,2.1c-2.2,1.4-3.3,3.4-3.3,6.1s1,4.5,3,6.2c2,1.7,5.5,2.7,10.6,3.3,5.6.6,10,2.3,13.1,5.1,3.1,2.9,4.7,6.6,4.7,11.3s-.9,6.3-2.8,8.8c-1.8,2.4-4.3,4.3-7.3,5.5-3,1.2-6.3,1.8-9.8,1.8s-8.7-1-12.4-3.1Z"/>
      </g>
      <g>
        <path class="cls-3" d="M55.7,230c-1.3-1.3-2-2.9-2-4.9v-89.3c0-2,.7-3.7,2-4.9,1.3-1.3,2.9-1.9,4.8-1.9h26.2c6.5,0,12.2,1.5,17.4,4.4,5.1,2.9,9.1,6.9,11.9,12.1,2.8,5.2,4.3,11.1,4.3,17.7s-1.4,12.1-4.3,17.1c-2.8,5-6.8,8.9-11.9,11.7-5.1,2.8-10.9,4.2-17.4,4.2h-19.4v28.9c0,1.9-.6,3.6-1.9,4.9-1.3,1.3-2.9,2-4.9,2s-3.5-.7-4.8-2ZM86.7,183.6c5.9,0,10.8-1.9,14.7-5.7,3.8-3.8,5.8-8.7,5.8-14.7s-1.9-11.4-5.8-15.4c-3.8-4-8.7-6.1-14.7-6.1h-19.4v41.9h19.4Z"/>
        <path class="cls-3" d="M196.5,225.8c0,1.8-.6,3.2-1.8,4.4-1.2,1.2-2.8,1.8-4.8,1.8s-4.5-1.1-5.9-3.3l-22.5-36.4h-19.1v32.8c0,1.9-.6,3.6-1.9,4.9-1.3,1.3-2.9,2-4.9,2s-3.5-.7-4.8-2c-1.3-1.3-2-2.9-2-4.9v-89.3c0-2,.7-3.7,2-4.9,1.3-1.3,2.9-1.9,4.8-1.9h23.6c6.5,0,12.2,1.4,17.4,4.1,5.1,2.7,9.1,6.5,11.9,11.5,2.8,4.9,4.3,10.5,4.3,16.9s-1.6,11.8-4.7,16.6c-3.1,4.8-7.4,8.5-12.8,10.9l20,32.4c.9,1.4,1.3,2.9,1.3,4.4ZM159.2,179.6c5.9,0,10.8-1.7,14.7-5.1,3.8-3.4,5.8-7.8,5.8-13.1s-1.9-10.5-5.8-14.2c-3.8-3.7-8.7-5.5-14.7-5.5h-16.8v38h16.8Z"/>
        <path class="cls-3" d="M225.3,226.6c-7.9-4.5-14-10.7-18.4-18.8-4.4-8-6.6-17.2-6.6-27.4s2.2-19.3,6.6-27.3c4.4-8,10.5-14.2,18.4-18.7,7.9-4.5,16.9-6.7,27.1-6.7s19,2.2,26.9,6.7c7.9,4.5,14.1,10.7,18.5,18.7,4.4,8,6.6,17.1,6.6,27.3s-2.2,19.3-6.6,27.4c-4.4,8-10.5,14.3-18.4,18.8-7.9,4.5-16.9,6.7-27,6.7s-19.2-2.2-27.1-6.7ZM272.4,215.6c5.9-3.6,10.6-8.4,13.9-14.6,3.3-6.2,5-13,5-20.6s-1.7-14.4-5-20.6c-3.3-6.2-7.9-11-13.8-14.5-5.9-3.5-12.6-5.3-20.1-5.3s-14.2,1.8-20.1,5.3c-5.9,3.5-10.5,8.4-13.8,14.5-3.3,6.2-5,13-5,20.6s1.7,14.4,5,20.6c3.3,6.2,7.9,11,13.9,14.6,5.9,3.6,12.6,5.3,20,5.3s14.1-1.8,20-5.3Z"/>
        <path class="cls-3" d="M336.8,226.3c-7.7-4.7-13.8-11-18.3-19.1-4.5-8.1-6.7-17-6.7-26.8s2.2-18.5,6.7-26.6c4.5-8,10.5-14.4,18.3-19.1,7.7-4.7,16.3-7.1,25.6-7.1s12.4.9,17.2,2.6c4.8,1.8,9.8,4.7,14.7,8.7,1,.8,1.7,1.6,2.1,2.4.3.8.5,1.8.5,3,0,1.8-.6,3.2-1.9,4.4-1.3,1.1-2.7,1.7-4.4,1.7s-3.2-.6-4.6-1.7c-3.6-3.1-7.1-5.3-10.5-6.7-3.4-1.4-7.8-2-13.2-2s-13.1,1.8-18.8,5.4c-5.7,3.6-10.3,8.5-13.6,14.7-3.4,6.2-5,12.9-5,20.2s1.7,14.2,5,20.3c3.4,6.2,7.9,11,13.6,14.6,5.7,3.6,12,5.4,18.8,5.4s16.4-2.9,24.1-8.7c1.5-1.1,2.9-1.6,4.3-1.6s3,.6,4.1,1.8c1.1,1.2,1.6,2.7,1.6,4.7s-.7,3.5-2.1,4.9c-9.4,7.6-20.1,11.5-32.1,11.5s-17.9-2.3-25.6-7Z"/>
        <path class="cls-3" d="M413.7,230c-1.3-1.3-2-2.9-2-4.9v-89.3c0-2,.7-3.7,2-4.9,1.3-1.3,2.9-1.9,4.8-1.9h59.2c2,0,3.6.6,4.8,1.8,1.2,1.2,1.8,2.7,1.8,4.7s-.6,3.3-1.8,4.5c-1.2,1.1-2.8,1.7-4.8,1.7h-52.4v32h37.6c1.9,0,3.5.6,4.8,1.8,1.3,1.2,1.9,2.7,1.9,4.5s-.6,3.4-1.9,4.5c-1.3,1.2-2.9,1.8-4.8,1.8h-37.6v33h52.4c2,0,3.6.6,4.8,1.7,1.2,1.1,1.8,2.6,1.8,4.5s-.6,3.5-1.8,4.7c-1.2,1.2-2.8,1.8-4.8,1.8h-59.2c-1.9,0-3.5-.7-4.8-2Z"/>
        <path class="cls-3" d="M506.3,227.5c-6.9-3.9-11.7-8.9-14.3-15.2-.4-1.1-.7-1.9-.7-2.6,0-1.3.5-2.5,1.4-3.5,1-1,2.3-1.7,3.9-2,.3,0,.7-.1,1.3-.1,1.4,0,2.7.4,4,1.3,1.3.8,2.2,2,2.8,3.4,1.6,3.4,4.7,6.3,9.3,8.7,4.6,2.4,9.7,3.6,15.3,3.6s12.1-1.5,16.6-4.5c4.5-3,6.8-7.2,6.8-12.5s-1.9-9.3-5.8-12.9c-3.8-3.6-9.7-5.7-17.6-6.5-10.8-1.1-19.3-4.2-25.5-9.6-6.2-5.3-9.3-12-9.3-20s1.6-10.5,4.8-14.6c3.2-4.1,7.6-7.2,13.1-9.4,5.5-2.2,11.8-3.2,18.7-3.2s13.8,1.5,19,4.6c5.2,3.1,9.5,7.5,13.1,13.2,1,1.7,1.6,3.3,1.6,4.7s-.9,3.5-2.6,4.7c-1,.6-2.1.9-3.4.9s-2.5-.3-3.7-1c-1.1-.7-2-1.6-2.6-2.7-2.4-4-5.3-7-8.8-9-3.5-2.1-8-3.1-13.4-3.1s-12,1.3-16.1,3.9c-4.1,2.6-6.2,6.4-6.2,11.3s1.8,8.4,5.5,11.5c3.7,3.1,10.2,5.1,19.7,6.1,10.5,1.1,18.6,4.2,24.4,9.6,5.8,5.3,8.6,12.3,8.6,21s-1.7,11.8-5.1,16.3c-3.4,4.5-7.9,7.9-13.6,10.2-5.6,2.2-11.7,3.4-18.1,3.4s-16.2-1.9-23.1-5.8Z"/>
        <path class="cls-3" d="M600.8,226.6c-7.9-4.5-14-10.7-18.4-18.8-4.4-8-6.6-17.2-6.6-27.4s2.2-19.3,6.6-27.3c4.4-8,10.5-14.2,18.4-18.7,7.9-4.5,16.9-6.7,27.1-6.7s19,2.2,26.9,6.7c7.9,4.5,14.1,10.7,18.5,18.7,4.4,8,6.6,17.1,6.6,27.3s-2.2,19.3-6.6,27.4c-4.4,8-10.5,14.3-18.4,18.8-7.9,4.5-16.9,6.7-27,6.7s-19.2-2.2-27.1-6.7ZM647.9,215.6c5.9-3.6,10.6-8.4,13.9-14.6,3.3-6.2,5-13,5-20.6s-1.7-14.4-5-20.6c-3.3-6.2-7.9-11-13.8-14.5-5.9-3.5-12.6-5.3-20.1-5.3s-14.2,1.8-20.1,5.3c-5.9,3.5-10.5,8.4-13.8,14.5-3.3,6.2-5,13-5,20.6s1.7,14.4,5,20.6c3.3,6.2,7.9,11,13.9,14.6,5.9,3.6,12.6,5.3,20,5.3s14.1-1.8,20-5.3Z"/>
        <path class="cls-3" d="M704,227.5c-6.9-3.9-11.7-8.9-14.3-15.2-.4-1.1-.7-1.9-.7-2.6,0-1.3.5-2.5,1.4-3.5,1-1,2.3-1.7,3.9-2,.3,0,.7-.1,1.3-.1,1.4,0,2.7.4,4,1.3,1.3.8,2.2,2,2.8,3.4,1.6,3.4,4.7,6.3,9.3,8.7,4.6,2.4,9.7,3.6,15.3,3.6s12.1-1.5,16.6-4.5c4.5-3,6.8-7.2,6.8-12.5s-1.9-9.3-5.8-12.9c-3.8-3.6-9.7-5.7-17.6-6.5-10.8-1.1-19.3-4.2-25.5-9.6-6.2-5.3-9.3-12-9.3-20s1.6-10.5,4.8-14.6c3.2-4.1,7.6-7.2,13.1-9.4,5.5-2.2,11.8-3.2,18.7-3.2s13.8,1.5,19,4.6c5.2,3.1,9.5,7.5,13.1,13.2,1,1.7,1.6,3.3,1.6,4.7s-.9,3.5-2.6,4.7c-1,.6-2.1.9-3.4.9s-2.5-.3-3.7-1c-1.1-.7-2-1.6-2.6-2.7-2.4-4-5.3-7-8.8-9-3.5-2.1-8-3.1-13.4-3.1s-12,1.3-16.1,3.9c-4.1,2.6-6.2,6.4-6.2,11.3s1.8,8.4,5.5,11.5c3.7,3.1,10.2,5.1,19.7,6.1,10.5,1.1,18.6,4.2,24.4,9.6,5.8,5.3,8.6,12.3,8.6,21s-1.7,11.8-5.1,16.3c-3.4,4.5-7.9,7.9-13.6,10.2-5.6,2.2-11.7,3.4-18.1,3.4s-16.2-1.9-23.1-5.8Z"/>
      </g>
    </g>
  </g>
</svg>